<svg xmlns="http://www.w3.org/2000/svg" xmlns:xlink="http://www.w3.org/1999/xlink" xmlns:lucid="lucid" width="1700" height="1120"><g transform="translate(-100 -120)" lucid:page-tab-id="FLH9KG6nyVvq"><path d="M0 0h1870.87v1322.83H0z" fill="#fff"/><path d="M120 146c0-3.3 2.7-6 6-6h303c3.3 0 6 2.7 6 6v8c0 3.3-1.9 7.9-4.24 10.24l-1.52 1.52C426.9 168.1 422.3 170 419 170H126c-3.3 0-6-2.7-6-6z" fill="#fff"/><path d="M435 140v20l-10 10H120" stroke="#5e5e5e" stroke-width="3" fill="none"/><path d="M120 146c0-3.3 2.7-6 6-6h1648c3.3 0 6 2.7 6 6v1068c0 3.3-2.7 6-6 6H126c-3.3 0-6-2.7-6-6z" stroke="#5e5e5e" stroke-width="3" fill="none"/><use xlink:href="#a" transform="matrix(1,0,0,1,128,140) translate(0 19.444444444444443)"/><use xlink:href="#b" transform="matrix(1,0,0,1,128,140) translate(29.62962962962963 19.444444444444443)"/><use xlink:href="#c" transform="matrix(1,0,0,1,128,140) translate(133.14814814814815 19.444444444444443)"/><path d="M193.33 283.7c0 4.13-3.34 7.47-7.46 7.47-4.1 0-7.45-3.34-7.45-7.46 0-4.1 3.34-7.45 7.45-7.45 4.12 0 7.46 3.34 7.46 7.46z" stroke="#5e5e5e" stroke-width="3" fill="#fff"/><path d="M185.87 291.17v14.88c0 3.3 1.8 8 4 10.48l17.28 19.4m-21.28-23.88l-21.27 23.87m0-37.3h42.55" stroke="#5e5e5e" stroke-width="3" fill="none"/><path d="M164.6 282.25c0-3.3 2.7-6 6-6h30.55c3.3 0 6 2.7 6 6v69.67c0 3.3-2.7 6-6 6H170.6c-3.3 0-6-2.7-6-6z" fill="none"/><path d="M185.87 358.92v10m0 10v20m0 10v20m0 10v20m0 10v20m0 10v20m0 10v20.02m0 10v20m0 10v20m0 10v20m0 10v20m0 10v20m0 10v20m0 10v20.02m0 10v20m0 10v20m0 10v20m0 10v20m0 10v20m0 10v20m0 10.02v20m0 10v20m0 10v20m0 10v20m0 10v20m0 10v20m0 10V1149m0 10v20m0 10v10" stroke="#5e5e5e" stroke-width="2" fill="none"/><path d="M186.88 358.94h-2v-4.02h2z" fill="#5e5e5e"/><path d="M185.87 1198.97v1.03" stroke="#5e5e5e" stroke-width="2" fill="none"/><path d="M164.6 426c0-3.3 2.7-6 6-6h28c3.3 0 6 2.7 6 6v248c0 3.3-2.7 6-6 6h-28c-3.3 0-6-2.7-6-6z" stroke="#5e5e5e" stroke-width="3" fill="#fff"/><path d="M124.6 226c0-3.3 2.7-6 6-6h108c3.3 0 6 2.7 6 6v51.33c0 3.32-2.7 6-6 6h-108c-3.3 0-6-2.68-6-6z" stroke="#000" stroke-opacity="0" stroke-width="3" fill="#fff" fill-opacity="0"/><use xlink:href="#d" transform="matrix(1,0,0,1,129.59999999441328,225) translate(20.52469135802469 31.27777777777778)"/><path d="M680 333.8v9.96m0 9.94v19.9m0 9.94v19.9m0 9.93v19.9m0 9.93v19.9m0 9.94v19.9m0 9.93v19.9m0 9.94v19.9m0 9.94v19.9m0 9.93v19.9m0 9.94v19.9m0 9.94v19.9m0 9.94v19.9m0 9.93v19.9m0 9.94v19.9m0 9.94v19.9m0 9.93v19.9m0 9.95v19.9m0 9.93v19.9m0 9.93v19.9m0 9.95v19.9m0 9.93v19.9m0 9.94v19.9m0 9.93v19.9m0 9.94v19.87m0 9.95v19.9m0 9.93v19.9m0 9.94v19.88m0 9.94v19.9m0 9.94v9.94" stroke="#5e5e5e" stroke-width="2" fill="none"/><path d="M681 333.84h-2v-.92l2-.2z" fill="#5e5e5e"/><path d="M680 1198.97v1.03" stroke="#5e5e5e" stroke-width="2" fill="none"/><path d="M658.5 426c0-3.3 2.7-6 6-6h28c3.3 0 6 2.7 6 6v188c0 3.3-2.7 6-6 6h-28c-3.3 0-6-2.7-6-6zM708.25 295.83c0 19.8-14.58 35.84-32.57 35.84-18 0-32.58-16.05-32.58-35.84 0-19.8 14.58-35.83 32.58-35.83s32.57 16.04 32.57 35.83z" stroke="#5e5e5e" stroke-width="3" fill="#fff"/><path d="M623.1 260v71.67m0-35.84h20" stroke="#5e5e5e" stroke-width="3" fill="none"/><path d="M1120 295.83c0 19.8-17.9 35.84-40 35.84s-40-16.05-40-35.84c0-19.8 17.9-35.83 40-35.83s40 16.04 40 35.83z" stroke="#5e5e5e" stroke-width="3" fill="#fff"/><path d="M1088 255.42l-8 4.58 8 5.5" stroke="#5e5e5e" stroke-width="3" fill="none"/><path d="M1080 334.17v9.94m0 9.95v19.88m0 9.94v19.88m0 9.94v19.87m0 9.94v19.9m0 9.94v19.88m0 9.94v19.88m0 9.94v19.88m0 9.94v19.88m0 9.94v19.88m0 9.95v19.88m0 9.94v19.88m0 9.94v19.87m0 9.94v19.9m0 9.93v19.88m0 9.95v19.9m0 9.93v19.88m0 9.94v19.88m0 9.94v19.88m0 9.94v19.88m0 9.94v19.88m0 9.94v19.9m0 9.93v19.9m0 9.93V1030m0 9.95v19.88m0 9.94v19.88m0 9.94v19.88m0 9.94v19.88m0 9.94v19.88m0 9.94v9.94" stroke="#5e5e5e" stroke-width="2" fill="none"/><path d="M1079.98 333.17l1.02-.04v1.06h-2v-1.1z" fill="#5e5e5e"/><path d="M1080 1198.97v1.03" stroke="#5e5e5e" stroke-width="2" fill="none"/><path d="M1060 526c0-3.3 2.7-6 6-6h28c3.3 0 6 2.7 6 6v548c0 3.3-2.7 6-6 6h-28c-3.3 0-6-2.7-6-6z" stroke="#5e5e5e" stroke-width="3" fill="#fff"/><path d="M560 186c0-3.3 2.7-6 6-6h228c3.3 0 6 2.7 6 6v104.67c0 3.3-2.7 6-6 6H566c-3.3 0-6-2.7-6-6z" stroke="#000" stroke-opacity="0" stroke-width="3" fill="#fff" fill-opacity="0"/><use xlink:href="#e" transform="matrix(1,0,0,1,565,185) translate(31.172839506172835 57.90277777777778)"/><use xlink:href="#f" transform="matrix(1,0,0,1,565,185) translate(77.96296296296296 57.90277777777778)"/><use xlink:href="#g" transform="matrix(1,0,0,1,565,185) translate(108.82716049382715 57.90277777777778)"/><path d="M960 206c0-3.3 2.7-6 6-6h228c3.3 0 6 2.7 6 6v48c0 3.3-2.7 6-6 6H966c-3.3 0-6-2.7-6-6z" stroke="#000" stroke-opacity="0" stroke-width="3" fill="#fff" fill-opacity="0"/><use xlink:href="#h" transform="matrix(1,0,0,1,965,205.00000000000023) translate(73.11728395061728 30.27777777777778)"/><path d="M1620 320c-22.1 0-40-15.67-40-35s17.9-35 40-35 40 15.67 40 35-17.9 35-40 35z" stroke="#5e5e5e" stroke-width="3" fill="#fff"/><path d="M1580 320h80" stroke="#5e5e5e" stroke-width="3" fill="none"/><path d="M1520 196c0-3.3 2.7-6 6-6h190.78c3.3 0 6 2.7 6 6v48c0 3.3-2.7 6-6 6H1526c-3.3 0-6-2.7-6-6z" stroke="#000" stroke-opacity="0" stroke-width="3" fill="#fff" fill-opacity="0"/><use xlink:href="#i" transform="matrix(1,0,0,1,1525,195) translate(47.76543209876543 30.27777777777778)"/><path d="M1620 322.5v10.08m0 10.07v20.15m0 10.07v20.15m0 10.08v20.15m0 10.07v20.15m0 10.08v20.15m0 10.07v20.15m0 10.07v20.14m0 10.08v20.15m0 10.07v20.15m0 10.07v20.15m0 10.07v20.14m0 10.08v20.14m0 10.08v20.15m0 10.06v20.15m0 10.1v20.14m0 10.07v20.16m0 10.08v20.15m0 10.06v20.15m0 10.08v20.15m0 10.08v20.16m0 10.07v20.15m0 10.08v20.15m0 10.08v20.15m0 10.07v20.15m0 10.08v20.15m0 10.07v20.15m0 10.08v20.15m0 10.07v20.15m0 10.08V1199" stroke="#5e5e5e" stroke-width="2" fill="none"/><path d="M1619.95 321.5h1.05v1.03h-2v-1.03z" fill="#5e5e5e"/><path d="M1620 1198.97v1.03" stroke="#5e5e5e" stroke-width="2" fill="none"/><path d="M1420 846c0-3.3 2.7-6 6-6h148c3.3 0 6 2.7 6 6v68c0 3.3-2.7 6-6 6h-148c-3.3 0-6-2.7-6-6z" stroke="#333" stroke-width="3" fill="#fff"/><use xlink:href="#j" transform="matrix(1,0,0,1,1420,840) translate(45.529691358024685 45.27777777777778)"/><path d="M1500 922.5v10.24m0 10.24v20.48m0 10.24v20.5m0 10.23v20.48m0 10.25v20.48m0 10.24v20.48m0 10.24v20.47m0 10.24v20.5m0 10.24v20.48m0 10.24V1199" stroke="#333" stroke-width="2" fill="none"/><path d="M1501 922.53h-2v-1.03h2z" fill="#333"/><path d="M1500 1198.97v1.03" stroke="#333" stroke-width="2" fill="none"/><path d="M1601.4 666c0-3.3 2.68-6 6-6h28c3.3 0 6 2.7 6 6v48c0 3.3-2.7 6-6 6h-28c-3.32 0-6-2.7-6-6zM167.15 1006c0-3.3 2.7-6 6-6h28c3.3 0 6 2.7 6 6v88c0 3.3-2.7 6-6 6h-28c-3.3 0-6-2.7-6-6z" stroke="#5e5e5e" stroke-width="3" fill="#fff"/><path d="M207.1 450.08h431.4" stroke="#5e5e5e" stroke-width="2" fill="none"/><path d="M207.13 451.08h-1.03v-2h1.03z" fill="#5e5e5e"/><path d="M653.76 450.08l-14.26 4.63v-9.26z" stroke="#5e5e5e" stroke-width="2" fill="#5e5e5e"/><use xlink:href="#k" transform="matrix(1,0,0,1,210.0438271577005,424.7426242213319) translate(0 14.222222222222223)"/><use xlink:href="#l" transform="matrix(1,0,0,1,210.0438271577005,424.7426242213319) translate(19.75308641975309 14.222222222222223)"/><use xlink:href="#m" transform="matrix(1,0,0,1,210.0438271577005,424.7426242213319) translate(74.02469135802471 14.222222222222223)"/><use xlink:href="#n" transform="matrix(1,0,0,1,210.0438271577005,424.7426242213319) translate(122.41975308641977 14.222222222222223)"/><use xlink:href="#o" transform="matrix(1,0,0,1,210.0438271577005,424.7426242213319) translate(175.75308641975312 14.222222222222223)"/><use xlink:href="#p" transform="matrix(1,0,0,1,210.0438271577005,424.7426242213319) translate(250.76543209876547 14.222222222222223)"/><use xlink:href="#q" transform="matrix(1,0,0,1,210.0438271577005,424.7426242213319) translate(310.9135802469136 14.222222222222223)"/><use xlink:href="#r" transform="matrix(1,0,0,1,210.0438271577005,424.7426242213319) translate(363.11111111111114 14.222222222222223)"/><path d="M207.1 517.27h431.4" stroke="#5e5e5e" stroke-width="2" fill="none"/><path d="M207.13 518.27h-1.03v-2h1.03z" fill="#5e5e5e"/><path d="M653.76 517.27l-14.26 4.64v-9.26z" stroke="#5e5e5e" stroke-width="2" fill="#5e5e5e"/><use xlink:href="#s" transform="matrix(1,0,0,1,341.2783950589351,491.9414651062298) translate(0 14.222222222222223)"/><use xlink:href="#t" transform="matrix(1,0,0,1,341.2783950589351,491.9414651062298) translate(19.75308641975309 14.222222222222223)"/><use xlink:href="#u" transform="matrix(1,0,0,1,341.2783950589351,491.9414651062298) translate(76.98765432098767 14.222222222222223)"/><use xlink:href="#v" transform="matrix(1,0,0,1,341.2783950589351,491.9414651062298) translate(106.56790123456793 14.222222222222223)"/><path d="M701 545.4h339" stroke="#5e5e5e" stroke-width="2" fill="none"/><path d="M701.03 546.4H700v-2h1.03z" fill="#5e5e5e"/><path d="M1055.26 545.4l-14.26 4.64v-9.27z" stroke="#5e5e5e" stroke-width="2" fill="#5e5e5e"/><use xlink:href="#w" transform="matrix(1,0,0,1,728.8549382716051,520.0712124533964) translate(0 14.222222222222223)"/><use xlink:href="#x" transform="matrix(1,0,0,1,728.8549382716051,520.0712124533964) translate(34.567901234567906 14.222222222222223)"/><use xlink:href="#q" transform="matrix(1,0,0,1,728.8549382716051,520.0712124533964) translate(168.69135802469137 14.222222222222223)"/><use xlink:href="#r" transform="matrix(1,0,0,1,728.8549382716051,520.0712124533964) translate(220.8888888888889 14.222222222222223)"/><path d="M1080 596c0-3.3 2.7-6 6-6h28c3.3 0 6 2.7 6 6v38c0 3.3-2.7 6-6 6h-28c-3.3 0-6-2.7-6-6z" stroke="#5e5e5e" stroke-width="3" fill="#fff"/><path d="M1102.5 565.72h53c3.3 0 6 2.7 6 6v47.4c0 3.3-2.7 6-6 6H1140" stroke="#5e5e5e" stroke-width="2" fill="none"/><path d="M1102.53 566.72h-1.03v-2h1.03z" fill="#5e5e5e"/><path d="M1124.74 625.1l14.26-4.63v9.27z" stroke="#5e5e5e" stroke-width="2" fill="#5e5e5e"/><use xlink:href="#y" transform="matrix(1,0,0,1,1169.5,574.7463188483596) translate(0 14.222222222222223)"/><use xlink:href="#z" transform="matrix(1,0,0,1,1169.5,574.7463188483596) translate(49.38271604938272 14.222222222222223)"/><use xlink:href="#A" transform="matrix(1,0,0,1,1169.5,574.7463188483596) translate(108.14814814814815 14.222222222222223)"/><path d="M1102.5 668.86h478.9" stroke="#5e5e5e" stroke-width="2" fill="none"/><path d="M1102.53 669.86h-1.03v-2h1.03z" fill="#5e5e5e"/><path d="M1596.65 668.86l-14.26 4.64v-9.27z" stroke="#5e5e5e" stroke-width="2" fill="#5e5e5e"/><use xlink:href="#B" transform="matrix(1,0,0,1,1222.916617710414,643.5295480326278) translate(0 14.222222222222223)"/><use xlink:href="#C" transform="matrix(1,0,0,1,1222.916617710414,643.5295480326278) translate(49.38271604938272 14.222222222222223)"/><use xlink:href="#D" transform="matrix(1,0,0,1,1222.916617710414,643.5295480326278) translate(112.44444444444446 14.222222222222223)"/><use xlink:href="#E" transform="matrix(1,0,0,1,1222.916617710414,643.5295480326278) translate(136.14814814814815 14.222222222222223)"/><use xlink:href="#F" transform="matrix(1,0,0,1,1222.916617710414,643.5295480326278) translate(209.1851851851852 14.222222222222223)"/><path d="M1598.9 710h-2.98m-3.97 0H1586m-3.96 0h-5.95m-3.97 0h-5.95m-3.96 0h-5.95m-3.96 0h-5.94m-3.97 0h-5.95m-3.97 0h-5.94m-3.97 0h-5.95m-3.96 0h-5.95m-3.95 0h-5.95m-3.96 0h-5.95m-3.97 0h-5.95m-3.97 0h-5.93m-3.97 0h-5.94m-3.97 0h-5.96m-3.96 0h-5.95m-3.96 0h-5.95m-3.96 0h-5.95m-3.95 0h-5.95m-3.97 0h-5.94m-3.98 0h-5.94m-3.97 0h-5.94m-3.96 0h-5.95m-3.96 0h-5.96m-3.96 0h-5.95m-3.96 0h-5.95m-3.97 0h-5.94m-3.96 0h-5.94m-3.97 0h-5.95m-3.96 0h-5.95m-3.96 0h-5.94m-3.96 0h-5.95m-3.96 0h-5.96m-3.97 0h-5.94m-3.97 0h-5.94m-3.97 0h-5.95m-3.96 0h-5.95m-3.97 0h-5.95m-3.96 0h-5.95m-3.96 0h-5.94m-3.97 0h-5.95m-3.97 0h-5.94m-3.97 0h-5.95m-3.96 0h-5.95m-3.95 0h-5.95m-3.96 0H1140m-3.97 0h-5.95m-3.97 0h-5.93m-3.97 0h-5.94m-3.97 0h-2.98" stroke="#5e5e5e" stroke-width="2" fill="none"/><path d="M1599.9 711h-1.04v-2h1.03z" fill="#5e5e5e"/><path d="M1120.68 699.82L1103.46 710l17.22 10.18" stroke="#5e5e5e" stroke-width="2" fill="none"/><g><use xlink:href="#G" transform="matrix(1,0,0,1,1243.63266709313,714.0000000000001) translate(0 14.222222222222223)"/><use xlink:href="#H" transform="matrix(1,0,0,1,1243.63266709313,714.0000000000001) translate(64.19753086419755 14.222222222222223)"/><use xlink:href="#I" transform="matrix(1,0,0,1,1243.63266709313,714.0000000000001) translate(92.83950617283952 14.222222222222223)"/><use xlink:href="#J" transform="matrix(1,0,0,1,1243.63266709313,714.0000000000001) translate(127.40740740740742 14.222222222222223)"/><use xlink:href="#K" transform="matrix(1,0,0,1,1243.63266709313,714.0000000000001) translate(183.55555555555557 14.222222222222223)"/></g><path d="M1102.5 880H1400" stroke="#5e5e5e" stroke-width="2" fill="none"/><path d="M1102.53 881h-1.03v-2h1.03z" fill="#5e5e5e"/><path d="M1415.26 880l-14.26 4.64v-9.28z" stroke="#5e5e5e" stroke-width="2" fill="#5e5e5e"/><g><use xlink:href="#L" transform="matrix(1,0,0,1,1111.6049382716049,854.6666666666669) translate(0 14.222222222222223)"/><use xlink:href="#M" transform="matrix(1,0,0,1,1111.6049382716049,854.6666666666669) translate(49.38271604938272 14.222222222222223)"/><use xlink:href="#q" transform="matrix(1,0,0,1,1111.6049382716049,854.6666666666669) translate(164.6913580246914 14.222222222222223)"/><use xlink:href="#r" transform="matrix(1,0,0,1,1111.6049382716049,854.6666666666669) translate(216.8888888888889 14.222222222222223)"/></g><path d="M1140 826c0-3.3 2.7-6 6-6h228c3.3 0 6 2.7 6 6v28c0 3.3-2.7 6-6 6h-228c-3.3 0-6-2.7-6-6z" stroke="#000" stroke-opacity="0" stroke-width="3" fill="#fff" fill-opacity="0"/><g><use xlink:href="#N" transform="matrix(1,0,0,1,1145,825) translate(63.916666666666686 19.75)"/></g><path d="M1102.5 993.92h478.9" stroke="#5e5e5e" stroke-width="2" fill="none"/><path d="M1102.53 994.92h-1.03v-2h1.03z" fill="#5e5e5e"/><path d="M1596.65 993.92l-14.26 4.63v-9.27z" stroke="#5e5e5e" stroke-width="2" fill="#5e5e5e"/><g><use xlink:href="#O" transform="matrix(1,0,0,1,1251.558593019056,968.5844062665528) translate(0 14.222222222222223)"/><use xlink:href="#P" transform="matrix(1,0,0,1,1251.558593019056,968.5844062665528) translate(49.38271604938272 14.222222222222223)"/><use xlink:href="#Q" transform="matrix(1,0,0,1,1251.558593019056,968.5844062665528) translate(103.55555555555557 14.222222222222223)"/><use xlink:href="#R" transform="matrix(1,0,0,1,1251.558593019056,968.5844062665528) translate(147.01234567901236 14.222222222222223)"/></g><path d="M1601.4 986c0-3.3 2.68-6 6-6h28c3.3 0 6 2.7 6 6v28c0 3.3-2.7 6-6 6h-28c-3.32 0-6-2.7-6-6zM658.5 1026c0-3.3 2.7-6 6-6h28c3.3 0 6 2.7 6 6v48c0 3.3-2.7 6-6 6h-28c-3.3 0-6-2.7-6-6z" stroke="#5e5e5e" stroke-width="3" fill="#fff"/><path d="M1057.5 1037.68h-2.97m-3.96 0h-5.94m-3.96 0h-5.95m-3.96 0h-5.94m-3.96 0h-5.94m-3.96 0h-5.94m-3.97 0h-5.94m-3.95 0h-5.94m-3.95 0h-5.94m-3.95 0h-5.95m-3.96 0h-5.94m-3.96 0h-5.94m-3.96 0h-5.94m-3.97 0h-5.94m-3.97 0h-5.94m-3.97 0H906m-3.97 0h-5.95m-3.96 0h-5.94m-3.96 0h-5.93m-3.95 0h-5.9m-3.96 0h-5.92m-3.94 0h-5.92m-3.94 0h-5.92m-3.94 0h-5.9m-3.96 0h-5.9m-3.95 0h-5.9m-3.95 0h-5.92m-3.94 0h-5.92m-3.95 0h-5.9m-3.95 0h-5.92m-3.94 0h-5.9m-3.96 0h-5.9m-3.95 0h-5.9m-3.95 0h-5.92m-3.94 0h-5.92m-3.95 0h-5.9m-3.95 0h-2.96" stroke="#5e5e5e" stroke-width="2" fill="none"/><path d="M1058.5 1038.68h-1.03v-2h1.03z" fill="#5e5e5e"/><path d="M719.18 1027.5l-17.2 10.18 17.2 10.18" stroke="#5e5e5e" stroke-width="2" fill="none"/><g><use xlink:href="#S" transform="matrix(1,0,0,1,774.6327160493828,1041.675124362145) translate(0 14.222222222222223)"/><use xlink:href="#H" transform="matrix(1,0,0,1,774.6327160493828,1041.675124362145) translate(49.38271604938272 14.222222222222223)"/><use xlink:href="#T" transform="matrix(1,0,0,1,774.6327160493828,1041.675124362145) translate(78.0246913580247 14.222222222222223)"/><use xlink:href="#U" transform="matrix(1,0,0,1,774.6327160493828,1041.675124362145) translate(150.0246913580247 14.222222222222223)"/><use xlink:href="#K" transform="matrix(1,0,0,1,774.6327160493828,1041.675124362145) translate(178.66666666666669 14.222222222222223)"/></g><path d="M656 1051.74h-2.97m-3.96 0h-5.94m-3.96 0h-5.94m-3.96 0h-5.94m-3.96 0h-5.94m-3.96 0h-5.94m-3.96 0h-5.94m-3.96 0h-5.95m-3.96 0h-5.94m-3.96 0h-5.94m-3.96 0h-5.94m-3.96 0h-5.94m-3.96 0h-5.94m-3.96 0h-5.94m-3.96 0h-5.94m-3.96 0h-5.94m-3.96 0h-5.94m-3.96 0h-5.94m-3.96 0h-5.94m-3.96 0h-5.94m-3.96 0h-5.94m-3.96 0h-5.95m-3.95 0h-5.94m-3.95 0h-5.94m-3.95 0h-5.94m-3.95 0h-5.94m-3.95 0h-5.94m-3.95 0h-5.94m-3.95 0h-5.94m-3.95 0h-5.94m-3.95 0H356m-3.95 0h-5.94m-3.95 0h-5.94m-3.95 0h-5.94m-3.95 0h-5.94m-3.95 0h-5.94m-3.96 0h-5.94m-3.96 0h-5.94m-3.96 0h-5.94m-3.96 0h-5.94m-3.96 0H257m-3.96 0h-5.94m-3.96 0h-5.94m-3.96 0h-5.94m-3.96 0h-5.94m-3.96 0h-2.97" stroke="#5e5e5e" stroke-width="2" fill="none"/><path d="M657 1052.74h-1.03v-2H657z" fill="#5e5e5e"/><path d="M227.83 1041.56l-17.22 10.18 17.23 10.18" stroke="#5e5e5e" stroke-width="2" fill="none"/><g><use xlink:href="#V" transform="matrix(1,0,0,1,324.7262345630299,1055.7399980357281) translate(0 14.222222222222223)"/><use xlink:href="#W" transform="matrix(1,0,0,1,324.7262345630299,1055.7399980357281) translate(34.567901234567906 14.222222222222223)"/><use xlink:href="#X" transform="matrix(1,0,0,1,324.7262345630299,1055.7399980357281) translate(126.32098765432099 14.222222222222223)"/><use xlink:href="#Y" transform="matrix(1,0,0,1,324.7262345630299,1055.7399980357281) translate(151.01234567901236 14.222222222222223)"/></g><defs><path fill="#333" d="M135-143c-3-34-86-38-87 0 15 53 115 12 119 90S17 21 10-45l28-5c4 36 97 45 98 0-10-56-113-15-118-90-4-57 82-63 122-42 12 7 21 19 24 35" id="Z"/><path fill="#333" d="M85-194c31 0 48 13 60 33l-1-100h32l1 261h-30c-2-10 0-23-3-31C134-8 116 4 85 4 32 4 16-35 15-94c0-66 23-100 70-100zm9 24c-40 0-46 34-46 75 0 40 6 74 45 74 42 0 51-32 51-76 0-42-9-74-50-73" id="aa"/><g id="a"><use transform="matrix(0.06172839506172839,0,0,0.06172839506172839,0,0)" xlink:href="#Z"/><use transform="matrix(0.06172839506172839,0,0,0.06172839506172839,11.11111111111111,0)" xlink:href="#aa"/></g><path fill="#333" d="M212-179c-10-28-35-45-73-45-59 0-87 40-87 99 0 60 29 101 89 101 43 0 62-24 78-52l27 14C228-24 195 4 139 4 59 4 22-46 18-125c-6-104 99-153 187-111 19 9 31 26 39 46" id="ab"/><path fill="#333" d="M141-36C126-15 110 5 73 4 37 3 15-17 15-53c-1-64 63-63 125-63 3-35-9-54-41-54-24 1-41 7-42 31l-33-3c5-37 33-52 76-52 45 0 72 20 72 64v82c-1 20 7 32 28 27v20c-31 9-61-2-59-35zM48-53c0 20 12 33 32 33 41-3 63-29 60-74-43 2-92-5-92 41" id="ac"/><path fill="#333" d="M59-47c-2 24 18 29 38 22v24C64 9 27 4 27-40v-127H5v-23h24l9-43h21v43h35v23H59v120" id="ad"/><path fill="#333" d="M114-163C36-179 61-72 57 0H25l-1-190h30c1 12-1 29 2 39 6-27 23-49 58-41v29" id="ae"/><g id="b"><use transform="matrix(0.06172839506172839,0,0,0.06172839506172839,0,0)" xlink:href="#ab"/><use transform="matrix(0.06172839506172839,0,0,0.06172839506172839,15.987654320987653,0)" xlink:href="#ac"/><use transform="matrix(0.06172839506172839,0,0,0.06172839506172839,28.333333333333332,0)" xlink:href="#aa"/><use transform="matrix(0.06172839506172839,0,0,0.06172839506172839,40.67901234567901,0)" xlink:href="#ac"/><use transform="matrix(0.06172839506172839,0,0,0.06172839506172839,53.02469135802469,0)" xlink:href="#Z"/><use transform="matrix(0.06172839506172839,0,0,0.06172839506172839,64.1358024691358,0)" xlink:href="#ad"/><use transform="matrix(0.06172839506172839,0,0,0.06172839506172839,70.30864197530863,0)" xlink:href="#ae"/><use transform="matrix(0.06172839506172839,0,0,0.06172839506172839,77.65432098765432,0)" xlink:href="#ac"/><use transform="matrix(0.06172839506172839,0,0,0.06172839506172839,90,0)" xlink:href="#ae"/></g><path fill="#333" d="M24 0v-261h32V0H24" id="af"/><path fill="#333" d="M24-231v-30h32v30H24zM24 0v-190h32V0H24" id="ag"/><path fill="#333" d="M100-194c63 0 86 42 84 106H49c0 40 14 67 53 68 26 1 43-12 49-29l28 8c-11 28-37 45-77 45C44 4 14-33 15-96c1-61 26-98 85-98zm52 81c6-60-76-77-97-28-3 7-6 17-6 28h103" id="ah"/><path fill="#333" d="M117-194c89-4 53 116 60 194h-32v-121c0-31-8-49-39-48C34-167 62-67 57 0H25l-1-190h30c1 10-1 24 2 32 11-22 29-35 61-36" id="ai"/><g id="c"><use transform="matrix(0.06172839506172839,0,0,0.06172839506172839,0,0)" xlink:href="#ab"/><use transform="matrix(0.06172839506172839,0,0,0.06172839506172839,15.987654320987653,0)" xlink:href="#af"/><use transform="matrix(0.06172839506172839,0,0,0.06172839506172839,20.864197530864196,0)" xlink:href="#ag"/><use transform="matrix(0.06172839506172839,0,0,0.06172839506172839,25.74074074074074,0)" xlink:href="#ah"/><use transform="matrix(0.06172839506172839,0,0,0.06172839506172839,38.08641975308642,0)" xlink:href="#ai"/><use transform="matrix(0.06172839506172839,0,0,0.06172839506172839,50.432098765432094,0)" xlink:href="#ad"/><use transform="matrix(0.06172839506172839,0,0,0.06172839506172839,56.60493827160494,0)" xlink:href="#ah"/></g><g id="d"><use transform="matrix(0.06172839506172839,0,0,0.06172839506172839,0,0)" xlink:href="#ab"/><use transform="matrix(0.06172839506172839,0,0,0.06172839506172839,15.987654320987653,0)" xlink:href="#af"/><use transform="matrix(0.06172839506172839,0,0,0.06172839506172839,20.864197530864196,0)" xlink:href="#ag"/><use transform="matrix(0.06172839506172839,0,0,0.06172839506172839,25.74074074074074,0)" xlink:href="#ah"/><use transform="matrix(0.06172839506172839,0,0,0.06172839506172839,38.08641975308642,0)" xlink:href="#ai"/><use transform="matrix(0.06172839506172839,0,0,0.06172839506172839,50.432098765432094,0)" xlink:href="#ad"/><use transform="matrix(0.06172839506172839,0,0,0.06172839506172839,56.60493827160494,0)" xlink:href="#ah"/></g><path fill="#333" d="M127-220V0H93v-220H8v-28h204v28h-85" id="aj"/><g id="e"><use transform="matrix(0.06172839506172839,0,0,0.06172839506172839,0,0)" xlink:href="#aj"/><use transform="matrix(0.06172839506172839,0,0,0.06172839506172839,11.049382716049381,0)" xlink:href="#ah"/><use transform="matrix(0.06172839506172839,0,0,0.06172839506172839,23.39506172839506,0)" xlink:href="#af"/><use transform="matrix(0.06172839506172839,0,0,0.06172839506172839,28.2716049382716,0)" xlink:href="#ac"/></g><g id="f"><use transform="matrix(0.06172839506172839,0,0,0.06172839506172839,0,0)" xlink:href="#aa"/><use transform="matrix(0.06172839506172839,0,0,0.06172839506172839,12.345679012345679,0)" xlink:href="#ah"/></g><path fill="#333" d="M100-194c62-1 85 37 85 99 1 63-27 99-86 99S16-35 15-95c0-66 28-99 85-99zM99-20c44 1 53-31 53-75 0-43-8-75-51-75s-53 32-53 75 10 74 51 75" id="ak"/><g id="g"><use transform="matrix(0.06172839506172839,0,0,0.06172839506172839,0,0)" xlink:href="#ab"/><use transform="matrix(0.06172839506172839,0,0,0.06172839506172839,15.987654320987653,0)" xlink:href="#ac"/><use transform="matrix(0.06172839506172839,0,0,0.06172839506172839,28.333333333333332,0)" xlink:href="#aa"/><use transform="matrix(0.06172839506172839,0,0,0.06172839506172839,40.67901234567901,0)" xlink:href="#ac"/><use transform="matrix(0.06172839506172839,0,0,0.06172839506172839,53.02469135802469,0)" xlink:href="#Z"/><use transform="matrix(0.06172839506172839,0,0,0.06172839506172839,64.1358024691358,0)" xlink:href="#ad"/><use transform="matrix(0.06172839506172839,0,0,0.06172839506172839,70.30864197530863,0)" xlink:href="#ae"/><use transform="matrix(0.06172839506172839,0,0,0.06172839506172839,77.65432098765432,0)" xlink:href="#ak"/></g><g id="h"><use transform="matrix(0.06172839506172839,0,0,0.06172839506172839,0,0)" xlink:href="#ab"/><use transform="matrix(0.06172839506172839,0,0,0.06172839506172839,15.987654320987653,0)" xlink:href="#ak"/><use transform="matrix(0.06172839506172839,0,0,0.06172839506172839,28.333333333333332,0)" xlink:href="#ai"/><use transform="matrix(0.06172839506172839,0,0,0.06172839506172839,40.67901234567901,0)" xlink:href="#ad"/><use transform="matrix(0.06172839506172839,0,0,0.06172839506172839,46.851851851851855,0)" xlink:href="#ae"/><use transform="matrix(0.06172839506172839,0,0,0.06172839506172839,54.19753086419753,0)" xlink:href="#ak"/><use transform="matrix(0.06172839506172839,0,0,0.06172839506172839,66.54320987654322,0)" xlink:href="#af"/><use transform="matrix(0.06172839506172839,0,0,0.06172839506172839,71.41975308641976,0)" xlink:href="#ah"/></g><path fill="#333" d="M30-248c118-7 216 8 213 122C240-48 200 0 122 0H30v-248zM63-27c89 8 146-16 146-99s-60-101-146-95v194" id="al"/><path fill="#333" d="M160-131c35 5 61 23 61 61C221 17 115-2 30 0v-248c76 3 177-17 177 60 0 33-19 50-47 57zm-97-11c50-1 110 9 110-42 0-47-63-36-110-37v79zm0 115c55-2 124 14 124-45 0-56-70-42-124-44v89" id="am"/><g id="i"><use transform="matrix(0.06172839506172839,0,0,0.06172839506172839,0,0)" xlink:href="#al"/><use transform="matrix(0.06172839506172839,0,0,0.06172839506172839,15.987654320987653,0)" xlink:href="#ac"/><use transform="matrix(0.06172839506172839,0,0,0.06172839506172839,28.333333333333332,0)" xlink:href="#ad"/><use transform="matrix(0.06172839506172839,0,0,0.06172839506172839,34.50617283950617,0)" xlink:href="#ac"/><use transform="matrix(0.06172839506172839,0,0,0.06172839506172839,46.85185185185185,0)" xlink:href="#am"/><use transform="matrix(0.06172839506172839,0,0,0.06172839506172839,61.66666666666666,0)" xlink:href="#ac"/><use transform="matrix(0.06172839506172839,0,0,0.06172839506172839,74.01234567901234,0)" xlink:href="#Z"/><use transform="matrix(0.06172839506172839,0,0,0.06172839506172839,85.12345679012346,0)" xlink:href="#ah"/></g><g id="j"><use transform="matrix(0.06172839506172839,0,0,0.06172839506172839,0,0)" xlink:href="#ab"/><use transform="matrix(0.06172839506172839,0,0,0.06172839506172839,15.987654320987653,0)" xlink:href="#af"/><use transform="matrix(0.06172839506172839,0,0,0.06172839506172839,20.864197530864196,0)" xlink:href="#ag"/><use transform="matrix(0.06172839506172839,0,0,0.06172839506172839,25.74074074074074,0)" xlink:href="#ah"/><use transform="matrix(0.06172839506172839,0,0,0.06172839506172839,38.08641975308642,0)" xlink:href="#ai"/><use transform="matrix(0.06172839506172839,0,0,0.06172839506172839,50.432098765432094,0)" xlink:href="#ad"/><use transform="matrix(0.06172839506172839,0,0,0.06172839506172839,56.60493827160494,0)" xlink:href="#ah"/><path fill="#333" d="M-1.1 1.54h71.16v1.63H-1.1z"/></g><path fill="#333" d="M27 0v-27h64v-190l-56 39v-29l58-41h29v221h61V0H27" id="an"/><path fill="#333" d="M33-154v-36h34v36H33zM33 0v-36h34V0H33" id="ao"/><g id="k"><use transform="matrix(0.04938271604938272,0,0,0.04938271604938272,0,0)" xlink:href="#an"/><use transform="matrix(0.04938271604938272,0,0,0.04938271604938272,9.876543209876544,0)" xlink:href="#ao"/></g><path fill="#333" d="M33 0v-248h34V0H33" id="ap"/><g id="l"><use transform="matrix(0.04938271604938272,0,0,0.04938271604938272,0,0)" xlink:href="#ap"/><use transform="matrix(0.04938271604938272,0,0,0.04938271604938272,4.938271604938272,0)" xlink:href="#ai"/><use transform="matrix(0.04938271604938272,0,0,0.04938271604938272,14.814814814814817,0)" xlink:href="#Z"/><use transform="matrix(0.04938271604938272,0,0,0.04938271604938272,23.703703703703706,0)" xlink:href="#ah"/><use transform="matrix(0.04938271604938272,0,0,0.04938271604938272,33.580246913580254,0)" xlink:href="#ae"/><use transform="matrix(0.04938271604938272,0,0,0.04938271604938272,39.4567901234568,0)" xlink:href="#ah"/></g><g id="m"><use transform="matrix(0.04938271604938272,0,0,0.04938271604938272,0,0)" xlink:href="#ad"/><use transform="matrix(0.04938271604938272,0,0,0.04938271604938272,4.938271604938272,0)" xlink:href="#ak"/><use transform="matrix(0.04938271604938272,0,0,0.04938271604938272,14.814814814814817,0)" xlink:href="#aa"/><use transform="matrix(0.04938271604938272,0,0,0.04938271604938272,24.69135802469136,0)" xlink:href="#ak"/><use transform="matrix(0.04938271604938272,0,0,0.04938271604938272,34.567901234567906,0)" xlink:href="#Z"/></g><g id="n"><use transform="matrix(0.04938271604938272,0,0,0.04938271604938272,0,0)" xlink:href="#aa"/><use transform="matrix(0.04938271604938272,0,0,0.04938271604938272,9.876543209876544,0)" xlink:href="#ac"/><use transform="matrix(0.04938271604938272,0,0,0.04938271604938272,19.75308641975309,0)" xlink:href="#aa"/><use transform="matrix(0.04938271604938272,0,0,0.04938271604938272,29.629629629629633,0)" xlink:href="#ak"/><use transform="matrix(0.04938271604938272,0,0,0.04938271604938272,39.50617283950618,0)" xlink:href="#Z"/></g><path fill="#333" d="M115-194c55 1 70 41 70 98S169 2 115 4C84 4 66-9 55-30l1 105H24l-1-265h31l2 30c10-21 28-34 59-34zm-8 174c40 0 45-34 45-75s-6-73-45-74c-42 0-51 32-51 76 0 43 10 73 51 73" id="aq"/><g id="o"><use transform="matrix(0.04938271604938272,0,0,0.04938271604938272,0,0)" xlink:href="#aq"/><use transform="matrix(0.04938271604938272,0,0,0.04938271604938272,9.876543209876544,0)" xlink:href="#ah"/><use transform="matrix(0.04938271604938272,0,0,0.04938271604938272,19.75308641975309,0)" xlink:href="#Z"/><use transform="matrix(0.04938271604938272,0,0,0.04938271604938272,28.641975308641978,0)" xlink:href="#Z"/><use transform="matrix(0.04938271604938272,0,0,0.04938271604938272,37.53086419753087,0)" xlink:href="#ak"/><use transform="matrix(0.04938271604938272,0,0,0.04938271604938272,47.40740740740741,0)" xlink:href="#ac"/><use transform="matrix(0.04938271604938272,0,0,0.04938271604938272,57.283950617283956,0)" xlink:href="#ag"/><use transform="matrix(0.04938271604938272,0,0,0.04938271604938272,61.18518518518519,0)" xlink:href="#Z"/></g><path fill="#333" d="M87 75C49 33 22-17 22-94c0-76 28-126 65-167h31c-38 41-64 92-64 168S80 34 118 75H87" id="ar"/><path fill="#333" d="M210-169c-67 3-38 105-44 169h-31v-121c0-29-5-50-35-48C34-165 62-65 56 0H25l-1-190h30c1 10-1 24 2 32 10-44 99-50 107 0 11-21 27-35 58-36 85-2 47 119 55 194h-31v-121c0-29-5-49-35-48" id="as"/><path fill="#333" d="M68-38c1 34 0 65-14 84H32c9-13 17-26 17-46H33v-38h35" id="at"/><g id="p"><use transform="matrix(0.04938271604938272,0,0,0.04938271604938272,0,0)" xlink:href="#ar"/><use transform="matrix(0.04938271604938272,0,0,0.04938271604938272,5.8765432098765435,0)" xlink:href="#ai"/><use transform="matrix(0.04938271604938272,0,0,0.04938271604938272,15.753086419753087,0)" xlink:href="#ak"/><use transform="matrix(0.04938271604938272,0,0,0.04938271604938272,25.629629629629633,0)" xlink:href="#as"/><use transform="matrix(0.04938271604938272,0,0,0.04938271604938272,40.39506172839506,0)" xlink:href="#ah"/><use transform="matrix(0.04938271604938272,0,0,0.04938271604938272,50.27160493827161,0)" xlink:href="#at"/></g><g id="q"><use transform="matrix(0.04938271604938272,0,0,0.04938271604938272,0,0)" xlink:href="#ah"/><use transform="matrix(0.04938271604938272,0,0,0.04938271604938272,9.876543209876544,0)" xlink:href="#as"/><use transform="matrix(0.04938271604938272,0,0,0.04938271604938272,24.641975308641978,0)" xlink:href="#ac"/><use transform="matrix(0.04938271604938272,0,0,0.04938271604938272,34.51851851851852,0)" xlink:href="#ag"/><use transform="matrix(0.04938271604938272,0,0,0.04938271604938272,38.41975308641975,0)" xlink:href="#af"/><use transform="matrix(0.04938271604938272,0,0,0.04938271604938272,42.32098765432099,0)" xlink:href="#at"/></g><path fill="#333" d="M96-169c-40 0-48 33-48 73s9 75 48 75c24 0 41-14 43-38l32 2c-6 37-31 61-74 61-59 0-76-41-82-99-10-93 101-131 147-64 4 7 5 14 7 22l-32 3c-4-21-16-35-41-35" id="au"/><path fill="#333" d="M33-261c38 41 65 92 65 168S71 34 33 75H2C39 34 66-17 66-93S39-220 2-261h31" id="av"/><g id="r"><use transform="matrix(0.04938271604938272,0,0,0.04938271604938272,0,0)" xlink:href="#ah"/><use transform="matrix(0.04938271604938272,0,0,0.04938271604938272,9.876543209876544,0)" xlink:href="#ai"/><use transform="matrix(0.04938271604938272,0,0,0.04938271604938272,19.75308641975309,0)" xlink:href="#aa"/><use transform="matrix(0.04938271604938272,0,0,0.04938271604938272,29.629629629629633,0)" xlink:href="#ah"/><use transform="matrix(0.04938271604938272,0,0,0.04938271604938272,39.50617283950618,0)" xlink:href="#ae"/><use transform="matrix(0.04938271604938272,0,0,0.04938271604938272,45.38271604938272,0)" xlink:href="#ah"/><use transform="matrix(0.04938271604938272,0,0,0.04938271604938272,55.25925925925927,0)" xlink:href="#au"/><use transform="matrix(0.04938271604938272,0,0,0.04938271604938272,64.14814814814815,0)" xlink:href="#ak"/><use transform="matrix(0.04938271604938272,0,0,0.04938271604938272,74.0246913580247,0)" xlink:href="#av"/></g><path fill="#333" d="M101-251c82-7 93 87 43 132L82-64C71-53 59-42 53-27h129V0H18c2-99 128-94 128-182 0-28-16-43-45-43s-46 15-49 41l-32-3c6-41 34-60 81-64" id="aw"/><g id="s"><use transform="matrix(0.04938271604938272,0,0,0.04938271604938272,0,0)" xlink:href="#aw"/><use transform="matrix(0.04938271604938272,0,0,0.04938271604938272,9.876543209876544,0)" xlink:href="#ao"/></g><path fill="#333" d="M205 0l-28-72H64L36 0H1l101-248h38L239 0h-34zm-38-99l-47-123c-12 45-31 82-46 123h93" id="ax"/><g id="t"><use transform="matrix(0.04938271604938272,0,0,0.04938271604938272,0,0)" xlink:href="#ax"/><use transform="matrix(0.04938271604938272,0,0,0.04938271604938272,11.851851851851853,0)" xlink:href="#aq"/><use transform="matrix(0.04938271604938272,0,0,0.04938271604938272,21.7283950617284,0)" xlink:href="#ah"/><use transform="matrix(0.04938271604938272,0,0,0.04938271604938272,31.60493827160494,0)" xlink:href="#ae"/><use transform="matrix(0.04938271604938272,0,0,0.04938271604938272,37.48148148148149,0)" xlink:href="#ad"/><use transform="matrix(0.04938271604938272,0,0,0.04938271604938272,42.41975308641976,0)" xlink:href="#ac"/></g><g id="u"><use transform="matrix(0.04938271604938272,0,0,0.04938271604938272,0,0)" xlink:href="#ah"/><use transform="matrix(0.04938271604938272,0,0,0.04938271604938272,9.876543209876544,0)" xlink:href="#as"/></g><g id="v"><use transform="matrix(0.04938271604938272,0,0,0.04938271604938272,0,0)" xlink:href="#au"/><use transform="matrix(0.04938271604938272,0,0,0.04938271604938272,8.88888888888889,0)" xlink:href="#ac"/><use transform="matrix(0.04938271604938272,0,0,0.04938271604938272,18.765432098765434,0)" xlink:href="#aa"/><use transform="matrix(0.04938271604938272,0,0,0.04938271604938272,28.641975308641978,0)" xlink:href="#ac"/><use transform="matrix(0.04938271604938272,0,0,0.04938271604938272,38.51851851851852,0)" xlink:href="#Z"/><use transform="matrix(0.04938271604938272,0,0,0.04938271604938272,47.407407407407405,0)" xlink:href="#ad"/><use transform="matrix(0.04938271604938272,0,0,0.04938271604938272,52.34567901234567,0)" xlink:href="#ae"/><use transform="matrix(0.04938271604938272,0,0,0.04938271604938272,58.222222222222214,0)" xlink:href="#ac"/><use transform="matrix(0.04938271604938272,0,0,0.04938271604938272,68.09876543209876,0)" xlink:href="#ae"/></g><path fill="#333" d="M33 0v-38h34V0H33" id="ay"/><g id="w"><use transform="matrix(0.04938271604938272,0,0,0.04938271604938272,0,0)" xlink:href="#aw"/><use transform="matrix(0.04938271604938272,0,0,0.04938271604938272,9.876543209876544,0)" xlink:href="#ay"/><use transform="matrix(0.04938271604938272,0,0,0.04938271604938272,14.814814814814817,0)" xlink:href="#an"/><use transform="matrix(0.04938271604938272,0,0,0.04938271604938272,24.69135802469136,0)" xlink:href="#ao"/></g><g id="x"><use transform="matrix(0.04938271604938272,0,0,0.04938271604938272,0,0)" xlink:href="#au"/><use transform="matrix(0.04938271604938272,0,0,0.04938271604938272,8.88888888888889,0)" xlink:href="#ac"/><use transform="matrix(0.04938271604938272,0,0,0.04938271604938272,18.765432098765434,0)" xlink:href="#aa"/><use transform="matrix(0.04938271604938272,0,0,0.04938271604938272,28.641975308641978,0)" xlink:href="#ac"/><use transform="matrix(0.04938271604938272,0,0,0.04938271604938272,38.51851851851852,0)" xlink:href="#Z"/><use transform="matrix(0.04938271604938272,0,0,0.04938271604938272,47.407407407407405,0)" xlink:href="#ad"/><use transform="matrix(0.04938271604938272,0,0,0.04938271604938272,52.34567901234567,0)" xlink:href="#ae"/><use transform="matrix(0.04938271604938272,0,0,0.04938271604938272,58.222222222222214,0)" xlink:href="#ac"/><use transform="matrix(0.04938271604938272,0,0,0.04938271604938272,68.09876543209876,0)" xlink:href="#ae"/><use transform="matrix(0.04938271604938272,0,0,0.04938271604938272,73.9753086419753,0)" xlink:href="#ar"/><use transform="matrix(0.04938271604938272,0,0,0.04938271604938272,79.85185185185185,0)" xlink:href="#ai"/><use transform="matrix(0.04938271604938272,0,0,0.04938271604938272,89.72839506172839,0)" xlink:href="#ak"/><use transform="matrix(0.04938271604938272,0,0,0.04938271604938272,99.60493827160494,0)" xlink:href="#as"/><use transform="matrix(0.04938271604938272,0,0,0.04938271604938272,114.37037037037035,0)" xlink:href="#ah"/><use transform="matrix(0.04938271604938272,0,0,0.04938271604938272,124.2469135802469,0)" xlink:href="#at"/></g><g id="y"><use transform="matrix(0.04938271604938272,0,0,0.04938271604938272,0,0)" xlink:href="#aw"/><use transform="matrix(0.04938271604938272,0,0,0.04938271604938272,9.876543209876544,0)" xlink:href="#ay"/><use transform="matrix(0.04938271604938272,0,0,0.04938271604938272,14.814814814814817,0)" xlink:href="#an"/><use transform="matrix(0.04938271604938272,0,0,0.04938271604938272,24.69135802469136,0)" xlink:href="#ay"/><use transform="matrix(0.04938271604938272,0,0,0.04938271604938272,29.629629629629633,0)" xlink:href="#an"/><use transform="matrix(0.04938271604938272,0,0,0.04938271604938272,39.50617283950618,0)" xlink:href="#ao"/></g><path fill="#333" d="M137 0h-34L2-248h35l83 218 83-218h36" id="az"/><g id="z"><use transform="matrix(0.04938271604938272,0,0,0.04938271604938272,0,0)" xlink:href="#az"/><use transform="matrix(0.04938271604938272,0,0,0.04938271604938272,10.518518518518519,0)" xlink:href="#ac"/><use transform="matrix(0.04938271604938272,0,0,0.04938271604938272,20.395061728395063,0)" xlink:href="#af"/><use transform="matrix(0.04938271604938272,0,0,0.04938271604938272,24.296296296296298,0)" xlink:href="#ag"/><use transform="matrix(0.04938271604938272,0,0,0.04938271604938272,28.19753086419753,0)" xlink:href="#aa"/><use transform="matrix(0.04938271604938272,0,0,0.04938271604938272,38.074074074074076,0)" xlink:href="#ac"/><use transform="matrix(0.04938271604938272,0,0,0.04938271604938272,47.95061728395062,0)" xlink:href="#ae"/></g><g id="A"><use transform="matrix(0.04938271604938272,0,0,0.04938271604938272,0,0)" xlink:href="#aa"/><use transform="matrix(0.04938271604938272,0,0,0.04938271604938272,9.876543209876544,0)" xlink:href="#ac"/><use transform="matrix(0.04938271604938272,0,0,0.04938271604938272,19.75308641975309,0)" xlink:href="#aa"/><use transform="matrix(0.04938271604938272,0,0,0.04938271604938272,29.629629629629633,0)" xlink:href="#ak"/><use transform="matrix(0.04938271604938272,0,0,0.04938271604938272,39.50617283950618,0)" xlink:href="#Z"/></g><g id="B"><use transform="matrix(0.04938271604938272,0,0,0.04938271604938272,0,0)" xlink:href="#aw"/><use transform="matrix(0.04938271604938272,0,0,0.04938271604938272,9.876543209876544,0)" xlink:href="#ay"/><use transform="matrix(0.04938271604938272,0,0,0.04938271604938272,14.814814814814817,0)" xlink:href="#an"/><use transform="matrix(0.04938271604938272,0,0,0.04938271604938272,24.69135802469136,0)" xlink:href="#ay"/><use transform="matrix(0.04938271604938272,0,0,0.04938271604938272,29.629629629629633,0)" xlink:href="#aw"/><use transform="matrix(0.04938271604938272,0,0,0.04938271604938272,39.50617283950618,0)" xlink:href="#ao"/></g><path fill="#333" d="M101-234c-31-9-42 10-38 44h38v23H63V0H32v-167H5v-23h27c-7-52 17-82 69-68v24" id="aA"/><g id="C"><use transform="matrix(0.04938271604938272,0,0,0.04938271604938272,0,0)" xlink:href="#az"/><use transform="matrix(0.04938271604938272,0,0,0.04938271604938272,10.864197530864198,0)" xlink:href="#ah"/><use transform="matrix(0.04938271604938272,0,0,0.04938271604938272,20.74074074074074,0)" xlink:href="#ae"/><use transform="matrix(0.04938271604938272,0,0,0.04938271604938272,26.617283950617285,0)" xlink:href="#ag"/><use transform="matrix(0.04938271604938272,0,0,0.04938271604938272,30.518518518518523,0)" xlink:href="#aA"/><use transform="matrix(0.04938271604938272,0,0,0.04938271604938272,35.45679012345679,0)" xlink:href="#ag"/><use transform="matrix(0.04938271604938272,0,0,0.04938271604938272,39.358024691358025,0)" xlink:href="#au"/><use transform="matrix(0.04938271604938272,0,0,0.04938271604938272,48.24691358024691,0)" xlink:href="#ac"/></g><g id="D"><use transform="matrix(0.04938271604938272,0,0,0.04938271604938272,0,0)" xlink:href="#Z"/><use transform="matrix(0.04938271604938272,0,0,0.04938271604938272,8.88888888888889,0)" xlink:href="#ah"/></g><g id="E"><use transform="matrix(0.04938271604938272,0,0,0.04938271604938272,0,0)" xlink:href="#au"/><use transform="matrix(0.04938271604938272,0,0,0.04938271604938272,8.88888888888889,0)" xlink:href="#ac"/><use transform="matrix(0.04938271604938272,0,0,0.04938271604938272,18.765432098765434,0)" xlink:href="#aa"/><use transform="matrix(0.04938271604938272,0,0,0.04938271604938272,28.641975308641978,0)" xlink:href="#ac"/><use transform="matrix(0.04938271604938272,0,0,0.04938271604938272,38.51851851851852,0)" xlink:href="#Z"/><use transform="matrix(0.04938271604938272,0,0,0.04938271604938272,47.407407407407405,0)" xlink:href="#ad"/><use transform="matrix(0.04938271604938272,0,0,0.04938271604938272,52.34567901234567,0)" xlink:href="#ae"/><use transform="matrix(0.04938271604938272,0,0,0.04938271604938272,58.222222222222214,0)" xlink:href="#ak"/></g><path fill="#333" d="M141 0L90-78 38 0H4l68-98-65-92h35l48 74 47-74h35l-64 92 68 98h-35" id="aB"/><g id="F"><use transform="matrix(0.04938271604938272,0,0,0.04938271604938272,0,0)" xlink:href="#ah"/><use transform="matrix(0.04938271604938272,0,0,0.04938271604938272,9.876543209876544,0)" xlink:href="#aB"/><use transform="matrix(0.04938271604938272,0,0,0.04938271604938272,18.765432098765434,0)" xlink:href="#ag"/><use transform="matrix(0.04938271604938272,0,0,0.04938271604938272,22.666666666666668,0)" xlink:href="#Z"/><use transform="matrix(0.04938271604938272,0,0,0.04938271604938272,31.555555555555557,0)" xlink:href="#ad"/><use transform="matrix(0.04938271604938272,0,0,0.04938271604938272,36.49382716049383,0)" xlink:href="#ah"/></g><g id="G"><use transform="matrix(0.04938271604938272,0,0,0.04938271604938272,0,0)" xlink:href="#aw"/><use transform="matrix(0.04938271604938272,0,0,0.04938271604938272,9.876543209876544,0)" xlink:href="#ay"/><use transform="matrix(0.04938271604938272,0,0,0.04938271604938272,14.814814814814817,0)" xlink:href="#an"/><use transform="matrix(0.04938271604938272,0,0,0.04938271604938272,24.69135802469136,0)" xlink:href="#ay"/><use transform="matrix(0.04938271604938272,0,0,0.04938271604938272,29.629629629629633,0)" xlink:href="#aw"/><use transform="matrix(0.04938271604938272,0,0,0.04938271604938272,39.50617283950618,0)" xlink:href="#ay"/><use transform="matrix(0.04938271604938272,0,0,0.04938271604938272,44.44444444444445,0)" xlink:href="#an"/><use transform="matrix(0.04938271604938272,0,0,0.04938271604938272,54.320987654320994,0)" xlink:href="#ao"/></g><path fill="#333" d="M26 75v-336h71v23H56V52h41v23H26" id="aC"/><g id="H"><use transform="matrix(0.04938271604938272,0,0,0.04938271604938272,0,0)" xlink:href="#aC"/><use transform="matrix(0.04938271604938272,0,0,0.04938271604938272,4.938271604938272,0)" xlink:href="#Z"/><use transform="matrix(0.04938271604938272,0,0,0.04938271604938272,13.827160493827162,0)" xlink:href="#ah"/></g><path fill="#333" d="M141-36C126-15 110 5 73 4 37 3 15-17 15-53c-1-64 63-63 125-63 3-35-9-54-41-54-24 1-41 7-42 31l-33-3c5-37 33-52 76-52 45 0 72 20 72 64v82c-1 20 7 32 28 27v20c-31 9-61-2-59-35zM48-53c0 20 12 33 32 33 41-3 63-29 60-74-43 2-92-5-92 41zm117-205c-3 23-9 48-36 47-26-1-65-44-74 0H39c4-23 8-48 36-47s64 44 74 0h16" id="aD"/><g id="I"><use transform="matrix(0.04938271604938272,0,0,0.04938271604938272,0,0)" xlink:href="#ai"/><use transform="matrix(0.04938271604938272,0,0,0.04938271604938272,9.876543209876544,0)" xlink:href="#aD"/><use transform="matrix(0.04938271604938272,0,0,0.04938271604938272,19.75308641975309,0)" xlink:href="#ak"/></g><path fill="#333" d="M3 75V52h41v-290H3v-23h71V75H3" id="aE"/><g id="J"><use transform="matrix(0.04938271604938272,0,0,0.04938271604938272,0,0)" xlink:href="#ah"/><use transform="matrix(0.04938271604938272,0,0,0.04938271604938272,9.876543209876544,0)" xlink:href="#aB"/><use transform="matrix(0.04938271604938272,0,0,0.04938271604938272,18.765432098765434,0)" xlink:href="#ag"/><use transform="matrix(0.04938271604938272,0,0,0.04938271604938272,22.666666666666668,0)" xlink:href="#Z"/><use transform="matrix(0.04938271604938272,0,0,0.04938271604938272,31.555555555555557,0)" xlink:href="#ad"/><use transform="matrix(0.04938271604938272,0,0,0.04938271604938272,36.49382716049383,0)" xlink:href="#ag"/><use transform="matrix(0.04938271604938272,0,0,0.04938271604938272,40.39506172839506,0)" xlink:href="#ae"/><use transform="matrix(0.04938271604938272,0,0,0.04938271604938272,46.27160493827161,0)" xlink:href="#aE"/></g><path fill="#333" d="M84 4C-5 8 30-112 23-190h32v120c0 31 7 50 39 49 72-2 45-101 50-169h31l1 190h-30c-1-10 1-25-2-33-11 22-28 36-60 37" id="aF"/><g id="K"><use transform="matrix(0.04938271604938272,0,0,0.04938271604938272,0,0)" xlink:href="#ad"/><use transform="matrix(0.04938271604938272,0,0,0.04938271604938272,4.938271604938272,0)" xlink:href="#ae"/><use transform="matrix(0.04938271604938272,0,0,0.04938271604938272,10.814814814814817,0)" xlink:href="#aF"/><use transform="matrix(0.04938271604938272,0,0,0.04938271604938272,20.69135802469136,0)" xlink:href="#ah"/></g><path fill="#333" d="M126-127c33 6 58 20 58 59 0 88-139 92-164 29-3-8-5-16-6-25l32-3c6 27 21 44 54 44 32 0 52-15 52-46 0-38-36-46-79-43v-28c39 1 72-4 72-42 0-27-17-43-46-43-28 0-47 15-49 41l-32-3c6-42 35-63 81-64 48-1 79 21 79 65 0 36-21 52-52 59" id="aG"/><g id="L"><use transform="matrix(0.04938271604938272,0,0,0.04938271604938272,0,0)" xlink:href="#aw"/><use transform="matrix(0.04938271604938272,0,0,0.04938271604938272,9.876543209876544,0)" xlink:href="#ay"/><use transform="matrix(0.04938271604938272,0,0,0.04938271604938272,14.814814814814817,0)" xlink:href="#an"/><use transform="matrix(0.04938271604938272,0,0,0.04938271604938272,24.69135802469136,0)" xlink:href="#ay"/><use transform="matrix(0.04938271604938272,0,0,0.04938271604938272,29.629629629629633,0)" xlink:href="#aG"/><use transform="matrix(0.04938271604938272,0,0,0.04938271604938272,39.50617283950618,0)" xlink:href="#ao"/></g><g id="M"><use transform="matrix(0.04938271604938272,0,0,0.04938271604938272,0,0)" xlink:href="#ab"/><use transform="matrix(0.04938271604938272,0,0,0.04938271604938272,12.790123456790125,0)" xlink:href="#af"/><use transform="matrix(0.04938271604938272,0,0,0.04938271604938272,16.69135802469136,0)" xlink:href="#ag"/><use transform="matrix(0.04938271604938272,0,0,0.04938271604938272,20.592592592592595,0)" xlink:href="#ah"/><use transform="matrix(0.04938271604938272,0,0,0.04938271604938272,30.46913580246914,0)" xlink:href="#ai"/><use transform="matrix(0.04938271604938272,0,0,0.04938271604938272,40.345679012345684,0)" xlink:href="#ad"/><use transform="matrix(0.04938271604938272,0,0,0.04938271604938272,45.283950617283956,0)" xlink:href="#ah"/><use transform="matrix(0.04938271604938272,0,0,0.04938271604938272,55.1604938271605,0)" xlink:href="#ar"/><use transform="matrix(0.04938271604938272,0,0,0.04938271604938272,61.037037037037045,0)" xlink:href="#ai"/><use transform="matrix(0.04938271604938272,0,0,0.04938271604938272,70.9135802469136,0)" xlink:href="#ak"/><use transform="matrix(0.04938271604938272,0,0,0.04938271604938272,80.79012345679014,0)" xlink:href="#as"/><use transform="matrix(0.04938271604938272,0,0,0.04938271604938272,95.55555555555557,0)" xlink:href="#ah"/><use transform="matrix(0.04938271604938272,0,0,0.04938271604938272,105.4320987654321,0)" xlink:href="#at"/></g><path fill="#333" d="M18-100v-36l175-74v27L42-118l151 64v27" id="aH"/><path fill="#333" d="M18-27v-27l151-64-151-65v-27l175 74v36" id="aI"/><g id="N"><use transform="matrix(0.055555555555555546,0,0,0.055555555555555546,0,0)" xlink:href="#aH"/><use transform="matrix(0.055555555555555546,0,0,0.055555555555555546,11.666666666666664,0)" xlink:href="#aH"/><use transform="matrix(0.055555555555555546,0,0,0.055555555555555546,23.33333333333333,0)" xlink:href="#au"/><use transform="matrix(0.055555555555555546,0,0,0.055555555555555546,33.33333333333333,0)" xlink:href="#ae"/><use transform="matrix(0.055555555555555546,0,0,0.055555555555555546,39.944444444444436,0)" xlink:href="#ah"/><use transform="matrix(0.055555555555555546,0,0,0.055555555555555546,51.05555555555554,0)" xlink:href="#ac"/><use transform="matrix(0.055555555555555546,0,0,0.055555555555555546,62.16666666666666,0)" xlink:href="#ad"/><use transform="matrix(0.055555555555555546,0,0,0.055555555555555546,67.7222222222222,0)" xlink:href="#ah"/><use transform="matrix(0.055555555555555546,0,0,0.055555555555555546,78.83333333333331,0)" xlink:href="#aI"/><use transform="matrix(0.055555555555555546,0,0,0.055555555555555546,90.49999999999997,0)" xlink:href="#aI"/></g><path fill="#333" d="M155-56V0h-30v-56H8v-25l114-167h33v167h35v25h-35zm-30-156c-27 46-58 90-88 131h88v-131" id="aJ"/><g id="O"><use transform="matrix(0.04938271604938272,0,0,0.04938271604938272,0,0)" xlink:href="#aw"/><use transform="matrix(0.04938271604938272,0,0,0.04938271604938272,9.876543209876544,0)" xlink:href="#ay"/><use transform="matrix(0.04938271604938272,0,0,0.04938271604938272,14.814814814814817,0)" xlink:href="#an"/><use transform="matrix(0.04938271604938272,0,0,0.04938271604938272,24.69135802469136,0)" xlink:href="#ay"/><use transform="matrix(0.04938271604938272,0,0,0.04938271604938272,29.629629629629633,0)" xlink:href="#aJ"/><use transform="matrix(0.04938271604938272,0,0,0.04938271604938272,39.50617283950618,0)" xlink:href="#ao"/></g><g id="P"><use transform="matrix(0.04938271604938272,0,0,0.04938271604938272,0,0)" xlink:href="#ap"/><use transform="matrix(0.04938271604938272,0,0,0.04938271604938272,4.938271604938272,0)" xlink:href="#ai"/><use transform="matrix(0.04938271604938272,0,0,0.04938271604938272,14.814814814814817,0)" xlink:href="#Z"/><use transform="matrix(0.04938271604938272,0,0,0.04938271604938272,23.703703703703706,0)" xlink:href="#ah"/><use transform="matrix(0.04938271604938272,0,0,0.04938271604938272,33.580246913580254,0)" xlink:href="#ae"/><use transform="matrix(0.04938271604938272,0,0,0.04938271604938272,39.4567901234568,0)" xlink:href="#ag"/><use transform="matrix(0.04938271604938272,0,0,0.04938271604938272,43.35802469135803,0)" xlink:href="#ae"/></g><path fill="#333" d="M108 0H70L1-190h34L89-25l56-165h34" id="aK"/><g id="Q"><use transform="matrix(0.04938271604938272,0,0,0.04938271604938272,0,0)" xlink:href="#ai"/><use transform="matrix(0.04938271604938272,0,0,0.04938271604938272,9.876543209876544,0)" xlink:href="#ak"/><use transform="matrix(0.04938271604938272,0,0,0.04938271604938272,19.75308641975309,0)" xlink:href="#aK"/><use transform="matrix(0.04938271604938272,0,0,0.04938271604938272,28.641975308641978,0)" xlink:href="#ak"/></g><g id="R"><use transform="matrix(0.04938271604938272,0,0,0.04938271604938272,0,0)" xlink:href="#au"/><use transform="matrix(0.04938271604938272,0,0,0.04938271604938272,8.88888888888889,0)" xlink:href="#af"/><use transform="matrix(0.04938271604938272,0,0,0.04938271604938272,12.790123456790125,0)" xlink:href="#ag"/><use transform="matrix(0.04938271604938272,0,0,0.04938271604938272,16.691358024691358,0)" xlink:href="#ah"/><use transform="matrix(0.04938271604938272,0,0,0.04938271604938272,26.567901234567902,0)" xlink:href="#ai"/><use transform="matrix(0.04938271604938272,0,0,0.04938271604938272,36.44444444444444,0)" xlink:href="#ad"/><use transform="matrix(0.04938271604938272,0,0,0.04938271604938272,41.382716049382715,0)" xlink:href="#ah"/></g><path fill="#333" d="M54-142c48-35 137-8 131 61C196 18 31 33 14-55l32-4c7 23 22 37 52 37 35-1 51-22 54-58 4-55-73-65-99-34H22l8-134h141v27H59" id="aL"/><g id="S"><use transform="matrix(0.04938271604938272,0,0,0.04938271604938272,0,0)" xlink:href="#aw"/><use transform="matrix(0.04938271604938272,0,0,0.04938271604938272,9.876543209876544,0)" xlink:href="#ay"/><use transform="matrix(0.04938271604938272,0,0,0.04938271604938272,14.814814814814817,0)" xlink:href="#an"/><use transform="matrix(0.04938271604938272,0,0,0.04938271604938272,24.69135802469136,0)" xlink:href="#ay"/><use transform="matrix(0.04938271604938272,0,0,0.04938271604938272,29.629629629629633,0)" xlink:href="#aL"/><use transform="matrix(0.04938271604938272,0,0,0.04938271604938272,39.50617283950618,0)" xlink:href="#ao"/></g><path fill="#333" d="M96-169c-40 0-48 33-48 73s9 75 48 75c24 0 41-14 43-38l32 2c-6 37-31 61-74 61-59 0-76-41-82-99-10-93 101-131 147-64 4 7 5 14 7 22l-32 3c-4-21-16-35-41-35zm3 187c19-1 33 8 33 26 0 31-30 33-64 32V58c18 2 39 4 41-13 1-15-18-13-34-13L87 0h19" id="aM"/><g id="T"><use transform="matrix(0.04938271604938272,0,0,0.04938271604938272,0,0)" xlink:href="#ag"/><use transform="matrix(0.04938271604938272,0,0,0.04938271604938272,3.901234567901235,0)" xlink:href="#ai"/><use transform="matrix(0.04938271604938272,0,0,0.04938271604938272,13.777777777777779,0)" xlink:href="#Z"/><use transform="matrix(0.04938271604938272,0,0,0.04938271604938272,22.666666666666668,0)" xlink:href="#ah"/><use transform="matrix(0.04938271604938272,0,0,0.04938271604938272,32.543209876543216,0)" xlink:href="#ae"/><use transform="matrix(0.04938271604938272,0,0,0.04938271604938272,38.41975308641976,0)" xlink:href="#aM"/><use transform="matrix(0.04938271604938272,0,0,0.04938271604938272,47.308641975308646,0)" xlink:href="#aD"/><use transform="matrix(0.04938271604938272,0,0,0.04938271604938272,57.18518518518519,0)" xlink:href="#ak"/></g><path fill="#333" d="M143 0L79-87 56-68V0H24v-261h32v163l83-92h37l-77 82L181 0h-38" id="aN"/><g id="U"><use transform="matrix(0.04938271604938272,0,0,0.04938271604938272,0,0)" xlink:href="#ak"/><use transform="matrix(0.04938271604938272,0,0,0.04938271604938272,9.876543209876544,0)" xlink:href="#aN"/><use transform="matrix(0.04938271604938272,0,0,0.04938271604938272,18.765432098765434,0)" xlink:href="#aE"/></g><g id="V"><use transform="matrix(0.04938271604938272,0,0,0.04938271604938272,0,0)" xlink:href="#aw"/><use transform="matrix(0.04938271604938272,0,0,0.04938271604938272,9.876543209876544,0)" xlink:href="#ay"/><use transform="matrix(0.04938271604938272,0,0,0.04938271604938272,14.814814814814817,0)" xlink:href="#aw"/><use transform="matrix(0.04938271604938272,0,0,0.04938271604938272,24.69135802469136,0)" xlink:href="#ao"/></g><path fill="#333" d="M240 0l2-218c-23 76-54 145-80 218h-23L58-218 59 0H30v-248h44l77 211c21-75 51-140 76-211h43V0h-30" id="aO"/><path fill="#333" d="M177-190C167-65 218 103 67 71c-23-6-38-20-44-43l32-5c15 47 100 32 89-28v-30C133-14 115 1 83 1 29 1 15-40 15-95c0-56 16-97 71-98 29-1 48 16 59 35 1-10 0-23 2-32h30zM94-22c36 0 50-32 50-73 0-42-14-75-50-75-39 0-46 34-46 75s6 73 46 73" id="aP"/><g id="W"><use transform="matrix(0.04938271604938272,0,0,0.04938271604938272,0,0)" xlink:href="#aO"/><use transform="matrix(0.04938271604938272,0,0,0.04938271604938272,14.765432098765434,0)" xlink:href="#ah"/><use transform="matrix(0.04938271604938272,0,0,0.04938271604938272,24.641975308641978,0)" xlink:href="#Z"/><use transform="matrix(0.04938271604938272,0,0,0.04938271604938272,33.53086419753087,0)" xlink:href="#Z"/><use transform="matrix(0.04938271604938272,0,0,0.04938271604938272,42.41975308641976,0)" xlink:href="#ac"/><use transform="matrix(0.04938271604938272,0,0,0.04938271604938272,52.2962962962963,0)" xlink:href="#aP"/><use transform="matrix(0.04938271604938272,0,0,0.04938271604938272,62.17283950617284,0)" xlink:href="#ah"/><use transform="matrix(0.04938271604938272,0,0,0.04938271604938272,72.0493827160494,0)" xlink:href="#as"/></g><g id="X"><use transform="matrix(0.04938271604938272,0,0,0.04938271604938272,0,0)" xlink:href="#aa"/><use transform="matrix(0.04938271604938272,0,0,0.04938271604938272,9.876543209876544,0)" xlink:href="#ah"/></g><g id="Y"><use transform="matrix(0.04938271604938272,0,0,0.04938271604938272,0,0)" xlink:href="#Z"/><use transform="matrix(0.04938271604938272,0,0,0.04938271604938272,8.88888888888889,0)" xlink:href="#aF"/><use transform="matrix(0.04938271604938272,0,0,0.04938271604938272,18.765432098765434,0)" xlink:href="#au"/><use transform="matrix(0.04938271604938272,0,0,0.04938271604938272,27.654320987654323,0)" xlink:href="#ah"/><use transform="matrix(0.04938271604938272,0,0,0.04938271604938272,37.53086419753087,0)" xlink:href="#Z"/><use transform="matrix(0.04938271604938272,0,0,0.04938271604938272,46.41975308641976,0)" xlink:href="#Z"/><use transform="matrix(0.04938271604938272,0,0,0.04938271604938272,55.308641975308646,0)" xlink:href="#ak"/></g></defs></g></svg>