<svg xmlns="http://www.w3.org/2000/svg" xmlns:xlink="http://www.w3.org/1999/xlink" xmlns:lucid="lucid" width="1702.78" height="1060"><g transform="translate(-80 -140)" lucid:page-tab-id="0_0"><path d="M0 0h1870.87v1322.83H0z" fill="#fff"/><path d="M100 166c0-3.3 2.7-6 6-6h303c3.3 0 6 2.7 6 6v8c0 3.3-1.9 7.9-4.24 10.24l-1.52 1.52C406.9 188.1 402.3 190 399 190H106c-3.3 0-6-2.7-6-6z" fill="#fff"/><path d="M415 160v20l-10 10H100" stroke="#5e5e5e" stroke-width="3" fill="none"/><path d="M100 166c0-3.3 2.7-6 6-6h1648c3.3 0 6 2.7 6 6v1008c0 3.3-2.7 6-6 6H106c-3.3 0-6-2.7-6-6z" stroke="#5e5e5e" stroke-width="3" fill="none"/><use xlink:href="#a" transform="matrix(1,0,0,1,108,160) translate(0 19.444444444444443)"/><use xlink:href="#b" transform="matrix(1,0,0,1,108,160) translate(29.62962962962963 19.444444444444443)"/><use xlink:href="#c" transform="matrix(1,0,0,1,108,160) translate(107.34567901234568 19.444444444444443)"/><path d="M173.33 303.7c0 4.13-3.34 7.47-7.46 7.47-4.1 0-7.45-3.34-7.45-7.46 0-4.1 3.34-7.45 7.45-7.45 4.12 0 7.46 3.34 7.46 7.46z" stroke="#5e5e5e" stroke-width="3" fill="#fff"/><path d="M165.87 311.17v14.88c0 3.3 1.8 8 4 10.48l17.28 19.4m-21.28-23.88l-21.27 23.87m0-37.3h42.55" stroke="#5e5e5e" stroke-width="3" fill="none"/><path d="M144.6 302.25c0-3.3 2.7-6 6-6h30.55c3.3 0 6 2.7 6 6v69.67c0 3.3-2.7 6-6 6H150.6c-3.3 0-6-2.7-6-6z" fill="none"/><path d="M165.87 378.92v9.87m0 9.87v19.76m0 9.87v19.76m0 9.88v19.75m0 9.87v19.76m0 9.87v19.76m0 9.88v19.75m0 9.87v19.75m0 9.88v19.76m0 9.87v19.76m0 9.87v19.75m0 9.88v19.75m0 9.88v19.76m0 9.86v19.76m0 9.88v19.75m0 9.88v19.75m0 9.88v19.76m0 9.88v19.75m0 9.88v19.75m0 9.88v19.76m0 9.87v19.75m0 9.88v19.75m0 9.88v19.75m0 9.9v19.75m0 9.87v19.76m0 9.88v19.75m0 9.9v19.74m0 9.88v9.88" stroke="#5e5e5e" stroke-width="2" fill="none"/><path d="M166.88 378.94h-2v-4.02h2z" fill="#5e5e5e"/><path d="M165.87 1178.97v1.03" stroke="#5e5e5e" stroke-width="2" fill="none"/><path d="M144.6 406c0-3.3 2.7-6 6-6h28c3.3 0 6 2.7 6 6v728c0 3.3-2.7 6-6 6h-28c-3.3 0-6-2.7-6-6z" stroke="#5e5e5e" stroke-width="3" fill="#fff"/><path d="M104.6 246c0-3.3 2.7-6 6-6h108c3.3 0 6 2.7 6 6v51.33c0 3.32-2.7 6-6 6h-108c-3.3 0-6-2.68-6-6z" stroke="#000" stroke-opacity="0" stroke-width="3" fill="#fff" fill-opacity="0"/><use xlink:href="#d" transform="matrix(1,0,0,1,109.59999999441328,244.99999999999997) translate(20.52469135802469 31.27777777777778)"/><path d="M600 353.8v9.84m0 9.82v19.65m0 9.83v19.65m0 9.82v19.65m0 9.82v19.65m0 9.82V511m0 9.8v19.66m0 9.83v19.63m0 9.83v19.64m0 9.83v19.64m0 9.83v19.65m0 9.82v19.65m0 9.82v19.65m0 9.8v19.66m0 9.82v19.65m0 9.82v19.65m0 9.82v19.65m0 9.83v19.64m0 9.83v19.64m0 9.84v19.64m0 9.83v19.66m0 9.82v19.65m0 9.82V1012m0 9.82v19.65m0 9.82v19.64m0 9.82v19.65m0 9.83v19.65m0 9.83v19.65m0 9.83v9.82" stroke="#5e5e5e" stroke-width="2" fill="none"/><path d="M601 353.84h-2v-.92l2-.2z" fill="#5e5e5e"/><path d="M600 1178.97v1.03" stroke="#5e5e5e" stroke-width="2" fill="none"/><path d="M580 406c0-3.3 2.7-6 6-6h28c3.3 0 6 2.7 6 6v688c0 3.3-2.7 6-6 6h-28c-3.3 0-6-2.7-6-6zM628.25 315.83c0 19.8-14.58 35.84-32.57 35.84-18 0-32.58-16.05-32.58-35.84 0-19.8 14.58-35.83 32.58-35.83s32.57 16.04 32.57 35.83z" stroke="#5e5e5e" stroke-width="3" fill="#fff"/><path d="M543.1 280v71.67m0-35.84h20" stroke="#5e5e5e" stroke-width="3" fill="none"/><path d="M1060 315.83c0 19.8-17.9 35.84-40 35.84s-40-16.05-40-35.84c0-19.8 17.9-35.83 40-35.83s40 16.04 40 35.83z" stroke="#5e5e5e" stroke-width="3" fill="#fff"/><path d="M1028 275.42l-8 4.58 8 5.5" stroke="#5e5e5e" stroke-width="3" fill="none"/><path d="M1020 354.17V364m0 9.8v19.65m0 9.8v19.65m0 9.82v19.64m0 9.82v19.64m0 9.82v19.64m0 9.82v19.64m0 9.82v19.64m0 9.8v19.65m0 9.82v19.64m0 9.83v19.64m0 9.82v19.63m0 9.82v19.64m0 9.8v19.64m0 9.82v19.64m0 9.82v19.64m0 9.82v19.64m0 9.82v19.64m0 9.82v19.64m0 9.82v19.63m0 9.8v19.65m0 9.82v19.64m0 9.83v19.64m0 9.82v19.63m0 9.82V1071m0 9.8v19.64m0 9.82v19.64m0 9.82v19.64m0 9.82v9.82" stroke="#5e5e5e" stroke-width="2" fill="none"/><path d="M1019.98 353.17l1.02-.04v1.06h-2v-1.1z" fill="#5e5e5e"/><path d="M1020 1178.97v1.03" stroke="#5e5e5e" stroke-width="2" fill="none"/><path d="M1000 426c0-3.3 2.7-6 6-6h28c3.3 0 6 2.7 6 6v688c0 3.3-2.7 6-6 6h-28c-3.3 0-6-2.7-6-6z" stroke="#5e5e5e" stroke-width="3" fill="#fff"/><path d="M480 186c0-3.3 2.7-6 6-6h228c3.3 0 6 2.7 6 6v104.67c0 3.3-2.7 6-6 6H486c-3.3 0-6-2.7-6-6z" stroke="#000" stroke-opacity="0" stroke-width="3" fill="#fff" fill-opacity="0"/><use xlink:href="#e" transform="matrix(1,0,0,1,485,185) translate(49.043209876543216 57.90277777777778)"/><use xlink:href="#f" transform="matrix(1,0,0,1,485,185) translate(95.83333333333334 57.90277777777778)"/><use xlink:href="#c" transform="matrix(1,0,0,1,485,185) translate(126.69753086419753 57.90277777777778)"/><path d="M900 226c0-3.3 2.7-6 6-6h228c3.3 0 6 2.7 6 6v48c0 3.3-2.7 6-6 6H906c-3.3 0-6-2.7-6-6z" stroke="#000" stroke-opacity="0" stroke-width="3" fill="#fff" fill-opacity="0"/><use xlink:href="#g" transform="matrix(1,0,0,1,904.9999999999999,225) translate(73.11728395061728 30.27777777777778)"/><path d="M1660 340c-22.1 0-40-13.43-40-30s17.9-30 40-30 40 13.43 40 30-17.9 30-40 30z" stroke="#5e5e5e" stroke-width="3" fill="#fff"/><path d="M1620 340h80" stroke="#5e5e5e" stroke-width="3" fill="none"/><path d="M1560 226c0-3.3 2.7-6 6-6h190.78c3.3 0 6 2.7 6 6v48c0 3.3-2.7 6-6 6H1566c-3.3 0-6-2.7-6-6z" stroke="#000" stroke-opacity="0" stroke-width="3" fill="#fff" fill-opacity="0"/><use xlink:href="#h" transform="matrix(1,0,0,1,1565,225) translate(47.76543209876543 30.27777777777778)"/><path d="M1660 342.5v9.96m0 9.96v19.9m0 9.97v19.9m0 9.97v19.9m0 9.97v19.92m0 9.96v19.9m0 9.97v19.9m0 9.97v19.9m0 9.97v19.92m0 9.96v19.9m0 9.97v19.9m0 9.97v19.9m0 9.97v19.92m0 9.96v19.9m0 9.97v19.9m0 9.97v19.9m0 9.97v19.92m0 9.96v19.9m0 9.97v19.9m0 9.97v19.9m0 9.97v19.92m0 9.96v19.9m0 9.97v19.9m0 9.97v19.9m0 9.97v19.92m0 9.96v19.9m0 9.97v19.9m0 9.97v19.9m0 9.97v9.96" stroke="#5e5e5e" stroke-width="2" fill="none"/><path d="M1659.95 341.5h1.05v1.03h-2v-1.03z" fill="#5e5e5e"/><path d="M1660 1178.97v1.03" stroke="#5e5e5e" stroke-width="2" fill="none"/><path d="M1320 886c0-3.3 2.7-6 6-6h148c3.3 0 6 2.7 6 6v48c0 3.3-2.7 6-6 6h-148c-3.3 0-6-2.7-6-6z" stroke="#5e5e5e" stroke-width="3" fill="#fff"/><use xlink:href="#i" transform="matrix(1,0,0,1,1320.0000000000005,880) translate(52.08 33.15)"/><path d="M1641.4 706c0-3.3 2.68-6 6-6h28c3.3 0 6 2.7 6 6v88c0 3.3-2.7 6-6 6h-28c-3.32 0-6-2.7-6-6z" stroke="#333" stroke-width="3" fill="#fff"/><path d="M1120 846c0-3.3 2.7-6 6-6h108c3.3 0 6 2.7 6 6v28c0 3.3-2.7 6-6 6h-108c-3.3 0-6-2.7-6-6z" stroke="#000" stroke-opacity="0" stroke-width="3" fill="#fff" fill-opacity="0"/><use xlink:href="#j" transform="matrix(1,0,0,1,1125,845) translate(3.9166666666666856 19.75)"/><path d="M187.1 415.36H560" stroke="#5e5e5e" stroke-width="2" fill="none"/><path d="M187.13 416.36h-1.03v-2h1.03z" fill="#5e5e5e"/><path d="M575.26 415.36L561 420v-9.27z" stroke="#5e5e5e" stroke-width="2" fill="#5e5e5e"/><use xlink:href="#k" transform="matrix(1,0,0,1,262.4481481453548,390.0272435897605) translate(0 14.222222222222223)"/><use xlink:href="#l" transform="matrix(1,0,0,1,262.4481481453548,390.0272435897605) translate(19.75308641975309 14.222222222222223)"/><use xlink:href="#m" transform="matrix(1,0,0,1,262.4481481453548,390.0272435897605) translate(74.02469135802471 14.222222222222223)"/><use xlink:href="#n" transform="matrix(1,0,0,1,262.4481481453548,390.0272435897605) translate(127.35802469135805 14.222222222222223)"/><use xlink:href="#o" transform="matrix(1,0,0,1,262.4481481453548,390.0272435897605) translate(185.43209876543213 14.222222222222223)"/><path d="M187.1 471.4H560" stroke="#5e5e5e" stroke-width="2" fill="none"/><path d="M187.13 472.4h-1.03v-2h1.03z" fill="#5e5e5e"/><path d="M575.26 471.4L561 476.02v-9.27z" stroke="#5e5e5e" stroke-width="2" fill="#5e5e5e"/><use xlink:href="#p" transform="matrix(1,0,0,1,292.991358021898,446.0608974359166) translate(0 14.222222222222223)"/><use xlink:href="#q" transform="matrix(1,0,0,1,292.991358021898,446.0608974359166) translate(19.75308641975309 14.222222222222223)"/><use xlink:href="#r" transform="matrix(1,0,0,1,292.991358021898,446.0608974359166) translate(76.98765432098767 14.222222222222223)"/><use xlink:href="#s" transform="matrix(1,0,0,1,292.991358021898,446.0608974359166) translate(91.80246913580248 14.222222222222223)"/><use xlink:href="#t" transform="matrix(1,0,0,1,292.991358021898,446.0608974359166) translate(141.18518518518522 14.222222222222223)"/><path d="M622.5 501.63H980" stroke="#5e5e5e" stroke-width="2" fill="none"/><path d="M622.53 502.63h-1.03v-2h1.03z" fill="#5e5e5e"/><path d="M995.26 501.63L981 506.27V497z" stroke="#5e5e5e" stroke-width="2" fill="#5e5e5e"/><use xlink:href="#u" transform="matrix(1,0,0,1,714.8395061728395,476.3012820513025) translate(0 14.222222222222223)"/><use xlink:href="#v" transform="matrix(1,0,0,1,714.8395061728395,476.3012820513025) translate(34.567901234567906 14.222222222222223)"/><use xlink:href="#o" transform="matrix(1,0,0,1,714.8395061728395,476.3012820513025) translate(136.04938271604942 14.222222222222223)"/><path d="M1020 566c0-3.3 2.7-6 6-6h28c3.3 0 6 2.7 6 6v88c0 3.3-2.7 6-6 6h-28c-3.3 0-6-2.7-6-6z" stroke="#5e5e5e" stroke-width="3" fill="#fff"/><path d="M1042.5 539h53c3.3 0 6 2.68 6 6v52.03c0 3.3-2.7 6-6 6H1080" stroke="#5e5e5e" stroke-width="2" fill="none"/><path d="M1042.53 540h-1.03v-2h1.03z" fill="#5e5e5e"/><path d="M1064.74 603.03l14.26-4.64v9.26z" stroke="#5e5e5e" stroke-width="2" fill="#5e5e5e"/><use xlink:href="#w" transform="matrix(1,0,0,1,1109.5,550.3429487179719) translate(0 14.222222222222223)"/><use xlink:href="#x" transform="matrix(1,0,0,1,1109.5,550.3429487179719) translate(49.38271604938272 14.222222222222223)"/><use xlink:href="#y" transform="matrix(1,0,0,1,1109.5,550.3429487179719) translate(108.14814814814815 14.222222222222223)"/><path d="M1042.5 711.54h578.9" stroke="#5e5e5e" stroke-width="2" fill="none"/><path d="M1042.53 712.54h-1.03v-2h1.03z" fill="#5e5e5e"/><path d="M1636.65 711.54l-14.26 4.63v-9.27z" stroke="#5e5e5e" stroke-width="2" fill="#5e5e5e"/><use xlink:href="#z" transform="matrix(1,0,0,1,1251.459827586957,686.2051282051572) translate(0 14.222222222222223)"/><use xlink:href="#A" transform="matrix(1,0,0,1,1251.459827586957,686.2051282051572) translate(49.38271604938272 14.222222222222223)"/><use xlink:href="#B" transform="matrix(1,0,0,1,1251.459827586957,686.2051282051572) translate(112.44444444444446 14.222222222222223)"/><path d="M1638.9 769.35h-3m-3.96 0h-5.96m-3.97 0h-5.94m-3.97 0h-5.97m-3.97 0h-5.95m-3.96 0h-5.96m-3.97 0h-5.95m-3.97 0h-5.95m-3.97 0h-5.96m-3.97 0h-5.95m-3.98 0h-5.95m-3.97 0h-5.96m-3.97 0h-5.95m-3.97 0h-5.96m-3.97 0h-5.96m-3.97 0h-5.95m-3.97 0h-5.96m-3.98 0h-5.95m-3.97 0h-5.96m-3.97 0h-5.96m-3.96 0h-5.95m-3.98 0h-5.96m-3.97 0h-5.96m-3.98 0h-5.95m-3.96 0h-5.96m-3.97 0h-5.94m-3.97 0h-5.97m-3.97 0h-5.96m-3.97 0h-5.95m-3.97 0h-5.95m-3.97 0h-5.95m-3.97 0h-5.96m-3.97 0h-5.96m-3.97 0h-5.95m-3.97 0h-5.96m-3.97 0h-5.96m-3.98 0h-5.95m-3.97 0h-5.96m-3.97 0h-5.95m-3.97 0h-5.96m-3.98 0h-5.96m-3.97 0h-5.96m-3.97 0H1219m-3.96 0h-5.95m-4 0h-5.94m-3.97 0h-5.97m-3.97 0h-5.95m-3.96 0h-5.96m-3.97 0h-5.95m-3.97 0h-5.95m-3.97 0h-5.96m-3.97 0h-5.95m-3.97 0h-5.95m-3.97 0h-5.96m-3.97 0h-5.95m-3.97 0h-5.96m-3.97 0h-5.95m-3.98 0h-5.95m-3.97 0h-5.96m-3.98 0h-5.95m-3.97 0h-2.98" stroke="#5e5e5e" stroke-width="2" fill="none"/><path d="M1639.9 770.35h-1.04v-2h1.03z" fill="#5e5e5e"/><path d="M1060.68 759.17l-17.22 10.18 17.22 10.18" stroke="#5e5e5e" stroke-width="2" fill="none"/><use xlink:href="#C" transform="matrix(1,0,0,1,1165.0894572165867,773.3509615384928) translate(0 14.222222222222223)"/><use xlink:href="#D" transform="matrix(1,0,0,1,1165.0894572165867,773.3509615384928) translate(64.19753086419755 14.222222222222223)"/><use xlink:href="#E" transform="matrix(1,0,0,1,1165.0894572165867,773.3509615384928) translate(95.80246913580248 14.222222222222223)"/><use xlink:href="#m" transform="matrix(1,0,0,1,1165.0894572165867,773.3509615384928) translate(151.95061728395063 14.222222222222223)"/><use xlink:href="#F" transform="matrix(1,0,0,1,1165.0894572165867,773.3509615384928) translate(205.28395061728398 14.222222222222223)"/><use xlink:href="#G" transform="matrix(1,0,0,1,1165.0894572165867,773.3509615384928) translate(229.97530864197535 14.222222222222223)"/><use xlink:href="#H" transform="matrix(1,0,0,1,1165.0894572165867,773.3509615384928) translate(290.07407407407413 14.222222222222223)"/><use xlink:href="#I" transform="matrix(1,0,0,1,1165.0894572165867,773.3509615384928) translate(299.9506172839507 14.222222222222223)"/><path d="M1400 942.5v9.85m0 9.86v19.72m0 9.85v19.7m0 9.86v19.7m0 9.87v19.7m0 9.86v19.7m0 9.86v19.7m0 9.86v19.7m0 9.86v9.86" stroke="#5e5e5e" stroke-width="2" fill="none"/><path d="M1401 942.53h-2v-1.03h2z" fill="#5e5e5e"/><path d="M1400 1178.97v1.03M1042.5 909H1300" stroke="#5e5e5e" stroke-width="2" fill="none"/><path d="M1042.53 910h-1.03v-2h1.03z" fill="#5e5e5e"/><path d="M1315.26 909l-14.26 4.63v-9.27z" stroke="#5e5e5e" stroke-width="2" fill="#5e5e5e"/><g><use xlink:href="#J" transform="matrix(1,0,0,1,1057.703703703704,883.6570512820883) translate(0 14.222222222222223)"/><use xlink:href="#H" transform="matrix(1,0,0,1,1057.703703703704,883.6570512820883) translate(44.44444444444445 14.222222222222223)"/><use xlink:href="#K" transform="matrix(1,0,0,1,1057.703703703704,883.6570512820883) translate(54.320987654320994 14.222222222222223)"/><use xlink:href="#L" transform="matrix(1,0,0,1,1057.703703703704,883.6570512820883) translate(130.320987654321 14.222222222222223)"/></g><path d="M997.5 812.04h-3.03m-4.05 0h-6.07m-4.04 0h-6.06m-4.05 0h-6.07m-4.05 0H954m-4.03 0h-6.07m-4.04 0h-6.07m-4.06 0h-6.07m-4.04 0h-6.07m-4.04 0h-6.07m-4.05 0h-6.06m-4.05 0h-6.08m-4.04 0h-6.07m-4.04 0H863m-4.05 0h-6.07m-4.04 0h-6.07m-4.04 0h-6.07m-4.05 0h-6.06m-4.04 0h-6.07m-4.04 0h-6.08m-4.05 0h-6.06m-4.04 0h-6.07m-4.05 0h-6.07m-4.05 0h-6.06m-4.05 0h-6.07m-4.04 0h-6.06m-4.04 0h-6.07m-4.05 0h-6.07m-4.03 0h-6.07m-4.04 0h-6.07m-4.06 0h-6.06m-4.05 0h-6.07m-4.04 0h-6.07m-4.05 0h-6.06m-4.05 0h-6.08m-4.04 0h-6.07m-4.03 0h-6.07m-4.05 0h-3.03" stroke="#5e5e5e" stroke-width="2" fill="none"/><path d="M998.5 813.04h-1.03v-2h1.03z" fill="#5e5e5e"/><path d="M640.68 801.86l-17.22 10.18 17.22 10.18" stroke="#5e5e5e" stroke-width="2" fill="none"/><g><use xlink:href="#M" transform="matrix(1,0,0,1,687.8672839506173,816.0432692308023) translate(0 12.444444444444446)"/><use xlink:href="#N" transform="matrix(1,0,0,1,687.8672839506173,816.0432692308023) translate(51.851851851851855 12.444444444444446)"/><use xlink:href="#O" transform="matrix(1,0,0,1,687.8672839506173,816.0432692308023) translate(60.49382716049383 12.444444444444446)"/><use xlink:href="#P" transform="matrix(1,0,0,1,687.8672839506173,816.0432692308023) translate(88.96913580246914 12.444444444444446)"/><use xlink:href="#Q" transform="matrix(1,0,0,1,687.8672839506173,816.0432692308023) translate(135.6358024691358 12.444444444444446)"/><use xlink:href="#R" transform="matrix(1,0,0,1,687.8672839506173,816.0432692308023) translate(165.8827160493827 12.444444444444446)"/><use xlink:href="#S" transform="matrix(1,0,0,1,687.8672839506173,816.0432692308023) translate(215.83333333333331 12.444444444444446)"/></g><path d="M577.5 840.5h-2.93m-3.9 0h-5.86m-3.9 0h-5.85m-3.9 0h-5.86m-3.9 0h-5.87m-3.9 0h-5.86m-3.9 0H516m-3.9 0h-5.85m-3.9 0h-5.86m-3.9 0h-5.87m-3.9 0h-5.86m-3.9 0h-5.86m-3.9 0h-5.85m-3.9 0h-5.86m-3.9 0h-5.87m-3.9 0h-5.86m-3.9 0h-5.86m-3.9 0h-5.85m-3.9 0h-5.86m-3.9 0h-5.87m-3.9 0h-6m-4.1 0H369m-4.1 0h-6.13m-4.1 0h-6.13m-4.1 0h-6.13m-4.08 0h-6.14m-4.1 0h-6.13m-4.1 0h-6.13m-4.1 0h-6.13m-4.1 0h-6.14m-4.1 0h-6.13m-4.1 0h-6.14m-4.1 0h-6.14m-4.1 0h-6.13m-4.1 0H236m-4.1 0h-6.13m-4.1 0h-6.13m-4.1 0h-6.13m-4.08 0h-6.14m-4.1 0h-3.06" stroke="#5e5e5e" stroke-width="2" fill="none"/><path d="M578.5 841.5h-1.03v-2h1.03z" fill="#5e5e5e"/><path d="M205.28 830.32l-17.2 10.18 17.2 10.2" stroke="#5e5e5e" stroke-width="2" fill="none"/><g><use xlink:href="#T" transform="matrix(1,0,0,1,244.7444444416511,844.5048076923418) translate(0 14.222222222222223)"/><use xlink:href="#U" transform="matrix(1,0,0,1,244.7444444416511,844.5048076923418) translate(64.19753086419755 14.222222222222223)"/><use xlink:href="#V" transform="matrix(1,0,0,1,244.7444444416511,844.5048076923418) translate(107.55555555555557 14.222222222222223)"/><use xlink:href="#W" transform="matrix(1,0,0,1,244.7444444416511,844.5048076923418) translate(206.1234567901235 14.222222222222223)"/></g><path d="M997.5 997.93h-3.03m-4.05 0h-6.07m-4.04 0h-6.06m-4.05 0h-6.07m-4.05 0H954m-4.03 0h-6.07m-4.04 0h-6.07m-4.06 0h-6.07m-4.04 0h-6.07m-4.04 0h-6.07m-4.05 0h-6.06m-4.05 0h-6.08m-4.04 0h-6.07m-4.04 0H863m-4.05 0h-6.07m-4.04 0h-6.07m-4.04 0h-6.07m-4.05 0h-6.06m-4.04 0h-6.07m-4.04 0h-6.08m-4.05 0h-6.06m-4.04 0h-6.07m-4.05 0h-6.07m-4.05 0h-6.06m-4.05 0h-6.07m-4.04 0h-6.06m-4.04 0h-6.07m-4.05 0h-6.07m-4.03 0h-6.07m-4.04 0h-6.07m-4.06 0h-6.06m-4.05 0h-6.07m-4.04 0h-6.07m-4.05 0h-6.06m-4.05 0h-6.08m-4.04 0h-6.07m-4.03 0h-6.07m-4.05 0h-3.03" stroke="#5e5e5e" stroke-width="2" fill="none"/><path d="M998.5 998.93h-1.03v-2h1.03z" fill="#5e5e5e"/><path d="M640.68 987.75l-17.22 10.18 17.22 10.18" stroke="#5e5e5e" stroke-width="2" fill="none"/><g><use xlink:href="#X" transform="matrix(1,0,0,1,715.3086419753087,1001.9326923077329) translate(0 14.222222222222223)"/><use xlink:href="#H" transform="matrix(1,0,0,1,715.3086419753087,1001.9326923077329) translate(44.44444444444445 14.222222222222223)"/><use xlink:href="#Y" transform="matrix(1,0,0,1,715.3086419753087,1001.9326923077329) translate(54.320987654320994 14.222222222222223)"/><use xlink:href="#Z" transform="matrix(1,0,0,1,715.3086419753087,1001.9326923077329) translate(86.8641975308642 14.222222222222223)"/><use xlink:href="#aa" transform="matrix(1,0,0,1,715.3086419753087,1001.9326923077329) translate(129.23456790123458 14.222222222222223)"/><use xlink:href="#ab" transform="matrix(1,0,0,1,715.3086419753087,1001.9326923077329) translate(158.81481481481484 14.222222222222223)"/></g><path d="M577.5 1036.18h-3m-4 0h-6m-3.98 0h-6m-4 0h-5.98m-4 0h-6m-4 0h-5.98m-4 0h-6m-4 0h-5.98m-4 0h-6m-4 0h-5.98m-4 0h-6m-4 0h-5.98m-4 0h-6m-3.98 0h-6m-4 0h-6m-3.98 0h-6m-4 0h-6m-3.98 0h-6m-4 0h-5.98m-4 0h-6m-4 0h-5.98m-4 0h-6m-4 0h-5.98m-4 0h-6m-4 0h-5.98m-4 0h-6m-3.98 0h-6m-4 0h-6m-3.98 0h-6m-4 0h-6m-3.98 0h-6m-4 0h-5.98m-4 0h-6m-4 0h-5.98m-4 0h-6m-4 0h-5.98m-4 0h-6m-4 0h-5.98m-4 0h-6m-4 0h-2.98" stroke="#5e5e5e" stroke-width="2" fill="none"/><path d="M578.5 1037.18h-1.03v-2h1.03z" fill="#5e5e5e"/><path d="M205.28 1026l-17.22 10.18 17.22 10.18" stroke="#5e5e5e" stroke-width="2" fill="none"/><g><use xlink:href="#ac" transform="matrix(1,0,0,1,271.23827160214495,1040.1778846154268) translate(0 14.222222222222223)"/><use xlink:href="#H" transform="matrix(1,0,0,1,271.23827160214495,1040.1778846154268) translate(29.629629629629633 14.222222222222223)"/><use xlink:href="#ad" transform="matrix(1,0,0,1,271.23827160214495,1040.1778846154268) translate(39.50617283950618 14.222222222222223)"/><use xlink:href="#ae" transform="matrix(1,0,0,1,271.23827160214495,1040.1778846154268) translate(132.2469135802469 14.222222222222223)"/><use xlink:href="#af" transform="matrix(1,0,0,1,271.23827160214495,1040.1778846154268) translate(156.93827160493828 14.222222222222223)"/></g><defs><path fill="#333" d="M135-143c-3-34-86-38-87 0 15 53 115 12 119 90S17 21 10-45l28-5c4 36 97 45 98 0-10-56-113-15-118-90-4-57 82-63 122-42 12 7 21 19 24 35" id="ag"/><path fill="#333" d="M85-194c31 0 48 13 60 33l-1-100h32l1 261h-30c-2-10 0-23-3-31C134-8 116 4 85 4 32 4 16-35 15-94c0-66 23-100 70-100zm9 24c-40 0-46 34-46 75 0 40 6 74 45 74 42 0 51-32 51-76 0-42-9-74-50-73" id="ah"/><g id="a"><use transform="matrix(0.06172839506172839,0,0,0.06172839506172839,0,0)" xlink:href="#ag"/><use transform="matrix(0.06172839506172839,0,0,0.06172839506172839,11.11111111111111,0)" xlink:href="#ah"/></g><path fill="#333" d="M30 0v-248h187v28H63v79h144v27H63v87h162V0H30" id="ai"/><path fill="#333" d="M101-234c-31-9-42 10-38 44h38v23H63V0H32v-167H5v-23h27c-7-52 17-82 69-68v24" id="aj"/><path fill="#333" d="M100-194c63 0 86 42 84 106H49c0 40 14 67 53 68 26 1 43-12 49-29l28 8c-11 28-37 45-77 45C44 4 14-33 15-96c1-61 26-98 85-98zm52 81c6-60-76-77-97-28-3 7-6 17-6 28h103" id="ak"/><path fill="#333" d="M59-47c-2 24 18 29 38 22v24C64 9 27 4 27-40v-127H5v-23h24l9-43h21v43h35v23H59v120" id="al"/><path fill="#333" d="M84 4C-5 8 30-112 23-190h32v120c0 31 7 50 39 49 72-2 45-101 50-169h31l1 190h-30c-1-10 1-25-2-33-11 22-28 36-60 37" id="am"/><path fill="#333" d="M141-36C126-15 110 5 73 4 37 3 15-17 15-53c-1-64 63-63 125-63 3-35-9-54-41-54-24 1-41 7-42 31l-33-3c5-37 33-52 76-52 45 0 72 20 72 64v82c-1 20 7 32 28 27v20c-31 9-61-2-59-35zM48-53c0 20 12 33 32 33 41-3 63-29 60-74-43 2-92-5-92 41" id="an"/><path fill="#333" d="M114-163C36-179 61-72 57 0H25l-1-190h30c1 12-1 29 2 39 6-27 23-49 58-41v29" id="ao"/><g id="b"><use transform="matrix(0.06172839506172839,0,0,0.06172839506172839,0,0)" xlink:href="#ai"/><use transform="matrix(0.06172839506172839,0,0,0.06172839506172839,14.814814814814813,0)" xlink:href="#aj"/><use transform="matrix(0.06172839506172839,0,0,0.06172839506172839,20.98765432098765,0)" xlink:href="#ak"/><use transform="matrix(0.06172839506172839,0,0,0.06172839506172839,33.33333333333333,0)" xlink:href="#al"/><use transform="matrix(0.06172839506172839,0,0,0.06172839506172839,39.50617283950617,0)" xlink:href="#am"/><use transform="matrix(0.06172839506172839,0,0,0.06172839506172839,51.85185185185185,0)" xlink:href="#an"/><use transform="matrix(0.06172839506172839,0,0,0.06172839506172839,64.19753086419753,0)" xlink:href="#ao"/></g><path fill="#333" d="M30 0v-248h33v221h125V0H30" id="ap"/><path fill="#333" d="M100-194c62-1 85 37 85 99 1 63-27 99-86 99S16-35 15-95c0-66 28-99 85-99zM99-20c44 1 53-31 53-75 0-43-8-75-51-75s-53 32-53 75 10 74 51 75" id="aq"/><path fill="#333" d="M177-190C167-65 218 103 67 71c-23-6-38-20-44-43l32-5c15 47 100 32 89-28v-30C133-14 115 1 83 1 29 1 15-40 15-95c0-56 16-97 71-98 29-1 48 16 59 35 1-10 0-23 2-32h30zM94-22c36 0 50-32 50-73 0-42-14-75-50-75-39 0-46 34-46 75s6 73 46 73" id="ar"/><path fill="#333" d="M24-231v-30h32v30H24zM24 0v-190h32V0H24" id="as"/><path fill="#333" d="M117-194c89-4 53 116 60 194h-32v-121c0-31-8-49-39-48C34-167 62-67 57 0H25l-1-190h30c1 10-1 24 2 32 11-22 29-35 61-36" id="at"/><g id="c"><use transform="matrix(0.06172839506172839,0,0,0.06172839506172839,0,0)" xlink:href="#ap"/><use transform="matrix(0.06172839506172839,0,0,0.06172839506172839,12.345679012345679,0)" xlink:href="#aq"/><use transform="matrix(0.06172839506172839,0,0,0.06172839506172839,24.691358024691358,0)" xlink:href="#ar"/><use transform="matrix(0.06172839506172839,0,0,0.06172839506172839,37.03703703703704,0)" xlink:href="#as"/><use transform="matrix(0.06172839506172839,0,0,0.06172839506172839,41.91358024691358,0)" xlink:href="#at"/></g><path fill="#333" d="M212-179c-10-28-35-45-73-45-59 0-87 40-87 99 0 60 29 101 89 101 43 0 62-24 78-52l27 14C228-24 195 4 139 4 59 4 22-46 18-125c-6-104 99-153 187-111 19 9 31 26 39 46" id="au"/><path fill="#333" d="M24 0v-261h32V0H24" id="av"/><g id="d"><use transform="matrix(0.06172839506172839,0,0,0.06172839506172839,0,0)" xlink:href="#au"/><use transform="matrix(0.06172839506172839,0,0,0.06172839506172839,15.987654320987653,0)" xlink:href="#av"/><use transform="matrix(0.06172839506172839,0,0,0.06172839506172839,20.864197530864196,0)" xlink:href="#as"/><use transform="matrix(0.06172839506172839,0,0,0.06172839506172839,25.74074074074074,0)" xlink:href="#ak"/><use transform="matrix(0.06172839506172839,0,0,0.06172839506172839,38.08641975308642,0)" xlink:href="#at"/><use transform="matrix(0.06172839506172839,0,0,0.06172839506172839,50.432098765432094,0)" xlink:href="#al"/><use transform="matrix(0.06172839506172839,0,0,0.06172839506172839,56.60493827160494,0)" xlink:href="#ak"/></g><path fill="#333" d="M127-220V0H93v-220H8v-28h204v28h-85" id="aw"/><g id="e"><use transform="matrix(0.06172839506172839,0,0,0.06172839506172839,0,0)" xlink:href="#aw"/><use transform="matrix(0.06172839506172839,0,0,0.06172839506172839,11.049382716049381,0)" xlink:href="#ak"/><use transform="matrix(0.06172839506172839,0,0,0.06172839506172839,23.39506172839506,0)" xlink:href="#av"/><use transform="matrix(0.06172839506172839,0,0,0.06172839506172839,28.2716049382716,0)" xlink:href="#an"/></g><g id="f"><use transform="matrix(0.06172839506172839,0,0,0.06172839506172839,0,0)" xlink:href="#ah"/><use transform="matrix(0.06172839506172839,0,0,0.06172839506172839,12.345679012345679,0)" xlink:href="#ak"/></g><g id="g"><use transform="matrix(0.06172839506172839,0,0,0.06172839506172839,0,0)" xlink:href="#au"/><use transform="matrix(0.06172839506172839,0,0,0.06172839506172839,15.987654320987653,0)" xlink:href="#aq"/><use transform="matrix(0.06172839506172839,0,0,0.06172839506172839,28.333333333333332,0)" xlink:href="#at"/><use transform="matrix(0.06172839506172839,0,0,0.06172839506172839,40.67901234567901,0)" xlink:href="#al"/><use transform="matrix(0.06172839506172839,0,0,0.06172839506172839,46.851851851851855,0)" xlink:href="#ao"/><use transform="matrix(0.06172839506172839,0,0,0.06172839506172839,54.19753086419753,0)" xlink:href="#aq"/><use transform="matrix(0.06172839506172839,0,0,0.06172839506172839,66.54320987654322,0)" xlink:href="#av"/><use transform="matrix(0.06172839506172839,0,0,0.06172839506172839,71.41975308641976,0)" xlink:href="#ak"/></g><path fill="#333" d="M30-248c118-7 216 8 213 122C240-48 200 0 122 0H30v-248zM63-27c89 8 146-16 146-99s-60-101-146-95v194" id="ax"/><path fill="#333" d="M160-131c35 5 61 23 61 61C221 17 115-2 30 0v-248c76 3 177-17 177 60 0 33-19 50-47 57zm-97-11c50-1 110 9 110-42 0-47-63-36-110-37v79zm0 115c55-2 124 14 124-45 0-56-70-42-124-44v89" id="ay"/><g id="h"><use transform="matrix(0.06172839506172839,0,0,0.06172839506172839,0,0)" xlink:href="#ax"/><use transform="matrix(0.06172839506172839,0,0,0.06172839506172839,15.987654320987653,0)" xlink:href="#an"/><use transform="matrix(0.06172839506172839,0,0,0.06172839506172839,28.333333333333332,0)" xlink:href="#al"/><use transform="matrix(0.06172839506172839,0,0,0.06172839506172839,34.50617283950617,0)" xlink:href="#an"/><use transform="matrix(0.06172839506172839,0,0,0.06172839506172839,46.85185185185185,0)" xlink:href="#ay"/><use transform="matrix(0.06172839506172839,0,0,0.06172839506172839,61.66666666666666,0)" xlink:href="#an"/><use transform="matrix(0.06172839506172839,0,0,0.06172839506172839,74.01234567901234,0)" xlink:href="#ag"/><use transform="matrix(0.06172839506172839,0,0,0.06172839506172839,85.12345679012346,0)" xlink:href="#ak"/></g><path d="M212-179c-10-28-35-45-73-45-59 0-87 40-87 99 0 60 29 101 89 101 43 0 62-24 78-52l27 14C228-24 195 4 139 4 59 4 22-46 18-125c-6-104 99-153 187-111 19 9 31 26 39 46" id="az"/><path d="M24 0v-261h32V0H24" id="aA"/><path d="M24-231v-30h32v30H24zM24 0v-190h32V0H24" id="aB"/><path d="M100-194c63 0 86 42 84 106H49c0 40 14 67 53 68 26 1 43-12 49-29l28 8c-11 28-37 45-77 45C44 4 14-33 15-96c1-61 26-98 85-98zm52 81c6-60-76-77-97-28-3 7-6 17-6 28h103" id="aC"/><path d="M117-194c89-4 53 116 60 194h-32v-121c0-31-8-49-39-48C34-167 62-67 57 0H25l-1-190h30c1 10-1 24 2 32 11-22 29-35 61-36" id="aD"/><path d="M59-47c-2 24 18 29 38 22v24C64 9 27 4 27-40v-127H5v-23h24l9-43h21v43h35v23H59v120" id="aE"/><g id="i"><use transform="matrix(0.05,0,0,0.05,0,0)" xlink:href="#az"/><use transform="matrix(0.05,0,0,0.05,12.950000000000001,0)" xlink:href="#aA"/><use transform="matrix(0.05,0,0,0.05,16.900000000000002,0)" xlink:href="#aB"/><use transform="matrix(0.05,0,0,0.05,20.85,0)" xlink:href="#aC"/><use transform="matrix(0.05,0,0,0.05,30.85,0)" xlink:href="#aD"/><use transform="matrix(0.05,0,0,0.05,40.85,0)" xlink:href="#aE"/><use transform="matrix(0.05,0,0,0.05,45.85,0)" xlink:href="#aC"/><path d="M-.9 1.25h57.65v1.32H-.9z"/></g><path fill="#333" d="M18-100v-36l175-74v27L42-118l151 64v27" id="aF"/><path fill="#333" d="M96-169c-40 0-48 33-48 73s9 75 48 75c24 0 41-14 43-38l32 2c-6 37-31 61-74 61-59 0-76-41-82-99-10-93 101-131 147-64 4 7 5 14 7 22l-32 3c-4-21-16-35-41-35" id="aG"/><path fill="#333" d="M18-27v-27l151-64-151-65v-27l175 74v36" id="aH"/><g id="j"><use transform="matrix(0.055555555555555546,0,0,0.055555555555555546,0,0)" xlink:href="#aF"/><use transform="matrix(0.055555555555555546,0,0,0.055555555555555546,11.666666666666664,0)" xlink:href="#aF"/><use transform="matrix(0.055555555555555546,0,0,0.055555555555555546,23.33333333333333,0)" xlink:href="#aG"/><use transform="matrix(0.055555555555555546,0,0,0.055555555555555546,33.33333333333333,0)" xlink:href="#ao"/><use transform="matrix(0.055555555555555546,0,0,0.055555555555555546,39.944444444444436,0)" xlink:href="#ak"/><use transform="matrix(0.055555555555555546,0,0,0.055555555555555546,51.05555555555554,0)" xlink:href="#an"/><use transform="matrix(0.055555555555555546,0,0,0.055555555555555546,62.16666666666666,0)" xlink:href="#al"/><use transform="matrix(0.055555555555555546,0,0,0.055555555555555546,67.7222222222222,0)" xlink:href="#ak"/><use transform="matrix(0.055555555555555546,0,0,0.055555555555555546,78.83333333333331,0)" xlink:href="#aH"/><use transform="matrix(0.055555555555555546,0,0,0.055555555555555546,90.49999999999997,0)" xlink:href="#aH"/></g><path fill="#333" d="M27 0v-27h64v-190l-56 39v-29l58-41h29v221h61V0H27" id="aI"/><path fill="#333" d="M33-154v-36h34v36H33zM33 0v-36h34V0H33" id="aJ"/><g id="k"><use transform="matrix(0.04938271604938272,0,0,0.04938271604938272,0,0)" xlink:href="#aI"/><use transform="matrix(0.04938271604938272,0,0,0.04938271604938272,9.876543209876544,0)" xlink:href="#aJ"/></g><path fill="#333" d="M33 0v-248h34V0H33" id="aK"/><g id="l"><use transform="matrix(0.04938271604938272,0,0,0.04938271604938272,0,0)" xlink:href="#aK"/><use transform="matrix(0.04938271604938272,0,0,0.04938271604938272,4.938271604938272,0)" xlink:href="#at"/><use transform="matrix(0.04938271604938272,0,0,0.04938271604938272,14.814814814814817,0)" xlink:href="#ag"/><use transform="matrix(0.04938271604938272,0,0,0.04938271604938272,23.703703703703706,0)" xlink:href="#ak"/><use transform="matrix(0.04938271604938272,0,0,0.04938271604938272,33.580246913580254,0)" xlink:href="#ao"/><use transform="matrix(0.04938271604938272,0,0,0.04938271604938272,39.4567901234568,0)" xlink:href="#ak"/></g><g id="m"><use transform="matrix(0.04938271604938272,0,0,0.04938271604938272,0,0)" xlink:href="#ah"/><use transform="matrix(0.04938271604938272,0,0,0.04938271604938272,9.876543209876544,0)" xlink:href="#an"/><use transform="matrix(0.04938271604938272,0,0,0.04938271604938272,19.75308641975309,0)" xlink:href="#ah"/><use transform="matrix(0.04938271604938272,0,0,0.04938271604938272,29.629629629629633,0)" xlink:href="#aq"/><use transform="matrix(0.04938271604938272,0,0,0.04938271604938272,39.50617283950618,0)" xlink:href="#ag"/></g><path fill="#333" d="M87 75C49 33 22-17 22-94c0-76 28-126 65-167h31c-38 41-64 92-64 168S80 34 118 75H87" id="aL"/><path fill="#333" d="M210-169c-67 3-38 105-44 169h-31v-121c0-29-5-50-35-48C34-165 62-65 56 0H25l-1-190h30c1 10-1 24 2 32 10-44 99-50 107 0 11-21 27-35 58-36 85-2 47 119 55 194h-31v-121c0-29-5-49-35-48" id="aM"/><path fill="#333" d="M68-38c1 34 0 65-14 84H32c9-13 17-26 17-46H33v-38h35" id="aN"/><g id="n"><use transform="matrix(0.04938271604938272,0,0,0.04938271604938272,0,0)" xlink:href="#aL"/><use transform="matrix(0.04938271604938272,0,0,0.04938271604938272,5.8765432098765435,0)" xlink:href="#ak"/><use transform="matrix(0.04938271604938272,0,0,0.04938271604938272,15.753086419753087,0)" xlink:href="#aM"/><use transform="matrix(0.04938271604938272,0,0,0.04938271604938272,30.518518518518523,0)" xlink:href="#an"/><use transform="matrix(0.04938271604938272,0,0,0.04938271604938272,40.39506172839506,0)" xlink:href="#as"/><use transform="matrix(0.04938271604938272,0,0,0.04938271604938272,44.2962962962963,0)" xlink:href="#av"/><use transform="matrix(0.04938271604938272,0,0,0.04938271604938272,48.19753086419753,0)" xlink:href="#aN"/></g><path fill="#333" d="M106-169C34-169 62-67 57 0H25v-261h32l-1 103c12-21 28-36 61-36 89 0 53 116 60 194h-32v-121c2-32-8-49-39-48" id="aO"/><path fill="#333" d="M33-261c38 41 65 92 65 168S71 34 33 75H2C39 34 66-17 66-93S39-220 2-261h31" id="aP"/><g id="o"><use transform="matrix(0.04938271604938272,0,0,0.04938271604938272,0,0)" xlink:href="#ag"/><use transform="matrix(0.04938271604938272,0,0,0.04938271604938272,8.88888888888889,0)" xlink:href="#ak"/><use transform="matrix(0.04938271604938272,0,0,0.04938271604938272,18.765432098765434,0)" xlink:href="#at"/><use transform="matrix(0.04938271604938272,0,0,0.04938271604938272,28.641975308641978,0)" xlink:href="#aO"/><use transform="matrix(0.04938271604938272,0,0,0.04938271604938272,38.51851851851852,0)" xlink:href="#an"/><use transform="matrix(0.04938271604938272,0,0,0.04938271604938272,48.39506172839506,0)" xlink:href="#aP"/></g><path fill="#333" d="M101-251c82-7 93 87 43 132L82-64C71-53 59-42 53-27h129V0H18c2-99 128-94 128-182 0-28-16-43-45-43s-46 15-49 41l-32-3c6-41 34-60 81-64" id="aQ"/><g id="p"><use transform="matrix(0.04938271604938272,0,0,0.04938271604938272,0,0)" xlink:href="#aQ"/><use transform="matrix(0.04938271604938272,0,0,0.04938271604938272,9.876543209876544,0)" xlink:href="#aJ"/></g><path fill="#333" d="M205 0l-28-72H64L36 0H1l101-248h38L239 0h-34zm-38-99l-47-123c-12 45-31 82-46 123h93" id="aR"/><path fill="#333" d="M115-194c55 1 70 41 70 98S169 2 115 4C84 4 66-9 55-30l1 105H24l-1-265h31l2 30c10-21 28-34 59-34zm-8 174c40 0 45-34 45-75s-6-73-45-74c-42 0-51 32-51 76 0 43 10 73 51 73" id="aS"/><g id="q"><use transform="matrix(0.04938271604938272,0,0,0.04938271604938272,0,0)" xlink:href="#aR"/><use transform="matrix(0.04938271604938272,0,0,0.04938271604938272,11.851851851851853,0)" xlink:href="#aS"/><use transform="matrix(0.04938271604938272,0,0,0.04938271604938272,21.7283950617284,0)" xlink:href="#ak"/><use transform="matrix(0.04938271604938272,0,0,0.04938271604938272,31.60493827160494,0)" xlink:href="#ao"/><use transform="matrix(0.04938271604938272,0,0,0.04938271604938272,37.48148148148149,0)" xlink:href="#al"/><use transform="matrix(0.04938271604938272,0,0,0.04938271604938272,42.41975308641976,0)" xlink:href="#an"/></g><use transform="matrix(0.04938271604938272,0,0,0.04938271604938272,0,0)" xlink:href="#aq" id="r"/><path fill="#333" d="M115-194c53 0 69 39 70 98 0 66-23 100-70 100C84 3 66-7 56-30L54 0H23l1-261h32v101c10-23 28-34 59-34zm-8 174c40 0 45-34 45-75 0-40-5-75-45-74-42 0-51 32-51 76 0 43 10 73 51 73" id="aT"/><path fill="#333" d="M141-36C126-15 110 5 73 4 37 3 15-17 15-53c-1-64 63-63 125-63 3-35-9-54-41-54-24 1-41 7-42 31l-33-3c5-37 33-52 76-52 45 0 72 20 72 64v82c-1 20 7 32 28 27v20c-31 9-61-2-59-35zM48-53c0 20 12 33 32 33 41-3 63-29 60-74-43 2-92-5-92 41zm117-205c-3 23-9 48-36 47-26-1-65-44-74 0H39c4-23 8-48 36-47s64 44 74 0h16" id="aU"/><g id="s"><use transform="matrix(0.04938271604938272,0,0,0.04938271604938272,0,0)" xlink:href="#aT"/><use transform="matrix(0.04938271604938272,0,0,0.04938271604938272,9.876543209876544,0)" xlink:href="#aq"/><use transform="matrix(0.04938271604938272,0,0,0.04938271604938272,19.75308641975309,0)" xlink:href="#al"/><use transform="matrix(0.04938271604938272,0,0,0.04938271604938272,24.69135802469136,0)" xlink:href="#aU"/><use transform="matrix(0.04938271604938272,0,0,0.04938271604938272,34.567901234567906,0)" xlink:href="#aq"/></g><g id="t"><use transform="matrix(0.04938271604938272,0,0,0.04938271604938272,0,0)" xlink:href="#av"/><use transform="matrix(0.04938271604938272,0,0,0.04938271604938272,3.901234567901235,0)" xlink:href="#aq"/><use transform="matrix(0.04938271604938272,0,0,0.04938271604938272,13.777777777777779,0)" xlink:href="#ar"/><use transform="matrix(0.04938271604938272,0,0,0.04938271604938272,23.654320987654323,0)" xlink:href="#as"/><use transform="matrix(0.04938271604938272,0,0,0.04938271604938272,27.555555555555557,0)" xlink:href="#at"/></g><path fill="#333" d="M33 0v-38h34V0H33" id="aV"/><g id="u"><use transform="matrix(0.04938271604938272,0,0,0.04938271604938272,0,0)" xlink:href="#aQ"/><use transform="matrix(0.04938271604938272,0,0,0.04938271604938272,9.876543209876544,0)" xlink:href="#aV"/><use transform="matrix(0.04938271604938272,0,0,0.04938271604938272,14.814814814814817,0)" xlink:href="#aI"/><use transform="matrix(0.04938271604938272,0,0,0.04938271604938272,24.69135802469136,0)" xlink:href="#aJ"/></g><g id="v"><use transform="matrix(0.04938271604938272,0,0,0.04938271604938272,0,0)" xlink:href="#ap"/><use transform="matrix(0.04938271604938272,0,0,0.04938271604938272,9.876543209876544,0)" xlink:href="#aq"/><use transform="matrix(0.04938271604938272,0,0,0.04938271604938272,19.75308641975309,0)" xlink:href="#ar"/><use transform="matrix(0.04938271604938272,0,0,0.04938271604938272,29.629629629629633,0)" xlink:href="#as"/><use transform="matrix(0.04938271604938272,0,0,0.04938271604938272,33.53086419753087,0)" xlink:href="#at"/><use transform="matrix(0.04938271604938272,0,0,0.04938271604938272,43.40740740740741,0)" xlink:href="#aL"/><use transform="matrix(0.04938271604938272,0,0,0.04938271604938272,49.283950617283956,0)" xlink:href="#ak"/><use transform="matrix(0.04938271604938272,0,0,0.04938271604938272,59.1604938271605,0)" xlink:href="#aM"/><use transform="matrix(0.04938271604938272,0,0,0.04938271604938272,73.92592592592594,0)" xlink:href="#an"/><use transform="matrix(0.04938271604938272,0,0,0.04938271604938272,83.80246913580248,0)" xlink:href="#as"/><use transform="matrix(0.04938271604938272,0,0,0.04938271604938272,87.70370370370372,0)" xlink:href="#av"/><use transform="matrix(0.04938271604938272,0,0,0.04938271604938272,91.60493827160496,0)" xlink:href="#aN"/></g><g id="w"><use transform="matrix(0.04938271604938272,0,0,0.04938271604938272,0,0)" xlink:href="#aQ"/><use transform="matrix(0.04938271604938272,0,0,0.04938271604938272,9.876543209876544,0)" xlink:href="#aV"/><use transform="matrix(0.04938271604938272,0,0,0.04938271604938272,14.814814814814817,0)" xlink:href="#aI"/><use transform="matrix(0.04938271604938272,0,0,0.04938271604938272,24.69135802469136,0)" xlink:href="#aV"/><use transform="matrix(0.04938271604938272,0,0,0.04938271604938272,29.629629629629633,0)" xlink:href="#aI"/><use transform="matrix(0.04938271604938272,0,0,0.04938271604938272,39.50617283950618,0)" xlink:href="#aJ"/></g><path fill="#333" d="M137 0h-34L2-248h35l83 218 83-218h36" id="aW"/><g id="x"><use transform="matrix(0.04938271604938272,0,0,0.04938271604938272,0,0)" xlink:href="#aW"/><use transform="matrix(0.04938271604938272,0,0,0.04938271604938272,10.518518518518519,0)" xlink:href="#an"/><use transform="matrix(0.04938271604938272,0,0,0.04938271604938272,20.395061728395063,0)" xlink:href="#av"/><use transform="matrix(0.04938271604938272,0,0,0.04938271604938272,24.296296296296298,0)" xlink:href="#as"/><use transform="matrix(0.04938271604938272,0,0,0.04938271604938272,28.19753086419753,0)" xlink:href="#ah"/><use transform="matrix(0.04938271604938272,0,0,0.04938271604938272,38.074074074074076,0)" xlink:href="#an"/><use transform="matrix(0.04938271604938272,0,0,0.04938271604938272,47.95061728395062,0)" xlink:href="#ao"/></g><g id="y"><use transform="matrix(0.04938271604938272,0,0,0.04938271604938272,0,0)" xlink:href="#ah"/><use transform="matrix(0.04938271604938272,0,0,0.04938271604938272,9.876543209876544,0)" xlink:href="#an"/><use transform="matrix(0.04938271604938272,0,0,0.04938271604938272,19.75308641975309,0)" xlink:href="#ah"/><use transform="matrix(0.04938271604938272,0,0,0.04938271604938272,29.629629629629633,0)" xlink:href="#aq"/><use transform="matrix(0.04938271604938272,0,0,0.04938271604938272,39.50617283950618,0)" xlink:href="#ag"/></g><g id="z"><use transform="matrix(0.04938271604938272,0,0,0.04938271604938272,0,0)" xlink:href="#aQ"/><use transform="matrix(0.04938271604938272,0,0,0.04938271604938272,9.876543209876544,0)" xlink:href="#aV"/><use transform="matrix(0.04938271604938272,0,0,0.04938271604938272,14.814814814814817,0)" xlink:href="#aI"/><use transform="matrix(0.04938271604938272,0,0,0.04938271604938272,24.69135802469136,0)" xlink:href="#aV"/><use transform="matrix(0.04938271604938272,0,0,0.04938271604938272,29.629629629629633,0)" xlink:href="#aQ"/><use transform="matrix(0.04938271604938272,0,0,0.04938271604938272,39.50617283950618,0)" xlink:href="#aJ"/></g><g id="A"><use transform="matrix(0.04938271604938272,0,0,0.04938271604938272,0,0)" xlink:href="#aW"/><use transform="matrix(0.04938271604938272,0,0,0.04938271604938272,10.864197530864198,0)" xlink:href="#ak"/><use transform="matrix(0.04938271604938272,0,0,0.04938271604938272,20.74074074074074,0)" xlink:href="#ao"/><use transform="matrix(0.04938271604938272,0,0,0.04938271604938272,26.617283950617285,0)" xlink:href="#as"/><use transform="matrix(0.04938271604938272,0,0,0.04938271604938272,30.518518518518523,0)" xlink:href="#aj"/><use transform="matrix(0.04938271604938272,0,0,0.04938271604938272,35.45679012345679,0)" xlink:href="#as"/><use transform="matrix(0.04938271604938272,0,0,0.04938271604938272,39.358024691358025,0)" xlink:href="#aG"/><use transform="matrix(0.04938271604938272,0,0,0.04938271604938272,48.24691358024691,0)" xlink:href="#an"/></g><path fill="#333" d="M233-177c-1 41-23 64-60 70L243 0h-38l-65-103H63V0H30v-248c88 3 205-21 203 71zM63-129c60-2 137 13 137-47 0-61-80-42-137-45v92" id="aX"/><g id="B"><use transform="matrix(0.04938271604938272,0,0,0.04938271604938272,0,0)" xlink:href="#aX"/><use transform="matrix(0.04938271604938272,0,0,0.04938271604938272,12.790123456790125,0)" xlink:href="#ak"/><use transform="matrix(0.04938271604938272,0,0,0.04938271604938272,22.66666666666667,0)" xlink:href="#ar"/><use transform="matrix(0.04938271604938272,0,0,0.04938271604938272,32.543209876543216,0)" xlink:href="#as"/><use transform="matrix(0.04938271604938272,0,0,0.04938271604938272,36.44444444444445,0)" xlink:href="#ag"/><use transform="matrix(0.04938271604938272,0,0,0.04938271604938272,45.33333333333334,0)" xlink:href="#al"/><use transform="matrix(0.04938271604938272,0,0,0.04938271604938272,50.271604938271615,0)" xlink:href="#ao"/><use transform="matrix(0.04938271604938272,0,0,0.04938271604938272,56.14814814814817,0)" xlink:href="#aq"/></g><g id="C"><use transform="matrix(0.04938271604938272,0,0,0.04938271604938272,0,0)" xlink:href="#aQ"/><use transform="matrix(0.04938271604938272,0,0,0.04938271604938272,9.876543209876544,0)" xlink:href="#aV"/><use transform="matrix(0.04938271604938272,0,0,0.04938271604938272,14.814814814814817,0)" xlink:href="#aI"/><use transform="matrix(0.04938271604938272,0,0,0.04938271604938272,24.69135802469136,0)" xlink:href="#aV"/><use transform="matrix(0.04938271604938272,0,0,0.04938271604938272,29.629629629629633,0)" xlink:href="#aQ"/><use transform="matrix(0.04938271604938272,0,0,0.04938271604938272,39.50617283950618,0)" xlink:href="#aV"/><use transform="matrix(0.04938271604938272,0,0,0.04938271604938272,44.44444444444445,0)" xlink:href="#aI"/><use transform="matrix(0.04938271604938272,0,0,0.04938271604938272,54.320987654320994,0)" xlink:href="#aJ"/></g><path fill="#333" d="M26 75v-336h71v23H56V52h41v23H26" id="aY"/><path fill="#333" d="M185-189c-5-48-123-54-124 2 14 75 158 14 163 119 3 78-121 87-175 55-17-10-28-26-33-46l33-7c5 56 141 63 141-1 0-78-155-14-162-118-5-82 145-84 179-34 5 7 8 16 11 25" id="aZ"/><g id="D"><use transform="matrix(0.04938271604938272,0,0,0.04938271604938272,0,0)" xlink:href="#aY"/><use transform="matrix(0.04938271604938272,0,0,0.04938271604938272,4.938271604938272,0)" xlink:href="#aZ"/><use transform="matrix(0.04938271604938272,0,0,0.04938271604938272,16.790123456790127,0)" xlink:href="#ak"/></g><path fill="#333" d="M141 0L90-78 38 0H4l68-98-65-92h35l48 74 47-74h35l-64 92 68 98h-35" id="ba"/><path fill="#333" d="M3 75V52h41v-290H3v-23h71V75H3" id="bb"/><g id="E"><use transform="matrix(0.04938271604938272,0,0,0.04938271604938272,0,0)" xlink:href="#ak"/><use transform="matrix(0.04938271604938272,0,0,0.04938271604938272,9.876543209876544,0)" xlink:href="#ba"/><use transform="matrix(0.04938271604938272,0,0,0.04938271604938272,18.765432098765434,0)" xlink:href="#as"/><use transform="matrix(0.04938271604938272,0,0,0.04938271604938272,22.666666666666668,0)" xlink:href="#ag"/><use transform="matrix(0.04938271604938272,0,0,0.04938271604938272,31.555555555555557,0)" xlink:href="#al"/><use transform="matrix(0.04938271604938272,0,0,0.04938271604938272,36.49382716049383,0)" xlink:href="#as"/><use transform="matrix(0.04938271604938272,0,0,0.04938271604938272,40.39506172839506,0)" xlink:href="#ao"/><use transform="matrix(0.04938271604938272,0,0,0.04938271604938272,46.27160493827161,0)" xlink:href="#bb"/></g><g id="F"><use transform="matrix(0.04938271604938272,0,0,0.04938271604938272,0,0)" xlink:href="#ah"/><use transform="matrix(0.04938271604938272,0,0,0.04938271604938272,9.876543209876544,0)" xlink:href="#aq"/></g><g id="G"><use transform="matrix(0.04938271604938272,0,0,0.04938271604938272,0,0)" xlink:href="#au"/><use transform="matrix(0.04938271604938272,0,0,0.04938271604938272,12.790123456790125,0)" xlink:href="#av"/><use transform="matrix(0.04938271604938272,0,0,0.04938271604938272,16.69135802469136,0)" xlink:href="#as"/><use transform="matrix(0.04938271604938272,0,0,0.04938271604938272,20.592592592592595,0)" xlink:href="#ak"/><use transform="matrix(0.04938271604938272,0,0,0.04938271604938272,30.46913580246914,0)" xlink:href="#at"/><use transform="matrix(0.04938271604938272,0,0,0.04938271604938272,40.345679012345684,0)" xlink:href="#al"/><use transform="matrix(0.04938271604938272,0,0,0.04938271604938272,45.283950617283956,0)" xlink:href="#ak"/></g><use transform="matrix(0.04938271604938272,0,0,0.04938271604938272,0,0)" xlink:href="#aJ" id="H"/><g id="I"><use transform="matrix(0.04938271604938272,0,0,0.04938271604938272,0,0)" xlink:href="#aG"/><use transform="matrix(0.04938271604938272,0,0,0.04938271604938272,8.88888888888889,0)" xlink:href="#av"/><use transform="matrix(0.04938271604938272,0,0,0.04938271604938272,12.790123456790125,0)" xlink:href="#as"/><use transform="matrix(0.04938271604938272,0,0,0.04938271604938272,16.691358024691358,0)" xlink:href="#ak"/><use transform="matrix(0.04938271604938272,0,0,0.04938271604938272,26.567901234567902,0)" xlink:href="#at"/><use transform="matrix(0.04938271604938272,0,0,0.04938271604938272,36.44444444444444,0)" xlink:href="#al"/><use transform="matrix(0.04938271604938272,0,0,0.04938271604938272,41.382716049382715,0)" xlink:href="#ak"/></g><path fill="#333" d="M126-127c33 6 58 20 58 59 0 88-139 92-164 29-3-8-5-16-6-25l32-3c6 27 21 44 54 44 32 0 52-15 52-46 0-38-36-46-79-43v-28c39 1 72-4 72-42 0-27-17-43-46-43-28 0-47 15-49 41l-32-3c6-42 35-63 81-64 48-1 79 21 79 65 0 36-21 52-52 59" id="bc"/><g id="J"><use transform="matrix(0.04938271604938272,0,0,0.04938271604938272,0,0)" xlink:href="#aQ"/><use transform="matrix(0.04938271604938272,0,0,0.04938271604938272,9.876543209876544,0)" xlink:href="#aV"/><use transform="matrix(0.04938271604938272,0,0,0.04938271604938272,14.814814814814817,0)" xlink:href="#aI"/><use transform="matrix(0.04938271604938272,0,0,0.04938271604938272,24.69135802469136,0)" xlink:href="#aV"/><use transform="matrix(0.04938271604938272,0,0,0.04938271604938272,29.629629629629633,0)" xlink:href="#bc"/></g><g id="K"><use transform="matrix(0.04938271604938272,0,0,0.04938271604938272,0,0)" xlink:href="#aK"/><use transform="matrix(0.04938271604938272,0,0,0.04938271604938272,4.938271604938272,0)" xlink:href="#at"/><use transform="matrix(0.04938271604938272,0,0,0.04938271604938272,14.814814814814817,0)" xlink:href="#ag"/><use transform="matrix(0.04938271604938272,0,0,0.04938271604938272,23.703703703703706,0)" xlink:href="#al"/><use transform="matrix(0.04938271604938272,0,0,0.04938271604938272,28.641975308641978,0)" xlink:href="#an"/><use transform="matrix(0.04938271604938272,0,0,0.04938271604938272,38.51851851851852,0)" xlink:href="#at"/><use transform="matrix(0.04938271604938272,0,0,0.04938271604938272,48.39506172839506,0)" xlink:href="#aG"/><use transform="matrix(0.04938271604938272,0,0,0.04938271604938272,57.28395061728394,0)" xlink:href="#as"/><use transform="matrix(0.04938271604938272,0,0,0.04938271604938272,61.185185185185176,0)" xlink:href="#an"/></g><g id="L"><use transform="matrix(0.04938271604938272,0,0,0.04938271604938272,0,0)" xlink:href="#aG"/><use transform="matrix(0.04938271604938272,0,0,0.04938271604938272,8.88888888888889,0)" xlink:href="#av"/><use transform="matrix(0.04938271604938272,0,0,0.04938271604938272,12.790123456790125,0)" xlink:href="#as"/><use transform="matrix(0.04938271604938272,0,0,0.04938271604938272,16.691358024691358,0)" xlink:href="#ak"/><use transform="matrix(0.04938271604938272,0,0,0.04938271604938272,26.567901234567902,0)" xlink:href="#at"/><use transform="matrix(0.04938271604938272,0,0,0.04938271604938272,36.44444444444444,0)" xlink:href="#al"/><use transform="matrix(0.04938271604938272,0,0,0.04938271604938272,41.382716049382715,0)" xlink:href="#ak"/><use transform="matrix(0.04938271604938272,0,0,0.04938271604938272,51.25925925925927,0)" xlink:href="#aL"/><use transform="matrix(0.04938271604938272,0,0,0.04938271604938272,57.135802469135804,0)" xlink:href="#aG"/><use transform="matrix(0.04938271604938272,0,0,0.04938271604938272,66.0246913580247,0)" xlink:href="#av"/><use transform="matrix(0.04938271604938272,0,0,0.04938271604938272,69.92592592592594,0)" xlink:href="#as"/><use transform="matrix(0.04938271604938272,0,0,0.04938271604938272,73.82716049382718,0)" xlink:href="#ak"/><use transform="matrix(0.04938271604938272,0,0,0.04938271604938272,83.70370370370372,0)" xlink:href="#at"/><use transform="matrix(0.04938271604938272,0,0,0.04938271604938272,93.58024691358027,0)" xlink:href="#al"/><use transform="matrix(0.04938271604938272,0,0,0.04938271604938272,98.51851851851853,0)" xlink:href="#ak"/><use transform="matrix(0.04938271604938272,0,0,0.04938271604938272,108.39506172839508,0)" xlink:href="#aP"/></g><g id="M"><use transform="matrix(0.04320987654320988,0,0,0.04320987654320988,0,0)" xlink:href="#aQ"/><use transform="matrix(0.04320987654320988,0,0,0.04320987654320988,8.641975308641976,0)" xlink:href="#aV"/><use transform="matrix(0.04320987654320988,0,0,0.04320987654320988,12.962962962962964,0)" xlink:href="#aI"/><use transform="matrix(0.04320987654320988,0,0,0.04320987654320988,21.604938271604944,0)" xlink:href="#aV"/><use transform="matrix(0.04320987654320988,0,0,0.04320987654320988,25.925925925925927,0)" xlink:href="#aQ"/><use transform="matrix(0.04320987654320988,0,0,0.04320987654320988,34.567901234567906,0)" xlink:href="#aV"/><use transform="matrix(0.04320987654320988,0,0,0.04320987654320988,38.88888888888889,0)" xlink:href="#aQ"/></g><use transform="matrix(0.04320987654320988,0,0,0.04320987654320988,0,0)" xlink:href="#aJ" id="N"/><g id="O"><use transform="matrix(0.04320987654320988,0,0,0.04320987654320988,0,0)" xlink:href="#aL"/><use transform="matrix(0.04320987654320988,0,0,0.04320987654320988,5.1419753086419755,0)" xlink:href="#aZ"/><use transform="matrix(0.04320987654320988,0,0,0.04320987654320988,15.512345679012347,0)" xlink:href="#ak"/></g><g id="P"><use transform="matrix(0.04320987654320988,0,0,0.04320987654320988,0,0)" xlink:href="#ah"/><use transform="matrix(0.04320987654320988,0,0,0.04320987654320988,8.641975308641976,0)" xlink:href="#an"/><use transform="matrix(0.04320987654320988,0,0,0.04320987654320988,17.283950617283953,0)" xlink:href="#ah"/><use transform="matrix(0.04320987654320988,0,0,0.04320987654320988,25.925925925925927,0)" xlink:href="#aq"/><use transform="matrix(0.04320987654320988,0,0,0.04320987654320988,34.567901234567906,0)" xlink:href="#ag"/></g><g id="Q"><use transform="matrix(0.04320987654320988,0,0,0.04320987654320988,0,0)" xlink:href="#at"/><use transform="matrix(0.04320987654320988,0,0,0.04320987654320988,8.641975308641976,0)" xlink:href="#aU"/><use transform="matrix(0.04320987654320988,0,0,0.04320987654320988,17.283950617283953,0)" xlink:href="#aq"/></g><g id="R"><use transform="matrix(0.04320987654320988,0,0,0.04320987654320988,0,0)" xlink:href="#ak"/><use transform="matrix(0.04320987654320988,0,0,0.04320987654320988,8.641975308641976,0)" xlink:href="#ba"/><use transform="matrix(0.04320987654320988,0,0,0.04320987654320988,16.419753086419753,0)" xlink:href="#as"/><use transform="matrix(0.04320987654320988,0,0,0.04320987654320988,19.833333333333336,0)" xlink:href="#ag"/><use transform="matrix(0.04320987654320988,0,0,0.04320987654320988,27.611111111111114,0)" xlink:href="#al"/><use transform="matrix(0.04320987654320988,0,0,0.04320987654320988,31.9320987654321,0)" xlink:href="#as"/><use transform="matrix(0.04320987654320988,0,0,0.04320987654320988,35.345679012345684,0)" xlink:href="#ao"/><use transform="matrix(0.04320987654320988,0,0,0.04320987654320988,40.48765432098766,0)" xlink:href="#aP"/></g><g id="S"><use transform="matrix(0.04320987654320988,0,0,0.04320987654320988,0,0)" xlink:href="#aJ"/><use transform="matrix(0.04320987654320988,0,0,0.04320987654320988,4.320987654320988,0)" xlink:href="#at"/><use transform="matrix(0.04320987654320988,0,0,0.04320987654320988,12.962962962962964,0)" xlink:href="#am"/><use transform="matrix(0.04320987654320988,0,0,0.04320987654320988,21.604938271604944,0)" xlink:href="#av"/><use transform="matrix(0.04320987654320988,0,0,0.04320987654320988,25.018518518518526,0)" xlink:href="#av"/></g><g id="T"><use transform="matrix(0.04938271604938272,0,0,0.04938271604938272,0,0)" xlink:href="#aQ"/><use transform="matrix(0.04938271604938272,0,0,0.04938271604938272,9.876543209876544,0)" xlink:href="#aV"/><use transform="matrix(0.04938271604938272,0,0,0.04938271604938272,14.814814814814817,0)" xlink:href="#aI"/><use transform="matrix(0.04938271604938272,0,0,0.04938271604938272,24.69135802469136,0)" xlink:href="#aV"/><use transform="matrix(0.04938271604938272,0,0,0.04938271604938272,29.629629629629633,0)" xlink:href="#aQ"/><use transform="matrix(0.04938271604938272,0,0,0.04938271604938272,39.50617283950618,0)" xlink:href="#aV"/><use transform="matrix(0.04938271604938272,0,0,0.04938271604938272,44.44444444444445,0)" xlink:href="#bc"/><use transform="matrix(0.04938271604938272,0,0,0.04938271604938272,54.320987654320994,0)" xlink:href="#aJ"/></g><g id="U"><use transform="matrix(0.04938271604938272,0,0,0.04938271604938272,0,0)" xlink:href="#ai"/><use transform="matrix(0.04938271604938272,0,0,0.04938271604938272,11.851851851851853,0)" xlink:href="#ao"/><use transform="matrix(0.04938271604938272,0,0,0.04938271604938272,17.728395061728396,0)" xlink:href="#ao"/><use transform="matrix(0.04938271604938272,0,0,0.04938271604938272,23.60493827160494,0)" xlink:href="#aq"/><use transform="matrix(0.04938271604938272,0,0,0.04938271604938272,33.48148148148148,0)" xlink:href="#aJ"/></g><g id="V"><use transform="matrix(0.04938271604938272,0,0,0.04938271604938272,0,0)" xlink:href="#au"/><use transform="matrix(0.04938271604938272,0,0,0.04938271604938272,12.790123456790125,0)" xlink:href="#ao"/><use transform="matrix(0.04938271604938272,0,0,0.04938271604938272,18.666666666666668,0)" xlink:href="#ak"/><use transform="matrix(0.04938271604938272,0,0,0.04938271604938272,28.543209876543212,0)" xlink:href="#ah"/><use transform="matrix(0.04938271604938272,0,0,0.04938271604938272,38.41975308641976,0)" xlink:href="#ak"/><use transform="matrix(0.04938271604938272,0,0,0.04938271604938272,48.296296296296305,0)" xlink:href="#at"/><use transform="matrix(0.04938271604938272,0,0,0.04938271604938272,58.17283950617284,0)" xlink:href="#aG"/><use transform="matrix(0.04938271604938272,0,0,0.04938271604938272,67.06172839506173,0)" xlink:href="#as"/><use transform="matrix(0.04938271604938272,0,0,0.04938271604938272,70.96296296296298,0)" xlink:href="#an"/><use transform="matrix(0.04938271604938272,0,0,0.04938271604938272,80.83950617283952,0)" xlink:href="#as"/><use transform="matrix(0.04938271604938272,0,0,0.04938271604938272,84.74074074074076,0)" xlink:href="#ag"/></g><path fill="#333" d="M108 0H70L1-190h34L89-25l56-165h34" id="bd"/><path fill="#333" d="M141-36C126-15 110 5 73 4 37 3 15-17 15-53c-1-64 63-63 125-63 3-35-9-54-41-54-24 1-41 7-42 31l-33-3c5-37 33-52 76-52 45 0 72 20 72 64v82c-1 20 7 32 28 27v20c-31 9-61-2-59-35zM48-53c0 20 12 33 32 33 41-3 63-29 60-74-43 2-92-5-92 41zm25-158c8-23 27-35 38-54h36v5l-58 49H73" id="be"/><g id="W"><use transform="matrix(0.04938271604938272,0,0,0.04938271604938272,0,0)" xlink:href="#as"/><use transform="matrix(0.04938271604938272,0,0,0.04938271604938272,3.901234567901235,0)" xlink:href="#at"/><use transform="matrix(0.04938271604938272,0,0,0.04938271604938272,13.777777777777779,0)" xlink:href="#bd"/><use transform="matrix(0.04938271604938272,0,0,0.04938271604938272,22.666666666666668,0)" xlink:href="#be"/><use transform="matrix(0.04938271604938272,0,0,0.04938271604938272,32.543209876543216,0)" xlink:href="#av"/><use transform="matrix(0.04938271604938272,0,0,0.04938271604938272,36.44444444444445,0)" xlink:href="#as"/><use transform="matrix(0.04938271604938272,0,0,0.04938271604938272,40.345679012345684,0)" xlink:href="#ah"/><use transform="matrix(0.04938271604938272,0,0,0.04938271604938272,50.22222222222223,0)" xlink:href="#an"/><use transform="matrix(0.04938271604938272,0,0,0.04938271604938272,60.09876543209877,0)" xlink:href="#ag"/></g><path fill="#333" d="M155-56V0h-30v-56H8v-25l114-167h33v167h35v25h-35zm-30-156c-27 46-58 90-88 131h88v-131" id="bf"/><g id="X"><use transform="matrix(0.04938271604938272,0,0,0.04938271604938272,0,0)" xlink:href="#aQ"/><use transform="matrix(0.04938271604938272,0,0,0.04938271604938272,9.876543209876544,0)" xlink:href="#aV"/><use transform="matrix(0.04938271604938272,0,0,0.04938271604938272,14.814814814814817,0)" xlink:href="#aI"/><use transform="matrix(0.04938271604938272,0,0,0.04938271604938272,24.69135802469136,0)" xlink:href="#aV"/><use transform="matrix(0.04938271604938272,0,0,0.04938271604938272,29.629629629629633,0)" xlink:href="#bf"/></g><g id="Y"><use transform="matrix(0.04938271604938272,0,0,0.04938271604938272,0,0)" xlink:href="#aL"/><use transform="matrix(0.04938271604938272,0,0,0.04938271604938272,5.8765432098765435,0)" xlink:href="#aZ"/><use transform="matrix(0.04938271604938272,0,0,0.04938271604938272,17.728395061728396,0)" xlink:href="#ak"/></g><g id="Z"><use transform="matrix(0.04938271604938272,0,0,0.04938271604938272,0,0)" xlink:href="#av"/><use transform="matrix(0.04938271604938272,0,0,0.04938271604938272,3.901234567901235,0)" xlink:href="#aq"/><use transform="matrix(0.04938271604938272,0,0,0.04938271604938272,13.777777777777779,0)" xlink:href="#ar"/><use transform="matrix(0.04938271604938272,0,0,0.04938271604938272,23.654320987654323,0)" xlink:href="#as"/><use transform="matrix(0.04938271604938272,0,0,0.04938271604938272,27.555555555555557,0)" xlink:href="#at"/></g><path fill="#333" d="M143 0L79-87 56-68V0H24v-261h32v163l83-92h37l-77 82L181 0h-38" id="bg"/><g id="aa"><use transform="matrix(0.04938271604938272,0,0,0.04938271604938272,0,0)" xlink:href="#aq"/><use transform="matrix(0.04938271604938272,0,0,0.04938271604938272,9.876543209876544,0)" xlink:href="#bg"/><use transform="matrix(0.04938271604938272,0,0,0.04938271604938272,18.765432098765434,0)" xlink:href="#aP"/></g><g id="ab"><use transform="matrix(0.04938271604938272,0,0,0.04938271604938272,0,0)" xlink:href="#al"/><use transform="matrix(0.04938271604938272,0,0,0.04938271604938272,4.938271604938272,0)" xlink:href="#ao"/><use transform="matrix(0.04938271604938272,0,0,0.04938271604938272,10.814814814814817,0)" xlink:href="#am"/><use transform="matrix(0.04938271604938272,0,0,0.04938271604938272,20.69135802469136,0)" xlink:href="#ak"/></g><g id="ac"><use transform="matrix(0.04938271604938272,0,0,0.04938271604938272,0,0)" xlink:href="#aQ"/><use transform="matrix(0.04938271604938272,0,0,0.04938271604938272,9.876543209876544,0)" xlink:href="#aV"/><use transform="matrix(0.04938271604938272,0,0,0.04938271604938272,14.814814814814817,0)" xlink:href="#aQ"/></g><path fill="#333" d="M240 0l2-218c-23 76-54 145-80 218h-23L58-218 59 0H30v-248h44l77 211c21-75 51-140 76-211h43V0h-30" id="bh"/><g id="ad"><use transform="matrix(0.04938271604938272,0,0,0.04938271604938272,0,0)" xlink:href="#bh"/><use transform="matrix(0.04938271604938272,0,0,0.04938271604938272,14.765432098765434,0)" xlink:href="#ak"/><use transform="matrix(0.04938271604938272,0,0,0.04938271604938272,24.641975308641978,0)" xlink:href="#at"/><use transform="matrix(0.04938271604938272,0,0,0.04938271604938272,34.51851851851852,0)" xlink:href="#ag"/><use transform="matrix(0.04938271604938272,0,0,0.04938271604938272,43.407407407407405,0)" xlink:href="#an"/><use transform="matrix(0.04938271604938272,0,0,0.04938271604938272,53.28395061728394,0)" xlink:href="#ar"/><use transform="matrix(0.04938271604938272,0,0,0.04938271604938272,63.1604938271605,0)" xlink:href="#ak"/><use transform="matrix(0.04938271604938272,0,0,0.04938271604938272,73.03703703703704,0)" xlink:href="#aM"/></g><g id="ae"><use transform="matrix(0.04938271604938272,0,0,0.04938271604938272,0,0)" xlink:href="#ah"/><use transform="matrix(0.04938271604938272,0,0,0.04938271604938272,9.876543209876544,0)" xlink:href="#ak"/></g><g id="af"><use transform="matrix(0.04938271604938272,0,0,0.04938271604938272,0,0)" xlink:href="#ag"/><use transform="matrix(0.04938271604938272,0,0,0.04938271604938272,8.88888888888889,0)" xlink:href="#am"/><use transform="matrix(0.04938271604938272,0,0,0.04938271604938272,18.765432098765434,0)" xlink:href="#aG"/><use transform="matrix(0.04938271604938272,0,0,0.04938271604938272,27.654320987654323,0)" xlink:href="#ak"/><use transform="matrix(0.04938271604938272,0,0,0.04938271604938272,37.53086419753087,0)" xlink:href="#ag"/><use transform="matrix(0.04938271604938272,0,0,0.04938271604938272,46.41975308641976,0)" xlink:href="#ag"/><use transform="matrix(0.04938271604938272,0,0,0.04938271604938272,55.308641975308646,0)" xlink:href="#aq"/></g></defs></g></svg>