<svg xmlns="http://www.w3.org/2000/svg" xmlns:xlink="http://www.w3.org/1999/xlink" xmlns:lucid="lucid" width="2161.28" height="1060"><g transform="translate(-80 -140)" lucid:page-tab-id="0_0"><path d="M0 0h3677.73v1322.83H0z" fill="#fff"/><path d="M100 166c0-3.3 2.7-6 6-6h243c3.3 0 6 2.7 6 6v8c0 3.3-1.9 7.9-4.24 10.24l-1.52 1.52C346.9 188.1 342.3 190 339 190H106c-3.3 0-6-2.7-6-6z" fill="#fff"/><path d="M355 160v20l-10 10H100" stroke="#5e5e5e" stroke-width="3" fill="none"/><path d="M100 166c0-3.3 2.7-6 6-6h2109.28c3.3 0 6 2.7 6 6v1008c0 3.3-2.7 6-6 6H106c-3.3 0-6-2.7-6-6z" stroke="#5e5e5e" stroke-width="3" fill="none"/><use xlink:href="#a" transform="matrix(1,0,0,1,108,160) translate(0 19.444444444444443)"/><use xlink:href="#b" transform="matrix(1,0,0,1,108,160) translate(29.62962962962963 19.444444444444443)"/><use xlink:href="#c" transform="matrix(1,0,0,1,108,160) translate(123.20987654320987 19.444444444444443)"/><path d="M173.33 303.7c0 4.13-3.34 7.47-7.46 7.47-4.1 0-7.45-3.34-7.45-7.46 0-4.1 3.34-7.45 7.45-7.45 4.12 0 7.46 3.34 7.46 7.46z" stroke="#5e5e5e" stroke-width="3" fill="#fff"/><path d="M165.87 311.17v14.88c0 3.3 1.8 8 4 10.48l17.28 19.4m-21.28-23.88l-21.27 23.87m0-37.3h42.55" stroke="#5e5e5e" stroke-width="3" fill="none"/><path d="M144.6 302.25c0-3.3 2.7-6 6-6h30.55c3.3 0 6 2.7 6 6v69.67c0 3.3-2.7 6-6 6H150.6c-3.3 0-6-2.7-6-6z" fill="none"/><path d="M165.87 378.92v9.87m0 9.87v19.76m0 9.87v19.76m0 9.88v19.75m0 9.87v19.76m0 9.87v19.76m0 9.88v19.75m0 9.87v19.75m0 9.88v19.76m0 9.87v19.76m0 9.87v19.75m0 9.88v19.75m0 9.88v19.76m0 9.86v19.76m0 9.88v19.75m0 9.88v19.75m0 9.88v19.76m0 9.88v19.75m0 9.88v19.75m0 9.88v19.76m0 9.87v19.75m0 9.88v19.75m0 9.88v19.75m0 9.9v19.75m0 9.87v19.76m0 9.88v19.75m0 9.9v19.74m0 9.88v9.88" stroke="#5e5e5e" stroke-width="2" fill="none"/><path d="M166.88 378.94h-2v-4.02h2z" fill="#5e5e5e"/><path d="M165.87 1178.97v1.03" stroke="#5e5e5e" stroke-width="2" fill="none"/><path d="M144.6 406c0-3.3 2.7-6 6-6h28c3.3 0 6 2.7 6 6v308c0 3.3-2.7 6-6 6h-28c-3.3 0-6-2.7-6-6z" stroke="#5e5e5e" stroke-width="3" fill="#fff"/><path d="M104.6 246c0-3.3 2.7-6 6-6h108c3.3 0 6 2.7 6 6v51.33c0 3.32-2.7 6-6 6h-108c-3.3 0-6-2.68-6-6z" stroke="#000" stroke-opacity="0" stroke-width="3" fill="#fff" fill-opacity="0"/><use xlink:href="#d" transform="matrix(1,0,0,1,109.59999999441328,244.99999999999997) translate(20.52469135802469 31.27777777777778)"/><path d="M600 353.8v9.84m0 9.82v19.65m0 9.83v19.65m0 9.82v19.65m0 9.82v19.65m0 9.82V511m0 9.8v19.66m0 9.83v19.63m0 9.83v19.64m0 9.83v19.64m0 9.83v19.65m0 9.82v19.65m0 9.82v19.65m0 9.8v19.66m0 9.82v19.65m0 9.82v19.65m0 9.82v19.65m0 9.83v19.64m0 9.83v19.64m0 9.84v19.64m0 9.83v19.66m0 9.82v19.65m0 9.82V1012m0 9.82v19.65m0 9.82v19.64m0 9.82v19.65m0 9.83v19.65m0 9.83v19.65m0 9.83v9.82" stroke="#5e5e5e" stroke-width="2" fill="none"/><path d="M601 353.84h-2v-.92l2-.2z" fill="#5e5e5e"/><path d="M600 1178.97v1.03" stroke="#5e5e5e" stroke-width="2" fill="none"/><path d="M580 406c0-3.3 2.7-6 6-6h28c3.3 0 6 2.7 6 6v308c0 3.3-2.7 6-6 6h-28c-3.3 0-6-2.7-6-6zM628.25 315.83c0 19.8-14.58 35.84-32.57 35.84-18 0-32.58-16.05-32.58-35.84 0-19.8 14.58-35.83 32.58-35.83s32.57 16.04 32.57 35.83z" stroke="#5e5e5e" stroke-width="3" fill="#fff"/><path d="M543.1 280v71.67m0-35.84h20" stroke="#5e5e5e" stroke-width="3" fill="none"/><path d="M1518.5 315.83c0 19.8-17.9 35.84-40 35.84s-40-16.05-40-35.84c0-19.8 17.9-35.83 40-35.83s40 16.04 40 35.83z" stroke="#5e5e5e" stroke-width="3" fill="#fff"/><path d="M1486.5 275.42l-8 4.58 8 5.5" stroke="#5e5e5e" stroke-width="3" fill="none"/><path d="M1478.5 354.17v10.18m0 10.18v20.37m0 10.18v20.37m0 10.18V456m0 10.18v20.37m0 10.18v20.37m0 10.18v20.37m0 10.18v20.37m0 10.18v20.37m0 10.18v20.36m0 10.18v20.36m0 10.2v20.35m0 10.18v20.36m0 10.2v20.35m0 10.18v20.36m0 10.18v20.37m0 10.17v20.37m0 10.18v20.37m0 10.17v20.37m0 10.18v20.37m0 10.17v20.37m0 10.18v20.37m0 10.17v20.37m0 10.18V1067m0 10.17v20.37m0 10.18v20.36m0 10.2v20.35m0 10.2V1179" stroke="#5e5e5e" stroke-width="2" fill="none"/><path d="M1478.48 353.17l1.02-.04v1.06h-2v-1.1z" fill="#5e5e5e"/><path d="M1478.5 1178.97v1.03" stroke="#5e5e5e" stroke-width="2" fill="none"/><path d="M1458.5 406c0-3.3 2.7-6 6-6h28c3.3 0 6 2.7 6 6v288c0 3.3-2.7 6-6 6h-28c-3.3 0-6-2.7-6-6z" stroke="#5e5e5e" stroke-width="3" fill="#fff"/><path d="M480 186c0-3.3 2.7-6 6-6h228c3.3 0 6 2.7 6 6v104.67c0 3.3-2.7 6-6 6H486c-3.3 0-6-2.7-6-6z" stroke="#000" stroke-opacity="0" stroke-width="3" fill="#fff" fill-opacity="0"/><use xlink:href="#e" transform="matrix(1,0,0,1,485,185) translate(16.944444444444443 57.90277777777778)"/><use xlink:href="#f" transform="matrix(1,0,0,1,485,185) translate(106.94444444444444 57.90277777777778)"/><use xlink:href="#g" transform="matrix(1,0,0,1,485,185) translate(137.80864197530866 57.90277777777778)"/><path d="M1358.5 226c0-3.3 2.7-6 6-6h228c3.3 0 6 2.7 6 6v48c0 3.3-2.7 6-6 6h-228c-3.3 0-6-2.7-6-6z" stroke="#000" stroke-opacity="0" stroke-width="3" fill="#fff" fill-opacity="0"/><use xlink:href="#h" transform="matrix(1,0,0,1,1363.5,225) translate(73.11728395061728 30.27777777777778)"/><path d="M2118.5 340c-22.1 0-40-13.43-40-30s17.9-30 40-30 40 13.43 40 30-17.9 30-40 30z" stroke="#5e5e5e" stroke-width="3" fill="#fff"/><path d="M2078.5 340h80" stroke="#5e5e5e" stroke-width="3" fill="none"/><path d="M2018.5 226c0-3.3 2.7-6 6-6h190.78c3.3 0 6 2.7 6 6v48c0 3.3-2.7 6-6 6H2024.5c-3.3 0-6-2.7-6-6z" stroke="#000" stroke-opacity="0" stroke-width="3" fill="#fff" fill-opacity="0"/><use xlink:href="#i" transform="matrix(1,0,0,1,2023.5,225) translate(47.76543209876543 30.27777777777778)"/><path d="M2118.5 342.5v9.96m0 9.96v19.9m0 9.97v19.9m0 9.97v19.9m0 9.97v19.92m0 9.96v19.9m0 9.97v19.9m0 9.97v19.9m0 9.97v19.92m0 9.96v19.9m0 9.97v19.9m0 9.97v19.9m0 9.97v19.92m0 9.96v19.9m0 9.97v19.9m0 9.97v19.9m0 9.97v19.92m0 9.96v19.9m0 9.97v19.9m0 9.97v19.9m0 9.97v19.92m0 9.96v19.9m0 9.97v19.9m0 9.97v19.9m0 9.97v19.92m0 9.96v19.9m0 9.97v19.9m0 9.97v19.9m0 9.97v9.96" stroke="#5e5e5e" stroke-width="2" fill="none"/><path d="M2118.45 341.5h1.05v1.03h-2v-1.03z" fill="#5e5e5e"/><path d="M2118.5 1178.97v1.03" stroke="#5e5e5e" stroke-width="2" fill="none"/><path d="M1778.5 286c0-3.3 2.7-6 6-6h148c3.3 0 6 2.7 6 6v48c0 3.3-2.7 6-6 6h-148c-3.3 0-6-2.7-6-6z" stroke="#5e5e5e" stroke-width="3" fill="#fff"/><use xlink:href="#j" transform="matrix(1,0,0,1,1778.5,280) translate(52.08 33.15)"/><path d="M2098.5 566c0-3.3 2.7-6 6-6h28c3.3 0 6 2.7 6 6v88c0 3.3-2.7 6-6 6h-28c-3.3 0-6-2.7-6-6z" stroke="#333" stroke-width="3" fill="#fff"/><path d="M1858.5 342.5v9.96m0 9.96v19.9m0 9.97v19.9m0 9.97v19.9m0 9.97v19.92m0 9.96v19.9m0 9.97v19.9m0 9.97v19.9m0 9.97v19.92m0 9.96v19.9m0 9.97v19.9m0 9.97v19.9m0 9.97v19.92m0 9.96v19.9m0 9.97v19.9m0 9.97v19.9m0 9.97v19.92m0 9.96v19.9m0 9.97v19.9m0 9.97v19.9m0 9.97v19.92m0 9.96v19.9m0 9.97v19.9m0 9.97v19.9m0 9.97v19.92m0 9.96v19.9m0 9.97v19.9m0 9.97v19.9m0 9.97v9.96" stroke="#5e5e5e" stroke-width="2" fill="none"/><path d="M1859.5 342.53h-2v-1.03h2z" fill="#5e5e5e"/><path d="M1858.5 1178.97v1.03M187.1 426.03H560" stroke="#5e5e5e" stroke-width="2" fill="none"/><path d="M187.13 427.03h-1.03v-2h1.03z" fill="#5e5e5e"/><path d="M575.26 426.03L561 430.66v-9.27z" stroke="#5e5e5e" stroke-width="2" fill="#5e5e5e"/><use xlink:href="#k" transform="matrix(1,0,0,1,269.8061728367128,400.69623888284536) translate(0 14.222222222222223)"/><use xlink:href="#l" transform="matrix(1,0,0,1,269.8061728367128,400.69623888284536) translate(19.75308641975309 14.222222222222223)"/><use xlink:href="#m" transform="matrix(1,0,0,1,269.8061728367128,400.69623888284536) translate(64.0493827160494 14.222222222222223)"/><use xlink:href="#n" transform="matrix(1,0,0,1,269.8061728367128,400.69623888284536) translate(88.74074074074076 14.222222222222223)"/><use xlink:href="#o" transform="matrix(1,0,0,1,269.8061728367128,400.69623888284536) translate(137.13580246913583 14.222222222222223)"/><use xlink:href="#p" transform="matrix(1,0,0,1,269.8061728367128,400.69623888284536) translate(161.8271604938272 14.222222222222223)"/><path d="M622.5 450.03h816" stroke="#5e5e5e" stroke-width="2" fill="none"/><path d="M622.53 451.03h-1.03v-2h1.03z" fill="#5e5e5e"/><path d="M1453.76 450.03l-14.26 4.64v-9.27z" stroke="#5e5e5e" stroke-width="2" fill="#5e5e5e"/><use xlink:href="#q" transform="matrix(1,0,0,1,668.8769430068571,424.6979049231934) translate(0 14.222222222222223)"/><use xlink:href="#r" transform="matrix(1,0,0,1,668.8769430068571,424.6979049231934) translate(29.629629629629633 14.222222222222223)"/><use xlink:href="#s" transform="matrix(1,0,0,1,668.8769430068571,424.6979049231934) translate(39.50617283950618 14.222222222222223)"/><use xlink:href="#t" transform="matrix(1,0,0,1,668.8769430068571,424.6979049231934) translate(114.37037037037038 14.222222222222223)"/><use xlink:href="#u" transform="matrix(1,0,0,1,668.8769430068571,424.6979049231934) translate(181.4814814814815 14.222222222222223)"/><path d="M1838.5 466c0-3.3 2.7-6 6-6h28c3.3 0 6 2.7 6 6v88c0 3.3-2.7 6-6 6h-28c-3.3 0-6-2.7-6-6z" stroke="#5e5e5e" stroke-width="3" fill="#fff"/><path d="M1501 488.43h317.5" stroke="#5e5e5e" stroke-width="2" fill="none"/><path d="M1501.03 489.43H1500v-2h1.03z" fill="#5e5e5e"/><path d="M1833.76 488.43l-14.26 4.64v-9.27z" stroke="#5e5e5e" stroke-width="2" fill="#5e5e5e"/><use xlink:href="#v" transform="matrix(1,0,0,1,1513.6604938271605,463.10057058775027) translate(0 14.222222222222223)"/><use xlink:href="#r" transform="matrix(1,0,0,1,1513.6604938271605,463.10057058775027) translate(44.44444444444445 14.222222222222223)"/><use xlink:href="#w" transform="matrix(1,0,0,1,1513.6604938271605,463.10057058775027) translate(54.320987654320994 14.222222222222223)"/><use xlink:href="#x" transform="matrix(1,0,0,1,1513.6604938271605,463.10057058775027) translate(122.37037037037038 14.222222222222223)"/><use xlink:href="#y" transform="matrix(1,0,0,1,1513.6604938271605,463.10057058775027) translate(187.50617283950618 14.222222222222223)"/><use xlink:href="#z" transform="matrix(1,0,0,1,1513.6604938271605,463.10057058775027) translate(217.08641975308643 14.222222222222223)"/><path d="M1501 588.04h577.5" stroke="#5e5e5e" stroke-width="2" fill="none"/><path d="M1501.03 589.04H1500v-2h1.03z" fill="#5e5e5e"/><path d="M2093.76 588.04l-14.26 4.64v-9.27z" stroke="#5e5e5e" stroke-width="2" fill="#5e5e5e"/><use xlink:href="#A" transform="matrix(1,0,0,1,1509.3641554976848,562.707484655195) translate(0 14.222222222222223)"/><use xlink:href="#r" transform="matrix(1,0,0,1,1509.3641554976848,562.707484655195) translate(44.44444444444445 14.222222222222223)"/><use xlink:href="#w" transform="matrix(1,0,0,1,1509.3641554976848,562.707484655195) translate(54.320987654320994 14.222222222222223)"/><use xlink:href="#B" transform="matrix(1,0,0,1,1509.3641554976848,562.707484655195) translate(122.37037037037038 14.222222222222223)"/><path d="M2096 643.24h-3.02m-4.03 0h-6.04m-4.02 0h-6.04m-4.03 0h-6.03m-4.03 0h-6.04m-4.03 0h-6.05m-4.02 0h-6.05m-4.02 0h-6.05m-4.03 0h-6.04m-4.02 0h-6.04m-4.03 0h-6.03m-4.03 0h-6.04m-4.03 0h-6.04m-4.03 0h-6.04m-4.03 0H1952m-4.04 0h-6.04m-4.03 0h-6.06m-4.02 0h-6.05m-4.02 0h-6.05m-4.03 0h-6.04m-4.03 0h-6.04m-4.03 0h-6.04m-4.04 0h-6.04m-4.03 0h-6.05m-4.03 0h-6.04m-4.03 0h-6.04m-4.02 0h-6.04m-4.03 0h-6.03m-4.03 0H1811m-4.03 0h-6.05m-4.03 0h-6.05m-4.03 0h-6.04m-4.03 0h-6.04m-4.02 0h-6.04m-4.03 0h-6.03m-4.03 0h-6.04m-4.03 0h-6.04m-4.03 0h-6.04m-4.03 0h-6.04m-4.04 0h-6.05m-4 0h-6.06m-4.02 0h-6.05m-4.03 0H1670m-4.03 0h-6.04m-4.03 0h-6.04m-4.03 0h-6.04m-4.04 0h-6.04m-4.03 0h-6.05m-4.03 0h-6.04m-4.03 0h-6.04m-4.02 0h-6.05m-4.02 0h-6.04m-4.02 0h-6.05m-4.04 0h-6.04m-4.03 0h-6.05m-4.03 0h-6.04m-4.03 0H1529m-4.02 0h-6.04m-4.03 0h-6.03m-4.03 0h-3.02" stroke="#5e5e5e" stroke-width="2" fill="none"/><path d="M2097 644.24h-1.03v-2h1.03z" fill="#5e5e5e"/><path d="M1519.18 633.06l-17.22 10.18 17.22 10.2" stroke="#5e5e5e" stroke-width="2" fill="none"/><use xlink:href="#C" transform="matrix(1,0,0,1,1518.8795983137009,647.2446498813288) translate(0 14.222222222222223)"/><use xlink:href="#D" transform="matrix(1,0,0,1,1518.8795983137009,647.2446498813288) translate(64.19753086419755 14.222222222222223)"/><use xlink:href="#E" transform="matrix(1,0,0,1,1518.8795983137009,647.2446498813288) translate(95.80246913580248 14.222222222222223)"/><use xlink:href="#F" transform="matrix(1,0,0,1,1518.8795983137009,647.2446498813288) translate(170.86419753086423 14.222222222222223)"/><use xlink:href="#G" transform="matrix(1,0,0,1,1518.8795983137009,647.2446498813288) translate(243.90123456790127 14.222222222222223)"/><path d="M1456 661.25h-3m-4.02 0h-6.02m-4 0h-6.03m-4.02 0h-6m-4.02 0h-6.02m-4 0h-6.03m-4 0h-6.03m-4.02 0h-6.02m-4 0h-6.03m-4 0h-6.03m-4 0h-6.03m-4.02 0h-6.02m-4 0h-6.03m-4 0h-6.03m-4 0h-6.03m-4 0h-6.03m-4 0h-6.03m-4 0h-6.03m-4 0h-6.03m-4 0h-6.02m-4.02 0h-6.02m-4 0h-6.03m-4 0h-6.02m-4 0h-6.03m-4.02 0h-6.02m-4 0h-6.02m-4 0h-6.03m-4 0h-6.03m-4.02 0h-6m-4.03 0h-6.02m-4 0H1152m-4 0h-6.03m-4.02 0h-6.02m-4.02 0h-6.02m-4 0h-6.03m-4.02 0h-6.02m-4 0h-6.03m-4.02 0h-6m-4.02 0h-6.02m-4 0h-6.03m-4 0h-6.03m-4.02 0h-6m-4.03 0h-6.02m-4 0h-6.03m-4 0h-6.03m-4 0h-6.03m-4.02 0h-6.02m-4 0h-6.03m-4 0h-6.03m-4 0h-6.03m-4 0h-6.03m-4 0h-6.03m-4 0h-6.03m-4 0h-6.02m-4.02 0h-6m-4.03 0h-6.02m-4 0h-6.02m-4 0h-6.03m-4 0h-6.03m-4.02 0h-6.02m-4 0h-6.03m-4 0H841m-4 0h-6.03m-4.03 0h-6.02m-4 0h-6.03m-4 0h-6.03m-4.02 0h-6.02m-4.02 0h-6m-4.03 0h-6m-4.02 0h-6.02m-4 0h-6.03m-4 0h-6.03m-4.02 0h-6.02m-4 0h-6.03m-4 0h-6.03m-4 0h-6.03m-4.02 0h-6.02m-4 0h-6.03m-4 0h-6.03m-4 0h-6.03m-4.02 0h-6m-4.03 0h-6.03m-4 0h-6.03m-4 0h-3.02" stroke="#5e5e5e" stroke-width="2" fill="none"/><path d="M1457 662.25h-1.03v-2h1.03z" fill="#5e5e5e"/><path d="M640.68 651.07l-17.22 10.18 17.22 10.18" stroke="#5e5e5e" stroke-width="2" fill="none"/><use xlink:href="#H" transform="matrix(1,0,0,1,660.8075292551913,665.2458994115899) translate(0 14.222222222222223)"/><use xlink:href="#r" transform="matrix(1,0,0,1,660.8075292551913,665.2458994115899) translate(29.629629629629633 14.222222222222223)"/><use xlink:href="#I" transform="matrix(1,0,0,1,660.8075292551913,665.2458994115899) translate(39.50617283950618 14.222222222222223)"/><use xlink:href="#J" transform="matrix(1,0,0,1,660.8075292551913,665.2458994115899) translate(69.08641975308643 14.222222222222223)"/><use xlink:href="#K" transform="matrix(1,0,0,1,660.8075292551913,665.2458994115899) translate(98.66666666666669 14.222222222222223)"/><path d="M577.5 684.05h-2.93m-3.9 0h-5.86m-3.9 0h-5.85m-3.9 0h-5.86m-3.9 0h-5.87m-3.9 0h-5.86m-3.9 0H516m-3.9 0h-5.85m-3.9 0h-5.86m-3.9 0h-5.87m-3.9 0h-5.86m-3.9 0h-5.86m-3.9 0h-5.85m-3.9 0h-5.86m-3.9 0h-5.87m-3.9 0h-5.86m-3.9 0h-5.86m-3.9 0h-5.85m-3.9 0h-5.86m-3.9 0h-5.87m-3.9 0h-6m-4.1 0H369m-4.1 0h-6.13m-4.1 0h-6.13m-4.1 0h-6.13m-4.08 0h-6.14m-4.1 0h-6.13m-4.1 0h-6.13m-4.1 0h-6.13m-4.1 0h-6.14m-4.1 0h-6.13m-4.1 0h-6.14m-4.1 0h-6.14m-4.1 0h-6.13m-4.1 0H236m-4.1 0h-6.13m-4.1 0h-6.13m-4.1 0h-6.13m-4.08 0h-6.14m-4.1 0h-3.06" stroke="#5e5e5e" stroke-width="2" fill="none"/><path d="M578.5 685.05h-1.03v-2h1.03z" fill="#5e5e5e"/><path d="M205.28 673.87l-17.2 10.18 17.2 10.18" stroke="#5e5e5e" stroke-width="2" fill="none"/><use xlink:href="#L" transform="matrix(1,0,0,1,266.29999999720667,688.0474821499206) translate(0 14.222222222222223)"/><use xlink:href="#M" transform="matrix(1,0,0,1,266.29999999720667,688.0474821499206) translate(49.38271604938272 14.222222222222223)"/><use xlink:href="#o" transform="matrix(1,0,0,1,266.29999999720667,688.0474821499206) translate(142.12345679012344 14.222222222222223)"/><use xlink:href="#N" transform="matrix(1,0,0,1,266.29999999720667,688.0474821499206) translate(166.8148148148148 14.222222222222223)"/><path d="M1045.15 315.83c0 19.8-14.58 35.84-32.57 35.84-18 0-32.58-16.05-32.58-35.84 0-19.8 14.58-35.83 32.58-35.83s32.57 16.04 32.57 35.83z" stroke="#5e5e5e" stroke-width="3" fill="#fff"/><path d="M960 280v71.67m0-35.84h20" stroke="#5e5e5e" stroke-width="3" fill="none"/><path d="M1263.65 315.83c0 19.8-14.58 35.84-32.57 35.84-18 0-32.58-16.05-32.58-35.84 0-19.8 14.58-35.83 32.58-35.83s32.57 16.04 32.57 35.83z" stroke="#5e5e5e" stroke-width="3" fill="#fff"/><path d="M1178.5 280v71.67m0-35.84h20" stroke="#5e5e5e" stroke-width="3" fill="none"/><path d="M1020 353.2v9.83m0 9.84v19.66m0 9.83v19.66m0 9.83v19.66m0 9.84V481m0 9.84v19.66m0 9.83V540m0 9.82v19.66m0 9.83V599m0 9.83v19.67m0 9.83v19.66m0 9.83v19.65m0 9.84v19.65m0 9.83v19.66m0 9.83v19.66m0 9.83v19.67m0 9.83v19.66m0 9.83v19.66m0 9.84v19.66m0 9.83v19.67m0 9.83v19.66m0 9.82v19.66m0 9.83v19.67m0 9.84v19.67m0 9.83v19.66m0 9.83v19.65m0 9.83v19.67m0 9.83v19.66m0 9.83v9.83" stroke="#5e5e5e" stroke-width="2" fill="none"/><path d="M1021 353.23h-2v-.78l2-.5z" fill="#5e5e5e"/><path d="M1020 1178.97v1.03M1240 352.83v9.83m0 9.84v19.67m0 9.84v19.68m0 9.83v19.68m0 9.84v19.67m0 9.82v19.67m0 9.83v19.67m0 9.84v19.67m0 9.84v19.67m0 9.85v19.67m0 9.83v19.67m0 9.84v19.67m0 9.84v19.67m0 9.83v19.67m0 9.84v19.67m0 9.83v19.68m0 9.83v19.66m0 9.84v19.67m0 9.83v19.67m0 9.84v19.68m0 9.84v19.67m0 9.82v19.67m0 9.83v19.67m0 9.83v19.67m0 9.84v19.67m0 9.85v19.67m0 9.83v19.67m0 9.84v19.67m0 9.83v9.84" stroke="#5e5e5e" stroke-width="2" fill="none"/><path d="M1241 352.85h-2v-.77l1.8-.45.2-.08z" fill="#5e5e5e"/><path d="M1240 1178.97v1.03" stroke="#5e5e5e" stroke-width="2" fill="none"/><path d="M882.58 185.58c0-3.3 2.68-6 6-6h228c3.3 0 6 2.7 6 6v104.67c0 3.3-2.7 6-6 6h-228c-3.32 0-6-2.7-6-6z" stroke="#000" stroke-opacity="0" stroke-width="3" fill="#fff" fill-opacity="0"/><use xlink:href="#O" transform="matrix(1,0,0,1,887.5763903781833,184.58333333333337) translate(37.96296296296296 57.90277777777778)"/><use xlink:href="#P" transform="matrix(1,0,0,1,887.5763903781833,184.58333333333337) translate(150.1851851851852 57.90277777777778)"/><path d="M1118.5 186c0-3.3 2.7-6 6-6h228c3.3 0 6 2.7 6 6v104.67c0 3.3-2.7 6-6 6h-228c-3.3 0-6-2.7-6-6z" stroke="#000" stroke-opacity="0" stroke-width="3" fill="#fff" fill-opacity="0"/><use xlink:href="#Q" transform="matrix(1,0,0,1,1123.5,185) translate(34.25925925925927 57.90277777777778)"/><use xlink:href="#R" transform="matrix(1,0,0,1,1123.5,185) translate(81.0493827160494 57.90277777777778)"/><use xlink:href="#S" transform="matrix(1,0,0,1,1123.5,185) translate(111.91358024691358 57.90277777777778)"/><path d="M144.6 846c0-3.3 2.7-6 6-6h28c3.3 0 6 2.7 6 6v288c0 3.3-2.7 6-6 6h-28c-3.3 0-6-2.7-6-6zM1000 846c0-3.3 2.7-6 6-6h28c3.3 0 6 2.7 6 6v108c0 3.3-2.7 6-6 6h-28c-3.3 0-6-2.7-6-6z" stroke="#5e5e5e" stroke-width="3" fill="#fff"/><path d="M187.1 853.85H980" stroke="#5e5e5e" stroke-width="2" fill="none"/><path d="M187.13 854.85h-1.03v-2h1.03z" fill="#5e5e5e"/><path d="M995.26 853.85L981 858.48v-9.27z" stroke="#5e5e5e" stroke-width="2" fill="#5e5e5e"/><g><use xlink:href="#T" transform="matrix(1,0,0,1,259.57971272556233,828.5128205128583) translate(0 14.222222222222223)"/><use xlink:href="#U" transform="matrix(1,0,0,1,259.57971272556233,828.5128205128583) translate(19.75308641975309 14.222222222222223)"/><use xlink:href="#V" transform="matrix(1,0,0,1,259.57971272556233,828.5128205128583) translate(102.61728395061729 14.222222222222223)"/><use xlink:href="#W" transform="matrix(1,0,0,1,259.57971272556233,828.5128205128583) translate(117.4320987654321 14.222222222222223)"/><use xlink:href="#X" transform="matrix(1,0,0,1,259.57971272556233,828.5128205128583) translate(152 14.222222222222223)"/></g><path d="M1458.5 846c0-3.3 2.7-6 6-6h28c3.3 0 6 2.7 6 6v288c0 3.3-2.7 6-6 6h-28c-3.3 0-6-2.7-6-6z" stroke="#5e5e5e" stroke-width="3" fill="#fff"/><path d="M1042.5 871.63h396" stroke="#5e5e5e" stroke-width="2" fill="none"/><path d="M1042.53 872.63h-1.03v-2h1.03z" fill="#5e5e5e"/><path d="M1453.76 871.63l-14.26 4.64V867z" stroke="#5e5e5e" stroke-width="2" fill="#5e5e5e"/><g><use xlink:href="#Y" transform="matrix(1,0,0,1,1056.0202991453496,846.3012820513206) translate(0 14.222222222222223)"/><use xlink:href="#r" transform="matrix(1,0,0,1,1056.0202991453496,846.3012820513206) translate(29.629629629629633 14.222222222222223)"/><use xlink:href="#Z" transform="matrix(1,0,0,1,1056.0202991453496,846.3012820513206) translate(39.50617283950618 14.222222222222223)"/><use xlink:href="#X" transform="matrix(1,0,0,1,1056.0202991453496,846.3012820513206) translate(108.49382716049385 14.222222222222223)"/></g><path d="M1840 866c0-3.3 2.7-6 6-6h28c3.3 0 6 2.7 6 6v88c0 3.3-2.7 6-6 6h-28c-3.3 0-6-2.7-6-6z" stroke="#5e5e5e" stroke-width="3" fill="#fff"/><path d="M1501 884.98h319" stroke="#5e5e5e" stroke-width="2" fill="none"/><path d="M1501.03 885.98H1500v-2h1.03z" fill="#5e5e5e"/><path d="M1835.26 884.98L1821 889.6v-9.26z" stroke="#5e5e5e" stroke-width="2" fill="#5e5e5e"/><g><use xlink:href="#aa" transform="matrix(1,0,0,1,1532.707027540433,859.6426282051673) translate(0 14.222222222222223)"/><use xlink:href="#r" transform="matrix(1,0,0,1,1532.707027540433,859.6426282051673) translate(44.44444444444445 14.222222222222223)"/><use xlink:href="#ab" transform="matrix(1,0,0,1,1532.707027540433,859.6426282051673) translate(54.320987654320994 14.222222222222223)"/><use xlink:href="#ac" transform="matrix(1,0,0,1,1532.707027540433,859.6426282051673) translate(83.95061728395063 14.222222222222223)"/><use xlink:href="#X" transform="matrix(1,0,0,1,1532.707027540433,859.6426282051673) translate(126.37037037037038 14.222222222222223)"/></g><path d="M1837.5 930.34h-2.96m-3.95 0h-5.93m-3.95 0h-5.93m-3.96 0h-5.92m-3.95 0h-5.92m-3.95 0h-5.93m-3.95 0h-5.92m-3.95 0h-5.92m-3.95 0h-5.93m-3.95 0h-5.92m-3.95 0h-5.92m-3.94 0h-5.92m-3.95 0h-5.94m-3.95 0h-5.9m-3.96 0h-5.92m-3.95 0h-5.93m-3.95 0h-5.93m-3.95 0h-5.92m-3.95 0h-5.93m-3.94 0h-5.93m-3.95 0h-5.92m-3.95 0h-5.92m-3.94 0h-5.93m-3.95 0h-5.92m-3.95 0h-5.9m-3.96 0h-5.93m-3.94 0h-5.92m-3.95 0h-5.93m-3.95 0h-5.93m-3.95 0h-5.93m-3.95 0h-5.92m-3.95 0h-5.92m-3.95 0h-5.93m-3.95 0h-5.92m-3.95 0h-2.96" stroke="#5e5e5e" stroke-width="2" fill="none"/><path d="M1838.5 931.34h-1.03v-2h1.03z" fill="#5e5e5e"/><path d="M1519.18 920.16l-17.22 10.18 17.22 10.18" stroke="#5e5e5e" stroke-width="2" fill="none"/><g><use xlink:href="#ad" transform="matrix(1,0,0,1,1528.5819681862067,934.3365384615795) translate(0 14.222222222222223)"/><use xlink:href="#ac" transform="matrix(1,0,0,1,1528.5819681862067,934.3365384615795) translate(49.38271604938272 14.222222222222223)"/><use xlink:href="#r" transform="matrix(1,0,0,1,1528.5819681862067,934.3365384615795) translate(91.80246913580248 14.222222222222223)"/><use xlink:href="#ae" transform="matrix(1,0,0,1,1528.5819681862067,934.3365384615795) translate(101.67901234567903 14.222222222222223)"/></g><path d="M2099.9 1006c0-3.3 2.68-6 6-6h28c3.3 0 6 2.7 6 6v68c0 3.3-2.7 6-6 6h-28c-3.32 0-6-2.7-6-6z" stroke="#5e5e5e" stroke-width="3" fill="#fff"/><path d="M1501 1013.05h578.9" stroke="#5e5e5e" stroke-width="2" fill="none"/><path d="M1501.03 1014.05H1500v-2h1.03z" fill="#5e5e5e"/><path d="M2095.15 1013.05l-14.26 4.64v-9.28z" stroke="#5e5e5e" stroke-width="2" fill="#5e5e5e"/><g><use xlink:href="#af" transform="matrix(1,0,0,1,1526.2819325736712,987.7195512820962) translate(0 14.222222222222223)"/><use xlink:href="#r" transform="matrix(1,0,0,1,1526.2819325736712,987.7195512820962) translate(44.44444444444445 14.222222222222223)"/><use xlink:href="#ag" transform="matrix(1,0,0,1,1526.2819325736712,987.7195512820962) translate(54.320987654320994 14.222222222222223)"/><use xlink:href="#ah" transform="matrix(1,0,0,1,1526.2819325736712,987.7195512820962) translate(119.40740740740742 14.222222222222223)"/></g><path d="M2097.4 1055.75h-3m-3.96 0h-5.96m-3.97 0h-5.94m-3.97 0h-5.97m-3.97 0h-5.95m-3.96 0h-5.96m-3.97 0h-5.95m-3.97 0h-5.95m-3.97 0H2015m-3.97 0h-5.95m-3.98 0h-5.95m-3.97 0h-5.96m-3.97 0h-5.95m-3.97 0h-5.96m-3.97 0h-5.96m-3.97 0h-5.95m-3.97 0h-5.96m-3.98 0h-5.95m-3.97 0h-5.96m-3.97 0h-5.96m-3.96 0h-5.95m-3.98 0h-5.96m-3.97 0h-5.96m-3.98 0h-5.95m-3.96 0h-5.96m-3.97 0h-5.94m-3.97 0h-5.97m-3.97 0h-5.96m-3.97 0h-5.95m-3.97 0h-5.95m-3.97 0h-5.95m-3.97 0h-5.96m-3.97 0h-5.96m-3.97 0h-5.95m-3.97 0h-5.96m-3.97 0H1747m-3.98 0h-5.95m-3.97 0h-5.96m-3.97 0h-5.95m-3.97 0h-5.96m-3.98 0h-5.96m-3.97 0h-5.96m-3.97 0h-5.96m-3.96 0h-5.95m-4 0h-5.94m-3.97 0h-5.97m-3.97 0h-5.95m-3.96 0h-5.96m-3.97 0h-5.95m-3.97 0h-5.95m-3.97 0h-5.96m-3.97 0h-5.95m-3.97 0h-5.95m-3.97 0h-5.96m-3.97 0h-5.95m-3.97 0h-5.96m-3.97 0h-5.95m-3.98 0h-5.95m-3.97 0h-5.96m-3.98 0h-5.95m-3.97 0h-2.98" stroke="#5e5e5e" stroke-width="2" fill="none"/><path d="M2098.4 1056.75h-1.04v-2h1.03z" fill="#5e5e5e"/><path d="M1519.18 1045.56l-17.22 10.2 17.22 10.17" stroke="#5e5e5e" stroke-width="2" fill="none"/><g><use xlink:href="#ai" transform="matrix(1,0,0,1,1524.0306267807002,1059.7451923077392) translate(0 14.222222222222223)"/><use xlink:href="#aj" transform="matrix(1,0,0,1,1524.0306267807002,1059.7451923077392) translate(64.19753086419755 14.222222222222223)"/><use xlink:href="#r" transform="matrix(1,0,0,1,1524.0306267807002,1059.7451923077392) translate(140.19753086419755 14.222222222222223)"/><use xlink:href="#ak" transform="matrix(1,0,0,1,1524.0306267807002,1059.7451923077392) translate(150.07407407407408 14.222222222222223)"/></g><path d="M1220 1066c0-3.3 2.7-6 6-6h28c3.3 0 6 2.7 6 6v88c0 3.3-2.7 6-6 6h-28c-3.3 0-6-2.7-6-6z" stroke="#5e5e5e" stroke-width="3" fill="#fff"/><path d="M1456 1089.54h-176" stroke="#5e5e5e" stroke-width="2" fill="none"/><path d="M1457 1090.54h-1.03v-2h1.03z" fill="#5e5e5e"/><path d="M1264.74 1089.54l14.26-4.63v9.28z" stroke="#5e5e5e" stroke-width="2" fill="#5e5e5e"/><g><use xlink:href="#al" transform="matrix(1,0,0,1,1260.7222222222217,1093.5432692308175) translate(0 10.666666666666666)"/><use xlink:href="#am" transform="matrix(1,0,0,1,1260.7222222222217,1093.5432692308175) translate(37.03703703703703 10.666666666666666)"/><use xlink:href="#an" transform="matrix(1,0,0,1,1260.7222222222217,1093.5432692308175) translate(74.03703703703702 10.666666666666666)"/></g><path d="M1217.5 1122.45h-3m-4 0h-6m-4 0h-6m-4 0h-6m-3.98 0h-6m-4 0h-6m-4 0h-6m-4 0h-6m-4 0h-6m-3.98 0h-6m-4 0h-6m-4 0h-6m-4 0h-6m-4 0h-6m-3.98 0h-6m-4 0h-6m-4 0h-6m-4 0h-6m-4 0h-6m-3.98 0h-6m-4 0h-6m-4 0h-6m-4 0h-6m-4 0h-6m-3.98 0h-6m-4 0h-6m-4 0h-6m-4 0h-6m-4 0h-6m-3.98 0h-6m-4 0h-6m-4 0h-6m-4 0h-6m-4 0h-5.98m-4 0h-6m-4 0h-6m-4 0h-6m-4 0h-6m-4 0h-5.98m-4 0h-6m-4 0h-6m-4 0h-6m-4 0h-6m-4 0h-5.98m-4 0h-6m-4 0h-6m-4 0h-6m-4 0h-6m-4 0h-5.98m-4 0h-6m-4 0h-6m-4 0h-6m-4 0h-6m-4 0h-5.98m-4 0h-6m-4 0h-6m-4 0h-6m-4 0h-6m-4 0h-5.98m-4 0h-6m-4 0h-6m-4 0h-6m-4 0h-6m-4 0h-5.98m-4 0h-6m-4 0h-6m-4 0h-6m-4 0h-6m-4 0h-5.98m-4 0h-6m-4 0h-6m-4 0h-6m-4 0h-6m-3.98 0h-6m-4 0h-6m-4 0h-6m-4 0h-6m-4 0h-6m-3.98 0h-6m-4 0h-6m-4 0h-6m-4 0h-6m-4 0h-6m-3.98 0h-6m-4 0h-6m-4 0h-6m-4 0h-6m-4 0h-6m-3.98 0h-6m-4 0h-6m-4 0h-6m-4 0h-6m-4 0h-6m-3.98 0h-6m-4 0h-6m-4 0h-6m-4 0h-6m-4 0h-5.98m-4 0h-6m-4 0h-6m-4 0h-6m-4 0h-6m-4 0h-5.98m-4 0h-3" stroke="#5e5e5e" stroke-width="2" fill="none"/><path d="M1218.5 1123.45h-1.03v-2h1.03z" fill="#5e5e5e"/><path d="M205.28 1112.27l-17.22 10.18 17.22 10.18" stroke="#5e5e5e" stroke-width="2" fill="none"/><g><use xlink:href="#ao" transform="matrix(1,0,0,1,761.9953703704083,1126.451923076973) translate(0 14.222222222222223)"/><use xlink:href="#ap" transform="matrix(1,0,0,1,761.9953703704083,1126.451923076973) translate(29.629629629629633 14.222222222222223)"/><use xlink:href="#aq" transform="matrix(1,0,0,1,761.9953703704083,1126.451923076973) translate(40.44444444444445 14.222222222222223)"/><use xlink:href="#ar" transform="matrix(1,0,0,1,761.9953703704083,1126.451923076973) translate(86.76543209876544 14.222222222222223)"/><use xlink:href="#as" transform="matrix(1,0,0,1,761.9953703704083,1126.451923076973) translate(112.39506172839508 14.222222222222223)"/></g><defs><path fill="#333" d="M135-143c-3-34-86-38-87 0 15 53 115 12 119 90S17 21 10-45l28-5c4 36 97 45 98 0-10-56-113-15-118-90-4-57 82-63 122-42 12 7 21 19 24 35" id="at"/><path fill="#333" d="M85-194c31 0 48 13 60 33l-1-100h32l1 261h-30c-2-10 0-23-3-31C134-8 116 4 85 4 32 4 16-35 15-94c0-66 23-100 70-100zm9 24c-40 0-46 34-46 75 0 40 6 74 45 74 42 0 51-32 51-76 0-42-9-74-50-73" id="au"/><g id="a"><use transform="matrix(0.06172839506172839,0,0,0.06172839506172839,0,0)" xlink:href="#at"/><use transform="matrix(0.06172839506172839,0,0,0.06172839506172839,11.11111111111111,0)" xlink:href="#au"/></g><path fill="#333" d="M63-220v92h138v28H63V0H30v-248h175v28H63" id="av"/><path fill="#333" d="M141-36C126-15 110 5 73 4 37 3 15-17 15-53c-1-64 63-63 125-63 3-35-9-54-41-54-24 1-41 7-42 31l-33-3c5-37 33-52 76-52 45 0 72 20 72 64v82c-1 20 7 32 28 27v20c-31 9-61-2-59-35zM48-53c0 20 12 33 32 33 41-3 63-29 60-74-43 2-92-5-92 41" id="aw"/><path fill="#333" d="M108 0H70L1-190h34L89-25l56-165h34" id="ax"/><path fill="#333" d="M100-194c62-1 85 37 85 99 1 63-27 99-86 99S16-35 15-95c0-66 28-99 85-99zM99-20c44 1 53-31 53-75 0-43-8-75-51-75s-53 32-53 75 10 74 51 75" id="ay"/><path fill="#333" d="M114-163C36-179 61-72 57 0H25l-1-190h30c1 12-1 29 2 39 6-27 23-49 58-41v29" id="az"/><path fill="#333" d="M24-231v-30h32v30H24zM24 0v-190h32V0H24" id="aA"/><path fill="#333" d="M59-47c-2 24 18 29 38 22v24C64 9 27 4 27-40v-127H5v-23h24l9-43h21v43h35v23H59v120" id="aB"/><g id="b"><use transform="matrix(0.06172839506172839,0,0,0.06172839506172839,0,0)" xlink:href="#av"/><use transform="matrix(0.06172839506172839,0,0,0.06172839506172839,13.518518518518517,0)" xlink:href="#aw"/><use transform="matrix(0.06172839506172839,0,0,0.06172839506172839,25.864197530864196,0)" xlink:href="#ax"/><use transform="matrix(0.06172839506172839,0,0,0.06172839506172839,36.9753086419753,0)" xlink:href="#ay"/><use transform="matrix(0.06172839506172839,0,0,0.06172839506172839,49.32098765432098,0)" xlink:href="#az"/><use transform="matrix(0.06172839506172839,0,0,0.06172839506172839,56.66666666666666,0)" xlink:href="#aA"/><use transform="matrix(0.06172839506172839,0,0,0.06172839506172839,61.5432098765432,0)" xlink:href="#aB"/><use transform="matrix(0.06172839506172839,0,0,0.06172839506172839,67.71604938271604,0)" xlink:href="#aw"/><use transform="matrix(0.06172839506172839,0,0,0.06172839506172839,80.06172839506172,0)" xlink:href="#az"/></g><path fill="#333" d="M30-248c87 1 191-15 191 75 0 78-77 80-158 76V0H30v-248zm33 125c57 0 124 11 124-50 0-59-68-47-124-48v98" id="aC"/><path fill="#333" d="M84 4C-5 8 30-112 23-190h32v120c0 31 7 50 39 49 72-2 45-101 50-169h31l1 190h-30c-1-10 1-25-2-33-11 22-28 36-60 37" id="aD"/><g id="c"><use transform="matrix(0.06172839506172839,0,0,0.06172839506172839,0,0)" xlink:href="#aC"/><use transform="matrix(0.06172839506172839,0,0,0.06172839506172839,14.814814814814813,0)" xlink:href="#az"/><use transform="matrix(0.06172839506172839,0,0,0.06172839506172839,22.160493827160494,0)" xlink:href="#ay"/><use transform="matrix(0.06172839506172839,0,0,0.06172839506172839,34.50617283950617,0)" xlink:href="#au"/><use transform="matrix(0.06172839506172839,0,0,0.06172839506172839,46.85185185185185,0)" xlink:href="#aD"/><use transform="matrix(0.06172839506172839,0,0,0.06172839506172839,59.197530864197525,0)" xlink:href="#aB"/><use transform="matrix(0.06172839506172839,0,0,0.06172839506172839,65.37037037037037,0)" xlink:href="#ay"/><use transform="matrix(0.06172839506172839,0,0,0.06172839506172839,77.71604938271605,0)" xlink:href="#at"/></g><path fill="#333" d="M212-179c-10-28-35-45-73-45-59 0-87 40-87 99 0 60 29 101 89 101 43 0 62-24 78-52l27 14C228-24 195 4 139 4 59 4 22-46 18-125c-6-104 99-153 187-111 19 9 31 26 39 46" id="aE"/><path fill="#333" d="M24 0v-261h32V0H24" id="aF"/><path fill="#333" d="M100-194c63 0 86 42 84 106H49c0 40 14 67 53 68 26 1 43-12 49-29l28 8c-11 28-37 45-77 45C44 4 14-33 15-96c1-61 26-98 85-98zm52 81c6-60-76-77-97-28-3 7-6 17-6 28h103" id="aG"/><path fill="#333" d="M117-194c89-4 53 116 60 194h-32v-121c0-31-8-49-39-48C34-167 62-67 57 0H25l-1-190h30c1 10-1 24 2 32 11-22 29-35 61-36" id="aH"/><g id="d"><use transform="matrix(0.06172839506172839,0,0,0.06172839506172839,0,0)" xlink:href="#aE"/><use transform="matrix(0.06172839506172839,0,0,0.06172839506172839,15.987654320987653,0)" xlink:href="#aF"/><use transform="matrix(0.06172839506172839,0,0,0.06172839506172839,20.864197530864196,0)" xlink:href="#aA"/><use transform="matrix(0.06172839506172839,0,0,0.06172839506172839,25.74074074074074,0)" xlink:href="#aG"/><use transform="matrix(0.06172839506172839,0,0,0.06172839506172839,38.08641975308642,0)" xlink:href="#aH"/><use transform="matrix(0.06172839506172839,0,0,0.06172839506172839,50.432098765432094,0)" xlink:href="#aB"/><use transform="matrix(0.06172839506172839,0,0,0.06172839506172839,56.60493827160494,0)" xlink:href="#aG"/></g><path fill="#333" d="M30 0v-248h187v28H63v79h144v27H63v87h162V0H30" id="aI"/><path fill="#333" d="M141 0L90-78 38 0H4l68-98-65-92h35l48 74 47-74h35l-64 92 68 98h-35" id="aJ"/><path fill="#333" d="M115-194c53 0 69 39 70 98 0 66-23 100-70 100C84 3 66-7 56-30L54 0H23l1-261h32v101c10-23 28-34 59-34zm-8 174c40 0 45-34 45-75 0-40-5-75-45-74-42 0-51 32-51 76 0 43 10 73 51 73" id="aK"/><path fill="#333" d="M96-169c-40 0-48 33-48 73s9 75 48 75c24 0 41-14 43-38l32 2c-6 37-31 61-74 61-59 0-76-41-82-99-10-93 101-131 147-64 4 7 5 14 7 22l-32 3c-4-21-16-35-41-35zm3 187c19-1 33 8 33 26 0 31-30 33-64 32V58c18 2 39 4 41-13 1-15-18-13-34-13L87 0h19" id="aL"/><path fill="#333" d="M141-36C126-15 110 5 73 4 37 3 15-17 15-53c-1-64 63-63 125-63 3-35-9-54-41-54-24 1-41 7-42 31l-33-3c5-37 33-52 76-52 45 0 72 20 72 64v82c-1 20 7 32 28 27v20c-31 9-61-2-59-35zM48-53c0 20 12 33 32 33 41-3 63-29 60-74-43 2-92-5-92 41zm117-205c-3 23-9 48-36 47-26-1-65-44-74 0H39c4-23 8-48 36-47s64 44 74 0h16" id="aM"/><g id="e"><use transform="matrix(0.06172839506172839,0,0,0.06172839506172839,0,0)" xlink:href="#aI"/><use transform="matrix(0.06172839506172839,0,0,0.06172839506172839,14.814814814814813,0)" xlink:href="#aJ"/><use transform="matrix(0.06172839506172839,0,0,0.06172839506172839,25.925925925925924,0)" xlink:href="#aA"/><use transform="matrix(0.06172839506172839,0,0,0.06172839506172839,30.80246913580247,0)" xlink:href="#aK"/><use transform="matrix(0.06172839506172839,0,0,0.06172839506172839,43.148148148148145,0)" xlink:href="#aA"/><use transform="matrix(0.06172839506172839,0,0,0.06172839506172839,48.02469135802469,0)" xlink:href="#aL"/><use transform="matrix(0.06172839506172839,0,0,0.06172839506172839,59.1358024691358,0)" xlink:href="#aM"/><use transform="matrix(0.06172839506172839,0,0,0.06172839506172839,71.48148148148148,0)" xlink:href="#ay"/></g><g id="f"><use transform="matrix(0.06172839506172839,0,0,0.06172839506172839,0,0)" xlink:href="#au"/><use transform="matrix(0.06172839506172839,0,0,0.06172839506172839,12.345679012345679,0)" xlink:href="#ay"/></g><path fill="#333" d="M115-194c55 1 70 41 70 98S169 2 115 4C84 4 66-9 55-30l1 105H24l-1-265h31l2 30c10-21 28-34 59-34zm-8 174c40 0 45-34 45-75s-6-73-45-74c-42 0-51 32-51 76 0 43 10 73 51 73" id="aN"/><g id="g"><use transform="matrix(0.06172839506172839,0,0,0.06172839506172839,0,0)" xlink:href="#aN"/><use transform="matrix(0.06172839506172839,0,0,0.06172839506172839,12.345679012345679,0)" xlink:href="#az"/><use transform="matrix(0.06172839506172839,0,0,0.06172839506172839,19.691358024691358,0)" xlink:href="#ay"/><use transform="matrix(0.06172839506172839,0,0,0.06172839506172839,32.03703703703704,0)" xlink:href="#au"/><use transform="matrix(0.06172839506172839,0,0,0.06172839506172839,44.382716049382715,0)" xlink:href="#aD"/><use transform="matrix(0.06172839506172839,0,0,0.06172839506172839,56.72839506172839,0)" xlink:href="#aB"/><use transform="matrix(0.06172839506172839,0,0,0.06172839506172839,62.901234567901234,0)" xlink:href="#ay"/></g><g id="h"><use transform="matrix(0.06172839506172839,0,0,0.06172839506172839,0,0)" xlink:href="#aE"/><use transform="matrix(0.06172839506172839,0,0,0.06172839506172839,15.987654320987653,0)" xlink:href="#ay"/><use transform="matrix(0.06172839506172839,0,0,0.06172839506172839,28.333333333333332,0)" xlink:href="#aH"/><use transform="matrix(0.06172839506172839,0,0,0.06172839506172839,40.67901234567901,0)" xlink:href="#aB"/><use transform="matrix(0.06172839506172839,0,0,0.06172839506172839,46.851851851851855,0)" xlink:href="#az"/><use transform="matrix(0.06172839506172839,0,0,0.06172839506172839,54.19753086419753,0)" xlink:href="#ay"/><use transform="matrix(0.06172839506172839,0,0,0.06172839506172839,66.54320987654322,0)" xlink:href="#aF"/><use transform="matrix(0.06172839506172839,0,0,0.06172839506172839,71.41975308641976,0)" xlink:href="#aG"/></g><path fill="#333" d="M30-248c118-7 216 8 213 122C240-48 200 0 122 0H30v-248zM63-27c89 8 146-16 146-99s-60-101-146-95v194" id="aO"/><path fill="#333" d="M160-131c35 5 61 23 61 61C221 17 115-2 30 0v-248c76 3 177-17 177 60 0 33-19 50-47 57zm-97-11c50-1 110 9 110-42 0-47-63-36-110-37v79zm0 115c55-2 124 14 124-45 0-56-70-42-124-44v89" id="aP"/><g id="i"><use transform="matrix(0.06172839506172839,0,0,0.06172839506172839,0,0)" xlink:href="#aO"/><use transform="matrix(0.06172839506172839,0,0,0.06172839506172839,15.987654320987653,0)" xlink:href="#aw"/><use transform="matrix(0.06172839506172839,0,0,0.06172839506172839,28.333333333333332,0)" xlink:href="#aB"/><use transform="matrix(0.06172839506172839,0,0,0.06172839506172839,34.50617283950617,0)" xlink:href="#aw"/><use transform="matrix(0.06172839506172839,0,0,0.06172839506172839,46.85185185185185,0)" xlink:href="#aP"/><use transform="matrix(0.06172839506172839,0,0,0.06172839506172839,61.66666666666666,0)" xlink:href="#aw"/><use transform="matrix(0.06172839506172839,0,0,0.06172839506172839,74.01234567901234,0)" xlink:href="#at"/><use transform="matrix(0.06172839506172839,0,0,0.06172839506172839,85.12345679012346,0)" xlink:href="#aG"/></g><path d="M212-179c-10-28-35-45-73-45-59 0-87 40-87 99 0 60 29 101 89 101 43 0 62-24 78-52l27 14C228-24 195 4 139 4 59 4 22-46 18-125c-6-104 99-153 187-111 19 9 31 26 39 46" id="aQ"/><path d="M24 0v-261h32V0H24" id="aR"/><path d="M24-231v-30h32v30H24zM24 0v-190h32V0H24" id="aS"/><path d="M100-194c63 0 86 42 84 106H49c0 40 14 67 53 68 26 1 43-12 49-29l28 8c-11 28-37 45-77 45C44 4 14-33 15-96c1-61 26-98 85-98zm52 81c6-60-76-77-97-28-3 7-6 17-6 28h103" id="aT"/><path d="M117-194c89-4 53 116 60 194h-32v-121c0-31-8-49-39-48C34-167 62-67 57 0H25l-1-190h30c1 10-1 24 2 32 11-22 29-35 61-36" id="aU"/><path d="M59-47c-2 24 18 29 38 22v24C64 9 27 4 27-40v-127H5v-23h24l9-43h21v43h35v23H59v120" id="aV"/><g id="j"><use transform="matrix(0.05,0,0,0.05,0,0)" xlink:href="#aQ"/><use transform="matrix(0.05,0,0,0.05,12.950000000000001,0)" xlink:href="#aR"/><use transform="matrix(0.05,0,0,0.05,16.900000000000002,0)" xlink:href="#aS"/><use transform="matrix(0.05,0,0,0.05,20.85,0)" xlink:href="#aT"/><use transform="matrix(0.05,0,0,0.05,30.85,0)" xlink:href="#aU"/><use transform="matrix(0.05,0,0,0.05,40.85,0)" xlink:href="#aV"/><use transform="matrix(0.05,0,0,0.05,45.85,0)" xlink:href="#aT"/><path d="M-.9 1.25h57.65v1.32H-.9z"/></g><path fill="#333" d="M27 0v-27h64v-190l-56 39v-29l58-41h29v221h61V0H27" id="aW"/><path fill="#333" d="M33-154v-36h34v36H33zM33 0v-36h34V0H33" id="aX"/><g id="k"><use transform="matrix(0.04938271604938272,0,0,0.04938271604938272,0,0)" xlink:href="#aW"/><use transform="matrix(0.04938271604938272,0,0,0.04938271604938272,9.876543209876544,0)" xlink:href="#aX"/></g><path fill="#333" d="M96-169c-40 0-48 33-48 73s9 75 48 75c24 0 41-14 43-38l32 2c-6 37-31 61-74 61-59 0-76-41-82-99-10-93 101-131 147-64 4 7 5 14 7 22l-32 3c-4-21-16-35-41-35" id="aY"/><g id="l"><use transform="matrix(0.04938271604938272,0,0,0.04938271604938272,0,0)" xlink:href="#aE"/><use transform="matrix(0.04938271604938272,0,0,0.04938271604938272,12.790123456790125,0)" xlink:href="#aF"/><use transform="matrix(0.04938271604938272,0,0,0.04938271604938272,16.69135802469136,0)" xlink:href="#aA"/><use transform="matrix(0.04938271604938272,0,0,0.04938271604938272,20.592592592592595,0)" xlink:href="#aY"/><use transform="matrix(0.04938271604938272,0,0,0.04938271604938272,29.481481481481485,0)" xlink:href="#aw"/></g><g id="m"><use transform="matrix(0.04938271604938272,0,0,0.04938271604938272,0,0)" xlink:href="#aH"/><use transform="matrix(0.04938271604938272,0,0,0.04938271604938272,9.876543209876544,0)" xlink:href="#ay"/></g><path fill="#333" d="M34 0v-190h32V0H34zM24-211c8-23 27-35 38-54h36v5l-58 49H24" id="aZ"/><g id="n"><use transform="matrix(0.04938271604938272,0,0,0.04938271604938272,0,0)" xlink:href="#aZ"/><use transform="matrix(0.04938271604938272,0,0,0.04938271604938272,4.938271604938272,0)" xlink:href="#aY"/><use transform="matrix(0.04938271604938272,0,0,0.04938271604938272,13.827160493827162,0)" xlink:href="#ay"/><use transform="matrix(0.04938271604938272,0,0,0.04938271604938272,23.703703703703706,0)" xlink:href="#aH"/><use transform="matrix(0.04938271604938272,0,0,0.04938271604938272,33.580246913580254,0)" xlink:href="#aG"/></g><g id="o"><use transform="matrix(0.04938271604938272,0,0,0.04938271604938272,0,0)" xlink:href="#au"/><use transform="matrix(0.04938271604938272,0,0,0.04938271604938272,9.876543209876544,0)" xlink:href="#aG"/></g><g id="p"><use transform="matrix(0.04938271604938272,0,0,0.04938271604938272,0,0)" xlink:href="#aY"/><use transform="matrix(0.04938271604938272,0,0,0.04938271604938272,8.88888888888889,0)" xlink:href="#ay"/><use transform="matrix(0.04938271604938272,0,0,0.04938271604938272,18.765432098765434,0)" xlink:href="#az"/><use transform="matrix(0.04938271604938272,0,0,0.04938271604938272,24.641975308641978,0)" xlink:href="#aw"/><use transform="matrix(0.04938271604938272,0,0,0.04938271604938272,34.51851851851852,0)" xlink:href="#aL"/><use transform="matrix(0.04938271604938272,0,0,0.04938271604938272,43.407407407407405,0)" xlink:href="#aM"/><use transform="matrix(0.04938271604938272,0,0,0.04938271604938272,53.28395061728394,0)" xlink:href="#ay"/></g><path fill="#333" d="M33 0v-38h34V0H33" id="ba"/><g id="q"><use transform="matrix(0.04938271604938272,0,0,0.04938271604938272,0,0)" xlink:href="#aW"/><use transform="matrix(0.04938271604938272,0,0,0.04938271604938272,9.876543209876544,0)" xlink:href="#ba"/><use transform="matrix(0.04938271604938272,0,0,0.04938271604938272,14.814814814814817,0)" xlink:href="#aW"/></g><use transform="matrix(0.04938271604938272,0,0,0.04938271604938272,0,0)" xlink:href="#aX" id="r"/><g id="s"><use transform="matrix(0.04938271604938272,0,0,0.04938271604938272,0,0)" xlink:href="#av"/><use transform="matrix(0.04938271604938272,0,0,0.04938271604938272,10.814814814814815,0)" xlink:href="#aw"/><use transform="matrix(0.04938271604938272,0,0,0.04938271604938272,20.69135802469136,0)" xlink:href="#ax"/><use transform="matrix(0.04938271604938272,0,0,0.04938271604938272,29.58024691358025,0)" xlink:href="#ay"/><use transform="matrix(0.04938271604938272,0,0,0.04938271604938272,39.4567901234568,0)" xlink:href="#az"/><use transform="matrix(0.04938271604938272,0,0,0.04938271604938272,45.33333333333334,0)" xlink:href="#aA"/><use transform="matrix(0.04938271604938272,0,0,0.04938271604938272,49.23456790123458,0)" xlink:href="#aB"/><use transform="matrix(0.04938271604938272,0,0,0.04938271604938272,54.17283950617284,0)" xlink:href="#aw"/><use transform="matrix(0.04938271604938272,0,0,0.04938271604938272,64.0493827160494,0)" xlink:href="#az"/></g><g id="t"><use transform="matrix(0.04938271604938272,0,0,0.04938271604938272,0,0)" xlink:href="#aC"/><use transform="matrix(0.04938271604938272,0,0,0.04938271604938272,11.851851851851853,0)" xlink:href="#az"/><use transform="matrix(0.04938271604938272,0,0,0.04938271604938272,17.728395061728396,0)" xlink:href="#ay"/><use transform="matrix(0.04938271604938272,0,0,0.04938271604938272,27.60493827160494,0)" xlink:href="#au"/><use transform="matrix(0.04938271604938272,0,0,0.04938271604938272,37.48148148148148,0)" xlink:href="#aD"/><use transform="matrix(0.04938271604938272,0,0,0.04938271604938272,47.358024691358025,0)" xlink:href="#aB"/><use transform="matrix(0.04938271604938272,0,0,0.04938271604938272,52.2962962962963,0)" xlink:href="#ay"/></g><path fill="#333" d="M87 75C49 33 22-17 22-94c0-76 28-126 65-167h31c-38 41-64 92-64 168S80 34 118 75H87" id="bb"/><path fill="#333" d="M33-261c38 41 65 92 65 168S71 34 33 75H2C39 34 66-17 66-93S39-220 2-261h31" id="bc"/><g id="u"><use transform="matrix(0.04938271604938272,0,0,0.04938271604938272,0,0)" xlink:href="#bb"/><use transform="matrix(0.04938271604938272,0,0,0.04938271604938272,5.8765432098765435,0)" xlink:href="#aA"/><use transform="matrix(0.04938271604938272,0,0,0.04938271604938272,9.777777777777779,0)" xlink:href="#au"/><use transform="matrix(0.04938271604938272,0,0,0.04938271604938272,19.654320987654323,0)" xlink:href="#bc"/></g><g id="v"><use transform="matrix(0.04938271604938272,0,0,0.04938271604938272,0,0)" xlink:href="#aW"/><use transform="matrix(0.04938271604938272,0,0,0.04938271604938272,9.876543209876544,0)" xlink:href="#ba"/><use transform="matrix(0.04938271604938272,0,0,0.04938271604938272,14.814814814814817,0)" xlink:href="#aW"/><use transform="matrix(0.04938271604938272,0,0,0.04938271604938272,24.69135802469136,0)" xlink:href="#ba"/><use transform="matrix(0.04938271604938272,0,0,0.04938271604938272,29.629629629629633,0)" xlink:href="#aW"/></g><path fill="#333" d="M205 0l-28-72H64L36 0H1l101-248h38L239 0h-34zm-38-99l-47-123c-12 45-31 82-46 123h93" id="bd"/><path fill="#333" d="M9 0v-24l116-142H16v-24h144v24L44-24h123V0H9" id="be"/><g id="w"><use transform="matrix(0.04938271604938272,0,0,0.04938271604938272,0,0)" xlink:href="#bd"/><use transform="matrix(0.04938271604938272,0,0,0.04938271604938272,11.851851851851853,0)" xlink:href="#aB"/><use transform="matrix(0.04938271604938272,0,0,0.04938271604938272,16.790123456790127,0)" xlink:href="#aD"/><use transform="matrix(0.04938271604938272,0,0,0.04938271604938272,26.666666666666668,0)" xlink:href="#aw"/><use transform="matrix(0.04938271604938272,0,0,0.04938271604938272,36.543209876543216,0)" xlink:href="#aF"/><use transform="matrix(0.04938271604938272,0,0,0.04938271604938272,40.44444444444445,0)" xlink:href="#aA"/><use transform="matrix(0.04938271604938272,0,0,0.04938271604938272,44.345679012345684,0)" xlink:href="#be"/><use transform="matrix(0.04938271604938272,0,0,0.04938271604938272,53.23456790123457,0)" xlink:href="#aw"/></g><g id="x"><use transform="matrix(0.04938271604938272,0,0,0.04938271604938272,0,0)" xlink:href="#aN"/><use transform="matrix(0.04938271604938272,0,0,0.04938271604938272,9.876543209876544,0)" xlink:href="#az"/><use transform="matrix(0.04938271604938272,0,0,0.04938271604938272,15.753086419753087,0)" xlink:href="#ay"/><use transform="matrix(0.04938271604938272,0,0,0.04938271604938272,25.629629629629633,0)" xlink:href="#au"/><use transform="matrix(0.04938271604938272,0,0,0.04938271604938272,35.50617283950618,0)" xlink:href="#aD"/><use transform="matrix(0.04938271604938272,0,0,0.04938271604938272,45.38271604938272,0)" xlink:href="#aB"/><use transform="matrix(0.04938271604938272,0,0,0.04938271604938272,50.320987654320994,0)" xlink:href="#ay"/></g><path fill="#333" d="M210-169c-67 3-38 105-44 169h-31v-121c0-29-5-50-35-48C34-165 62-65 56 0H25l-1-190h30c1 10-1 24 2 32 10-44 99-50 107 0 11-21 27-35 58-36 85-2 47 119 55 194h-31v-121c0-29-5-49-35-48" id="bf"/><g id="y"><use transform="matrix(0.04938271604938272,0,0,0.04938271604938272,0,0)" xlink:href="#aG"/><use transform="matrix(0.04938271604938272,0,0,0.04938271604938272,9.876543209876544,0)" xlink:href="#bf"/></g><path fill="#333" d="M101-234c-31-9-42 10-38 44h38v23H63V0H32v-167H5v-23h27c-7-52 17-82 69-68v24" id="bg"/><g id="z"><use transform="matrix(0.04938271604938272,0,0,0.04938271604938272,0,0)" xlink:href="#bg"/><use transform="matrix(0.04938271604938272,0,0,0.04938271604938272,4.938271604938272,0)" xlink:href="#aw"/><use transform="matrix(0.04938271604938272,0,0,0.04938271604938272,14.814814814814817,0)" xlink:href="#ax"/><use transform="matrix(0.04938271604938272,0,0,0.04938271604938272,23.703703703703706,0)" xlink:href="#ay"/><use transform="matrix(0.04938271604938272,0,0,0.04938271604938272,33.580246913580254,0)" xlink:href="#az"/><use transform="matrix(0.04938271604938272,0,0,0.04938271604938272,39.4567901234568,0)" xlink:href="#aA"/><use transform="matrix(0.04938271604938272,0,0,0.04938271604938272,43.35802469135803,0)" xlink:href="#aB"/><use transform="matrix(0.04938271604938272,0,0,0.04938271604938272,48.296296296296305,0)" xlink:href="#ay"/><use transform="matrix(0.04938271604938272,0,0,0.04938271604938272,58.17283950617284,0)" xlink:href="#at"/><use transform="matrix(0.04938271604938272,0,0,0.04938271604938272,67.06172839506173,0)" xlink:href="#bb"/><use transform="matrix(0.04938271604938272,0,0,0.04938271604938272,72.93827160493828,0)" xlink:href="#aA"/><use transform="matrix(0.04938271604938272,0,0,0.04938271604938272,76.83950617283952,0)" xlink:href="#au"/><use transform="matrix(0.04938271604938272,0,0,0.04938271604938272,86.71604938271606,0)" xlink:href="#bc"/></g><path fill="#333" d="M101-251c82-7 93 87 43 132L82-64C71-53 59-42 53-27h129V0H18c2-99 128-94 128-182 0-28-16-43-45-43s-46 15-49 41l-32-3c6-41 34-60 81-64" id="bh"/><g id="A"><use transform="matrix(0.04938271604938272,0,0,0.04938271604938272,0,0)" xlink:href="#aW"/><use transform="matrix(0.04938271604938272,0,0,0.04938271604938272,9.876543209876544,0)" xlink:href="#ba"/><use transform="matrix(0.04938271604938272,0,0,0.04938271604938272,14.814814814814817,0)" xlink:href="#aW"/><use transform="matrix(0.04938271604938272,0,0,0.04938271604938272,24.69135802469136,0)" xlink:href="#ba"/><use transform="matrix(0.04938271604938272,0,0,0.04938271604938272,29.629629629629633,0)" xlink:href="#bh"/></g><g id="B"><use transform="matrix(0.04938271604938272,0,0,0.04938271604938272,0,0)" xlink:href="#aY"/><use transform="matrix(0.04938271604938272,0,0,0.04938271604938272,8.88888888888889,0)" xlink:href="#aF"/><use transform="matrix(0.04938271604938272,0,0,0.04938271604938272,12.790123456790125,0)" xlink:href="#aA"/><use transform="matrix(0.04938271604938272,0,0,0.04938271604938272,16.691358024691358,0)" xlink:href="#aG"/><use transform="matrix(0.04938271604938272,0,0,0.04938271604938272,26.567901234567902,0)" xlink:href="#aH"/><use transform="matrix(0.04938271604938272,0,0,0.04938271604938272,36.44444444444444,0)" xlink:href="#aB"/><use transform="matrix(0.04938271604938272,0,0,0.04938271604938272,41.382716049382715,0)" xlink:href="#aG"/></g><g id="C"><use transform="matrix(0.04938271604938272,0,0,0.04938271604938272,0,0)" xlink:href="#aW"/><use transform="matrix(0.04938271604938272,0,0,0.04938271604938272,9.876543209876544,0)" xlink:href="#ba"/><use transform="matrix(0.04938271604938272,0,0,0.04938271604938272,14.814814814814817,0)" xlink:href="#aW"/><use transform="matrix(0.04938271604938272,0,0,0.04938271604938272,24.69135802469136,0)" xlink:href="#ba"/><use transform="matrix(0.04938271604938272,0,0,0.04938271604938272,29.629629629629633,0)" xlink:href="#bh"/><use transform="matrix(0.04938271604938272,0,0,0.04938271604938272,39.50617283950618,0)" xlink:href="#ba"/><use transform="matrix(0.04938271604938272,0,0,0.04938271604938272,44.44444444444445,0)" xlink:href="#aW"/><use transform="matrix(0.04938271604938272,0,0,0.04938271604938272,54.320987654320994,0)" xlink:href="#aX"/></g><path fill="#333" d="M26 75v-336h71v23H56V52h41v23H26" id="bi"/><path fill="#333" d="M185-189c-5-48-123-54-124 2 14 75 158 14 163 119 3 78-121 87-175 55-17-10-28-26-33-46l33-7c5 56 141 63 141-1 0-78-155-14-162-118-5-82 145-84 179-34 5 7 8 16 11 25" id="bj"/><g id="D"><use transform="matrix(0.04938271604938272,0,0,0.04938271604938272,0,0)" xlink:href="#bi"/><use transform="matrix(0.04938271604938272,0,0,0.04938271604938272,4.938271604938272,0)" xlink:href="#bj"/><use transform="matrix(0.04938271604938272,0,0,0.04938271604938272,16.790123456790127,0)" xlink:href="#aG"/></g><path fill="#333" d="M3 75V52h41v-290H3v-23h71V75H3" id="bk"/><g id="E"><use transform="matrix(0.04938271604938272,0,0,0.04938271604938272,0,0)" xlink:href="#at"/><use transform="matrix(0.04938271604938272,0,0,0.04938271604938272,8.88888888888889,0)" xlink:href="#aD"/><use transform="matrix(0.04938271604938272,0,0,0.04938271604938272,18.765432098765434,0)" xlink:href="#aY"/><use transform="matrix(0.04938271604938272,0,0,0.04938271604938272,27.654320987654323,0)" xlink:href="#aG"/><use transform="matrix(0.04938271604938272,0,0,0.04938271604938272,37.53086419753087,0)" xlink:href="#at"/><use transform="matrix(0.04938271604938272,0,0,0.04938271604938272,46.41975308641976,0)" xlink:href="#at"/><use transform="matrix(0.04938271604938272,0,0,0.04938271604938272,55.308641975308646,0)" xlink:href="#ay"/><use transform="matrix(0.04938271604938272,0,0,0.04938271604938272,65.18518518518519,0)" xlink:href="#bk"/></g><g id="F"><use transform="matrix(0.04938271604938272,0,0,0.04938271604938272,0,0)" xlink:href="#az"/><use transform="matrix(0.04938271604938272,0,0,0.04938271604938272,5.8765432098765435,0)" xlink:href="#aG"/><use transform="matrix(0.04938271604938272,0,0,0.04938271604938272,15.753086419753087,0)" xlink:href="#at"/><use transform="matrix(0.04938271604938272,0,0,0.04938271604938272,24.641975308641978,0)" xlink:href="#aN"/><use transform="matrix(0.04938271604938272,0,0,0.04938271604938272,34.51851851851852,0)" xlink:href="#ay"/><use transform="matrix(0.04938271604938272,0,0,0.04938271604938272,44.39506172839506,0)" xlink:href="#at"/><use transform="matrix(0.04938271604938272,0,0,0.04938271604938272,53.28395061728394,0)" xlink:href="#aB"/><use transform="matrix(0.04938271604938272,0,0,0.04938271604938272,58.222222222222214,0)" xlink:href="#aw"/></g><g id="G"><use transform="matrix(0.04938271604938272,0,0,0.04938271604938272,0,0)" xlink:href="#aX"/><use transform="matrix(0.04938271604938272,0,0,0.04938271604938272,4.938271604938272,0)" xlink:href="#aB"/><use transform="matrix(0.04938271604938272,0,0,0.04938271604938272,9.876543209876544,0)" xlink:href="#az"/><use transform="matrix(0.04938271604938272,0,0,0.04938271604938272,15.753086419753087,0)" xlink:href="#aD"/><use transform="matrix(0.04938271604938272,0,0,0.04938271604938272,25.629629629629633,0)" xlink:href="#aG"/></g><g id="H"><use transform="matrix(0.04938271604938272,0,0,0.04938271604938272,0,0)" xlink:href="#aW"/><use transform="matrix(0.04938271604938272,0,0,0.04938271604938272,9.876543209876544,0)" xlink:href="#ba"/><use transform="matrix(0.04938271604938272,0,0,0.04938271604938272,14.814814814814817,0)" xlink:href="#bh"/></g><g id="I"><use transform="matrix(0.04938271604938272,0,0,0.04938271604938272,0,0)" xlink:href="#bb"/><use transform="matrix(0.04938271604938272,0,0,0.04938271604938272,5.8765432098765435,0)" xlink:href="#at"/><use transform="matrix(0.04938271604938272,0,0,0.04938271604938272,14.765432098765434,0)" xlink:href="#aG"/></g><path fill="#333" d="M143 0L79-87 56-68V0H24v-261h32v163l83-92h37l-77 82L181 0h-38" id="bl"/><g id="J"><use transform="matrix(0.04938271604938272,0,0,0.04938271604938272,0,0)" xlink:href="#ay"/><use transform="matrix(0.04938271604938272,0,0,0.04938271604938272,9.876543209876544,0)" xlink:href="#bl"/><use transform="matrix(0.04938271604938272,0,0,0.04938271604938272,18.765432098765434,0)" xlink:href="#bc"/></g><g id="K"><use transform="matrix(0.04938271604938272,0,0,0.04938271604938272,0,0)" xlink:href="#aB"/><use transform="matrix(0.04938271604938272,0,0,0.04938271604938272,4.938271604938272,0)" xlink:href="#az"/><use transform="matrix(0.04938271604938272,0,0,0.04938271604938272,10.814814814814817,0)" xlink:href="#aD"/><use transform="matrix(0.04938271604938272,0,0,0.04938271604938272,20.69135802469136,0)" xlink:href="#aG"/></g><g id="L"><use transform="matrix(0.04938271604938272,0,0,0.04938271604938272,0,0)" xlink:href="#aW"/><use transform="matrix(0.04938271604938272,0,0,0.04938271604938272,9.876543209876544,0)" xlink:href="#ba"/><use transform="matrix(0.04938271604938272,0,0,0.04938271604938272,14.814814814814817,0)" xlink:href="#bh"/><use transform="matrix(0.04938271604938272,0,0,0.04938271604938272,24.69135802469136,0)" xlink:href="#ba"/><use transform="matrix(0.04938271604938272,0,0,0.04938271604938272,29.629629629629633,0)" xlink:href="#aW"/><use transform="matrix(0.04938271604938272,0,0,0.04938271604938272,39.50617283950618,0)" xlink:href="#aX"/></g><path fill="#333" d="M240 0l2-218c-23 76-54 145-80 218h-23L58-218 59 0H30v-248h44l77 211c21-75 51-140 76-211h43V0h-30" id="bm"/><path fill="#333" d="M177-190C167-65 218 103 67 71c-23-6-38-20-44-43l32-5c15 47 100 32 89-28v-30C133-14 115 1 83 1 29 1 15-40 15-95c0-56 16-97 71-98 29-1 48 16 59 35 1-10 0-23 2-32h30zM94-22c36 0 50-32 50-73 0-42-14-75-50-75-39 0-46 34-46 75s6 73 46 73" id="bn"/><g id="M"><use transform="matrix(0.04938271604938272,0,0,0.04938271604938272,0,0)" xlink:href="#bm"/><use transform="matrix(0.04938271604938272,0,0,0.04938271604938272,14.765432098765434,0)" xlink:href="#aG"/><use transform="matrix(0.04938271604938272,0,0,0.04938271604938272,24.641975308641978,0)" xlink:href="#aH"/><use transform="matrix(0.04938271604938272,0,0,0.04938271604938272,34.51851851851852,0)" xlink:href="#at"/><use transform="matrix(0.04938271604938272,0,0,0.04938271604938272,43.407407407407405,0)" xlink:href="#aw"/><use transform="matrix(0.04938271604938272,0,0,0.04938271604938272,53.28395061728394,0)" xlink:href="#bn"/><use transform="matrix(0.04938271604938272,0,0,0.04938271604938272,63.1604938271605,0)" xlink:href="#aG"/><use transform="matrix(0.04938271604938272,0,0,0.04938271604938272,73.03703703703704,0)" xlink:href="#bf"/></g><g id="N"><use transform="matrix(0.04938271604938272,0,0,0.04938271604938272,0,0)" xlink:href="#at"/><use transform="matrix(0.04938271604938272,0,0,0.04938271604938272,8.88888888888889,0)" xlink:href="#aD"/><use transform="matrix(0.04938271604938272,0,0,0.04938271604938272,18.765432098765434,0)" xlink:href="#aY"/><use transform="matrix(0.04938271604938272,0,0,0.04938271604938272,27.654320987654323,0)" xlink:href="#aG"/><use transform="matrix(0.04938271604938272,0,0,0.04938271604938272,37.53086419753087,0)" xlink:href="#at"/><use transform="matrix(0.04938271604938272,0,0,0.04938271604938272,46.41975308641976,0)" xlink:href="#at"/><use transform="matrix(0.04938271604938272,0,0,0.04938271604938272,55.308641975308646,0)" xlink:href="#ay"/></g><path fill="#333" d="M106-169C34-169 62-67 57 0H25v-261h32l-1 103c12-21 28-36 61-36 89 0 53 116 60 194h-32v-121c2-32-8-49-39-48" id="bo"/><g id="O"><use transform="matrix(0.06172839506172839,0,0,0.06172839506172839,0,0)" xlink:href="#aE"/><use transform="matrix(0.06172839506172839,0,0,0.06172839506172839,15.987654320987653,0)" xlink:href="#aw"/><use transform="matrix(0.06172839506172839,0,0,0.06172839506172839,28.333333333333332,0)" xlink:href="#aK"/><use transform="matrix(0.06172839506172839,0,0,0.06172839506172839,40.67901234567901,0)" xlink:href="#aG"/><use transform="matrix(0.06172839506172839,0,0,0.06172839506172839,53.02469135802469,0)" xlink:href="#aL"/><use transform="matrix(0.06172839506172839,0,0,0.06172839506172839,64.1358024691358,0)" xlink:href="#aw"/><use transform="matrix(0.06172839506172839,0,0,0.06172839506172839,76.48148148148148,0)" xlink:href="#aF"/><use transform="matrix(0.06172839506172839,0,0,0.06172839506172839,81.35802469135803,0)" xlink:href="#bo"/><use transform="matrix(0.06172839506172839,0,0,0.06172839506172839,93.70370370370371,0)" xlink:href="#ay"/></g><g id="P"><use transform="matrix(0.06172839506172839,0,0,0.06172839506172839,0,0)" xlink:href="#av"/><use transform="matrix(0.06172839506172839,0,0,0.06172839506172839,13.518518518518517,0)" xlink:href="#aA"/><use transform="matrix(0.06172839506172839,0,0,0.06172839506172839,18.39506172839506,0)" xlink:href="#aJ"/><use transform="matrix(0.06172839506172839,0,0,0.06172839506172839,29.50617283950617,0)" xlink:href="#ay"/></g><path fill="#333" d="M127-220V0H93v-220H8v-28h204v28h-85" id="bp"/><g id="Q"><use transform="matrix(0.06172839506172839,0,0,0.06172839506172839,0,0)" xlink:href="#bp"/><use transform="matrix(0.06172839506172839,0,0,0.06172839506172839,11.049382716049381,0)" xlink:href="#aG"/><use transform="matrix(0.06172839506172839,0,0,0.06172839506172839,23.39506172839506,0)" xlink:href="#aF"/><use transform="matrix(0.06172839506172839,0,0,0.06172839506172839,28.2716049382716,0)" xlink:href="#aw"/></g><g id="R"><use transform="matrix(0.06172839506172839,0,0,0.06172839506172839,0,0)" xlink:href="#au"/><use transform="matrix(0.06172839506172839,0,0,0.06172839506172839,12.345679012345679,0)" xlink:href="#aG"/></g><g id="S"><use transform="matrix(0.06172839506172839,0,0,0.06172839506172839,0,0)" xlink:href="#bg"/><use transform="matrix(0.06172839506172839,0,0,0.06172839506172839,6.172839506172839,0)" xlink:href="#aw"/><use transform="matrix(0.06172839506172839,0,0,0.06172839506172839,18.51851851851852,0)" xlink:href="#ax"/><use transform="matrix(0.06172839506172839,0,0,0.06172839506172839,29.62962962962963,0)" xlink:href="#ay"/><use transform="matrix(0.06172839506172839,0,0,0.06172839506172839,41.97530864197531,0)" xlink:href="#az"/><use transform="matrix(0.06172839506172839,0,0,0.06172839506172839,49.32098765432099,0)" xlink:href="#aA"/><use transform="matrix(0.06172839506172839,0,0,0.06172839506172839,54.19753086419753,0)" xlink:href="#aB"/><use transform="matrix(0.06172839506172839,0,0,0.06172839506172839,60.370370370370374,0)" xlink:href="#ay"/><use transform="matrix(0.06172839506172839,0,0,0.06172839506172839,72.71604938271605,0)" xlink:href="#at"/></g><g id="T"><use transform="matrix(0.04938271604938272,0,0,0.04938271604938272,0,0)" xlink:href="#bh"/><use transform="matrix(0.04938271604938272,0,0,0.04938271604938272,9.876543209876544,0)" xlink:href="#aX"/></g><g id="U"><use transform="matrix(0.04938271604938272,0,0,0.04938271604938272,0,0)" xlink:href="#bj"/><use transform="matrix(0.04938271604938272,0,0,0.04938271604938272,11.851851851851853,0)" xlink:href="#aG"/><use transform="matrix(0.04938271604938272,0,0,0.04938271604938272,21.7283950617284,0)" xlink:href="#aF"/><use transform="matrix(0.04938271604938272,0,0,0.04938271604938272,25.629629629629633,0)" xlink:href="#aG"/><use transform="matrix(0.04938271604938272,0,0,0.04938271604938272,35.50617283950618,0)" xlink:href="#aY"/><use transform="matrix(0.04938271604938272,0,0,0.04938271604938272,44.39506172839506,0)" xlink:href="#aA"/><use transform="matrix(0.04938271604938272,0,0,0.04938271604938272,48.2962962962963,0)" xlink:href="#ay"/><use transform="matrix(0.04938271604938272,0,0,0.04938271604938272,58.17283950617284,0)" xlink:href="#aH"/><use transform="matrix(0.04938271604938272,0,0,0.04938271604938272,68.0493827160494,0)" xlink:href="#aw"/></g><use transform="matrix(0.04938271604938272,0,0,0.04938271604938272,0,0)" xlink:href="#aw" id="V"/><g id="W"><use transform="matrix(0.04938271604938272,0,0,0.04938271604938272,0,0)" xlink:href="#aw"/><use transform="matrix(0.04938271604938272,0,0,0.04938271604938272,9.876543209876544,0)" xlink:href="#aK"/><use transform="matrix(0.04938271604938272,0,0,0.04938271604938272,19.75308641975309,0)" xlink:href="#aw"/></g><g id="X"><use transform="matrix(0.04938271604938272,0,0,0.04938271604938272,0,0)" xlink:href="#bg"/><use transform="matrix(0.04938271604938272,0,0,0.04938271604938272,4.938271604938272,0)" xlink:href="#aw"/><use transform="matrix(0.04938271604938272,0,0,0.04938271604938272,14.814814814814817,0)" xlink:href="#ax"/><use transform="matrix(0.04938271604938272,0,0,0.04938271604938272,23.703703703703706,0)" xlink:href="#ay"/><use transform="matrix(0.04938271604938272,0,0,0.04938271604938272,33.580246913580254,0)" xlink:href="#az"/><use transform="matrix(0.04938271604938272,0,0,0.04938271604938272,39.4567901234568,0)" xlink:href="#aA"/><use transform="matrix(0.04938271604938272,0,0,0.04938271604938272,43.35802469135803,0)" xlink:href="#aB"/><use transform="matrix(0.04938271604938272,0,0,0.04938271604938272,48.296296296296305,0)" xlink:href="#ay"/><use transform="matrix(0.04938271604938272,0,0,0.04938271604938272,58.17283950617284,0)" xlink:href="#at"/></g><g id="Y"><use transform="matrix(0.04938271604938272,0,0,0.04938271604938272,0,0)" xlink:href="#bh"/><use transform="matrix(0.04938271604938272,0,0,0.04938271604938272,9.876543209876544,0)" xlink:href="#ba"/><use transform="matrix(0.04938271604938272,0,0,0.04938271604938272,14.814814814814817,0)" xlink:href="#aW"/></g><g id="Z"><use transform="matrix(0.04938271604938272,0,0,0.04938271604938272,0,0)" xlink:href="#aE"/><use transform="matrix(0.04938271604938272,0,0,0.04938271604938272,12.790123456790125,0)" xlink:href="#aw"/><use transform="matrix(0.04938271604938272,0,0,0.04938271604938272,22.66666666666667,0)" xlink:href="#az"/><use transform="matrix(0.04938271604938272,0,0,0.04938271604938272,28.54320987654322,0)" xlink:href="#az"/><use transform="matrix(0.04938271604938272,0,0,0.04938271604938272,34.41975308641976,0)" xlink:href="#aG"/><use transform="matrix(0.04938271604938272,0,0,0.04938271604938272,44.296296296296305,0)" xlink:href="#bn"/><use transform="matrix(0.04938271604938272,0,0,0.04938271604938272,54.17283950617284,0)" xlink:href="#aw"/></g><g id="aa"><use transform="matrix(0.04938271604938272,0,0,0.04938271604938272,0,0)" xlink:href="#bh"/><use transform="matrix(0.04938271604938272,0,0,0.04938271604938272,9.876543209876544,0)" xlink:href="#ba"/><use transform="matrix(0.04938271604938272,0,0,0.04938271604938272,14.814814814814817,0)" xlink:href="#aW"/><use transform="matrix(0.04938271604938272,0,0,0.04938271604938272,24.69135802469136,0)" xlink:href="#ba"/><use transform="matrix(0.04938271604938272,0,0,0.04938271604938272,29.629629629629633,0)" xlink:href="#aW"/></g><g id="ab"><use transform="matrix(0.04938271604938272,0,0,0.04938271604938272,0,0)" xlink:href="#bn"/><use transform="matrix(0.04938271604938272,0,0,0.04938271604938272,9.876543209876544,0)" xlink:href="#aG"/><use transform="matrix(0.04938271604938272,0,0,0.04938271604938272,19.75308641975309,0)" xlink:href="#aB"/></g><path fill="#333" d="M30 0v-248h33v221h125V0H30" id="bq"/><g id="ac"><use transform="matrix(0.04938271604938272,0,0,0.04938271604938272,0,0)" xlink:href="#bq"/><use transform="matrix(0.04938271604938272,0,0,0.04938271604938272,9.876543209876544,0)" xlink:href="#aA"/><use transform="matrix(0.04938271604938272,0,0,0.04938271604938272,13.777777777777779,0)" xlink:href="#at"/><use transform="matrix(0.04938271604938272,0,0,0.04938271604938272,22.666666666666668,0)" xlink:href="#aB"/><use transform="matrix(0.04938271604938272,0,0,0.04938271604938272,27.60493827160494,0)" xlink:href="#aw"/></g><g id="ad"><use transform="matrix(0.04938271604938272,0,0,0.04938271604938272,0,0)" xlink:href="#bh"/><use transform="matrix(0.04938271604938272,0,0,0.04938271604938272,9.876543209876544,0)" xlink:href="#ba"/><use transform="matrix(0.04938271604938272,0,0,0.04938271604938272,14.814814814814817,0)" xlink:href="#aW"/><use transform="matrix(0.04938271604938272,0,0,0.04938271604938272,24.69135802469136,0)" xlink:href="#ba"/><use transform="matrix(0.04938271604938272,0,0,0.04938271604938272,29.629629629629633,0)" xlink:href="#bh"/><use transform="matrix(0.04938271604938272,0,0,0.04938271604938272,39.50617283950618,0)" xlink:href="#aX"/></g><path fill="#333" d="M18-100v-36l175-74v27L42-118l151 64v27" id="br"/><path fill="#333" d="M18-27v-27l151-64-151-65v-27l175 74v36" id="bs"/><g id="ae"><use transform="matrix(0.04938271604938272,0,0,0.04938271604938272,0,0)" xlink:href="#bq"/><use transform="matrix(0.04938271604938272,0,0,0.04938271604938272,9.876543209876544,0)" xlink:href="#aA"/><use transform="matrix(0.04938271604938272,0,0,0.04938271604938272,13.777777777777779,0)" xlink:href="#at"/><use transform="matrix(0.04938271604938272,0,0,0.04938271604938272,22.666666666666668,0)" xlink:href="#aB"/><use transform="matrix(0.04938271604938272,0,0,0.04938271604938272,27.60493827160494,0)" xlink:href="#br"/><use transform="matrix(0.04938271604938272,0,0,0.04938271604938272,37.97530864197531,0)" xlink:href="#bj"/><use transform="matrix(0.04938271604938272,0,0,0.04938271604938272,49.827160493827165,0)" xlink:href="#aB"/><use transform="matrix(0.04938271604938272,0,0,0.04938271604938272,54.76543209876544,0)" xlink:href="#az"/><use transform="matrix(0.04938271604938272,0,0,0.04938271604938272,60.64197530864198,0)" xlink:href="#aA"/><use transform="matrix(0.04938271604938272,0,0,0.04938271604938272,64.54320987654322,0)" xlink:href="#aH"/><use transform="matrix(0.04938271604938272,0,0,0.04938271604938272,74.41975308641976,0)" xlink:href="#bn"/><use transform="matrix(0.04938271604938272,0,0,0.04938271604938272,84.2962962962963,0)" xlink:href="#bs"/></g><g id="af"><use transform="matrix(0.04938271604938272,0,0,0.04938271604938272,0,0)" xlink:href="#bh"/><use transform="matrix(0.04938271604938272,0,0,0.04938271604938272,9.876543209876544,0)" xlink:href="#ba"/><use transform="matrix(0.04938271604938272,0,0,0.04938271604938272,14.814814814814817,0)" xlink:href="#aW"/><use transform="matrix(0.04938271604938272,0,0,0.04938271604938272,24.69135802469136,0)" xlink:href="#ba"/><use transform="matrix(0.04938271604938272,0,0,0.04938271604938272,29.629629629629633,0)" xlink:href="#bh"/></g><g id="ag"><use transform="matrix(0.04938271604938272,0,0,0.04938271604938272,0,0)" xlink:href="#aY"/><use transform="matrix(0.04938271604938272,0,0,0.04938271604938272,8.88888888888889,0)" xlink:href="#aw"/><use transform="matrix(0.04938271604938272,0,0,0.04938271604938272,18.765432098765434,0)" xlink:href="#az"/><use transform="matrix(0.04938271604938272,0,0,0.04938271604938272,24.641975308641978,0)" xlink:href="#az"/><use transform="matrix(0.04938271604938272,0,0,0.04938271604938272,30.518518518518523,0)" xlink:href="#aG"/><use transform="matrix(0.04938271604938272,0,0,0.04938271604938272,40.39506172839506,0)" xlink:href="#bn"/><use transform="matrix(0.04938271604938272,0,0,0.04938271604938272,50.27160493827161,0)" xlink:href="#aw"/></g><g id="ah"><use transform="matrix(0.04938271604938272,0,0,0.04938271604938272,0,0)" xlink:href="#aN"/><use transform="matrix(0.04938271604938272,0,0,0.04938271604938272,9.876543209876544,0)" xlink:href="#az"/><use transform="matrix(0.04938271604938272,0,0,0.04938271604938272,15.753086419753087,0)" xlink:href="#ay"/><use transform="matrix(0.04938271604938272,0,0,0.04938271604938272,25.629629629629633,0)" xlink:href="#au"/><use transform="matrix(0.04938271604938272,0,0,0.04938271604938272,35.50617283950618,0)" xlink:href="#aD"/><use transform="matrix(0.04938271604938272,0,0,0.04938271604938272,45.38271604938272,0)" xlink:href="#aB"/><use transform="matrix(0.04938271604938272,0,0,0.04938271604938272,50.320987654320994,0)" xlink:href="#ay"/><use transform="matrix(0.04938271604938272,0,0,0.04938271604938272,60.19753086419754,0)" xlink:href="#at"/></g><g id="ai"><use transform="matrix(0.04938271604938272,0,0,0.04938271604938272,0,0)" xlink:href="#bh"/><use transform="matrix(0.04938271604938272,0,0,0.04938271604938272,9.876543209876544,0)" xlink:href="#ba"/><use transform="matrix(0.04938271604938272,0,0,0.04938271604938272,14.814814814814817,0)" xlink:href="#aW"/><use transform="matrix(0.04938271604938272,0,0,0.04938271604938272,24.69135802469136,0)" xlink:href="#ba"/><use transform="matrix(0.04938271604938272,0,0,0.04938271604938272,29.629629629629633,0)" xlink:href="#bh"/><use transform="matrix(0.04938271604938272,0,0,0.04938271604938272,39.50617283950618,0)" xlink:href="#ba"/><use transform="matrix(0.04938271604938272,0,0,0.04938271604938272,44.44444444444445,0)" xlink:href="#aW"/><use transform="matrix(0.04938271604938272,0,0,0.04938271604938272,54.320987654320994,0)" xlink:href="#aX"/></g><g id="aj"><use transform="matrix(0.04938271604938272,0,0,0.04938271604938272,0,0)" xlink:href="#aC"/><use transform="matrix(0.04938271604938272,0,0,0.04938271604938272,11.851851851851853,0)" xlink:href="#az"/><use transform="matrix(0.04938271604938272,0,0,0.04938271604938272,17.728395061728396,0)" xlink:href="#ay"/><use transform="matrix(0.04938271604938272,0,0,0.04938271604938272,27.60493827160494,0)" xlink:href="#au"/><use transform="matrix(0.04938271604938272,0,0,0.04938271604938272,37.48148148148148,0)" xlink:href="#aD"/><use transform="matrix(0.04938271604938272,0,0,0.04938271604938272,47.358024691358025,0)" xlink:href="#aB"/><use transform="matrix(0.04938271604938272,0,0,0.04938271604938272,52.2962962962963,0)" xlink:href="#ay"/><use transform="matrix(0.04938271604938272,0,0,0.04938271604938272,62.17283950617284,0)" xlink:href="#at"/></g><g id="ak"><use transform="matrix(0.04938271604938272,0,0,0.04938271604938272,0,0)" xlink:href="#bq"/><use transform="matrix(0.04938271604938272,0,0,0.04938271604938272,9.876543209876544,0)" xlink:href="#aA"/><use transform="matrix(0.04938271604938272,0,0,0.04938271604938272,13.777777777777779,0)" xlink:href="#at"/><use transform="matrix(0.04938271604938272,0,0,0.04938271604938272,22.666666666666668,0)" xlink:href="#aB"/><use transform="matrix(0.04938271604938272,0,0,0.04938271604938272,27.60493827160494,0)" xlink:href="#br"/><use transform="matrix(0.04938271604938272,0,0,0.04938271604938272,37.97530864197531,0)" xlink:href="#aC"/><use transform="matrix(0.04938271604938272,0,0,0.04938271604938272,49.827160493827165,0)" xlink:href="#az"/><use transform="matrix(0.04938271604938272,0,0,0.04938271604938272,55.70370370370371,0)" xlink:href="#ay"/><use transform="matrix(0.04938271604938272,0,0,0.04938271604938272,65.58024691358025,0)" xlink:href="#au"/><use transform="matrix(0.04938271604938272,0,0,0.04938271604938272,75.4567901234568,0)" xlink:href="#aD"/><use transform="matrix(0.04938271604938272,0,0,0.04938271604938272,85.33333333333334,0)" xlink:href="#aB"/><use transform="matrix(0.04938271604938272,0,0,0.04938271604938272,90.27160493827162,0)" xlink:href="#ay"/><use transform="matrix(0.04938271604938272,0,0,0.04938271604938272,100.14814814814817,0)" xlink:href="#bs"/></g><path fill="#333" d="M126-127c33 6 58 20 58 59 0 88-139 92-164 29-3-8-5-16-6-25l32-3c6 27 21 44 54 44 32 0 52-15 52-46 0-38-36-46-79-43v-28c39 1 72-4 72-42 0-27-17-43-46-43-28 0-47 15-49 41l-32-3c6-42 35-63 81-64 48-1 79 21 79 65 0 36-21 52-52 59" id="bt"/><g id="al"><use transform="matrix(0.037037037037037035,0,0,0.037037037037037035,0,0)" xlink:href="#bh"/><use transform="matrix(0.037037037037037035,0,0,0.037037037037037035,7.4074074074074066,0)" xlink:href="#ba"/><use transform="matrix(0.037037037037037035,0,0,0.037037037037037035,11.11111111111111,0)" xlink:href="#aW"/><use transform="matrix(0.037037037037037035,0,0,0.037037037037037035,18.51851851851852,0)" xlink:href="#ba"/><use transform="matrix(0.037037037037037035,0,0,0.037037037037037035,22.22222222222222,0)" xlink:href="#bt"/><use transform="matrix(0.037037037037037035,0,0,0.037037037037037035,29.629629629629626,0)" xlink:href="#aX"/></g><g id="am"><use transform="matrix(0.037037037037037035,0,0,0.037037037037037035,0,0)" xlink:href="#aI"/><use transform="matrix(0.037037037037037035,0,0,0.037037037037037035,8.88888888888889,0)" xlink:href="#aJ"/><use transform="matrix(0.037037037037037035,0,0,0.037037037037037035,15.555555555555555,0)" xlink:href="#aA"/><use transform="matrix(0.037037037037037035,0,0,0.037037037037037035,18.48148148148148,0)" xlink:href="#aK"/><use transform="matrix(0.037037037037037035,0,0,0.037037037037037035,25.888888888888886,0)" xlink:href="#aG"/></g><g id="an"><use transform="matrix(0.037037037037037035,0,0,0.037037037037037035,0,0)" xlink:href="#aN"/><use transform="matrix(0.037037037037037035,0,0,0.037037037037037035,7.4074074074074066,0)" xlink:href="#az"/><use transform="matrix(0.037037037037037035,0,0,0.037037037037037035,11.814814814814811,0)" xlink:href="#ay"/><use transform="matrix(0.037037037037037035,0,0,0.037037037037037035,19.22222222222222,0)" xlink:href="#au"/><use transform="matrix(0.037037037037037035,0,0,0.037037037037037035,26.62962962962963,0)" xlink:href="#aD"/><use transform="matrix(0.037037037037037035,0,0,0.037037037037037035,34.03703703703703,0)" xlink:href="#aB"/><use transform="matrix(0.037037037037037035,0,0,0.037037037037037035,37.74074074074073,0)" xlink:href="#ay"/><use transform="matrix(0.037037037037037035,0,0,0.037037037037037035,45.14814814814814,0)" xlink:href="#at"/><use transform="matrix(0.037037037037037035,0,0,0.037037037037037035,51.8148148148148,0)" xlink:href="#bb"/><use transform="matrix(0.037037037037037035,0,0,0.037037037037037035,56.22222222222221,0)" xlink:href="#bq"/><use transform="matrix(0.037037037037037035,0,0,0.037037037037037035,63.62962962962961,0)" xlink:href="#aA"/><use transform="matrix(0.037037037037037035,0,0,0.037037037037037035,66.55555555555554,0)" xlink:href="#at"/><use transform="matrix(0.037037037037037035,0,0,0.037037037037037035,73.22222222222221,0)" xlink:href="#aB"/><use transform="matrix(0.037037037037037035,0,0,0.037037037037037035,76.92592592592592,0)" xlink:href="#br"/><use transform="matrix(0.037037037037037035,0,0,0.037037037037037035,84.7037037037037,0)" xlink:href="#aC"/><use transform="matrix(0.037037037037037035,0,0,0.037037037037037035,93.59259259259258,0)" xlink:href="#az"/><use transform="matrix(0.037037037037037035,0,0,0.037037037037037035,97.99999999999997,0)" xlink:href="#ay"/><use transform="matrix(0.037037037037037035,0,0,0.037037037037037035,105.40740740740739,0)" xlink:href="#au"/><use transform="matrix(0.037037037037037035,0,0,0.037037037037037035,112.8148148148148,0)" xlink:href="#aD"/><use transform="matrix(0.037037037037037035,0,0,0.037037037037037035,120.2222222222222,0)" xlink:href="#aB"/><use transform="matrix(0.037037037037037035,0,0,0.037037037037037035,123.9259259259259,0)" xlink:href="#ay"/><use transform="matrix(0.037037037037037035,0,0,0.037037037037037035,131.33333333333331,0)" xlink:href="#bs"/><use transform="matrix(0.037037037037037035,0,0,0.037037037037037035,139.1111111111111,0)" xlink:href="#bc"/></g><path fill="#333" d="M182-182c0 78-84 86-111 141h115V0H12c-6-101 99-100 120-180 1-22-12-31-33-32-23 0-32 14-35 34l-49-3c5-45 32-70 84-70 51 0 83 22 83 69" id="bu"/><path fill="#333" d="M24 0v-54h51V0H24" id="bv"/><g id="ao"><use transform="matrix(0.04938271604938272,0,0,0.04938271604938272,0,0)" xlink:href="#bu"/><use transform="matrix(0.04938271604938272,0,0,0.04938271604938272,9.876543209876544,0)" xlink:href="#bv"/><use transform="matrix(0.04938271604938272,0,0,0.04938271604938272,14.814814814814817,0)" xlink:href="#bu"/></g><path fill="#333" d="M35-132v-50h50v50H35zM35 0v-49h50V0H35" id="bw"/><use transform="matrix(0.04938271604938272,0,0,0.04938271604938272,0,0)" xlink:href="#bw" id="ap"/><path fill="#333" d="M24 0v-248h52v208h133V0H24" id="bx"/><path fill="#333" d="M25-224v-37h50v37H25zM25 0v-190h50V0H25" id="by"/><path fill="#333" d="M137-138c1-29-70-34-71-4 15 46 118 7 119 86 1 83-164 76-172 9l43-7c4 19 20 25 44 25 33 8 57-30 24-41C81-84 22-81 20-136c-2-80 154-74 161-7" id="bz"/><path fill="#333" d="M115-3C79 11 28 4 28-45v-112H4v-33h27l15-45h31v45h36v33H77v99c-1 23 16 31 38 25v30" id="bA"/><path fill="#333" d="M133-34C117-15 103 5 69 4 32 3 11-16 11-54c-1-60 55-63 116-61 1-26-3-47-28-47-18 1-26 9-28 27l-52-2c7-38 36-58 82-57s74 22 75 68l1 82c-1 14 12 18 25 15v27c-30 8-71 5-69-32zm-48 3c29 0 43-24 42-57-32 0-66-3-65 30 0 17 8 27 23 27" id="bB"/><g id="aq"><use transform="matrix(0.04938271604938272,0,0,0.04938271604938272,0,0)" xlink:href="#bx"/><use transform="matrix(0.04938271604938272,0,0,0.04938271604938272,10.814814814814815,0)" xlink:href="#by"/><use transform="matrix(0.04938271604938272,0,0,0.04938271604938272,15.753086419753087,0)" xlink:href="#bz"/><use transform="matrix(0.04938271604938272,0,0,0.04938271604938272,25.629629629629633,0)" xlink:href="#bA"/><use transform="matrix(0.04938271604938272,0,0,0.04938271604938272,31.506172839506174,0)" xlink:href="#bB"/></g><path fill="#333" d="M88-194c31-1 46 15 58 34l-1-101h50l1 261h-48c-2-10 0-23-3-31C134-8 116 4 84 4 32 4 16-41 15-95c0-56 19-97 73-99zm17 164c33 0 40-30 41-66 1-37-9-64-41-64s-38 30-39 65c0 43 13 65 39 65" id="bC"/><path fill="#333" d="M185-48c-13 30-37 53-82 52C43 2 14-33 14-96s30-98 90-98c62 0 83 45 84 108H66c0 31 8 55 39 56 18 0 30-7 34-22zm-45-69c5-46-57-63-70-21-2 6-4 13-4 21h74" id="bD"/><g id="ar"><use transform="matrix(0.04938271604938272,0,0,0.04938271604938272,0,0)" xlink:href="#bC"/><use transform="matrix(0.04938271604938272,0,0,0.04938271604938272,10.814814814814815,0)" xlink:href="#bD"/></g><path fill="#333" d="M121-226c-27-7-43 5-38 36h38v33H83V0H34v-157H6v-33h28c-9-59 32-81 87-68v32" id="bE"/><path fill="#333" d="M128 0H69L1-190h53L99-40l48-150h52" id="bF"/><path fill="#333" d="M110-194c64 0 96 36 96 99 0 64-35 99-97 99-61 0-95-36-95-99 0-62 34-99 96-99zm-1 164c35 0 45-28 45-65 0-40-10-65-43-65-34 0-45 26-45 65 0 36 10 65 43 65" id="bG"/><path fill="#333" d="M135-150c-39-12-60 13-60 57V0H25l-1-190h47c2 13-1 29 3 40 6-28 27-53 61-41v41" id="bH"/><g id="as"><use transform="matrix(0.04938271604938272,0,0,0.04938271604938272,0,0)" xlink:href="#bE"/><use transform="matrix(0.04938271604938272,0,0,0.04938271604938272,5.8765432098765435,0)" xlink:href="#bB"/><use transform="matrix(0.04938271604938272,0,0,0.04938271604938272,15.753086419753087,0)" xlink:href="#bF"/><use transform="matrix(0.04938271604938272,0,0,0.04938271604938272,25.629629629629633,0)" xlink:href="#bG"/><use transform="matrix(0.04938271604938272,0,0,0.04938271604938272,36.44444444444445,0)" xlink:href="#bH"/><use transform="matrix(0.04938271604938272,0,0,0.04938271604938272,43.35802469135803,0)" xlink:href="#by"/><use transform="matrix(0.04938271604938272,0,0,0.04938271604938272,48.296296296296305,0)" xlink:href="#bA"/><use transform="matrix(0.04938271604938272,0,0,0.04938271604938272,54.17283950617284,0)" xlink:href="#bG"/><use transform="matrix(0.04938271604938272,0,0,0.04938271604938272,64.98765432098766,0)" xlink:href="#bz"/></g></defs></g></svg>