<svg xmlns="http://www.w3.org/2000/svg" xmlns:xlink="http://www.w3.org/1999/xlink" xmlns:lucid="lucid" width="1240" height="580"><g transform="translate(0 -40)" lucid:page-tab-id="0_0"><path d="M0 0h1870.87v1322.83H0z" fill="#fff"/><path d="M20 66c0-3.3 2.7-6 6-6h263c3.3 0 6 2.7 6 6v8c0 3.3-1.9 7.9-4.24 10.24l-1.52 1.52C286.9 88.1 282.3 90 279 90H26c-3.3 0-6-2.7-6-6z" fill="#fff"/><path d="M295 60v20l-10 10H20" stroke="#5e5e5e" stroke-width="3" fill="none"/><path d="M20 66c0-3.3 2.7-6 6-6h1188c3.3 0 6 2.7 6 6v528c0 3.3-2.7 6-6 6H26c-3.3 0-6-2.7-6-6z" stroke="#5e5e5e" stroke-width="3" fill="none"/><use xlink:href="#a" transform="matrix(1,0,0,1,28,60) translate(0 19.444444444444443)"/><use xlink:href="#b" transform="matrix(1,0,0,1,28,60) translate(96.17283950617283 19.444444444444443)"/><use xlink:href="#c" transform="matrix(1,0,0,1,28,60) translate(127.03703703703704 19.444444444444443)"/><use xlink:href="#d" transform="matrix(1,0,0,1,28,60) translate(185 19.444444444444443)"/><path d="M109.75 129.75c0 5.38-4.37 9.75-9.75 9.75s-9.75-4.37-9.75-9.75S94.62 120 100 120s9.75 4.37 9.75 9.75z" stroke="#5e5e5e" stroke-width="3" fill="#fff"/><path d="M100 139.5v21.3c0 3.3 1.45 8.26 3.24 11.05L120 198m-20-31.2L80 198m0-48.75h40" stroke="#5e5e5e" stroke-width="3" fill="none"/><path d="M80 126c0-3.3 2.7-6 6-6h28c3.3 0 6 2.7 6 6v88c0 3.3-2.7 6-6 6H86c-3.3 0-6-2.7-6-6z" fill="none"/><use xlink:href="#e" transform="matrix(1,0,0,1,0,198) translate(31.63580246913581 17.77777777777778)"/><path d="M100 221v9.73m0 9.73v19.46m0 9.73v19.47m0 9.73v19.46m0 9.74v19.46m0 9.73v19.46m0 9.72v19.46m0 9.74v19.46m0 9.73v19.47m0 9.73v19.46m0 9.73v19.45m0 9.73v19.47m0 9.73v19.46m0 9.73v9.73M100 221.03V220" stroke="#5e5e5e" stroke-width="2" fill="none"/><path d="M101 601.5h-2v-1.03h2z" fill="#5e5e5e"/><path d="M420 150c0 16.57-13.43 30-30 30s-30-13.43-30-30 13.43-30 30-30 30 13.43 30 30z" stroke="#5e5e5e" stroke-width="3" fill="#fff"/><path d="M340 120v60m0-30h20" stroke="#5e5e5e" stroke-width="3" fill="none"/><use xlink:href="#f" transform="matrix(1,0,0,1,320,180) translate(34.25925925925926 17.77777777777778)"/><use xlink:href="#g" transform="matrix(1,0,0,1,320,180) translate(81.04938271604938 17.77777777777778)"/><use xlink:href="#h" transform="matrix(1,0,0,1,320,180) translate(12.006172839506178 44.44444444444444)"/><use xlink:href="#g" transform="matrix(1,0,0,1,320,180) translate(103.30246913580247 44.44444444444444)"/><use xlink:href="#i" transform="matrix(1,0,0,1,320,180) translate(39.81481481481482 71.11111111111111)"/><path d="M380 221v9.7m0 9.68v19.4m0 9.68v19.4m0 9.68v19.38m0 9.7V347m0 9.7v19.38m0 9.7v19.37m0 9.7v19.38m0 9.7v19.38m0 9.7v19.38m0 9.7v19.38m0 9.7v19.38m0 9.7v19.38m0 9.7V599M380 221.03V220M380 598.97V600" stroke="#5e5e5e" stroke-width="2" fill="none"/><path d="M770 150c0 16.57-17.9 30-40 30s-40-13.43-40-30 17.9-30 40-30 40 13.43 40 30z" stroke="#5e5e5e" stroke-width="3" fill="#fff"/><path d="M738 116l-8 4 8 4.8" stroke="#5e5e5e" stroke-width="3" fill="none"/><use xlink:href="#j" transform="matrix(1,0,0,1,650,180) translate(38.11728395061728 17.77777777777778)"/><path d="M730 182.5v10.2m0 10.18v20.4m0 10.18v20.38m0 10.2v20.38m0 10.2v20.37m0 10.18v20.4m0 10.18v20.38m0 10.2v20.38m0 10.2v20.37m0 10.18v20.4m0 10.18v10.2l-.73 1.76-1.77.73-1.77.73-.73 1.77v8.8m0 8.83v17.62m0 8.8v17.64m0 8.8v17.64m0 8.8V599" stroke="#5e5e5e" stroke-width="2" fill="none"/><path d="M729.98 181.5l1.02-.03v1.06h-2v-1.1z" fill="#5e5e5e"/><path d="M725 598.97V600" stroke="#5e5e5e" stroke-width="2" fill="none"/><path d="M80 306c0-3.3 2.7-6 6-6h28c3.3 0 6 2.7 6 6v108c0 3.3-2.7 6-6 6H86c-3.3 0-6-2.7-6-6z" stroke="#5e5e5e" stroke-width="3" fill="#fff"/><path d="M122.5 312.87H340" stroke="#5e5e5e" stroke-width="2" fill="none"/><path d="M122.53 313.87h-1.03v-2h1.03z" fill="#5e5e5e"/><path d="M355.26 312.87L341 317.5v-9.27z" stroke="#5e5e5e" stroke-width="2" fill="#5e5e5e"/><use xlink:href="#k" transform="matrix(1,0,0,1,164.04938271604937,287.5362412768382) translate(0 14.222222222222223)"/><use xlink:href="#l" transform="matrix(1,0,0,1,164.04938271604937,287.5362412768382) translate(14.814814814814817 14.222222222222223)"/><use xlink:href="#m" transform="matrix(1,0,0,1,164.04938271604937,287.5362412768382) translate(24.69135802469136 14.222222222222223)"/><use xlink:href="#n" transform="matrix(1,0,0,1,164.04938271604937,287.5362412768382) translate(83.80246913580248 14.222222222222223)"/><path d="M360 306c0-3.3 2.7-6 6-6h28c3.3 0 6 2.7 6 6v108c0 3.3-2.7 6-6 6h-28c-3.3 0-6-2.7-6-6z" stroke="#5e5e5e" stroke-width="3" fill="#fff"/><path d="M402.5 325.33H685" stroke="#5e5e5e" stroke-width="2" fill="none"/><path d="M402.53 326.33h-1.03v-2h1.03z" fill="#5e5e5e"/><path d="M700.26 325.33L686 329.97v-9.27z" stroke="#5e5e5e" stroke-width="2" fill="#5e5e5e"/><use xlink:href="#o" transform="matrix(1,0,0,1,435.11728395061726,299.99999999999966) translate(0 14.222222222222223)"/><use xlink:href="#l" transform="matrix(1,0,0,1,435.11728395061726,299.99999999999966) translate(29.629629629629633 14.222222222222223)"/><use xlink:href="#p" transform="matrix(1,0,0,1,435.11728395061726,299.99999999999966) translate(39.50617283950618 14.222222222222223)"/><use xlink:href="#q" transform="matrix(1,0,0,1,435.11728395061726,299.99999999999966) translate(106.51851851851853 14.222222222222223)"/><path d="M705 306c0-3.3 2.7-6 6-6h28c3.3 0 6 2.7 6 6v248c0 3.3-2.7 6-6 6h-28c-3.3 0-6-2.7-6-6zM1000 426c0-3.3 2.7-6 6-6h148c3.3 0 6 2.7 6 6v58c0 3.3-2.7 6-6 6h-148c-3.3 0-6-2.7-6-6z" stroke="#5e5e5e" stroke-width="3" fill="#fff"/><use xlink:href="#r" transform="matrix(1,0,0,1,1000,420) translate(24.62999999999999 38.80625)"/><path d="M1080 492.5v9m0 9v18m0 9v18m0 9v18m0 9v9" stroke="#5e5e5e" stroke-width="2" fill="none"/><path d="M1081 492.53h-2v-1.03h2zM1081 601.5h-2v-1.03h2z" fill="#5e5e5e"/><path d="M747.5 455H980" stroke="#5e5e5e" stroke-width="2" fill="none"/><path d="M747.53 456h-1.03v-2h1.03z" fill="#5e5e5e"/><path d="M995.26 455L981 459.64v-9.28z" stroke="#5e5e5e" stroke-width="2" fill="#5e5e5e"/><use xlink:href="#s" transform="matrix(1,0,0,1,804.4506172839506,429.66666666666663) translate(0 14.222222222222223)"/><use xlink:href="#l" transform="matrix(1,0,0,1,804.4506172839506,429.66666666666663) translate(44.44444444444445 14.222222222222223)"/><use xlink:href="#t" transform="matrix(1,0,0,1,804.4506172839506,429.66666666666663) translate(54.320987654320994 14.222222222222223)"/><path d="M122.5 388H340" stroke="#5e5e5e" stroke-width="2" fill="none"/><path d="M122.53 389h-1.03v-2h1.03z" fill="#5e5e5e"/><path d="M355.26 388L341 392.64v-9.28z" stroke="#5e5e5e" stroke-width="2" fill="#5e5e5e"/><use xlink:href="#u" transform="matrix(1,0,0,1,140.39506172839504,362.6666666666663) translate(0 14.222222222222223)"/><use xlink:href="#l" transform="matrix(1,0,0,1,140.39506172839504,362.6666666666663) translate(29.629629629629633 14.222222222222223)"/><use xlink:href="#v" transform="matrix(1,0,0,1,140.39506172839504,362.6666666666663) translate(39.50617283950618 14.222222222222223)"/><use xlink:href="#w" transform="matrix(1,0,0,1,140.39506172839504,362.6666666666663) translate(120.44444444444446 14.222222222222223)"/><path d="M702.5 349.33h-3.03m-4.03 0h-6.06m-4.03 0h-6.06m-4.04 0h-6.05m-4.03 0h-6.05m-4.04 0h-6.05m-4.04 0h-6.06m-4.04 0h-6.05m-4.04 0h-6.04m-4.04 0h-6.05m-4.04 0h-6.05m-4.03 0h-6.06m-4.04 0h-6.06m-4.03 0h-6.06m-4.02 0h-6.06m-4.03 0h-6.07m-4.03 0h-6.05m-4.04 0h-6.04m-4.04 0h-6.05m-4.04 0h-6.05m-4.04 0h-6.05m-4.05 0h-6.05m-4.04 0h-6.05m-4.03 0h-6.05m-4.03 0h-6.07m-4.03 0h-6.06m-4.03 0h-6.05m-4.03 0h-6.06m-4.03 0H420" stroke="#5e5e5e" stroke-width="2" fill="none"/><path d="M703.5 350.33h-1.03v-2h1.03z" fill="#5e5e5e"/><path d="M404.74 349.33L419 344.7v9.27z" stroke="#5e5e5e" stroke-width="2" fill="#5e5e5e"/><path d="M402.5 402.67H685" stroke="#5e5e5e" stroke-width="2" fill="none"/><path d="M402.53 403.67h-1.03v-2h1.03z" fill="#5e5e5e"/><path d="M700.26 402.67L686 407.3v-9.27z" stroke="#5e5e5e" stroke-width="2" fill="#5e5e5e"/><g><use xlink:href="#x" transform="matrix(1,0,0,1,427.19135802469134,377.3333333333329) translate(0 14.222222222222223)"/><use xlink:href="#l" transform="matrix(1,0,0,1,427.19135802469134,377.3333333333329) translate(44.44444444444445 14.222222222222223)"/><use xlink:href="#y" transform="matrix(1,0,0,1,427.19135802469134,377.3333333333329) translate(54.320987654320994 14.222222222222223)"/></g><path d="M745 386c0-3.3 2.7-6 6-6h228c3.3 0 6 2.7 6 6v68c0 3.3-2.7 6-6 6H751c-3.3 0-6-2.7-6-6z" stroke="#000" stroke-opacity="0" stroke-width="3" fill="#fff" fill-opacity="0"/><g><use xlink:href="#z" transform="matrix(1,0,0,1,750,385) translate(69.59259259259261 38.62847222222222)"/></g><path d="M1060 526c0-3.3 2.7-6 6-6h28c3.3 0 6 2.7 6 6v28c0 3.3-2.7 6-6 6h-28c-3.3 0-6-2.7-6-6z" stroke="#5e5e5e" stroke-width="3" fill="#fff"/><path d="M747.5 526.67H1040" stroke="#5e5e5e" stroke-width="2" fill="none"/><path d="M747.53 527.67h-1.03v-2h1.03z" fill="#5e5e5e"/><path d="M1055.26 526.67L1041 531.3v-9.27z" stroke="#5e5e5e" stroke-width="2" fill="#5e5e5e"/><g><use xlink:href="#A" transform="matrix(1,0,0,1,807.7592592592592,501.3333333333328) translate(0 14.222222222222223)"/><use xlink:href="#l" transform="matrix(1,0,0,1,807.7592592592592,501.3333333333328) translate(44.44444444444445 14.222222222222223)"/><use xlink:href="#B" transform="matrix(1,0,0,1,807.7592592592592,501.3333333333328) translate(54.320987654320994 14.222222222222223)"/></g><defs><path fill="#333" d="M212-179c-10-28-35-45-73-45-59 0-87 40-87 99 0 60 29 101 89 101 43 0 62-24 78-52l27 14C228-24 195 4 139 4 59 4 22-46 18-125c-6-104 99-153 187-111 19 9 31 26 39 46" id="C"/><path fill="#333" d="M141-36C126-15 110 5 73 4 37 3 15-17 15-53c-1-64 63-63 125-63 3-35-9-54-41-54-24 1-41 7-42 31l-33-3c5-37 33-52 76-52 45 0 72 20 72 64v82c-1 20 7 32 28 27v20c-31 9-61-2-59-35zM48-53c0 20 12 33 32 33 41-3 63-29 60-74-43 2-92-5-92 41" id="D"/><path fill="#333" d="M85-194c31 0 48 13 60 33l-1-100h32l1 261h-30c-2-10 0-23-3-31C134-8 116 4 85 4 32 4 16-35 15-94c0-66 23-100 70-100zm9 24c-40 0-46 34-46 75 0 40 6 74 45 74 42 0 51-32 51-76 0-42-9-74-50-73" id="E"/><path fill="#333" d="M135-143c-3-34-86-38-87 0 15 53 115 12 119 90S17 21 10-45l28-5c4 36 97 45 98 0-10-56-113-15-118-90-4-57 82-63 122-42 12 7 21 19 24 35" id="F"/><path fill="#333" d="M59-47c-2 24 18 29 38 22v24C64 9 27 4 27-40v-127H5v-23h24l9-43h21v43h35v23H59v120" id="G"/><path fill="#333" d="M114-163C36-179 61-72 57 0H25l-1-190h30c1 12-1 29 2 39 6-27 23-49 58-41v29" id="H"/><path fill="#333" d="M100-194c62-1 85 37 85 99 1 63-27 99-86 99S16-35 15-95c0-66 28-99 85-99zM99-20c44 1 53-31 53-75 0-43-8-75-51-75s-53 32-53 75 10 74 51 75" id="I"/><g id="a"><use transform="matrix(0.06172839506172839,0,0,0.06172839506172839,0,0)" xlink:href="#C"/><use transform="matrix(0.06172839506172839,0,0,0.06172839506172839,15.987654320987653,0)" xlink:href="#D"/><use transform="matrix(0.06172839506172839,0,0,0.06172839506172839,28.333333333333332,0)" xlink:href="#E"/><use transform="matrix(0.06172839506172839,0,0,0.06172839506172839,40.67901234567901,0)" xlink:href="#D"/><use transform="matrix(0.06172839506172839,0,0,0.06172839506172839,53.02469135802469,0)" xlink:href="#F"/><use transform="matrix(0.06172839506172839,0,0,0.06172839506172839,64.1358024691358,0)" xlink:href="#G"/><use transform="matrix(0.06172839506172839,0,0,0.06172839506172839,70.30864197530863,0)" xlink:href="#H"/><use transform="matrix(0.06172839506172839,0,0,0.06172839506172839,77.65432098765432,0)" xlink:href="#I"/></g><path fill="#333" d="M100-194c63 0 86 42 84 106H49c0 40 14 67 53 68 26 1 43-12 49-29l28 8c-11 28-37 45-77 45C44 4 14-33 15-96c1-61 26-98 85-98zm52 81c6-60-76-77-97-28-3 7-6 17-6 28h103" id="J"/><g id="b"><use transform="matrix(0.06172839506172839,0,0,0.06172839506172839,0,0)" xlink:href="#E"/><use transform="matrix(0.06172839506172839,0,0,0.06172839506172839,12.345679012345679,0)" xlink:href="#J"/></g><path fill="#333" d="M190 0L58-211 59 0H30v-248h39L202-35l-2-213h31V0h-41" id="K"/><path fill="#333" d="M108 0H70L1-190h34L89-25l56-165h34" id="L"/><g id="c"><use transform="matrix(0.06172839506172839,0,0,0.06172839506172839,0,0)" xlink:href="#K"/><use transform="matrix(0.06172839506172839,0,0,0.06172839506172839,15.987654320987653,0)" xlink:href="#I"/><use transform="matrix(0.06172839506172839,0,0,0.06172839506172839,28.333333333333332,0)" xlink:href="#L"/><use transform="matrix(0.06172839506172839,0,0,0.06172839506172839,39.44444444444444,0)" xlink:href="#I"/></g><path fill="#333" d="M205 0l-28-72H64L36 0H1l101-248h38L239 0h-34zm-38-99l-47-123c-12 45-31 82-46 123h93" id="M"/><path fill="#333" d="M210-169c-67 3-38 105-44 169h-31v-121c0-29-5-50-35-48C34-165 62-65 56 0H25l-1-190h30c1 10-1 24 2 32 10-44 99-50 107 0 11-21 27-35 58-36 85-2 47 119 55 194h-31v-121c0-29-5-49-35-48" id="N"/><path fill="#333" d="M24-231v-30h32v30H24zM24 0v-190h32V0H24" id="O"/><path fill="#333" d="M117-194c89-4 53 116 60 194h-32v-121c0-31-8-49-39-48C34-167 62-67 57 0H25l-1-190h30c1 10-1 24 2 32 11-22 29-35 61-36" id="P"/><g id="d"><use transform="matrix(0.06172839506172839,0,0,0.06172839506172839,0,0)" xlink:href="#M"/><use transform="matrix(0.06172839506172839,0,0,0.06172839506172839,14.814814814814813,0)" xlink:href="#E"/><use transform="matrix(0.06172839506172839,0,0,0.06172839506172839,27.160493827160494,0)" xlink:href="#N"/><use transform="matrix(0.06172839506172839,0,0,0.06172839506172839,45.61728395061728,0)" xlink:href="#O"/><use transform="matrix(0.06172839506172839,0,0,0.06172839506172839,50.49382716049382,0)" xlink:href="#P"/></g><g id="e"><use transform="matrix(0.06172839506172839,0,0,0.06172839506172839,0,0)" xlink:href="#M"/><use transform="matrix(0.06172839506172839,0,0,0.06172839506172839,14.814814814814813,0)" xlink:href="#E"/><use transform="matrix(0.06172839506172839,0,0,0.06172839506172839,27.160493827160494,0)" xlink:href="#N"/><use transform="matrix(0.06172839506172839,0,0,0.06172839506172839,45.61728395061728,0)" xlink:href="#O"/><use transform="matrix(0.06172839506172839,0,0,0.06172839506172839,50.49382716049382,0)" xlink:href="#P"/><use transform="matrix(0.06172839506172839,0,0,0.06172839506172839,62.8395061728395,0)" xlink:href="#O"/><use transform="matrix(0.06172839506172839,0,0,0.06172839506172839,67.71604938271604,0)" xlink:href="#F"/><use transform="matrix(0.06172839506172839,0,0,0.06172839506172839,78.82716049382715,0)" xlink:href="#G"/><use transform="matrix(0.06172839506172839,0,0,0.06172839506172839,84.99999999999999,0)" xlink:href="#H"/><use transform="matrix(0.06172839506172839,0,0,0.06172839506172839,92.34567901234567,0)" xlink:href="#D"/><use transform="matrix(0.06172839506172839,0,0,0.06172839506172839,104.69135802469135,0)" xlink:href="#E"/><use transform="matrix(0.06172839506172839,0,0,0.06172839506172839,117.03703703703704,0)" xlink:href="#I"/><use transform="matrix(0.06172839506172839,0,0,0.06172839506172839,129.3827160493827,0)" xlink:href="#H"/></g><path fill="#333" d="M127-220V0H93v-220H8v-28h204v28h-85" id="Q"/><path fill="#333" d="M24 0v-261h32V0H24" id="R"/><g id="f"><use transform="matrix(0.06172839506172839,0,0,0.06172839506172839,0,0)" xlink:href="#Q"/><use transform="matrix(0.06172839506172839,0,0,0.06172839506172839,11.049382716049381,0)" xlink:href="#J"/><use transform="matrix(0.06172839506172839,0,0,0.06172839506172839,23.39506172839506,0)" xlink:href="#R"/><use transform="matrix(0.06172839506172839,0,0,0.06172839506172839,28.2716049382716,0)" xlink:href="#D"/></g><g id="g"><use transform="matrix(0.06172839506172839,0,0,0.06172839506172839,0,0)" xlink:href="#E"/><use transform="matrix(0.06172839506172839,0,0,0.06172839506172839,12.345679012345679,0)" xlink:href="#J"/></g><path fill="#333" d="M96-169c-40 0-48 33-48 73s9 75 48 75c24 0 41-14 43-38l32 2c-6 37-31 61-74 61-59 0-76-41-82-99-10-93 101-131 147-64 4 7 5 14 7 22l-32 3c-4-21-16-35-41-35" id="S"/><g id="h"><use transform="matrix(0.06172839506172839,0,0,0.06172839506172839,0,0)" xlink:href="#S"/><use transform="matrix(0.06172839506172839,0,0,0.06172839506172839,11.11111111111111,0)" xlink:href="#D"/><use transform="matrix(0.06172839506172839,0,0,0.06172839506172839,23.45679012345679,0)" xlink:href="#E"/><use transform="matrix(0.06172839506172839,0,0,0.06172839506172839,35.80246913580247,0)" xlink:href="#D"/><use transform="matrix(0.06172839506172839,0,0,0.06172839506172839,48.148148148148145,0)" xlink:href="#F"/><use transform="matrix(0.06172839506172839,0,0,0.06172839506172839,59.25925925925925,0)" xlink:href="#G"/><use transform="matrix(0.06172839506172839,0,0,0.06172839506172839,65.43209876543209,0)" xlink:href="#H"/><use transform="matrix(0.06172839506172839,0,0,0.06172839506172839,72.77777777777777,0)" xlink:href="#I"/></g><g id="i"><use transform="matrix(0.06172839506172839,0,0,0.06172839506172839,0,0)" xlink:href="#D"/><use transform="matrix(0.06172839506172839,0,0,0.06172839506172839,12.345679012345679,0)" xlink:href="#E"/><use transform="matrix(0.06172839506172839,0,0,0.06172839506172839,24.691358024691358,0)" xlink:href="#N"/><use transform="matrix(0.06172839506172839,0,0,0.06172839506172839,43.148148148148145,0)" xlink:href="#O"/><use transform="matrix(0.06172839506172839,0,0,0.06172839506172839,48.02469135802469,0)" xlink:href="#P"/></g><g id="j"><use transform="matrix(0.06172839506172839,0,0,0.06172839506172839,0,0)" xlink:href="#C"/><use transform="matrix(0.06172839506172839,0,0,0.06172839506172839,15.987654320987653,0)" xlink:href="#I"/><use transform="matrix(0.06172839506172839,0,0,0.06172839506172839,28.333333333333332,0)" xlink:href="#P"/><use transform="matrix(0.06172839506172839,0,0,0.06172839506172839,40.67901234567901,0)" xlink:href="#G"/><use transform="matrix(0.06172839506172839,0,0,0.06172839506172839,46.851851851851855,0)" xlink:href="#H"/><use transform="matrix(0.06172839506172839,0,0,0.06172839506172839,54.19753086419753,0)" xlink:href="#I"/><use transform="matrix(0.06172839506172839,0,0,0.06172839506172839,66.54320987654322,0)" xlink:href="#R"/><use transform="matrix(0.06172839506172839,0,0,0.06172839506172839,71.41975308641976,0)" xlink:href="#J"/></g><path fill="#333" d="M27 0v-27h64v-190l-56 39v-29l58-41h29v221h61V0H27" id="T"/><use transform="matrix(0.04938271604938272,0,0,0.04938271604938272,0,0)" xlink:href="#T" id="k"/><path fill="#333" d="M33-154v-36h34v36H33zM33 0v-36h34V0H33" id="U"/><use transform="matrix(0.04938271604938272,0,0,0.04938271604938272,0,0)" xlink:href="#U" id="l"/><g id="m"><use transform="matrix(0.04938271604938272,0,0,0.04938271604938272,0,0)" xlink:href="#F"/><use transform="matrix(0.04938271604938272,0,0,0.04938271604938272,8.88888888888889,0)" xlink:href="#I"/><use transform="matrix(0.04938271604938272,0,0,0.04938271604938272,18.765432098765434,0)" xlink:href="#R"/><use transform="matrix(0.04938271604938272,0,0,0.04938271604938272,22.666666666666668,0)" xlink:href="#O"/><use transform="matrix(0.04938271604938272,0,0,0.04938271604938272,26.567901234567902,0)" xlink:href="#S"/><use transform="matrix(0.04938271604938272,0,0,0.04938271604938272,35.45679012345679,0)" xlink:href="#O"/><use transform="matrix(0.04938271604938272,0,0,0.04938271604938272,39.358024691358025,0)" xlink:href="#G"/><use transform="matrix(0.04938271604938272,0,0,0.04938271604938272,44.2962962962963,0)" xlink:href="#D"/></g><g id="n"><use transform="matrix(0.04938271604938272,0,0,0.04938271604938272,0,0)" xlink:href="#S"/><use transform="matrix(0.04938271604938272,0,0,0.04938271604938272,8.88888888888889,0)" xlink:href="#D"/><use transform="matrix(0.04938271604938272,0,0,0.04938271604938272,18.765432098765434,0)" xlink:href="#E"/><use transform="matrix(0.04938271604938272,0,0,0.04938271604938272,28.641975308641978,0)" xlink:href="#D"/><use transform="matrix(0.04938271604938272,0,0,0.04938271604938272,38.51851851851852,0)" xlink:href="#F"/><use transform="matrix(0.04938271604938272,0,0,0.04938271604938272,47.407407407407405,0)" xlink:href="#G"/><use transform="matrix(0.04938271604938272,0,0,0.04938271604938272,52.34567901234567,0)" xlink:href="#H"/><use transform="matrix(0.04938271604938272,0,0,0.04938271604938272,58.222222222222214,0)" xlink:href="#I"/></g><path fill="#333" d="M33 0v-38h34V0H33" id="V"/><g id="o"><use transform="matrix(0.04938271604938272,0,0,0.04938271604938272,0,0)" xlink:href="#T"/><use transform="matrix(0.04938271604938272,0,0,0.04938271604938272,9.876543209876544,0)" xlink:href="#V"/><use transform="matrix(0.04938271604938272,0,0,0.04938271604938272,14.814814814814817,0)" xlink:href="#T"/></g><path fill="#333" d="M185-189c-5-48-123-54-124 2 14 75 158 14 163 119 3 78-121 87-175 55-17-10-28-26-33-46l33-7c5 56 141 63 141-1 0-78-155-14-162-118-5-82 145-84 179-34 5 7 8 16 11 25" id="W"/><g id="p"><use transform="matrix(0.04938271604938272,0,0,0.04938271604938272,0,0)" xlink:href="#W"/><use transform="matrix(0.04938271604938272,0,0,0.04938271604938272,11.851851851851853,0)" xlink:href="#I"/><use transform="matrix(0.04938271604938272,0,0,0.04938271604938272,21.7283950617284,0)" xlink:href="#R"/><use transform="matrix(0.04938271604938272,0,0,0.04938271604938272,25.629629629629633,0)" xlink:href="#O"/><use transform="matrix(0.04938271604938272,0,0,0.04938271604938272,29.530864197530867,0)" xlink:href="#S"/><use transform="matrix(0.04938271604938272,0,0,0.04938271604938272,38.41975308641976,0)" xlink:href="#O"/><use transform="matrix(0.04938271604938272,0,0,0.04938271604938272,42.320987654320994,0)" xlink:href="#G"/><use transform="matrix(0.04938271604938272,0,0,0.04938271604938272,47.25925925925927,0)" xlink:href="#D"/></g><path fill="#333" d="M87 75C49 33 22-17 22-94c0-76 28-126 65-167h31c-38 41-64 92-64 168S80 34 118 75H87" id="X"/><path fill="#333" d="M33-261c38 41 65 92 65 168S71 34 33 75H2C39 34 66-17 66-93S39-220 2-261h31" id="Y"/><g id="q"><use transform="matrix(0.04938271604938272,0,0,0.04938271604938272,0,0)" xlink:href="#S"/><use transform="matrix(0.04938271604938272,0,0,0.04938271604938272,8.88888888888889,0)" xlink:href="#D"/><use transform="matrix(0.04938271604938272,0,0,0.04938271604938272,18.765432098765434,0)" xlink:href="#E"/><use transform="matrix(0.04938271604938272,0,0,0.04938271604938272,28.641975308641978,0)" xlink:href="#D"/><use transform="matrix(0.04938271604938272,0,0,0.04938271604938272,38.51851851851852,0)" xlink:href="#F"/><use transform="matrix(0.04938271604938272,0,0,0.04938271604938272,47.407407407407405,0)" xlink:href="#G"/><use transform="matrix(0.04938271604938272,0,0,0.04938271604938272,52.34567901234567,0)" xlink:href="#H"/><use transform="matrix(0.04938271604938272,0,0,0.04938271604938272,58.222222222222214,0)" xlink:href="#I"/><use transform="matrix(0.04938271604938272,0,0,0.04938271604938272,68.09876543209876,0)" xlink:href="#X"/><use transform="matrix(0.04938271604938272,0,0,0.04938271604938272,73.9753086419753,0)" xlink:href="#E"/><use transform="matrix(0.04938271604938272,0,0,0.04938271604938272,83.85185185185185,0)" xlink:href="#D"/><use transform="matrix(0.04938271604938272,0,0,0.04938271604938272,93.72839506172839,0)" xlink:href="#E"/><use transform="matrix(0.04938271604938272,0,0,0.04938271604938272,103.60493827160495,0)" xlink:href="#I"/><use transform="matrix(0.04938271604938272,0,0,0.04938271604938272,113.4814814814815,0)" xlink:href="#F"/><use transform="matrix(0.04938271604938272,0,0,0.04938271604938272,122.37037037037035,0)" xlink:href="#Y"/></g><path d="M205 0l-28-72H64L36 0H1l101-248h38L239 0h-34zm-38-99l-47-123c-12 45-31 82-46 123h93" id="Z"/><path d="M85-194c31 0 48 13 60 33l-1-100h32l1 261h-30c-2-10 0-23-3-31C134-8 116 4 85 4 32 4 16-35 15-94c0-66 23-100 70-100zm9 24c-40 0-46 34-46 75 0 40 6 74 45 74 42 0 51-32 51-76 0-42-9-74-50-73" id="aa"/><path d="M210-169c-67 3-38 105-44 169h-31v-121c0-29-5-50-35-48C34-165 62-65 56 0H25l-1-190h30c1 10-1 24 2 32 10-44 99-50 107 0 11-21 27-35 58-36 85-2 47 119 55 194h-31v-121c0-29-5-49-35-48" id="ab"/><path d="M24-231v-30h32v30H24zM24 0v-190h32V0H24" id="ac"/><path d="M117-194c89-4 53 116 60 194h-32v-121c0-31-8-49-39-48C34-167 62-67 57 0H25l-1-190h30c1 10-1 24 2 32 11-22 29-35 61-36" id="ad"/><path d="M135-143c-3-34-86-38-87 0 15 53 115 12 119 90S17 21 10-45l28-5c4 36 97 45 98 0-10-56-113-15-118-90-4-57 82-63 122-42 12 7 21 19 24 35" id="ae"/><path d="M59-47c-2 24 18 29 38 22v24C64 9 27 4 27-40v-127H5v-23h24l9-43h21v43h35v23H59v120" id="af"/><path d="M114-163C36-179 61-72 57 0H25l-1-190h30c1 12-1 29 2 39 6-27 23-49 58-41v29" id="ag"/><path d="M141-36C126-15 110 5 73 4 37 3 15-17 15-53c-1-64 63-63 125-63 3-35-9-54-41-54-24 1-41 7-42 31l-33-3c5-37 33-52 76-52 45 0 72 20 72 64v82c-1 20 7 32 28 27v20c-31 9-61-2-59-35zM48-53c0 20 12 33 32 33 41-3 63-29 60-74-43 2-92-5-92 41" id="ah"/><path d="M100-194c62-1 85 37 85 99 1 63-27 99-86 99S16-35 15-95c0-66 28-99 85-99zM99-20c44 1 53-31 53-75 0-43-8-75-51-75s-53 32-53 75 10 74 51 75" id="ai"/><g id="r"><use transform="matrix(0.05,0,0,0.05,0,0)" xlink:href="#Z"/><use transform="matrix(0.05,0,0,0.05,12,0)" xlink:href="#aa"/><use transform="matrix(0.05,0,0,0.05,22,0)" xlink:href="#ab"/><use transform="matrix(0.05,0,0,0.05,36.95,0)" xlink:href="#ac"/><use transform="matrix(0.05,0,0,0.05,40.900000000000006,0)" xlink:href="#ad"/><use transform="matrix(0.05,0,0,0.05,50.900000000000006,0)" xlink:href="#ac"/><use transform="matrix(0.05,0,0,0.05,54.85,0)" xlink:href="#ae"/><use transform="matrix(0.05,0,0,0.05,63.85,0)" xlink:href="#af"/><use transform="matrix(0.05,0,0,0.05,68.85000000000001,0)" xlink:href="#ag"/><use transform="matrix(0.05,0,0,0.05,74.80000000000001,0)" xlink:href="#ah"/><use transform="matrix(0.05,0,0,0.05,84.80000000000001,0)" xlink:href="#aa"/><use transform="matrix(0.05,0,0,0.05,94.80000000000001,0)" xlink:href="#ai"/><use transform="matrix(0.05,0,0,0.05,104.80000000000001,0)" xlink:href="#ag"/><path d="M-.9 1.25h112.55v1.32H-.9z"/></g><g id="s"><use transform="matrix(0.04938271604938272,0,0,0.04938271604938272,0,0)" xlink:href="#T"/><use transform="matrix(0.04938271604938272,0,0,0.04938271604938272,9.876543209876544,0)" xlink:href="#V"/><use transform="matrix(0.04938271604938272,0,0,0.04938271604938272,14.814814814814817,0)" xlink:href="#T"/><use transform="matrix(0.04938271604938272,0,0,0.04938271604938272,24.69135802469136,0)" xlink:href="#V"/><use transform="matrix(0.04938271604938272,0,0,0.04938271604938272,29.629629629629633,0)" xlink:href="#T"/></g><g id="t"><use transform="matrix(0.04938271604938272,0,0,0.04938271604938272,0,0)" xlink:href="#O"/><use transform="matrix(0.04938271604938272,0,0,0.04938271604938272,3.901234567901235,0)" xlink:href="#P"/><use transform="matrix(0.04938271604938272,0,0,0.04938271604938272,13.777777777777779,0)" xlink:href="#F"/><use transform="matrix(0.04938271604938272,0,0,0.04938271604938272,22.666666666666668,0)" xlink:href="#G"/><use transform="matrix(0.04938271604938272,0,0,0.04938271604938272,27.60493827160494,0)" xlink:href="#D"/><use transform="matrix(0.04938271604938272,0,0,0.04938271604938272,37.48148148148148,0)" xlink:href="#P"/><use transform="matrix(0.04938271604938272,0,0,0.04938271604938272,47.358024691358025,0)" xlink:href="#S"/><use transform="matrix(0.04938271604938272,0,0,0.04938271604938272,56.246913580246904,0)" xlink:href="#O"/><use transform="matrix(0.04938271604938272,0,0,0.04938271604938272,60.148148148148145,0)" xlink:href="#D"/><use transform="matrix(0.04938271604938272,0,0,0.04938271604938272,70.02469135802468,0)" xlink:href="#X"/><use transform="matrix(0.04938271604938272,0,0,0.04938271604938272,75.90123456790123,0)" xlink:href="#Y"/></g><path fill="#333" d="M101-251c82-7 93 87 43 132L82-64C71-53 59-42 53-27h129V0H18c2-99 128-94 128-182 0-28-16-43-45-43s-46 15-49 41l-32-3c6-41 34-60 81-64" id="aj"/><g id="u"><use transform="matrix(0.04938271604938272,0,0,0.04938271604938272,0,0)" xlink:href="#T"/><use transform="matrix(0.04938271604938272,0,0,0.04938271604938272,9.876543209876544,0)" xlink:href="#V"/><use transform="matrix(0.04938271604938272,0,0,0.04938271604938272,14.814814814814817,0)" xlink:href="#aj"/></g><path fill="#333" d="M30-248c87 1 191-15 191 75 0 78-77 80-158 76V0H30v-248zm33 125c57 0 124 11 124-50 0-59-68-47-124-48v98" id="ak"/><path fill="#333" d="M106-169C34-169 62-67 57 0H25v-261h32l-1 103c12-21 28-36 61-36 89 0 53 116 60 194h-32v-121c2-32-8-49-39-48" id="al"/><g id="v"><use transform="matrix(0.04938271604938272,0,0,0.04938271604938272,0,0)" xlink:href="#ak"/><use transform="matrix(0.04938271604938272,0,0,0.04938271604938272,11.851851851851853,0)" xlink:href="#H"/><use transform="matrix(0.04938271604938272,0,0,0.04938271604938272,17.728395061728396,0)" xlink:href="#J"/><use transform="matrix(0.04938271604938272,0,0,0.04938271604938272,27.60493827160494,0)" xlink:href="#J"/><use transform="matrix(0.04938271604938272,0,0,0.04938271604938272,37.48148148148148,0)" xlink:href="#P"/><use transform="matrix(0.04938271604938272,0,0,0.04938271604938272,47.358024691358025,0)" xlink:href="#S"/><use transform="matrix(0.04938271604938272,0,0,0.04938271604938272,56.246913580246904,0)" xlink:href="#al"/><use transform="matrix(0.04938271604938272,0,0,0.04938271604938272,66.12345679012346,0)" xlink:href="#J"/></g><path fill="#333" d="M101-234c-31-9-42 10-38 44h38v23H63V0H32v-167H5v-23h27c-7-52 17-82 69-68v24" id="am"/><path fill="#333" d="M84 4C-5 8 30-112 23-190h32v120c0 31 7 50 39 49 72-2 45-101 50-169h31l1 190h-30c-1-10 1-25-2-33-11 22-28 36-60 37" id="an"/><path fill="#333" d="M141-36C126-15 110 5 73 4 37 3 15-17 15-53c-1-64 63-63 125-63 3-35-9-54-41-54-24 1-41 7-42 31l-33-3c5-37 33-52 76-52 45 0 72 20 72 64v82c-1 20 7 32 28 27v20c-31 9-61-2-59-35zM48-53c0 20 12 33 32 33 41-3 63-29 60-74-43 2-92-5-92 41zm25-158c8-23 27-35 38-54h36v5l-58 49H73" id="ao"/><g id="w"><use transform="matrix(0.04938271604938272,0,0,0.04938271604938272,0,0)" xlink:href="#am"/><use transform="matrix(0.04938271604938272,0,0,0.04938271604938272,4.938271604938272,0)" xlink:href="#I"/><use transform="matrix(0.04938271604938272,0,0,0.04938271604938272,14.814814814814817,0)" xlink:href="#H"/><use transform="matrix(0.04938271604938272,0,0,0.04938271604938272,20.69135802469136,0)" xlink:href="#N"/><use transform="matrix(0.04938271604938272,0,0,0.04938271604938272,35.4567901234568,0)" xlink:href="#an"/><use transform="matrix(0.04938271604938272,0,0,0.04938271604938272,45.33333333333334,0)" xlink:href="#R"/><use transform="matrix(0.04938271604938272,0,0,0.04938271604938272,49.23456790123458,0)" xlink:href="#ao"/><use transform="matrix(0.04938271604938272,0,0,0.04938271604938272,59.111111111111114,0)" xlink:href="#H"/><use transform="matrix(0.04938271604938272,0,0,0.04938271604938272,64.98765432098766,0)" xlink:href="#O"/><use transform="matrix(0.04938271604938272,0,0,0.04938271604938272,68.8888888888889,0)" xlink:href="#I"/></g><g id="x"><use transform="matrix(0.04938271604938272,0,0,0.04938271604938272,0,0)" xlink:href="#T"/><use transform="matrix(0.04938271604938272,0,0,0.04938271604938272,9.876543209876544,0)" xlink:href="#V"/><use transform="matrix(0.04938271604938272,0,0,0.04938271604938272,14.814814814814817,0)" xlink:href="#aj"/><use transform="matrix(0.04938271604938272,0,0,0.04938271604938272,24.69135802469136,0)" xlink:href="#V"/><use transform="matrix(0.04938271604938272,0,0,0.04938271604938272,29.629629629629633,0)" xlink:href="#T"/></g><g id="y"><use transform="matrix(0.04938271604938272,0,0,0.04938271604938272,0,0)" xlink:href="#M"/><use transform="matrix(0.04938271604938272,0,0,0.04938271604938272,11.851851851851853,0)" xlink:href="#E"/><use transform="matrix(0.04938271604938272,0,0,0.04938271604938272,21.7283950617284,0)" xlink:href="#O"/><use transform="matrix(0.04938271604938272,0,0,0.04938271604938272,25.629629629629633,0)" xlink:href="#S"/><use transform="matrix(0.04938271604938272,0,0,0.04938271604938272,34.51851851851852,0)" xlink:href="#O"/><use transform="matrix(0.04938271604938272,0,0,0.04938271604938272,38.41975308641975,0)" xlink:href="#I"/><use transform="matrix(0.04938271604938272,0,0,0.04938271604938272,48.2962962962963,0)" xlink:href="#P"/><use transform="matrix(0.04938271604938272,0,0,0.04938271604938272,58.17283950617284,0)" xlink:href="#D"/><use transform="matrix(0.04938271604938272,0,0,0.04938271604938272,68.0493827160494,0)" xlink:href="#S"/><use transform="matrix(0.04938271604938272,0,0,0.04938271604938272,76.93827160493828,0)" xlink:href="#D"/><use transform="matrix(0.04938271604938272,0,0,0.04938271604938272,86.81481481481482,0)" xlink:href="#E"/><use transform="matrix(0.04938271604938272,0,0,0.04938271604938272,96.69135802469137,0)" xlink:href="#D"/><use transform="matrix(0.04938271604938272,0,0,0.04938271604938272,106.56790123456791,0)" xlink:href="#F"/><use transform="matrix(0.04938271604938272,0,0,0.04938271604938272,115.4567901234568,0)" xlink:href="#G"/><use transform="matrix(0.04938271604938272,0,0,0.04938271604938272,120.39506172839508,0)" xlink:href="#H"/><use transform="matrix(0.04938271604938272,0,0,0.04938271604938272,126.27160493827162,0)" xlink:href="#I"/><use transform="matrix(0.04938271604938272,0,0,0.04938271604938272,136.14814814814815,0)" xlink:href="#X"/><use transform="matrix(0.04938271604938272,0,0,0.04938271604938272,142.02469135802468,0)" xlink:href="#E"/><use transform="matrix(0.04938271604938272,0,0,0.04938271604938272,151.9012345679012,0)" xlink:href="#D"/><use transform="matrix(0.04938271604938272,0,0,0.04938271604938272,161.77777777777777,0)" xlink:href="#E"/><use transform="matrix(0.04938271604938272,0,0,0.04938271604938272,171.65432098765433,0)" xlink:href="#I"/><use transform="matrix(0.04938271604938272,0,0,0.04938271604938272,181.5308641975309,0)" xlink:href="#F"/><use transform="matrix(0.04938271604938272,0,0,0.04938271604938272,190.41975308641977,0)" xlink:href="#Y"/></g><path fill="#333" d="M18-100v-36l175-74v27L42-118l151 64v27" id="ap"/><path fill="#333" d="M18-27v-27l151-64-151-65v-27l175 74v36" id="aq"/><g id="z"><use transform="matrix(0.049382716049382706,0,0,0.049382716049382706,0,0)" xlink:href="#ap"/><use transform="matrix(0.049382716049382706,0,0,0.049382716049382706,10.370370370370368,0)" xlink:href="#ap"/><use transform="matrix(0.049382716049382706,0,0,0.049382716049382706,20.740740740740737,0)" xlink:href="#S"/><use transform="matrix(0.049382716049382706,0,0,0.049382716049382706,29.629629629629623,0)" xlink:href="#H"/><use transform="matrix(0.049382716049382706,0,0,0.049382716049382706,35.50617283950617,0)" xlink:href="#J"/><use transform="matrix(0.049382716049382706,0,0,0.049382716049382706,45.38271604938271,0)" xlink:href="#D"/><use transform="matrix(0.049382716049382706,0,0,0.049382716049382706,55.259259259259245,0)" xlink:href="#G"/><use transform="matrix(0.049382716049382706,0,0,0.049382716049382706,60.19753086419752,0)" xlink:href="#J"/><use transform="matrix(0.049382716049382706,0,0,0.049382716049382706,70.07407407407406,0)" xlink:href="#aq"/><use transform="matrix(0.049382716049382706,0,0,0.049382716049382706,80.44444444444443,0)" xlink:href="#aq"/></g><path fill="#333" d="M126-127c33 6 58 20 58 59 0 88-139 92-164 29-3-8-5-16-6-25l32-3c6 27 21 44 54 44 32 0 52-15 52-46 0-38-36-46-79-43v-28c39 1 72-4 72-42 0-27-17-43-46-43-28 0-47 15-49 41l-32-3c6-42 35-63 81-64 48-1 79 21 79 65 0 36-21 52-52 59" id="ar"/><g id="A"><use transform="matrix(0.04938271604938272,0,0,0.04938271604938272,0,0)" xlink:href="#T"/><use transform="matrix(0.04938271604938272,0,0,0.04938271604938272,9.876543209876544,0)" xlink:href="#V"/><use transform="matrix(0.04938271604938272,0,0,0.04938271604938272,14.814814814814817,0)" xlink:href="#T"/><use transform="matrix(0.04938271604938272,0,0,0.04938271604938272,24.69135802469136,0)" xlink:href="#V"/><use transform="matrix(0.04938271604938272,0,0,0.04938271604938272,29.629629629629633,0)" xlink:href="#ar"/></g><path fill="#333" d="M30-248c118-7 216 8 213 122C240-48 200 0 122 0H30v-248zM63-27c89 8 146-16 146-99s-60-101-146-95v194" id="as"/><g id="B"><use transform="matrix(0.04938271604938272,0,0,0.04938271604938272,0,0)" xlink:href="#F"/><use transform="matrix(0.04938271604938272,0,0,0.04938271604938272,8.88888888888889,0)" xlink:href="#J"/><use transform="matrix(0.04938271604938272,0,0,0.04938271604938272,18.765432098765434,0)" xlink:href="#G"/><use transform="matrix(0.04938271604938272,0,0,0.04938271604938272,23.703703703703706,0)" xlink:href="#as"/><use transform="matrix(0.04938271604938272,0,0,0.04938271604938272,36.49382716049383,0)" xlink:href="#D"/><use transform="matrix(0.04938271604938272,0,0,0.04938271604938272,46.370370370370374,0)" xlink:href="#E"/><use transform="matrix(0.04938271604938272,0,0,0.04938271604938272,56.24691358024692,0)" xlink:href="#I"/><use transform="matrix(0.04938271604938272,0,0,0.04938271604938272,66.12345679012347,0)" xlink:href="#F"/><use transform="matrix(0.04938271604938272,0,0,0.04938271604938272,75.01234567901236,0)" xlink:href="#X"/><use transform="matrix(0.04938271604938272,0,0,0.04938271604938272,80.8888888888889,0)" xlink:href="#E"/><use transform="matrix(0.04938271604938272,0,0,0.04938271604938272,90.76543209876544,0)" xlink:href="#D"/><use transform="matrix(0.04938271604938272,0,0,0.04938271604938272,100.64197530864199,0)" xlink:href="#E"/><use transform="matrix(0.04938271604938272,0,0,0.04938271604938272,110.51851851851853,0)" xlink:href="#I"/><use transform="matrix(0.04938271604938272,0,0,0.04938271604938272,120.39506172839508,0)" xlink:href="#F"/><use transform="matrix(0.04938271604938272,0,0,0.04938271604938272,129.28395061728398,0)" xlink:href="#Y"/></g></defs></g></svg>