<svg xmlns="http://www.w3.org/2000/svg" xmlns:xlink="http://www.w3.org/1999/xlink" xmlns:lucid="lucid" width="1700" height="1100"><g transform="translate(-100 -140)" lucid:page-tab-id="-bI9sTCjiI06"><path d="M0 0h1870.87v1322.83H0z" fill="#fff"/><path d="M120 166c0-3.3 2.7-6 6-6h303c3.3 0 6 2.7 6 6v8c0 3.3-1.9 7.9-4.24 10.24l-1.52 1.52C426.9 188.1 422.3 190 419 190H126c-3.3 0-6-2.7-6-6z" fill="#fff"/><path d="M435 160v20l-10 10H120" stroke="#5e5e5e" stroke-width="3" fill="none"/><path d="M120 166c0-3.3 2.7-6 6-6h1648c3.3 0 6 2.7 6 6v1048c0 3.3-2.7 6-6 6H126c-3.3 0-6-2.7-6-6z" stroke="#5e5e5e" stroke-width="3" fill="none"/><use xlink:href="#a" transform="matrix(1,0,0,1,128,160) translate(0 19.444444444444443)"/><use xlink:href="#b" transform="matrix(1,0,0,1,128,160) translate(29.62962962962963 19.444444444444443)"/><use xlink:href="#c" transform="matrix(1,0,0,1,128,160) translate(133.14814814814815 19.444444444444443)"/><path d="M193.33 283.7c0 4.13-3.34 7.47-7.46 7.47-4.1 0-7.45-3.34-7.45-7.46 0-4.1 3.34-7.45 7.45-7.45 4.12 0 7.46 3.34 7.46 7.46z" stroke="#5e5e5e" stroke-width="3" fill="#fff"/><path d="M185.87 291.17v14.88c0 3.3 1.8 8 4 10.48l17.28 19.4m-21.28-23.88l-21.27 23.87m0-37.3h42.55" stroke="#5e5e5e" stroke-width="3" fill="none"/><path d="M164.6 282.25c0-3.3 2.7-6 6-6h30.55c3.3 0 6 2.7 6 6v69.67c0 3.3-2.7 6-6 6H170.6c-3.3 0-6-2.7-6-6z" fill="none"/><path d="M185.87 358.92v9.9m0 9.9v19.8m0 9.9v19.82m0 9.9v19.8m0 9.9v19.82m0 9.9v19.8m0 9.9v19.82m0 9.9v19.8m0 9.9v19.82m0 9.9v19.8m0 9.9v19.82m0 9.9v19.8m0 9.9v19.82m0 9.9v19.8m0 9.9v19.82m-.02 9.9v19.8m0 9.9v19.82m0 9.9v19.8m0 9.9v19.82m0 9.9v19.8m0 9.9v19.82m0 9.9v19.8m0 9.9v19.8m0 9.92v19.8m0 9.9v19.8m0 9.92v19.8m0 9.9v19.8m0 9.92v19.8m0 9.9v19.8m0 9.92v9.9" stroke="#5e5e5e" stroke-width="2" fill="none"/><path d="M186.88 354.92v4.02h-2v-4.02zM186.84 1220.47v1.03h-2v-1.03z" fill="#5e5e5e"/><path d="M164.6 426c0-3.3 2.7-6 6-6h28c3.3 0 6 2.7 6 6v308c0 3.3-2.7 6-6 6h-28c-3.3 0-6-2.7-6-6z" stroke="#5e5e5e" stroke-width="3" fill="#fff"/><path d="M124.6 226c0-3.3 2.7-6 6-6h108c3.3 0 6 2.7 6 6v51.33c0 3.32-2.7 6-6 6h-108c-3.3 0-6-2.68-6-6z" stroke="#000" stroke-opacity="0" stroke-width="3" fill="#fff" fill-opacity="0"/><use xlink:href="#d" transform="matrix(1,0,0,1,129.59999999441328,225) translate(20.52469135802469 31.27777777777778)"/><path d="M620 333.8v9.86m0 9.86l-.02 19.7m0 9.85v19.7m0 9.86l-.02 19.7m0 9.86v19.7m-.02 9.84v19.7m0 9.86l-.02 19.7m0 9.85v19.7m-.02 9.86v19.7m0 9.87l-.02 19.7m0 9.85v19.7m0 9.86l-.02 19.7m0 9.86l-.02 19.7m0 9.85v19.7m0 9.85l-.02 19.7m0 9.85V787m-.02 9.86v19.7m0 9.86l-.02 19.7m0 9.85v19.7m0 9.86l-.02 19.7m0 9.86l-.02 19.7m0 9.84v19.7m0 9.86l-.02 19.7m0 9.85v19.7m-.02 9.86v19.7m0 9.87l-.02 19.7m0 9.85v19.7m0 9.86l-.02 19.7m0 9.86l-.02 19.7m0 9.85v19.7m0 9.85l-.02 9.85" stroke="#5e5e5e" stroke-width="2" fill="none"/><path d="M621 333.84h-2v-.92l2-.2zM620.62 1220.47v1.03h-2v-1.03z" fill="#5e5e5e"/><path d="M598.5 426c0-3.3 2.7-6 6-6h28c3.3 0 6 2.7 6 6v288c0 3.3-2.7 6-6 6h-28c-3.3 0-6-2.7-6-6zM648.25 295.83c0 19.8-14.58 35.84-32.57 35.84-18 0-32.58-16.05-32.58-35.84 0-19.8 14.58-35.83 32.58-35.83s32.57 16.04 32.57 35.83z" stroke="#5e5e5e" stroke-width="3" fill="#fff"/><path d="M563.1 260v71.67m0-35.84h20" stroke="#5e5e5e" stroke-width="3" fill="none"/><path d="M1060 295.83c0 19.8-17.9 35.84-40 35.84s-40-16.05-40-35.84c0-19.8 17.9-35.83 40-35.83s40 16.04 40 35.83z" stroke="#5e5e5e" stroke-width="3" fill="#fff"/><path d="M1028 255.42l-8 4.58 8 5.5" stroke="#5e5e5e" stroke-width="3" fill="none"/><path d="M1020 334.17v9.85m0 9.84v19.7m0 9.85v19.7m0 9.85v19.7m0 9.85v19.7m0 9.84v19.7m.02 9.85v19.68m0 9.85v19.7m0 9.84v19.7m0 9.85v19.7m0 9.84v19.7m0 9.85V669m0 9.85v19.7m0 9.85l.02 19.7m0 9.84v19.7m0 9.85v19.68m0 9.85v19.7m0 9.84v19.7m0 9.85v19.7m0 9.84v19.7m0 9.85v19.7m.02 9.85v19.7m0 9.85V994m0 9.84v19.7m0 9.85v19.68m0 9.85v19.7m0 9.84v19.7m0 9.85v19.7m0 9.84l.02 19.7m0 9.85v19.7m0 9.85v9.85" stroke="#5e5e5e" stroke-width="2" fill="none"/><path d="M1019.98 333.17l1.02-.04v1.06h-2v-1.1zM1021.08 1221.5h-2v-1.03h2z" fill="#5e5e5e"/><path d="M1000 446c0-3.3 2.7-6 6-6h28c3.3 0 6 2.7 6 6v248c0 3.3-2.7 6-6 6h-28c-3.3 0-6-2.7-6-6z" stroke="#5e5e5e" stroke-width="3" fill="#fff"/><path d="M500 186c0-3.3 2.7-6 6-6h228c3.3 0 6 2.7 6 6v104.67c0 3.3-2.7 6-6 6H506c-3.3 0-6-2.7-6-6z" stroke="#000" stroke-opacity="0" stroke-width="3" fill="#fff" fill-opacity="0"/><use xlink:href="#e" transform="matrix(1,0,0,1,505,185) translate(36.141975308641975 57.90277777777778)"/><use xlink:href="#f" transform="matrix(1,0,0,1,505,185) translate(82.9320987654321 57.90277777777778)"/><use xlink:href="#g" transform="matrix(1,0,0,1,505,185) translate(113.79629629629629 57.90277777777778)"/><path d="M900 206c0-3.3 2.7-6 6-6h228c3.3 0 6 2.7 6 6v48c0 3.3-2.7 6-6 6H906c-3.3 0-6-2.7-6-6z" stroke="#000" stroke-opacity="0" stroke-width="3" fill="#fff" fill-opacity="0"/><use xlink:href="#h" transform="matrix(1,0,0,1,905,205) translate(73.11728395061728 30.27777777777778)"/><path d="M1620 310c-22.1 0-40-13.43-40-30s17.9-30 40-30 40 13.43 40 30-17.9 30-40 30z" stroke="#5e5e5e" stroke-width="3" fill="#fff"/><path d="M1580 310h80" stroke="#5e5e5e" stroke-width="3" fill="none"/><path d="M1520 196c0-3.3 2.7-6 6-6h190.78c3.3 0 6 2.7 6 6v48c0 3.3-2.7 6-6 6H1526c-3.3 0-6-2.7-6-6z" stroke="#000" stroke-opacity="0" stroke-width="3" fill="#fff" fill-opacity="0"/><use xlink:href="#i" transform="matrix(1,0,0,1,1525,195) translate(47.76543209876543 30.27777777777778)"/><path d="M1620 312.5v10.1m0 10.08v20.18m0 10.1v20.16m0 10.1v20.17m.02 10.08v20.18m0 10.1v20.16m0 10.1v20.17m0 10.08v20.18m0 10.1l.02 20.16m0 10.1v20.17m0 10.08v20.18m0 10.1v20.16m0 10.1v20.17m.02 10.08v20.18m0 10.08v20.18m0 10.1v20.17m0 10.08v20.18m0 10.08l.02 20.18m0 10.1v20.17m0 10.08v20.18m0 10.08v20.18m0 10.1v20.17m.02 10.08v20.18m0 10.08v20.18m0 10.1v20.17m0 10.08v20.18m0 10.08l.02 20.18m0 10.1v20.17m0 10.08v20.18m0 10.08v20.18m0 10.1v10.08" stroke="#5e5e5e" stroke-width="2" fill="none"/><path d="M1619.95 311.5h1.05v1.03h-2v-1.03zM1621.13 1221.5h-2v-1.03h2z" fill="#5e5e5e"/><path d="M1367 256c0-3.3 2.7-6 6-6h148c3.3 0 6 2.7 6 6v68c0 3.3-2.7 6-6 6h-148c-3.3 0-6-2.7-6-6z" stroke="#333" stroke-width="3" fill="#fff"/><use xlink:href="#d" transform="matrix(1,0,0,1,1366.9999999999995,249.9999999999999) translate(45.529691358024685 45.27777777777778)"/><path d="M1447 332.5v9.87m0 9.86l.03 19.74m0 9.86v19.74m.02 9.86v19.74m.02 9.86v19.74m.02 9.86v19.74m0 9.86l.02 19.74m0 9.86l.02 19.74m0 9.86l.02 19.74m0 9.86l.02 19.74m0 9.86l.02 19.74m0 9.86v19.74m.02 9.86v19.74m.02 9.86v19.74m.02 9.86v19.74m.02 9.86v19.74m.02 9.86v19.74m.02 9.86v19.74m0 9.86l.03 19.74m0 9.86l.02 19.74m0 9.86v19.74m.02 9.86v19.74m0 9.86l.02 19.74m0 9.86l.02 19.74m0 9.86l.02 19.74m0 9.86l.02 19.74m0 9.86l.02 19.74m0 9.86l.02 19.74m0 9.86l.02 19.74m0 9.86v19.74m.02 9.86v9.87" stroke="#333" stroke-width="2" fill="none"/><path d="M1448 332.53h-2v-1.03h2zM1448.57 1221.5h-2v-1.03h2z" fill="#333"/><path d="M207.1 449.33h371.4" stroke="#5e5e5e" stroke-width="2" fill="none"/><path d="M207.13 450.33h-1.03v-2h1.03z" fill="#5e5e5e"/><path d="M593.76 449.33l-14.26 4.64v-9.27z" stroke="#5e5e5e" stroke-width="2" fill="#5e5e5e"/><use xlink:href="#j" transform="matrix(1,0,0,1,295.0808641947375,424) translate(0 14.222222222222223)"/><use xlink:href="#k" transform="matrix(1,0,0,1,295.0808641947375,424) translate(19.75308641975309 14.222222222222223)"/><use xlink:href="#l" transform="matrix(1,0,0,1,295.0808641947375,424) translate(76.98765432098767 14.222222222222223)"/><use xlink:href="#m" transform="matrix(1,0,0,1,295.0808641947375,424) translate(106.56790123456793 14.222222222222223)"/><use xlink:href="#n" transform="matrix(1,0,0,1,295.0808641947375,424) translate(148.8888888888889 14.222222222222223)"/><path d="M641 468h339" stroke="#5e5e5e" stroke-width="2" fill="none"/><path d="M641.03 469H640v-2h1.03z" fill="#5e5e5e"/><path d="M995.26 468L981 472.64v-9.28z" stroke="#5e5e5e" stroke-width="2" fill="#5e5e5e"/><use xlink:href="#o" transform="matrix(1,0,0,1,745.7932098765433,442.66666666666663) translate(0 14.222222222222223)"/><use xlink:href="#p" transform="matrix(1,0,0,1,745.7932098765433,442.66666666666663) translate(34.567901234567906 14.222222222222223)"/><use xlink:href="#n" transform="matrix(1,0,0,1,745.7932098765433,442.66666666666663) translate(82.8641975308642 14.222222222222223)"/><path d="M1427 594.5c0-3.3 2.7-6 6-6h28c3.3 0 6 2.7 6 6v88c0 3.3-2.7 6-6 6h-28c-3.3 0-6-2.7-6-6z" stroke="#5e5e5e" stroke-width="3" fill="#fff"/><path d="M1042.5 613.83H1407" stroke="#5e5e5e" stroke-width="2" fill="none"/><path d="M1042.53 614.83h-1.03v-2h1.03z" fill="#5e5e5e"/><path d="M1422.26 613.83l-14.26 4.64v-9.27z" stroke="#5e5e5e" stroke-width="2" fill="#5e5e5e"/><use xlink:href="#q" transform="matrix(1,0,0,1,1121.0802469135797,588.4999999999999) translate(0 14.222222222222223)"/><use xlink:href="#r" transform="matrix(1,0,0,1,1121.0802469135797,588.4999999999999) translate(49.38271604938272 14.222222222222223)"/><path d="M1424.5 660.5h-3.02m-4.02 0h-6.03m-4.02 0h-6.02m-4.02 0h-6.03m-4.02 0h-6.03m-4.02 0h-6.03m-4.02 0h-6.03m-4.02 0h-6.03m-4.03 0h-6.04m-4.02 0H1331m-4 0h-6.04m-4.02 0h-6.03m-4.02 0h-6.03m-4.02 0h-6.03m-4.02 0h-6.03m-4.02 0h-6.04m-4.03 0h-6.03m-4.02 0h-6.03m-4.03 0h-6.03m-4.02 0h-6.02m-4 0h-6m-4.02 0h-6m-4 0h-6m-4.02 0h-6m-4 0h-6m-4 0h-6.02m-4 0h-6m-4 0h-6.02m-4 0h-6m-4 0h-6.02m-4 0h-6m-4 0h-6.02m-4 0h-6m-4 0h-6.02m-4 0h-6m-4 0h-6.02m-4 0h-6m-4 0h-6m-4.02 0h-3" stroke="#5e5e5e" stroke-width="2" fill="none"/><path d="M1425.5 661.5h-1.03v-2h1.03z" fill="#5e5e5e"/><path d="M1060.68 650.32l-17.2 10.18 17.2 10.18" stroke="#5e5e5e" stroke-width="2" fill="none"/><use xlink:href="#s" transform="matrix(1,0,0,1,1081.0555555555552,664.5) translate(0 14.222222222222223)"/><use xlink:href="#t" transform="matrix(1,0,0,1,1081.0555555555552,664.5) translate(64.19753086419755 14.222222222222223)"/><use xlink:href="#u" transform="matrix(1,0,0,1,1081.0555555555552,664.5) translate(92.83950617283952 14.222222222222223)"/><use xlink:href="#v" transform="matrix(1,0,0,1,1081.0555555555552,664.5) translate(152.0493827160494 14.222222222222223)"/><use xlink:href="#w" transform="matrix(1,0,0,1,1081.0555555555552,664.5) translate(231.01234567901238 14.222222222222223)"/><path d="M1427 466c0-3.3 2.7-6 6-6h28c3.3 0 6 2.7 6 6v68c0 3.3-2.7 6-6 6h-28c-3.3 0-6-2.7-6-6z" stroke="#5e5e5e" stroke-width="3" fill="#fff"/><path d="M1042.5 480H1407" stroke="#5e5e5e" stroke-width="2" fill="none"/><path d="M1042.53 481h-1.03v-2h1.03z" fill="#5e5e5e"/><path d="M1422.26 480l-14.26 4.64v-9.28z" stroke="#5e5e5e" stroke-width="2" fill="#5e5e5e"/><use xlink:href="#x" transform="matrix(1,0,0,1,1091.4259259259259,454.6666666666667) translate(0 14.222222222222223)"/><use xlink:href="#y" transform="matrix(1,0,0,1,1091.4259259259259,454.6666666666667) translate(49.38271604938272 14.222222222222223)"/><use xlink:href="#z" transform="matrix(1,0,0,1,1091.4259259259259,454.6666666666667) translate(112.44444444444446 14.222222222222223)"/><use xlink:href="#A" transform="matrix(1,0,0,1,1091.4259259259259,454.6666666666667) translate(136.14814814814815 14.222222222222223)"/><use xlink:href="#B" transform="matrix(1,0,0,1,1091.4259259259259,454.6666666666667) translate(192.34567901234567 14.222222222222223)"/><use xlink:href="#C" transform="matrix(1,0,0,1,1091.4259259259259,454.6666666666667) translate(230.8641975308642 14.222222222222223)"/><path d="M1424.5 510.67h-3.02m-4.02 0h-6.03m-4.02 0h-6.02m-4.02 0h-6.03m-4.02 0h-6.03m-4.02 0h-6.03m-4.02 0h-6.03m-4.02 0h-6.03m-4.03 0h-6.04m-4.02 0H1331m-4 0h-6.04m-4.02 0h-6.03m-4.02 0h-6.03m-4.02 0h-6.03m-4.02 0h-6.03m-4.02 0h-6.04m-4.03 0h-6.03m-4.02 0h-6.03m-4.03 0h-6.03m-4.02 0h-6.02m-4 0h-6m-4.02 0h-6m-4 0h-6m-4.02 0h-6m-4 0h-6m-4 0h-6.02m-4 0h-6m-4 0h-6.02m-4 0h-6m-4 0h-6.02m-4 0h-6m-4 0h-6.02m-4 0h-6m-4 0h-6.02m-4 0h-6m-4 0h-6.02m-4 0h-6m-4 0h-6m-4.02 0h-3" stroke="#5e5e5e" stroke-width="2" fill="none"/><path d="M1425.5 511.67h-1.03v-2h1.03z" fill="#5e5e5e"/><path d="M1060.68 500.5l-17.2 10.17 17.2 10.18" stroke="#5e5e5e" stroke-width="2" fill="none"/><use xlink:href="#D" transform="matrix(1,0,0,1,1111.6234567901233,514.6666666666665) translate(0 14.222222222222223)"/><use xlink:href="#t" transform="matrix(1,0,0,1,1111.6234567901233,514.6666666666665) translate(64.19753086419755 14.222222222222223)"/><use xlink:href="#E" transform="matrix(1,0,0,1,1111.6234567901233,514.6666666666665) translate(92.83950617283952 14.222222222222223)"/><use xlink:href="#F" transform="matrix(1,0,0,1,1111.6234567901233,514.6666666666665) translate(150.0246913580247 14.222222222222223)"/><use xlink:href="#G" transform="matrix(1,0,0,1,1111.6234567901233,514.6666666666665) translate(213.18518518518522 14.222222222222223)"/><path d="M997.5 684h-2.97m-3.96 0h-5.94m-3.96 0h-5.95m-3.96 0h-5.94m-3.96 0h-5.94m-3.96 0h-5.94m-3.97 0h-5.94m-3.95 0h-5.94m-3.95 0h-5.94m-3.95 0h-5.95m-3.96 0h-5.94m-3.96 0h-5.94m-3.96 0h-5.94m-3.97 0h-5.94m-3.97 0h-5.94m-3.97 0H846m-3.97 0h-5.95m-3.96 0h-5.94m-3.96 0h-5.93m-3.95 0h-5.9m-3.96 0h-5.92m-3.94 0h-5.92m-3.94 0h-5.92m-3.94 0h-5.9m-3.96 0h-5.9m-3.95 0h-5.9m-3.95 0h-5.92m-3.94 0h-5.92m-3.95 0h-5.9m-3.95 0h-5.92m-3.94 0h-5.9m-3.96 0h-5.9m-3.95 0h-5.9m-3.95 0h-5.92m-3.94 0h-5.92m-3.95 0h-5.9m-3.95 0h-2.96" stroke="#5e5e5e" stroke-width="2" fill="none"/><path d="M998.5 685h-1.03v-2h1.03z" fill="#5e5e5e"/><path d="M659.18 673.82L641.98 684l17.2 10.18" stroke="#5e5e5e" stroke-width="2" fill="none"/><use xlink:href="#H" transform="matrix(1,0,0,1,709.2253086419754,688) translate(0 14.222222222222223)"/><use xlink:href="#t" transform="matrix(1,0,0,1,709.2253086419754,688) translate(49.38271604938272 14.222222222222223)"/><use xlink:href="#I" transform="matrix(1,0,0,1,709.2253086419754,688) translate(78.0246913580247 14.222222222222223)"/><use xlink:href="#J" transform="matrix(1,0,0,1,709.2253086419754,688) translate(117.53086419753087 14.222222222222223)"/><use xlink:href="#w" transform="matrix(1,0,0,1,709.2253086419754,688) translate(146.17283950617286 14.222222222222223)"/><path d="M596 700h-3m-3.97 0h-5.97m-3.98 0h-5.97m-3.97 0h-5.97m-3.98 0h-5.97m-3.97 0h-5.97m-3.98 0h-5.97m-3.97 0h-5.97m-3.98 0h-5.97m-3.97 0h-5.97m-3.98 0h-5.97m-3.97 0h-5.97m-3.98 0h-5.98m-3.98 0h-5.97m-3.98 0h-5.97m-3.98 0h-5.97m-3.98 0h-5.97m-3.98 0h-5.97m-3.98 0h-5.97m-3.98 0h-5.97m-3.98 0H394m-3.98 0h-5.97m-3.98 0h-5.97m-3.98 0h-5.97m-3.98 0h-5.97m-4 0h-5.96m-3.98 0h-5.97m-4 0h-5.96m-3.98 0h-5.97m-4 0h-5.96m-3.98 0h-5.97m-4 0h-5.96m-3.98 0h-5.97m-4 0h-5.96m-3.98 0h-5.97m-4 0h-5.96m-3.98 0h-5.97m-4 0h-5.97m-3.98 0h-5.97m-3.98 0h-2.98" stroke="#5e5e5e" stroke-width="2" fill="none"/><path d="M597 701h-1.03v-2H597z" fill="#5e5e5e"/><path d="M225.28 689.82L208.06 700l17.22 10.18" stroke="#5e5e5e" stroke-width="2" fill="none"/><use xlink:href="#K" transform="matrix(1,0,0,1,231.82160493547826,704.0000000000001) translate(0 14.222222222222223)"/><use xlink:href="#L" transform="matrix(1,0,0,1,231.82160493547826,704.0000000000001) translate(34.567901234567906 14.222222222222223)"/><use xlink:href="#M" transform="matrix(1,0,0,1,231.82160493547826,704.0000000000001) translate(83.90123456790124 14.222222222222223)"/><use xlink:href="#N" transform="matrix(1,0,0,1,231.82160493547826,704.0000000000001) translate(123.35802469135803 14.222222222222223)"/><use xlink:href="#O" transform="matrix(1,0,0,1,231.82160493547826,704.0000000000001) translate(159.80246913580248 14.222222222222223)"/><use xlink:href="#P" transform="matrix(1,0,0,1,231.82160493547826,704.0000000000001) translate(198.27160493827162 14.222222222222223)"/><use xlink:href="#Q" transform="matrix(1,0,0,1,231.82160493547826,704.0000000000001) translate(246.66666666666669 14.222222222222223)"/><use xlink:href="#R" transform="matrix(1,0,0,1,231.82160493547826,704.0000000000001) translate(270.3703703703704 14.222222222222223)"/><path d="M167.15 806c0-3.3 2.7-6 6-6h28c3.3 0 6 2.7 6 6v328c0 3.3-2.7 6-6 6h-28c-3.3 0-6-2.7-6-6zM600 806c0-3.3 2.7-6 6-6h28c3.3 0 6 2.7 6 6v308c0 3.3-2.7 6-6 6h-28c-3.3 0-6-2.7-6-6z" stroke="#5e5e5e" stroke-width="3" fill="#fff"/><path d="M209.65 820.45H580" stroke="#5e5e5e" stroke-width="2" fill="none"/><path d="M209.68 821.45h-1.03v-2h1.03z" fill="#5e5e5e"/><path d="M595.26 820.45L581 825.1v-9.28z" stroke="#5e5e5e" stroke-width="2" fill="#5e5e5e"/><g><use xlink:href="#S" transform="matrix(1,0,0,1,263.4268518469805,795.1176309590261) translate(0 14.222222222222223)"/><use xlink:href="#T" transform="matrix(1,0,0,1,263.4268518469805,795.1176309590261) translate(19.75308641975309 14.222222222222223)"/><use xlink:href="#U" transform="matrix(1,0,0,1,263.4268518469805,795.1176309590261) translate(102.61728395061729 14.222222222222223)"/><use xlink:href="#V" transform="matrix(1,0,0,1,263.4268518469805,795.1176309590261) translate(166.76543209876544 14.222222222222223)"/><use xlink:href="#W" transform="matrix(1,0,0,1,263.4268518469805,795.1176309590261) translate(191.4567901234568 14.222222222222223)"/></g><path d="M1000 846c0-3.3 2.7-6 6-6h28c3.3 0 6 2.7 6 6v208c0 3.3-2.7 6-6 6h-28c-3.3 0-6-2.7-6-6z" stroke="#5e5e5e" stroke-width="3" fill="#fff"/><path d="M642.5 853.56H980" stroke="#5e5e5e" stroke-width="2" fill="none"/><path d="M642.53 854.56h-1.03v-2h1.03z" fill="#5e5e5e"/><path d="M995.26 853.56L981 858.2v-9.28z" stroke="#5e5e5e" stroke-width="2" fill="#5e5e5e"/><g><use xlink:href="#X" transform="matrix(1,0,0,1,715.4320987654322,828.2262305323817) translate(0 14.222222222222223)"/><use xlink:href="#Y" transform="matrix(1,0,0,1,715.4320987654322,828.2262305323817) translate(34.567901234567906 14.222222222222223)"/><use xlink:href="#V" transform="matrix(1,0,0,1,715.4320987654322,828.2262305323817) translate(125.28395061728395 14.222222222222223)"/><use xlink:href="#Z" transform="matrix(1,0,0,1,715.4320987654322,828.2262305323817) translate(149.97530864197532 14.222222222222223)"/></g><path d="M1427 881.7c0-3.3 2.7-6 6-6h28c3.3 0 6 2.7 6 6v48c0 3.32-2.7 6-6 6h-28c-3.3 0-6-2.68-6-6z" stroke="#5e5e5e" stroke-width="3" fill="#fff"/><path d="M1042.5 901.18H1407" stroke="#5e5e5e" stroke-width="2" fill="none"/><path d="M1042.53 902.18h-1.03v-2h1.03z" fill="#5e5e5e"/><path d="M1422.26 901.18l-14.26 4.64v-9.27z" stroke="#5e5e5e" stroke-width="2" fill="#5e5e5e"/><g><use xlink:href="#aa" transform="matrix(1,0,0,1,1075.7222222222222,875.8497255120137) translate(0 14.222222222222223)"/><use xlink:href="#ab" transform="matrix(1,0,0,1,1075.7222222222222,875.8497255120137) translate(49.38271604938272 14.222222222222223)"/><use xlink:href="#ac" transform="matrix(1,0,0,1,1075.7222222222222,875.8497255120137) translate(128.24691358024694 14.222222222222223)"/><use xlink:href="#ad" transform="matrix(1,0,0,1,1075.7222222222222,875.8497255120137) translate(171.70370370370372 14.222222222222223)"/><use xlink:href="#ae" transform="matrix(1,0,0,1,1075.7222222222222,875.8497255120137) translate(229.92592592592595 14.222222222222223)"/></g><path d="M1600 1006.64c0-3.32 2.7-6 6-6h28c3.3 0 6 2.68 6 6v48c0 3.3-2.7 6-6 6h-28c-3.3 0-6-2.7-6-6z" stroke="#5e5e5e" stroke-width="3" fill="#fff"/><path d="M1042.5 1009.25H1580" stroke="#5e5e5e" stroke-width="2" fill="none"/><path d="M1042.53 1010.25h-1.03v-2h1.03z" fill="#5e5e5e"/><path d="M1595.26 1009.25l-14.26 4.64v-9.28z" stroke="#5e5e5e" stroke-width="2" fill="#5e5e5e"/><g><use xlink:href="#af" transform="matrix(1,0,0,1,1230.7654320987654,983.9184256581023) translate(0 14.222222222222223)"/><use xlink:href="#ag" transform="matrix(1,0,0,1,1230.7654320987654,983.9184256581023) translate(49.38271604938272 14.222222222222223)"/><use xlink:href="#ah" transform="matrix(1,0,0,1,1230.7654320987654,983.9184256581023) translate(123.30864197530865 14.222222222222223)"/></g><path d="M997.5 1051.38h-3.04m-4.04 0h-6.08m-4.04 0h-6.07m-4.05 0h-6.07m-4.04 0H954m-4.06 0h-6.07m-4.05 0h-6.07m-4.05 0h-6.07m-4.05 0h-6.07m-4.04 0h-6.07m-4.06 0h-6.07m-4.05 0h-6.07m-4.05 0h-6.07m-4.05 0h-6.07m-4.04 0h-6.07m-4.06 0h-6.07m-4.05 0h-6.07m-4.05 0h-6.07m-4.04 0h-6.1m-4.03 0h-6.08m-4.05 0h-6.08m-4.04 0h-6.07m-4.05 0h-6.06m-4.05 0h-6.08m-4.05 0h-6.07m-4.05 0h-6.07m-4.05 0h-6.07m-4.05 0h-6.06m-4.05 0h-6.08m-4.05 0H701m-4.05 0h-6.07m-4.05 0h-6.07m-4.05 0h-6.06m-4.05 0h-6.08m-4.05 0h-6.07m-4.05 0h-3.03" stroke="#5e5e5e" stroke-width="2" fill="none"/><path d="M998.5 1052.38h-1.03v-2h1.03z" fill="#5e5e5e"/><path d="M660.68 1041.2l-17.22 10.18 17.22 10.18" stroke="#5e5e5e" stroke-width="2" fill="none"/><g><use xlink:href="#ai" transform="matrix(1,0,0,1,731.6296296296298,1055.3802353195715) translate(0 14.222222222222223)"/><use xlink:href="#t" transform="matrix(1,0,0,1,731.6296296296298,1055.3802353195715) translate(49.38271604938272 14.222222222222223)"/><use xlink:href="#I" transform="matrix(1,0,0,1,731.6296296296298,1055.3802353195715) translate(78.0246913580247 14.222222222222223)"/><use xlink:href="#J" transform="matrix(1,0,0,1,731.6296296296298,1055.3802353195715) translate(117.53086419753087 14.222222222222223)"/><use xlink:href="#G" transform="matrix(1,0,0,1,731.6296296296298,1055.3802353195715) translate(146.17283950617286 14.222222222222223)"/></g><path d="M597.5 1093.5h-2.98m-3.97 0h-5.95m-3.97 0h-5.95m-3.97 0h-5.95m-3.97 0h-5.95m-3.97 0h-5.96m-3.97 0h-5.95m-3.97 0h-5.94m-3.97 0h-5.97m-3.97 0h-5.95m-3.96 0h-5.96m-3.97 0h-5.94m-3.97 0h-5.96m-3.97 0h-5.96m-3.96 0h-5.95m-3.98 0h-5.96m-3.97 0h-5.96m-3.97 0h-5.95m-3.97 0h-5.96m-3.98 0h-5.95m-3.97 0h-5.96m-3.96 0h-5.96m-3.97 0h-5.95m-3.97 0h-5.96m-3.97 0h-5.95m-3.97 0h-5.95m-3.97 0h-5.96m-3.97 0h-5.95m-3.97 0h-5.95m-3.97 0h-5.95m-3.97 0h-5.95m-3.96 0h-5.96m-3.97 0h-5.94m-3.97 0h-5.97m-3.97 0h-5.95m-3.96 0h-5.95m-3.98 0h-5.96m-3.97 0h-5.96m-3.97 0h-5.96m-3.95 0h-2.98" stroke="#5e5e5e" stroke-width="2" fill="none"/><path d="M598.5 1094.5h-1.03v-2h1.03z" fill="#5e5e5e"/><path d="M227.83 1083.33l-17.22 10.18 17.23 10.2" stroke="#5e5e5e" stroke-width="2" fill="none"/><g><use xlink:href="#aj" transform="matrix(1,0,0,1,295.4762345630299,1097.5087116477077) translate(0 14.222222222222223)"/><use xlink:href="#L" transform="matrix(1,0,0,1,295.4762345630299,1097.5087116477077) translate(34.567901234567906 14.222222222222223)"/><use xlink:href="#ak" transform="matrix(1,0,0,1,295.4762345630299,1097.5087116477077) translate(83.90123456790124 14.222222222222223)"/><use xlink:href="#V" transform="matrix(1,0,0,1,295.4762345630299,1097.5087116477077) translate(123.35802469135803 14.222222222222223)"/><use xlink:href="#al" transform="matrix(1,0,0,1,295.4762345630299,1097.5087116477077) translate(148.0493827160494 14.222222222222223)"/></g><defs><path fill="#333" d="M135-143c-3-34-86-38-87 0 15 53 115 12 119 90S17 21 10-45l28-5c4 36 97 45 98 0-10-56-113-15-118-90-4-57 82-63 122-42 12 7 21 19 24 35" id="am"/><path fill="#333" d="M85-194c31 0 48 13 60 33l-1-100h32l1 261h-30c-2-10 0-23-3-31C134-8 116 4 85 4 32 4 16-35 15-94c0-66 23-100 70-100zm9 24c-40 0-46 34-46 75 0 40 6 74 45 74 42 0 51-32 51-76 0-42-9-74-50-73" id="an"/><g id="a"><use transform="matrix(0.06172839506172839,0,0,0.06172839506172839,0,0)" xlink:href="#am"/><use transform="matrix(0.06172839506172839,0,0,0.06172839506172839,11.11111111111111,0)" xlink:href="#an"/></g><path fill="#333" d="M143 4C61 4 22-44 18-125c-5-107 100-154 193-111 17 8 29 25 37 43l-32 9c-13-25-37-40-76-40-61 0-88 39-88 99 0 61 29 100 91 101 35 0 62-11 79-27v-45h-74v-28h105v86C228-13 192 4 143 4" id="ao"/><path fill="#333" d="M100-194c63 0 86 42 84 106H49c0 40 14 67 53 68 26 1 43-12 49-29l28 8c-11 28-37 45-77 45C44 4 14-33 15-96c1-61 26-98 85-98zm52 81c6-60-76-77-97-28-3 7-6 17-6 28h103" id="ap"/><path fill="#333" d="M114-163C36-179 61-72 57 0H25l-1-190h30c1 12-1 29 2 39 6-27 23-49 58-41v29" id="aq"/><path fill="#333" d="M117-194c89-4 53 116 60 194h-32v-121c0-31-8-49-39-48C34-167 62-67 57 0H25l-1-190h30c1 10-1 24 2 32 11-22 29-35 61-36" id="ar"/><path fill="#333" d="M96-169c-40 0-48 33-48 73s9 75 48 75c24 0 41-14 43-38l32 2c-6 37-31 61-74 61-59 0-76-41-82-99-10-93 101-131 147-64 4 7 5 14 7 22l-32 3c-4-21-16-35-41-35" id="as"/><path fill="#333" d="M24-231v-30h32v30H24zM24 0v-190h32V0H24" id="at"/><path fill="#333" d="M141-36C126-15 110 5 73 4 37 3 15-17 15-53c-1-64 63-63 125-63 3-35-9-54-41-54-24 1-41 7-42 31l-33-3c5-37 33-52 76-52 45 0 72 20 72 64v82c-1 20 7 32 28 27v20c-31 9-61-2-59-35zM48-53c0 20 12 33 32 33 41-3 63-29 60-74-43 2-92-5-92 41" id="au"/><g id="b"><use transform="matrix(0.06172839506172839,0,0,0.06172839506172839,0,0)" xlink:href="#ao"/><use transform="matrix(0.06172839506172839,0,0,0.06172839506172839,17.28395061728395,0)" xlink:href="#ap"/><use transform="matrix(0.06172839506172839,0,0,0.06172839506172839,29.629629629629626,0)" xlink:href="#aq"/><use transform="matrix(0.06172839506172839,0,0,0.06172839506172839,36.9753086419753,0)" xlink:href="#ap"/><use transform="matrix(0.06172839506172839,0,0,0.06172839506172839,49.32098765432098,0)" xlink:href="#ar"/><use transform="matrix(0.06172839506172839,0,0,0.06172839506172839,61.66666666666666,0)" xlink:href="#as"/><use transform="matrix(0.06172839506172839,0,0,0.06172839506172839,72.77777777777777,0)" xlink:href="#at"/><use transform="matrix(0.06172839506172839,0,0,0.06172839506172839,77.65432098765432,0)" xlink:href="#au"/><use transform="matrix(0.06172839506172839,0,0,0.06172839506172839,90,0)" xlink:href="#aq"/></g><path fill="#333" d="M212-179c-10-28-35-45-73-45-59 0-87 40-87 99 0 60 29 101 89 101 43 0 62-24 78-52l27 14C228-24 195 4 139 4 59 4 22-46 18-125c-6-104 99-153 187-111 19 9 31 26 39 46" id="av"/><path fill="#333" d="M106-169C34-169 62-67 57 0H25v-261h32l-1 103c12-21 28-36 61-36 89 0 53 116 60 194h-32v-121c2-32-8-49-39-48" id="aw"/><path fill="#333" d="M100-194c62-1 85 37 85 99 1 63-27 99-86 99S16-35 15-95c0-66 28-99 85-99zM99-20c44 1 53-31 53-75 0-43-8-75-51-75s-53 32-53 75 10 74 51 75" id="ax"/><g id="c"><use transform="matrix(0.06172839506172839,0,0,0.06172839506172839,0,0)" xlink:href="#av"/><use transform="matrix(0.06172839506172839,0,0,0.06172839506172839,15.987654320987653,0)" xlink:href="#au"/><use transform="matrix(0.06172839506172839,0,0,0.06172839506172839,28.333333333333332,0)" xlink:href="#aq"/><use transform="matrix(0.06172839506172839,0,0,0.06172839506172839,35.67901234567901,0)" xlink:href="#aq"/><use transform="matrix(0.06172839506172839,0,0,0.06172839506172839,43.02469135802469,0)" xlink:href="#at"/><use transform="matrix(0.06172839506172839,0,0,0.06172839506172839,47.901234567901234,0)" xlink:href="#ar"/><use transform="matrix(0.06172839506172839,0,0,0.06172839506172839,60.24691358024691,0)" xlink:href="#aw"/><use transform="matrix(0.06172839506172839,0,0,0.06172839506172839,72.5925925925926,0)" xlink:href="#ax"/></g><path fill="#333" d="M24 0v-261h32V0H24" id="ay"/><path fill="#333" d="M59-47c-2 24 18 29 38 22v24C64 9 27 4 27-40v-127H5v-23h24l9-43h21v43h35v23H59v120" id="az"/><g id="d"><use transform="matrix(0.06172839506172839,0,0,0.06172839506172839,0,0)" xlink:href="#av"/><use transform="matrix(0.06172839506172839,0,0,0.06172839506172839,15.987654320987653,0)" xlink:href="#ay"/><use transform="matrix(0.06172839506172839,0,0,0.06172839506172839,20.864197530864196,0)" xlink:href="#at"/><use transform="matrix(0.06172839506172839,0,0,0.06172839506172839,25.74074074074074,0)" xlink:href="#ap"/><use transform="matrix(0.06172839506172839,0,0,0.06172839506172839,38.08641975308642,0)" xlink:href="#ar"/><use transform="matrix(0.06172839506172839,0,0,0.06172839506172839,50.432098765432094,0)" xlink:href="#az"/><use transform="matrix(0.06172839506172839,0,0,0.06172839506172839,56.60493827160494,0)" xlink:href="#ap"/></g><path fill="#333" d="M127-220V0H93v-220H8v-28h204v28h-85" id="aA"/><g id="e"><use transform="matrix(0.06172839506172839,0,0,0.06172839506172839,0,0)" xlink:href="#aA"/><use transform="matrix(0.06172839506172839,0,0,0.06172839506172839,11.049382716049381,0)" xlink:href="#ap"/><use transform="matrix(0.06172839506172839,0,0,0.06172839506172839,23.39506172839506,0)" xlink:href="#ay"/><use transform="matrix(0.06172839506172839,0,0,0.06172839506172839,28.2716049382716,0)" xlink:href="#au"/></g><g id="f"><use transform="matrix(0.06172839506172839,0,0,0.06172839506172839,0,0)" xlink:href="#an"/><use transform="matrix(0.06172839506172839,0,0,0.06172839506172839,12.345679012345679,0)" xlink:href="#ax"/></g><g id="g"><use transform="matrix(0.06172839506172839,0,0,0.06172839506172839,0,0)" xlink:href="#as"/><use transform="matrix(0.06172839506172839,0,0,0.06172839506172839,11.11111111111111,0)" xlink:href="#au"/><use transform="matrix(0.06172839506172839,0,0,0.06172839506172839,23.45679012345679,0)" xlink:href="#aq"/><use transform="matrix(0.06172839506172839,0,0,0.06172839506172839,30.80246913580247,0)" xlink:href="#aq"/><use transform="matrix(0.06172839506172839,0,0,0.06172839506172839,38.148148148148145,0)" xlink:href="#at"/><use transform="matrix(0.06172839506172839,0,0,0.06172839506172839,43.02469135802469,0)" xlink:href="#ar"/><use transform="matrix(0.06172839506172839,0,0,0.06172839506172839,55.37037037037037,0)" xlink:href="#aw"/><use transform="matrix(0.06172839506172839,0,0,0.06172839506172839,67.71604938271605,0)" xlink:href="#ax"/></g><g id="h"><use transform="matrix(0.06172839506172839,0,0,0.06172839506172839,0,0)" xlink:href="#av"/><use transform="matrix(0.06172839506172839,0,0,0.06172839506172839,15.987654320987653,0)" xlink:href="#ax"/><use transform="matrix(0.06172839506172839,0,0,0.06172839506172839,28.333333333333332,0)" xlink:href="#ar"/><use transform="matrix(0.06172839506172839,0,0,0.06172839506172839,40.67901234567901,0)" xlink:href="#az"/><use transform="matrix(0.06172839506172839,0,0,0.06172839506172839,46.851851851851855,0)" xlink:href="#aq"/><use transform="matrix(0.06172839506172839,0,0,0.06172839506172839,54.19753086419753,0)" xlink:href="#ax"/><use transform="matrix(0.06172839506172839,0,0,0.06172839506172839,66.54320987654322,0)" xlink:href="#ay"/><use transform="matrix(0.06172839506172839,0,0,0.06172839506172839,71.41975308641976,0)" xlink:href="#ap"/></g><path fill="#333" d="M30-248c118-7 216 8 213 122C240-48 200 0 122 0H30v-248zM63-27c89 8 146-16 146-99s-60-101-146-95v194" id="aB"/><path fill="#333" d="M160-131c35 5 61 23 61 61C221 17 115-2 30 0v-248c76 3 177-17 177 60 0 33-19 50-47 57zm-97-11c50-1 110 9 110-42 0-47-63-36-110-37v79zm0 115c55-2 124 14 124-45 0-56-70-42-124-44v89" id="aC"/><g id="i"><use transform="matrix(0.06172839506172839,0,0,0.06172839506172839,0,0)" xlink:href="#aB"/><use transform="matrix(0.06172839506172839,0,0,0.06172839506172839,15.987654320987653,0)" xlink:href="#au"/><use transform="matrix(0.06172839506172839,0,0,0.06172839506172839,28.333333333333332,0)" xlink:href="#az"/><use transform="matrix(0.06172839506172839,0,0,0.06172839506172839,34.50617283950617,0)" xlink:href="#au"/><use transform="matrix(0.06172839506172839,0,0,0.06172839506172839,46.85185185185185,0)" xlink:href="#aC"/><use transform="matrix(0.06172839506172839,0,0,0.06172839506172839,61.66666666666666,0)" xlink:href="#au"/><use transform="matrix(0.06172839506172839,0,0,0.06172839506172839,74.01234567901234,0)" xlink:href="#am"/><use transform="matrix(0.06172839506172839,0,0,0.06172839506172839,85.12345679012346,0)" xlink:href="#ap"/></g><path fill="#333" d="M27 0v-27h64v-190l-56 39v-29l58-41h29v221h61V0H27" id="aD"/><path fill="#333" d="M33-154v-36h34v36H33zM33 0v-36h34V0H33" id="aE"/><g id="j"><use transform="matrix(0.04938271604938272,0,0,0.04938271604938272,0,0)" xlink:href="#aD"/><use transform="matrix(0.04938271604938272,0,0,0.04938271604938272,9.876543209876544,0)" xlink:href="#aE"/></g><path fill="#333" d="M205 0l-28-72H64L36 0H1l101-248h38L239 0h-34zm-38-99l-47-123c-12 45-31 82-46 123h93" id="aF"/><path fill="#333" d="M115-194c55 1 70 41 70 98S169 2 115 4C84 4 66-9 55-30l1 105H24l-1-265h31l2 30c10-21 28-34 59-34zm-8 174c40 0 45-34 45-75s-6-73-45-74c-42 0-51 32-51 76 0 43 10 73 51 73" id="aG"/><g id="k"><use transform="matrix(0.04938271604938272,0,0,0.04938271604938272,0,0)" xlink:href="#aF"/><use transform="matrix(0.04938271604938272,0,0,0.04938271604938272,11.851851851851853,0)" xlink:href="#aG"/><use transform="matrix(0.04938271604938272,0,0,0.04938271604938272,21.7283950617284,0)" xlink:href="#ap"/><use transform="matrix(0.04938271604938272,0,0,0.04938271604938272,31.60493827160494,0)" xlink:href="#aq"/><use transform="matrix(0.04938271604938272,0,0,0.04938271604938272,37.48148148148149,0)" xlink:href="#az"/><use transform="matrix(0.04938271604938272,0,0,0.04938271604938272,42.41975308641976,0)" xlink:href="#au"/></g><path fill="#333" d="M210-169c-67 3-38 105-44 169h-31v-121c0-29-5-50-35-48C34-165 62-65 56 0H25l-1-190h30c1 10-1 24 2 32 10-44 99-50 107 0 11-21 27-35 58-36 85-2 47 119 55 194h-31v-121c0-29-5-49-35-48" id="aH"/><g id="l"><use transform="matrix(0.04938271604938272,0,0,0.04938271604938272,0,0)" xlink:href="#ap"/><use transform="matrix(0.04938271604938272,0,0,0.04938271604938272,9.876543209876544,0)" xlink:href="#aH"/></g><g id="m"><use transform="matrix(0.04938271604938272,0,0,0.04938271604938272,0,0)" xlink:href="#ay"/><use transform="matrix(0.04938271604938272,0,0,0.04938271604938272,3.901234567901235,0)" xlink:href="#at"/><use transform="matrix(0.04938271604938272,0,0,0.04938271604938272,7.80246913580247,0)" xlink:href="#am"/><use transform="matrix(0.04938271604938272,0,0,0.04938271604938272,16.69135802469136,0)" xlink:href="#az"/><use transform="matrix(0.04938271604938272,0,0,0.04938271604938272,21.629629629629633,0)" xlink:href="#au"/><use transform="matrix(0.04938271604938272,0,0,0.04938271604938272,31.506172839506174,0)" xlink:href="#aq"/></g><g id="n"><use transform="matrix(0.04938271604938272,0,0,0.04938271604938272,0,0)" xlink:href="#as"/><use transform="matrix(0.04938271604938272,0,0,0.04938271604938272,8.88888888888889,0)" xlink:href="#au"/><use transform="matrix(0.04938271604938272,0,0,0.04938271604938272,18.765432098765434,0)" xlink:href="#aq"/><use transform="matrix(0.04938271604938272,0,0,0.04938271604938272,24.641975308641978,0)" xlink:href="#aq"/><use transform="matrix(0.04938271604938272,0,0,0.04938271604938272,30.518518518518523,0)" xlink:href="#at"/><use transform="matrix(0.04938271604938272,0,0,0.04938271604938272,34.41975308641976,0)" xlink:href="#ar"/><use transform="matrix(0.04938271604938272,0,0,0.04938271604938272,44.296296296296305,0)" xlink:href="#aw"/><use transform="matrix(0.04938271604938272,0,0,0.04938271604938272,54.17283950617284,0)" xlink:href="#ax"/></g><path fill="#333" d="M33 0v-38h34V0H33" id="aI"/><g id="o"><use transform="matrix(0.04938271604938272,0,0,0.04938271604938272,0,0)" xlink:href="#aD"/><use transform="matrix(0.04938271604938272,0,0,0.04938271604938272,9.876543209876544,0)" xlink:href="#aI"/><use transform="matrix(0.04938271604938272,0,0,0.04938271604938272,14.814814814814817,0)" xlink:href="#aD"/><use transform="matrix(0.04938271604938272,0,0,0.04938271604938272,24.69135802469136,0)" xlink:href="#aE"/></g><path fill="#333" d="M30 0v-248h33v221h125V0H30" id="aJ"/><g id="p"><use transform="matrix(0.04938271604938272,0,0,0.04938271604938272,0,0)" xlink:href="#aJ"/><use transform="matrix(0.04938271604938272,0,0,0.04938271604938272,9.876543209876544,0)" xlink:href="#at"/><use transform="matrix(0.04938271604938272,0,0,0.04938271604938272,13.777777777777779,0)" xlink:href="#am"/><use transform="matrix(0.04938271604938272,0,0,0.04938271604938272,22.666666666666668,0)" xlink:href="#az"/><use transform="matrix(0.04938271604938272,0,0,0.04938271604938272,27.60493827160494,0)" xlink:href="#au"/><use transform="matrix(0.04938271604938272,0,0,0.04938271604938272,37.48148148148148,0)" xlink:href="#aq"/></g><path fill="#333" d="M101-251c82-7 93 87 43 132L82-64C71-53 59-42 53-27h129V0H18c2-99 128-94 128-182 0-28-16-43-45-43s-46 15-49 41l-32-3c6-41 34-60 81-64" id="aK"/><g id="q"><use transform="matrix(0.04938271604938272,0,0,0.04938271604938272,0,0)" xlink:href="#aD"/><use transform="matrix(0.04938271604938272,0,0,0.04938271604938272,9.876543209876544,0)" xlink:href="#aI"/><use transform="matrix(0.04938271604938272,0,0,0.04938271604938272,14.814814814814817,0)" xlink:href="#aD"/><use transform="matrix(0.04938271604938272,0,0,0.04938271604938272,24.69135802469136,0)" xlink:href="#aI"/><use transform="matrix(0.04938271604938272,0,0,0.04938271604938272,29.629629629629633,0)" xlink:href="#aK"/><use transform="matrix(0.04938271604938272,0,0,0.04938271604938272,39.50617283950618,0)" xlink:href="#aE"/></g><path fill="#333" d="M177-190C167-65 218 103 67 71c-23-6-38-20-44-43l32-5c15 47 100 32 89-28v-30C133-14 115 1 83 1 29 1 15-40 15-95c0-56 16-97 71-98 29-1 48 16 59 35 1-10 0-23 2-32h30zM94-22c36 0 50-32 50-73 0-42-14-75-50-75-39 0-46 34-46 75s6 73 46 73" id="aL"/><path fill="#333" d="M30-248c87 1 191-15 191 75 0 78-77 80-158 76V0H30v-248zm33 125c57 0 124 11 124-50 0-59-68-47-124-48v98" id="aM"/><path fill="#333" d="M84 4C-5 8 30-112 23-190h32v120c0 31 7 50 39 49 72-2 45-101 50-169h31l1 190h-30c-1-10 1-25-2-33-11 22-28 36-60 37" id="aN"/><path fill="#333" d="M87 75C49 33 22-17 22-94c0-76 28-126 65-167h31c-38 41-64 92-64 168S80 34 118 75H87" id="aO"/><path fill="#333" d="M33-261c38 41 65 92 65 168S71 34 33 75H2C39 34 66-17 66-93S39-220 2-261h31" id="aP"/><g id="r"><use transform="matrix(0.04938271604938272,0,0,0.04938271604938272,0,0)" xlink:href="#aL"/><use transform="matrix(0.04938271604938272,0,0,0.04938271604938272,9.876543209876544,0)" xlink:href="#ap"/><use transform="matrix(0.04938271604938272,0,0,0.04938271604938272,19.75308641975309,0)" xlink:href="#az"/><use transform="matrix(0.04938271604938272,0,0,0.04938271604938272,24.69135802469136,0)" xlink:href="#aM"/><use transform="matrix(0.04938271604938272,0,0,0.04938271604938272,36.543209876543216,0)" xlink:href="#aq"/><use transform="matrix(0.04938271604938272,0,0,0.04938271604938272,42.41975308641976,0)" xlink:href="#ax"/><use transform="matrix(0.04938271604938272,0,0,0.04938271604938272,52.2962962962963,0)" xlink:href="#an"/><use transform="matrix(0.04938271604938272,0,0,0.04938271604938272,62.17283950617284,0)" xlink:href="#aN"/><use transform="matrix(0.04938271604938272,0,0,0.04938271604938272,72.0493827160494,0)" xlink:href="#az"/><use transform="matrix(0.04938271604938272,0,0,0.04938271604938272,76.98765432098767,0)" xlink:href="#ax"/><use transform="matrix(0.04938271604938272,0,0,0.04938271604938272,86.86419753086422,0)" xlink:href="#am"/><use transform="matrix(0.04938271604938272,0,0,0.04938271604938272,95.7530864197531,0)" xlink:href="#av"/><use transform="matrix(0.04938271604938272,0,0,0.04938271604938272,108.54320987654322,0)" xlink:href="#au"/><use transform="matrix(0.04938271604938272,0,0,0.04938271604938272,118.41975308641979,0)" xlink:href="#aq"/><use transform="matrix(0.04938271604938272,0,0,0.04938271604938272,124.29629629629633,0)" xlink:href="#aq"/><use transform="matrix(0.04938271604938272,0,0,0.04938271604938272,130.17283950617286,0)" xlink:href="#at"/><use transform="matrix(0.04938271604938272,0,0,0.04938271604938272,134.0740740740741,0)" xlink:href="#ar"/><use transform="matrix(0.04938271604938272,0,0,0.04938271604938272,143.95061728395063,0)" xlink:href="#aw"/><use transform="matrix(0.04938271604938272,0,0,0.04938271604938272,153.8271604938272,0)" xlink:href="#ax"/><use transform="matrix(0.04938271604938272,0,0,0.04938271604938272,163.70370370370375,0)" xlink:href="#aO"/><use transform="matrix(0.04938271604938272,0,0,0.04938271604938272,169.58024691358028,0)" xlink:href="#aP"/></g><g id="s"><use transform="matrix(0.04938271604938272,0,0,0.04938271604938272,0,0)" xlink:href="#aD"/><use transform="matrix(0.04938271604938272,0,0,0.04938271604938272,9.876543209876544,0)" xlink:href="#aI"/><use transform="matrix(0.04938271604938272,0,0,0.04938271604938272,14.814814814814817,0)" xlink:href="#aD"/><use transform="matrix(0.04938271604938272,0,0,0.04938271604938272,24.69135802469136,0)" xlink:href="#aI"/><use transform="matrix(0.04938271604938272,0,0,0.04938271604938272,29.629629629629633,0)" xlink:href="#aK"/><use transform="matrix(0.04938271604938272,0,0,0.04938271604938272,39.50617283950618,0)" xlink:href="#aI"/><use transform="matrix(0.04938271604938272,0,0,0.04938271604938272,44.44444444444445,0)" xlink:href="#aD"/><use transform="matrix(0.04938271604938272,0,0,0.04938271604938272,54.320987654320994,0)" xlink:href="#aE"/></g><path fill="#333" d="M26 75v-336h71v23H56V52h41v23H26" id="aQ"/><g id="t"><use transform="matrix(0.04938271604938272,0,0,0.04938271604938272,0,0)" xlink:href="#aQ"/><use transform="matrix(0.04938271604938272,0,0,0.04938271604938272,4.938271604938272,0)" xlink:href="#am"/><use transform="matrix(0.04938271604938272,0,0,0.04938271604938272,13.827160493827162,0)" xlink:href="#ap"/></g><path fill="#333" d="M108 0H70L1-190h34L89-25l56-165h34" id="aR"/><g id="u"><use transform="matrix(0.04938271604938272,0,0,0.04938271604938272,0,0)" xlink:href="#aw"/><use transform="matrix(0.04938271604938272,0,0,0.04938271604938272,9.876543209876544,0)" xlink:href="#ax"/><use transform="matrix(0.04938271604938272,0,0,0.04938271604938272,19.75308641975309,0)" xlink:href="#aN"/><use transform="matrix(0.04938271604938272,0,0,0.04938271604938272,29.629629629629633,0)" xlink:href="#aR"/><use transform="matrix(0.04938271604938272,0,0,0.04938271604938272,38.51851851851852,0)" xlink:href="#ap"/><use transform="matrix(0.04938271604938272,0,0,0.04938271604938272,48.39506172839506,0)" xlink:href="#aq"/></g><path fill="#333" d="M3 75V52h41v-290H3v-23h71V75H3" id="aS"/><g id="v"><use transform="matrix(0.04938271604938272,0,0,0.04938271604938272,0,0)" xlink:href="#aG"/><use transform="matrix(0.04938271604938272,0,0,0.04938271604938272,9.876543209876544,0)" xlink:href="#aq"/><use transform="matrix(0.04938271604938272,0,0,0.04938271604938272,15.753086419753087,0)" xlink:href="#ax"/><use transform="matrix(0.04938271604938272,0,0,0.04938271604938272,25.629629629629633,0)" xlink:href="#an"/><use transform="matrix(0.04938271604938272,0,0,0.04938271604938272,35.50617283950618,0)" xlink:href="#aN"/><use transform="matrix(0.04938271604938272,0,0,0.04938271604938272,45.38271604938272,0)" xlink:href="#az"/><use transform="matrix(0.04938271604938272,0,0,0.04938271604938272,50.320987654320994,0)" xlink:href="#ax"/><use transform="matrix(0.04938271604938272,0,0,0.04938271604938272,60.19753086419754,0)" xlink:href="#am"/><use transform="matrix(0.04938271604938272,0,0,0.04938271604938272,69.08641975308643,0)" xlink:href="#aS"/></g><path fill="#333" d="M240 0l2-218c-23 76-54 145-80 218h-23L58-218 59 0H30v-248h44l77 211c21-75 51-140 76-211h43V0h-30" id="aT"/><g id="w"><use transform="matrix(0.04938271604938272,0,0,0.04938271604938272,0,0)" xlink:href="#aJ"/><use transform="matrix(0.04938271604938272,0,0,0.04938271604938272,9.876543209876544,0)" xlink:href="#at"/><use transform="matrix(0.04938271604938272,0,0,0.04938271604938272,13.777777777777779,0)" xlink:href="#am"/><use transform="matrix(0.04938271604938272,0,0,0.04938271604938272,22.666666666666668,0)" xlink:href="#az"/><use transform="matrix(0.04938271604938272,0,0,0.04938271604938272,27.60493827160494,0)" xlink:href="#aO"/><use transform="matrix(0.04938271604938272,0,0,0.04938271604938272,33.48148148148148,0)" xlink:href="#aT"/><use transform="matrix(0.04938271604938272,0,0,0.04938271604938272,48.24691358024691,0)" xlink:href="#au"/><use transform="matrix(0.04938271604938272,0,0,0.04938271604938272,58.12345679012345,0)" xlink:href="#aG"/><use transform="matrix(0.04938271604938272,0,0,0.04938271604938272,68,0)" xlink:href="#aP"/></g><g id="x"><use transform="matrix(0.04938271604938272,0,0,0.04938271604938272,0,0)" xlink:href="#aD"/><use transform="matrix(0.04938271604938272,0,0,0.04938271604938272,9.876543209876544,0)" xlink:href="#aI"/><use transform="matrix(0.04938271604938272,0,0,0.04938271604938272,14.814814814814817,0)" xlink:href="#aD"/><use transform="matrix(0.04938271604938272,0,0,0.04938271604938272,24.69135802469136,0)" xlink:href="#aI"/><use transform="matrix(0.04938271604938272,0,0,0.04938271604938272,29.629629629629633,0)" xlink:href="#aD"/><use transform="matrix(0.04938271604938272,0,0,0.04938271604938272,39.50617283950618,0)" xlink:href="#aE"/></g><path fill="#333" d="M137 0h-34L2-248h35l83 218 83-218h36" id="aU"/><path fill="#333" d="M101-234c-31-9-42 10-38 44h38v23H63V0H32v-167H5v-23h27c-7-52 17-82 69-68v24" id="aV"/><g id="y"><use transform="matrix(0.04938271604938272,0,0,0.04938271604938272,0,0)" xlink:href="#aU"/><use transform="matrix(0.04938271604938272,0,0,0.04938271604938272,10.864197530864198,0)" xlink:href="#ap"/><use transform="matrix(0.04938271604938272,0,0,0.04938271604938272,20.74074074074074,0)" xlink:href="#aq"/><use transform="matrix(0.04938271604938272,0,0,0.04938271604938272,26.617283950617285,0)" xlink:href="#at"/><use transform="matrix(0.04938271604938272,0,0,0.04938271604938272,30.518518518518523,0)" xlink:href="#aV"/><use transform="matrix(0.04938271604938272,0,0,0.04938271604938272,35.45679012345679,0)" xlink:href="#at"/><use transform="matrix(0.04938271604938272,0,0,0.04938271604938272,39.358024691358025,0)" xlink:href="#as"/><use transform="matrix(0.04938271604938272,0,0,0.04938271604938272,48.24691358024691,0)" xlink:href="#au"/></g><g id="z"><use transform="matrix(0.04938271604938272,0,0,0.04938271604938272,0,0)" xlink:href="#am"/><use transform="matrix(0.04938271604938272,0,0,0.04938271604938272,8.88888888888889,0)" xlink:href="#ap"/></g><g id="A"><use transform="matrix(0.04938271604938272,0,0,0.04938271604938272,0,0)" xlink:href="#as"/><use transform="matrix(0.04938271604938272,0,0,0.04938271604938272,8.88888888888889,0)" xlink:href="#ay"/><use transform="matrix(0.04938271604938272,0,0,0.04938271604938272,12.790123456790125,0)" xlink:href="#at"/><use transform="matrix(0.04938271604938272,0,0,0.04938271604938272,16.691358024691358,0)" xlink:href="#ap"/><use transform="matrix(0.04938271604938272,0,0,0.04938271604938272,26.567901234567902,0)" xlink:href="#ar"/><use transform="matrix(0.04938271604938272,0,0,0.04938271604938272,36.44444444444444,0)" xlink:href="#az"/><use transform="matrix(0.04938271604938272,0,0,0.04938271604938272,41.382716049382715,0)" xlink:href="#ap"/></g><path fill="#333" d="M141-36C126-15 110 5 73 4 37 3 15-17 15-53c-1-64 63-63 125-63 3-35-9-54-41-54-24 1-41 7-42 31l-33-3c5-37 33-52 76-52 45 0 72 20 72 64v82c-1 20 7 32 28 27v20c-31 9-61-2-59-35zM48-53c0 20 12 33 32 33 41-3 63-29 60-74-43 2-92-5-92 41zm25-158c8-23 27-35 38-54h36v5l-58 49H73" id="aW"/><g id="B"><use transform="matrix(0.04938271604938272,0,0,0.04938271604938272,0,0)" xlink:href="#ap"/><use transform="matrix(0.04938271604938272,0,0,0.04938271604938272,9.876543209876544,0)" xlink:href="#am"/><use transform="matrix(0.04938271604938272,0,0,0.04938271604938272,18.765432098765434,0)" xlink:href="#az"/><use transform="matrix(0.04938271604938272,0,0,0.04938271604938272,23.703703703703706,0)" xlink:href="#aW"/></g><g id="C"><use transform="matrix(0.04938271604938272,0,0,0.04938271604938272,0,0)" xlink:href="#ay"/><use transform="matrix(0.04938271604938272,0,0,0.04938271604938272,3.901234567901235,0)" xlink:href="#ax"/><use transform="matrix(0.04938271604938272,0,0,0.04938271604938272,13.777777777777779,0)" xlink:href="#aL"/><use transform="matrix(0.04938271604938272,0,0,0.04938271604938272,23.654320987654323,0)" xlink:href="#au"/><use transform="matrix(0.04938271604938272,0,0,0.04938271604938272,33.53086419753087,0)" xlink:href="#an"/><use transform="matrix(0.04938271604938272,0,0,0.04938271604938272,43.40740740740741,0)" xlink:href="#ax"/></g><g id="D"><use transform="matrix(0.04938271604938272,0,0,0.04938271604938272,0,0)" xlink:href="#aD"/><use transform="matrix(0.04938271604938272,0,0,0.04938271604938272,9.876543209876544,0)" xlink:href="#aI"/><use transform="matrix(0.04938271604938272,0,0,0.04938271604938272,14.814814814814817,0)" xlink:href="#aD"/><use transform="matrix(0.04938271604938272,0,0,0.04938271604938272,24.69135802469136,0)" xlink:href="#aI"/><use transform="matrix(0.04938271604938272,0,0,0.04938271604938272,29.629629629629633,0)" xlink:href="#aD"/><use transform="matrix(0.04938271604938272,0,0,0.04938271604938272,39.50617283950618,0)" xlink:href="#aI"/><use transform="matrix(0.04938271604938272,0,0,0.04938271604938272,44.44444444444445,0)" xlink:href="#aD"/><use transform="matrix(0.04938271604938272,0,0,0.04938271604938272,54.320987654320994,0)" xlink:href="#aE"/></g><g id="E"><use transform="matrix(0.04938271604938272,0,0,0.04938271604938272,0,0)" xlink:href="#ap"/><use transform="matrix(0.04938271604938272,0,0,0.04938271604938272,9.876543209876544,0)" xlink:href="#am"/><use transform="matrix(0.04938271604938272,0,0,0.04938271604938272,18.765432098765434,0)" xlink:href="#az"/><use transform="matrix(0.04938271604938272,0,0,0.04938271604938272,23.703703703703706,0)" xlink:href="#at"/><use transform="matrix(0.04938271604938272,0,0,0.04938271604938272,27.60493827160494,0)" xlink:href="#aR"/><use transform="matrix(0.04938271604938272,0,0,0.04938271604938272,36.49382716049383,0)" xlink:href="#ap"/><use transform="matrix(0.04938271604938272,0,0,0.04938271604938272,46.370370370370374,0)" xlink:href="#aq"/></g><g id="F"><use transform="matrix(0.04938271604938272,0,0,0.04938271604938272,0,0)" xlink:href="#ay"/><use transform="matrix(0.04938271604938272,0,0,0.04938271604938272,3.901234567901235,0)" xlink:href="#ax"/><use transform="matrix(0.04938271604938272,0,0,0.04938271604938272,13.777777777777779,0)" xlink:href="#aL"/><use transform="matrix(0.04938271604938272,0,0,0.04938271604938272,23.654320987654323,0)" xlink:href="#au"/><use transform="matrix(0.04938271604938272,0,0,0.04938271604938272,33.53086419753087,0)" xlink:href="#an"/><use transform="matrix(0.04938271604938272,0,0,0.04938271604938272,43.40740740740741,0)" xlink:href="#ax"/><use transform="matrix(0.04938271604938272,0,0,0.04938271604938272,53.283950617283956,0)" xlink:href="#aS"/></g><g id="G"><use transform="matrix(0.04938271604938272,0,0,0.04938271604938272,0,0)" xlink:href="#az"/><use transform="matrix(0.04938271604938272,0,0,0.04938271604938272,4.938271604938272,0)" xlink:href="#aq"/><use transform="matrix(0.04938271604938272,0,0,0.04938271604938272,10.814814814814817,0)" xlink:href="#aN"/><use transform="matrix(0.04938271604938272,0,0,0.04938271604938272,20.69135802469136,0)" xlink:href="#ap"/></g><path fill="#333" d="M126-127c33 6 58 20 58 59 0 88-139 92-164 29-3-8-5-16-6-25l32-3c6 27 21 44 54 44 32 0 52-15 52-46 0-38-36-46-79-43v-28c39 1 72-4 72-42 0-27-17-43-46-43-28 0-47 15-49 41l-32-3c6-42 35-63 81-64 48-1 79 21 79 65 0 36-21 52-52 59" id="aX"/><g id="H"><use transform="matrix(0.04938271604938272,0,0,0.04938271604938272,0,0)" xlink:href="#aD"/><use transform="matrix(0.04938271604938272,0,0,0.04938271604938272,9.876543209876544,0)" xlink:href="#aI"/><use transform="matrix(0.04938271604938272,0,0,0.04938271604938272,14.814814814814817,0)" xlink:href="#aD"/><use transform="matrix(0.04938271604938272,0,0,0.04938271604938272,24.69135802469136,0)" xlink:href="#aI"/><use transform="matrix(0.04938271604938272,0,0,0.04938271604938272,29.629629629629633,0)" xlink:href="#aX"/><use transform="matrix(0.04938271604938272,0,0,0.04938271604938272,39.50617283950618,0)" xlink:href="#aE"/></g><g id="I"><use transform="matrix(0.04938271604938272,0,0,0.04938271604938272,0,0)" xlink:href="#az"/><use transform="matrix(0.04938271604938272,0,0,0.04938271604938272,4.938271604938272,0)" xlink:href="#aN"/><use transform="matrix(0.04938271604938272,0,0,0.04938271604938272,14.814814814814817,0)" xlink:href="#an"/><use transform="matrix(0.04938271604938272,0,0,0.04938271604938272,24.69135802469136,0)" xlink:href="#ax"/></g><path fill="#333" d="M143 0L79-87 56-68V0H24v-261h32v163l83-92h37l-77 82L181 0h-38" id="aY"/><g id="J"><use transform="matrix(0.04938271604938272,0,0,0.04938271604938272,0,0)" xlink:href="#ax"/><use transform="matrix(0.04938271604938272,0,0,0.04938271604938272,9.876543209876544,0)" xlink:href="#aY"/><use transform="matrix(0.04938271604938272,0,0,0.04938271604938272,18.765432098765434,0)" xlink:href="#aS"/></g><g id="K"><use transform="matrix(0.04938271604938272,0,0,0.04938271604938272,0,0)" xlink:href="#aD"/><use transform="matrix(0.04938271604938272,0,0,0.04938271604938272,9.876543209876544,0)" xlink:href="#aI"/><use transform="matrix(0.04938271604938272,0,0,0.04938271604938272,14.814814814814817,0)" xlink:href="#aK"/><use transform="matrix(0.04938271604938272,0,0,0.04938271604938272,24.69135802469136,0)" xlink:href="#aE"/></g><path fill="#333" d="M30 0v-248h187v28H63v79h144v27H63v87h162V0H30" id="aZ"/><path fill="#333" d="M141 0L90-78 38 0H4l68-98-65-92h35l48 74 47-74h35l-64 92 68 98h-35" id="ba"/><path fill="#333" d="M115-194c53 0 69 39 70 98 0 66-23 100-70 100C84 3 66-7 56-30L54 0H23l1-261h32v101c10-23 28-34 59-34zm-8 174c40 0 45-34 45-75 0-40-5-75-45-74-42 0-51 32-51 76 0 43 10 73 51 73" id="bb"/><g id="L"><use transform="matrix(0.04938271604938272,0,0,0.04938271604938272,0,0)" xlink:href="#aZ"/><use transform="matrix(0.04938271604938272,0,0,0.04938271604938272,11.851851851851853,0)" xlink:href="#ba"/><use transform="matrix(0.04938271604938272,0,0,0.04938271604938272,20.74074074074074,0)" xlink:href="#at"/><use transform="matrix(0.04938271604938272,0,0,0.04938271604938272,24.641975308641975,0)" xlink:href="#bb"/><use transform="matrix(0.04938271604938272,0,0,0.04938271604938272,34.51851851851852,0)" xlink:href="#ap"/></g><g id="M"><use transform="matrix(0.04938271604938272,0,0,0.04938271604938272,0,0)" xlink:href="#aN"/><use transform="matrix(0.04938271604938272,0,0,0.04938271604938272,9.876543209876544,0)" xlink:href="#aH"/><use transform="matrix(0.04938271604938272,0,0,0.04938271604938272,24.641975308641978,0)" xlink:href="#au"/></g><g id="N"><use transform="matrix(0.04938271604938272,0,0,0.04938271604938272,0,0)" xlink:href="#ay"/><use transform="matrix(0.04938271604938272,0,0,0.04938271604938272,3.901234567901235,0)" xlink:href="#at"/><use transform="matrix(0.04938271604938272,0,0,0.04938271604938272,7.80246913580247,0)" xlink:href="#am"/><use transform="matrix(0.04938271604938272,0,0,0.04938271604938272,16.69135802469136,0)" xlink:href="#az"/><use transform="matrix(0.04938271604938272,0,0,0.04938271604938272,21.629629629629633,0)" xlink:href="#au"/></g><g id="O"><use transform="matrix(0.04938271604938272,0,0,0.04938271604938272,0,0)" xlink:href="#as"/><use transform="matrix(0.04938271604938272,0,0,0.04938271604938272,8.88888888888889,0)" xlink:href="#ax"/><use transform="matrix(0.04938271604938272,0,0,0.04938271604938272,18.765432098765434,0)" xlink:href="#aH"/></g><g id="P"><use transform="matrix(0.04938271604938272,0,0,0.04938271604938272,0,0)" xlink:href="#az"/><use transform="matrix(0.04938271604938272,0,0,0.04938271604938272,4.938271604938272,0)" xlink:href="#ax"/><use transform="matrix(0.04938271604938272,0,0,0.04938271604938272,14.814814814814817,0)" xlink:href="#an"/><use transform="matrix(0.04938271604938272,0,0,0.04938271604938272,24.69135802469136,0)" xlink:href="#ax"/><use transform="matrix(0.04938271604938272,0,0,0.04938271604938272,34.567901234567906,0)" xlink:href="#am"/></g><g id="Q"><use transform="matrix(0.04938271604938272,0,0,0.04938271604938272,0,0)" xlink:href="#ax"/><use transform="matrix(0.04938271604938272,0,0,0.04938271604938272,9.876543209876544,0)" xlink:href="#am"/></g><g id="R"><use transform="matrix(0.04938271604938272,0,0,0.04938271604938272,0,0)" xlink:href="#aG"/><use transform="matrix(0.04938271604938272,0,0,0.04938271604938272,9.876543209876544,0)" xlink:href="#aq"/><use transform="matrix(0.04938271604938272,0,0,0.04938271604938272,15.753086419753087,0)" xlink:href="#ax"/><use transform="matrix(0.04938271604938272,0,0,0.04938271604938272,25.629629629629633,0)" xlink:href="#an"/><use transform="matrix(0.04938271604938272,0,0,0.04938271604938272,35.50617283950618,0)" xlink:href="#aN"/><use transform="matrix(0.04938271604938272,0,0,0.04938271604938272,45.38271604938272,0)" xlink:href="#az"/><use transform="matrix(0.04938271604938272,0,0,0.04938271604938272,50.320987654320994,0)" xlink:href="#ax"/><use transform="matrix(0.04938271604938272,0,0,0.04938271604938272,60.19753086419754,0)" xlink:href="#am"/></g><g id="S"><use transform="matrix(0.04938271604938272,0,0,0.04938271604938272,0,0)" xlink:href="#aK"/><use transform="matrix(0.04938271604938272,0,0,0.04938271604938272,9.876543209876544,0)" xlink:href="#aE"/></g><path fill="#333" d="M185-189c-5-48-123-54-124 2 14 75 158 14 163 119 3 78-121 87-175 55-17-10-28-26-33-46l33-7c5 56 141 63 141-1 0-78-155-14-162-118-5-82 145-84 179-34 5 7 8 16 11 25" id="bc"/><g id="T"><use transform="matrix(0.04938271604938272,0,0,0.04938271604938272,0,0)" xlink:href="#bc"/><use transform="matrix(0.04938271604938272,0,0,0.04938271604938272,11.851851851851853,0)" xlink:href="#ap"/><use transform="matrix(0.04938271604938272,0,0,0.04938271604938272,21.7283950617284,0)" xlink:href="#ay"/><use transform="matrix(0.04938271604938272,0,0,0.04938271604938272,25.629629629629633,0)" xlink:href="#ap"/><use transform="matrix(0.04938271604938272,0,0,0.04938271604938272,35.50617283950618,0)" xlink:href="#as"/><use transform="matrix(0.04938271604938272,0,0,0.04938271604938272,44.39506172839506,0)" xlink:href="#at"/><use transform="matrix(0.04938271604938272,0,0,0.04938271604938272,48.2962962962963,0)" xlink:href="#ax"/><use transform="matrix(0.04938271604938272,0,0,0.04938271604938272,58.17283950617284,0)" xlink:href="#ar"/><use transform="matrix(0.04938271604938272,0,0,0.04938271604938272,68.0493827160494,0)" xlink:href="#au"/></g><g id="U"><use transform="matrix(0.04938271604938272,0,0,0.04938271604938272,0,0)" xlink:href="#aH"/><use transform="matrix(0.04938271604938272,0,0,0.04938271604938272,14.765432098765434,0)" xlink:href="#ap"/><use transform="matrix(0.04938271604938272,0,0,0.04938271604938272,24.641975308641978,0)" xlink:href="#az"/><use transform="matrix(0.04938271604938272,0,0,0.04938271604938272,29.58024691358025,0)" xlink:href="#ax"/><use transform="matrix(0.04938271604938272,0,0,0.04938271604938272,39.4567901234568,0)" xlink:href="#an"/><use transform="matrix(0.04938271604938272,0,0,0.04938271604938272,49.33333333333334,0)" xlink:href="#ax"/></g><g id="V"><use transform="matrix(0.04938271604938272,0,0,0.04938271604938272,0,0)" xlink:href="#an"/><use transform="matrix(0.04938271604938272,0,0,0.04938271604938272,9.876543209876544,0)" xlink:href="#ap"/></g><g id="W"><use transform="matrix(0.04938271604938272,0,0,0.04938271604938272,0,0)" xlink:href="#aG"/><use transform="matrix(0.04938271604938272,0,0,0.04938271604938272,9.876543209876544,0)" xlink:href="#au"/><use transform="matrix(0.04938271604938272,0,0,0.04938271604938272,19.75308641975309,0)" xlink:href="#aL"/><use transform="matrix(0.04938271604938272,0,0,0.04938271604938272,29.629629629629633,0)" xlink:href="#au"/><use transform="matrix(0.04938271604938272,0,0,0.04938271604938272,39.50617283950618,0)" xlink:href="#aH"/><use transform="matrix(0.04938271604938272,0,0,0.04938271604938272,54.27160493827161,0)" xlink:href="#ap"/><use transform="matrix(0.04938271604938272,0,0,0.04938271604938272,64.14814814814815,0)" xlink:href="#ar"/><use transform="matrix(0.04938271604938272,0,0,0.04938271604938272,74.0246913580247,0)" xlink:href="#az"/><use transform="matrix(0.04938271604938272,0,0,0.04938271604938272,78.96296296296296,0)" xlink:href="#ax"/></g><g id="X"><use transform="matrix(0.04938271604938272,0,0,0.04938271604938272,0,0)" xlink:href="#aK"/><use transform="matrix(0.04938271604938272,0,0,0.04938271604938272,9.876543209876544,0)" xlink:href="#aI"/><use transform="matrix(0.04938271604938272,0,0,0.04938271604938272,14.814814814814817,0)" xlink:href="#aD"/><use transform="matrix(0.04938271604938272,0,0,0.04938271604938272,24.69135802469136,0)" xlink:href="#aE"/></g><path fill="#333" d="M96-169c-40 0-48 33-48 73s9 75 48 75c24 0 41-14 43-38l32 2c-6 37-31 61-74 61-59 0-76-41-82-99-10-93 101-131 147-64 4 7 5 14 7 22l-32 3c-4-21-16-35-41-35zm3 187c19-1 33 8 33 26 0 31-30 33-64 32V58c18 2 39 4 41-13 1-15-18-13-34-13L87 0h19" id="bd"/><path fill="#333" d="M141-36C126-15 110 5 73 4 37 3 15-17 15-53c-1-64 63-63 125-63 3-35-9-54-41-54-24 1-41 7-42 31l-33-3c5-37 33-52 76-52 45 0 72 20 72 64v82c-1 20 7 32 28 27v20c-31 9-61-2-59-35zM48-53c0 20 12 33 32 33 41-3 63-29 60-74-43 2-92-5-92 41zm117-205c-3 23-9 48-36 47-26-1-65-44-74 0H39c4-23 8-48 36-47s64 44 74 0h16" id="be"/><g id="Y"><use transform="matrix(0.04938271604938272,0,0,0.04938271604938272,0,0)" xlink:href="#bc"/><use transform="matrix(0.04938271604938272,0,0,0.04938271604938272,11.851851851851853,0)" xlink:href="#ax"/><use transform="matrix(0.04938271604938272,0,0,0.04938271604938272,21.7283950617284,0)" xlink:href="#ay"/><use transform="matrix(0.04938271604938272,0,0,0.04938271604938272,25.629629629629633,0)" xlink:href="#at"/><use transform="matrix(0.04938271604938272,0,0,0.04938271604938272,29.530864197530867,0)" xlink:href="#as"/><use transform="matrix(0.04938271604938272,0,0,0.04938271604938272,38.41975308641976,0)" xlink:href="#at"/><use transform="matrix(0.04938271604938272,0,0,0.04938271604938272,42.320987654320994,0)" xlink:href="#az"/><use transform="matrix(0.04938271604938272,0,0,0.04938271604938272,47.25925925925927,0)" xlink:href="#au"/><use transform="matrix(0.04938271604938272,0,0,0.04938271604938272,57.135802469135804,0)" xlink:href="#bd"/><use transform="matrix(0.04938271604938272,0,0,0.04938271604938272,66.0246913580247,0)" xlink:href="#be"/><use transform="matrix(0.04938271604938272,0,0,0.04938271604938272,75.90123456790124,0)" xlink:href="#ax"/></g><g id="Z"><use transform="matrix(0.04938271604938272,0,0,0.04938271604938272,0,0)" xlink:href="#as"/><use transform="matrix(0.04938271604938272,0,0,0.04938271604938272,8.88888888888889,0)" xlink:href="#ax"/><use transform="matrix(0.04938271604938272,0,0,0.04938271604938272,18.765432098765434,0)" xlink:href="#aH"/><use transform="matrix(0.04938271604938272,0,0,0.04938271604938272,33.53086419753087,0)" xlink:href="#aG"/><use transform="matrix(0.04938271604938272,0,0,0.04938271604938272,43.40740740740741,0)" xlink:href="#aq"/><use transform="matrix(0.04938271604938272,0,0,0.04938271604938272,49.283950617283956,0)" xlink:href="#au"/></g><g id="aa"><use transform="matrix(0.04938271604938272,0,0,0.04938271604938272,0,0)" xlink:href="#aK"/><use transform="matrix(0.04938271604938272,0,0,0.04938271604938272,9.876543209876544,0)" xlink:href="#aI"/><use transform="matrix(0.04938271604938272,0,0,0.04938271604938272,14.814814814814817,0)" xlink:href="#aD"/><use transform="matrix(0.04938271604938272,0,0,0.04938271604938272,24.69135802469136,0)" xlink:href="#aI"/><use transform="matrix(0.04938271604938272,0,0,0.04938271604938272,29.629629629629633,0)" xlink:href="#aD"/><use transform="matrix(0.04938271604938272,0,0,0.04938271604938272,39.50617283950618,0)" xlink:href="#aE"/></g><g id="ab"><use transform="matrix(0.04938271604938272,0,0,0.04938271604938272,0,0)" xlink:href="#aF"/><use transform="matrix(0.04938271604938272,0,0,0.04938271604938272,11.851851851851853,0)" xlink:href="#an"/><use transform="matrix(0.04938271604938272,0,0,0.04938271604938272,21.7283950617284,0)" xlink:href="#at"/><use transform="matrix(0.04938271604938272,0,0,0.04938271604938272,25.629629629629633,0)" xlink:href="#as"/><use transform="matrix(0.04938271604938272,0,0,0.04938271604938272,34.51851851851852,0)" xlink:href="#at"/><use transform="matrix(0.04938271604938272,0,0,0.04938271604938272,38.41975308641975,0)" xlink:href="#ax"/><use transform="matrix(0.04938271604938272,0,0,0.04938271604938272,48.2962962962963,0)" xlink:href="#ar"/><use transform="matrix(0.04938271604938272,0,0,0.04938271604938272,58.17283950617284,0)" xlink:href="#au"/><use transform="matrix(0.04938271604938272,0,0,0.04938271604938272,68.0493827160494,0)" xlink:href="#aq"/></g><g id="ac"><use transform="matrix(0.04938271604938272,0,0,0.04938271604938272,0,0)" xlink:href="#ar"/><use transform="matrix(0.04938271604938272,0,0,0.04938271604938272,9.876543209876544,0)" xlink:href="#ax"/><use transform="matrix(0.04938271604938272,0,0,0.04938271604938272,19.75308641975309,0)" xlink:href="#aR"/><use transform="matrix(0.04938271604938272,0,0,0.04938271604938272,28.641975308641978,0)" xlink:href="#ax"/></g><g id="ad"><use transform="matrix(0.04938271604938272,0,0,0.04938271604938272,0,0)" xlink:href="#aG"/><use transform="matrix(0.04938271604938272,0,0,0.04938271604938272,9.876543209876544,0)" xlink:href="#ap"/><use transform="matrix(0.04938271604938272,0,0,0.04938271604938272,19.75308641975309,0)" xlink:href="#an"/><use transform="matrix(0.04938271604938272,0,0,0.04938271604938272,29.629629629629633,0)" xlink:href="#at"/><use transform="matrix(0.04938271604938272,0,0,0.04938271604938272,33.53086419753087,0)" xlink:href="#an"/><use transform="matrix(0.04938271604938272,0,0,0.04938271604938272,43.40740740740741,0)" xlink:href="#ax"/></g><g id="ae"><use transform="matrix(0.04938271604938272,0,0,0.04938271604938272,0,0)" xlink:href="#aO"/><use transform="matrix(0.04938271604938272,0,0,0.04938271604938272,5.8765432098765435,0)" xlink:href="#aJ"/><use transform="matrix(0.04938271604938272,0,0,0.04938271604938272,15.753086419753087,0)" xlink:href="#at"/><use transform="matrix(0.04938271604938272,0,0,0.04938271604938272,19.654320987654323,0)" xlink:href="#am"/><use transform="matrix(0.04938271604938272,0,0,0.04938271604938272,28.543209876543212,0)" xlink:href="#az"/><use transform="matrix(0.04938271604938272,0,0,0.04938271604938272,33.48148148148148,0)" xlink:href="#aO"/><use transform="matrix(0.04938271604938272,0,0,0.04938271604938272,39.358024691358025,0)" xlink:href="#aT"/><use transform="matrix(0.04938271604938272,0,0,0.04938271604938272,54.12345679012345,0)" xlink:href="#au"/><use transform="matrix(0.04938271604938272,0,0,0.04938271604938272,64,0)" xlink:href="#aG"/><use transform="matrix(0.04938271604938272,0,0,0.04938271604938272,73.87654320987654,0)" xlink:href="#aP"/><use transform="matrix(0.04938271604938272,0,0,0.04938271604938272,79.75308641975309,0)" xlink:href="#aP"/></g><g id="af"><use transform="matrix(0.04938271604938272,0,0,0.04938271604938272,0,0)" xlink:href="#aK"/><use transform="matrix(0.04938271604938272,0,0,0.04938271604938272,9.876543209876544,0)" xlink:href="#aI"/><use transform="matrix(0.04938271604938272,0,0,0.04938271604938272,14.814814814814817,0)" xlink:href="#aD"/><use transform="matrix(0.04938271604938272,0,0,0.04938271604938272,24.69135802469136,0)" xlink:href="#aI"/><use transform="matrix(0.04938271604938272,0,0,0.04938271604938272,29.629629629629633,0)" xlink:href="#aK"/><use transform="matrix(0.04938271604938272,0,0,0.04938271604938272,39.50617283950618,0)" xlink:href="#aE"/></g><path fill="#333" d="M9 0v-24l116-142H16v-24h144v24L44-24h123V0H9" id="bf"/><g id="ag"><use transform="matrix(0.04938271604938272,0,0,0.04938271604938272,0,0)" xlink:href="#aF"/><use transform="matrix(0.04938271604938272,0,0,0.04938271604938272,11.851851851851853,0)" xlink:href="#az"/><use transform="matrix(0.04938271604938272,0,0,0.04938271604938272,16.790123456790127,0)" xlink:href="#aN"/><use transform="matrix(0.04938271604938272,0,0,0.04938271604938272,26.666666666666668,0)" xlink:href="#au"/><use transform="matrix(0.04938271604938272,0,0,0.04938271604938272,36.543209876543216,0)" xlink:href="#ay"/><use transform="matrix(0.04938271604938272,0,0,0.04938271604938272,40.44444444444445,0)" xlink:href="#at"/><use transform="matrix(0.04938271604938272,0,0,0.04938271604938272,44.345679012345684,0)" xlink:href="#bf"/><use transform="matrix(0.04938271604938272,0,0,0.04938271604938272,53.23456790123457,0)" xlink:href="#au"/><use transform="matrix(0.04938271604938272,0,0,0.04938271604938272,63.111111111111114,0)" xlink:href="#aq"/></g><g id="ah"><use transform="matrix(0.04938271604938272,0,0,0.04938271604938272,0,0)" xlink:href="#av"/><use transform="matrix(0.04938271604938272,0,0,0.04938271604938272,12.790123456790125,0)" xlink:href="#ay"/><use transform="matrix(0.04938271604938272,0,0,0.04938271604938272,16.69135802469136,0)" xlink:href="#at"/><use transform="matrix(0.04938271604938272,0,0,0.04938271604938272,20.592592592592595,0)" xlink:href="#ap"/><use transform="matrix(0.04938271604938272,0,0,0.04938271604938272,30.46913580246914,0)" xlink:href="#ar"/><use transform="matrix(0.04938271604938272,0,0,0.04938271604938272,40.345679012345684,0)" xlink:href="#az"/><use transform="matrix(0.04938271604938272,0,0,0.04938271604938272,45.283950617283956,0)" xlink:href="#ap"/></g><g id="ai"><use transform="matrix(0.04938271604938272,0,0,0.04938271604938272,0,0)" xlink:href="#aK"/><use transform="matrix(0.04938271604938272,0,0,0.04938271604938272,9.876543209876544,0)" xlink:href="#aI"/><use transform="matrix(0.04938271604938272,0,0,0.04938271604938272,14.814814814814817,0)" xlink:href="#aD"/><use transform="matrix(0.04938271604938272,0,0,0.04938271604938272,24.69135802469136,0)" xlink:href="#aI"/><use transform="matrix(0.04938271604938272,0,0,0.04938271604938272,29.629629629629633,0)" xlink:href="#aX"/><use transform="matrix(0.04938271604938272,0,0,0.04938271604938272,39.50617283950618,0)" xlink:href="#aE"/></g><g id="aj"><use transform="matrix(0.04938271604938272,0,0,0.04938271604938272,0,0)" xlink:href="#aK"/><use transform="matrix(0.04938271604938272,0,0,0.04938271604938272,9.876543209876544,0)" xlink:href="#aI"/><use transform="matrix(0.04938271604938272,0,0,0.04938271604938272,14.814814814814817,0)" xlink:href="#aK"/><use transform="matrix(0.04938271604938272,0,0,0.04938271604938272,24.69135802469136,0)" xlink:href="#aE"/></g><g id="ak"><use transform="matrix(0.04938271604938272,0,0,0.04938271604938272,0,0)" xlink:href="#as"/><use transform="matrix(0.04938271604938272,0,0,0.04938271604938272,8.88888888888889,0)" xlink:href="#au"/><use transform="matrix(0.04938271604938272,0,0,0.04938271604938272,18.765432098765434,0)" xlink:href="#aq"/><use transform="matrix(0.04938271604938272,0,0,0.04938271604938272,24.641975308641978,0)" xlink:href="#an"/></g><g id="al"><use transform="matrix(0.04938271604938272,0,0,0.04938271604938272,0,0)" xlink:href="#bc"/><use transform="matrix(0.04938271604938272,0,0,0.04938271604938272,11.851851851851853,0)" xlink:href="#aN"/><use transform="matrix(0.04938271604938272,0,0,0.04938271604938272,21.7283950617284,0)" xlink:href="#as"/><use transform="matrix(0.04938271604938272,0,0,0.04938271604938272,30.617283950617285,0)" xlink:href="#ap"/><use transform="matrix(0.04938271604938272,0,0,0.04938271604938272,40.49382716049384,0)" xlink:href="#am"/><use transform="matrix(0.04938271604938272,0,0,0.04938271604938272,49.38271604938272,0)" xlink:href="#am"/><use transform="matrix(0.04938271604938272,0,0,0.04938271604938272,58.27160493827161,0)" xlink:href="#ax"/></g></defs></g></svg>