<svg xmlns="http://www.w3.org/2000/svg" xmlns:xlink="http://www.w3.org/1999/xlink" xmlns:lucid="lucid" width="1030" height="564"><g transform="translate(-1177 -193)" lucid:page-tab-id="0_0"><path d="M0 0h3677.73v2581.67H0z" fill="#fff"/><path d="M1414.65 266c0-3.3 2.7-6 6-6h728c3.3 0 6 2.7 6 6v388c0 3.3-2.7 6-6 6h-728c-3.3 0-6-2.7-6-6z" stroke="#5e5e5e" stroke-width="3" fill="#fff"/><path d="M1654.65 540c0 33.14-35.82 60-80 60s-80-26.86-80-60 35.82-60 80-60 80 26.86 80 60z" stroke="#5e5e5e" stroke-width="3" fill="#fff"/><use xlink:href="#a" transform="matrix(1,0,0,1,1494.6511627906975,480.0000000000002) translate(28.07999999999999 63.15)"/><use xlink:href="#b" transform="matrix(1,0,0,1,1494.6511627906975,480.0000000000002) translate(82.93 63.15)"/><path d="M1674.65 286c0-3.3 2.7-6 6-6h228c3.3 0 6 2.7 6 6v48c0 3.3-2.7 6-6 6h-228c-3.3 0-6-2.7-6-6z" stroke="#000" stroke-opacity="0" stroke-width="3" fill="#fff" fill-opacity="0"/><use xlink:href="#c" transform="matrix(1,0,0,1,1679.6511627906975,285) translate(4.851851851851876 30.70833333333333)"/><use xlink:href="#d" transform="matrix(1,0,0,1,1679.6511627906975,285) translate(136.48148148148147 30.70833333333333)"/><path d="M1274.4 501.13c0 10.9-8.84 19.75-19.75 19.75-10.9 0-19.75-8.85-19.75-19.75s8.84-19.75 19.75-19.75c10.9 0 19.75 8.84 19.75 19.75z" stroke="#5e5e5e" stroke-width="3" fill="#fff"/><path d="M1254.65 520.88v49.3c0 3.3 1.44 8.27 3.2 11.07l36.8 58.13m-40-63.2l-40 63.2m0-98.75h80" stroke="#5e5e5e" stroke-width="3" fill="none"/><path d="M1214.65 487.38c0-3.32 2.7-6 6-6h68c3.3 0 6 2.68 6 6v168c0 3.3-2.7 6-6 6h-68c-3.3 0-6-2.7-6-6z" fill="none"/><use xlink:href="#e" transform="matrix(1,0,0,1,1134.6511627906975,639.375901817815) translate(85.52469135802468 17.77777777777778)"/><path d="M2094.65 540c0 33.14-35.82 60-80 60s-80-26.86-80-60 35.82-60 80-60 80 26.86 80 60z" stroke="#5e5e5e" stroke-width="3" fill="#fff"/><use xlink:href="#f" transform="matrix(1,0,0,1,1934.6511627906975,480) translate(20.604999999999997 63.15)"/><use xlink:href="#b" transform="matrix(1,0,0,1,1934.6511627906975,480) translate(90.405 63.15)"/><path d="M1874.65 440c0 33.14-35.82 60-80 60s-80-26.86-80-60 35.82-60 80-60 80 26.86 80 60z" stroke="#5e5e5e" stroke-width="3" fill="#fff"/><use xlink:href="#g" transform="matrix(1,0,0,1,1714.6511627906975,380) translate(40.57999999999999 63.15)"/><path d="M1574.65 477.5V467m0-10.5V446l.82-3.03 2.15-2.15 3.03-.82h10.9m10.88 0h21.78m10.9 0h21.78m10.9 0h21.77m10.9 0h10.88" stroke="#5e5e5e" stroke-width="2" fill="none"/><path d="M1575.65 478.53l-.98-.03h-1.02v-1.03h2z" fill="#5e5e5e"/><path d="M1693.97 450.18L1711.2 440l-17.23-10.18" stroke="#5e5e5e" stroke-width="2" fill="none"/><path d="M1514.65 406c0-3.3 2.7-6 6-6h228c3.3 0 6 2.7 6 6v48c0 3.3-2.7 6-6 6h-228c-3.3 0-6-2.7-6-6z" stroke="#000" stroke-opacity="0" stroke-width="3" fill="#fff" fill-opacity="0"/><use xlink:href="#h" transform="matrix(1,0,0,1,1519.6511627906975,405) translate(66.91358024691358 30.27777777777778)"/><path d="M1877.15 440h10.96m10.97 0h21.9m10.97 0h21.92m10.96 0h21.9m10.97 0h10.95l3.03.82 2.15 2.15.82 3.03v10.23m0 10.22v10.23" stroke="#5e5e5e" stroke-width="2" fill="none"/><path d="M1877.18 441h-1.06l.03-.98v-.43l-.02-.6h1.05z" fill="#5e5e5e"/><path d="M2004.47 459.32l10.18 17.22 10.18-17.22" stroke="#5e5e5e" stroke-width="2" fill="none"/><path d="M1814.65 406c0-3.3 2.7-6 6-6h228c3.3 0 6 2.7 6 6v48c0 3.3-2.7 6-6 6h-228c-3.3 0-6-2.7-6-6z" stroke="#000" stroke-opacity="0" stroke-width="3" fill="#fff" fill-opacity="0"/><use xlink:href="#h" transform="matrix(1,0,0,1,1819.6511627906975,405) translate(66.91358024691358 30.27777777777778)"/><path d="M1295.65 540h196.5" stroke="#5e5e5e" stroke-width="2" fill="none"/><path d="M1295.68 541h-1.03v-1.87h-3V539h4.03zM1493.15 539.98v.43l.03.6h-1.05v-2h1.05z" fill="#5e5e5e"/><defs><path d="M33 0v-248h34V0H33" id="i"/><path d="M117-194c89-4 53 116 60 194h-32v-121c0-31-8-49-39-48C34-167 62-67 57 0H25l-1-190h30c1 10-1 24 2 32 11-22 29-35 61-36" id="j"/><path d="M135-143c-3-34-86-38-87 0 15 53 115 12 119 90S17 21 10-45l28-5c4 36 97 45 98 0-10-56-113-15-118-90-4-57 82-63 122-42 12 7 21 19 24 35" id="k"/><path d="M100-194c63 0 86 42 84 106H49c0 40 14 67 53 68 26 1 43-12 49-29l28 8c-11 28-37 45-77 45C44 4 14-33 15-96c1-61 26-98 85-98zm52 81c6-60-76-77-97-28-3 7-6 17-6 28h103" id="l"/><path d="M114-163C36-179 61-72 57 0H25l-1-190h30c1 12-1 29 2 39 6-27 23-49 58-41v29" id="m"/><path d="M24-231v-30h32v30H24zM24 0v-190h32V0H24" id="n"/><g id="a"><use transform="matrix(0.05,0,0,0.05,0,0)" xlink:href="#i"/><use transform="matrix(0.05,0,0,0.05,5,0)" xlink:href="#j"/><use transform="matrix(0.05,0,0,0.05,15,0)" xlink:href="#k"/><use transform="matrix(0.05,0,0,0.05,24,0)" xlink:href="#l"/><use transform="matrix(0.05,0,0,0.05,34,0)" xlink:href="#m"/><use transform="matrix(0.05,0,0,0.05,39.95,0)" xlink:href="#n"/><use transform="matrix(0.05,0,0,0.05,43.900000000000006,0)" xlink:href="#m"/></g><path d="M85-194c31 0 48 13 60 33l-1-100h32l1 261h-30c-2-10 0-23-3-31C134-8 116 4 85 4 32 4 16-35 15-94c0-66 23-100 70-100zm9 24c-40 0-46 34-46 75 0 40 6 74 45 74 42 0 51-32 51-76 0-42-9-74-50-73" id="o"/><path d="M141-36C126-15 110 5 73 4 37 3 15-17 15-53c-1-64 63-63 125-63 3-35-9-54-41-54-24 1-41 7-42 31l-33-3c5-37 33-52 76-52 45 0 72 20 72 64v82c-1 20 7 32 28 27v20c-31 9-61-2-59-35zM48-53c0 20 12 33 32 33 41-3 63-29 60-74-43 2-92-5-92 41" id="p"/><path d="M100-194c62-1 85 37 85 99 1 63-27 99-86 99S16-35 15-95c0-66 28-99 85-99zM99-20c44 1 53-31 53-75 0-43-8-75-51-75s-53 32-53 75 10 74 51 75" id="q"/><g id="b"><use transform="matrix(0.05,0,0,0.05,0,0)" xlink:href="#o"/><use transform="matrix(0.05,0,0,0.05,10,0)" xlink:href="#p"/><use transform="matrix(0.05,0,0,0.05,20,0)" xlink:href="#o"/><use transform="matrix(0.05,0,0,0.05,30,0)" xlink:href="#q"/><use transform="matrix(0.05,0,0,0.05,40,0)" xlink:href="#k"/></g><path fill="#333" d="M67-125c0 53 21 87 73 88 37 1 54-22 65-47l45 17C233-25 199 4 140 4 58 4 20-42 15-125 8-235 124-281 211-232c18 10 29 29 36 50l-46 12c-8-25-30-41-62-41-52 0-71 34-72 86" id="r"/><path fill="#333" d="M133-34C117-15 103 5 69 4 32 3 11-16 11-54c-1-60 55-63 116-61 1-26-3-47-28-47-18 1-26 9-28 27l-52-2c7-38 36-58 82-57s74 22 75 68l1 82c-1 14 12 18 25 15v27c-30 8-71 5-69-32zm-48 3c29 0 43-24 42-57-32 0-66-3-65 30 0 17 8 27 23 27" id="s"/><path fill="#333" d="M88-194c31-1 46 15 58 34l-1-101h50l1 261h-48c-2-10 0-23-3-31C134-8 116 4 84 4 32 4 16-41 15-95c0-56 19-97 73-99zm17 164c33 0 40-30 41-66 1-37-9-64-41-64s-38 30-39 65c0 43 13 65 39 65" id="t"/><path fill="#333" d="M137-138c1-29-70-34-71-4 15 46 118 7 119 86 1 83-164 76-172 9l43-7c4 19 20 25 44 25 33 8 57-30 24-41C81-84 22-81 20-136c-2-80 154-74 161-7" id="u"/><path fill="#333" d="M115-3C79 11 28 4 28-45v-112H4v-33h27l15-45h31v45h36v33H77v99c-1 23 16 31 38 25v30" id="v"/><path fill="#333" d="M135-150c-39-12-60 13-60 57V0H25l-1-190h47c2 13-1 29 3 40 6-28 27-53 61-41v41" id="w"/><g id="c"><use transform="matrix(0.07407407407407406,0,0,0.07407407407407406,0,0)" xlink:href="#r"/><use transform="matrix(0.07407407407407406,0,0,0.07407407407407406,19.18518518518518,0)" xlink:href="#s"/><use transform="matrix(0.07407407407407406,0,0,0.07407407407407406,33.99999999999999,0)" xlink:href="#t"/><use transform="matrix(0.07407407407407406,0,0,0.07407407407407406,50.22222222222222,0)" xlink:href="#s"/><use transform="matrix(0.07407407407407406,0,0,0.07407407407407406,65.03703703703702,0)" xlink:href="#u"/><use transform="matrix(0.07407407407407406,0,0,0.07407407407407406,79.85185185185183,0)" xlink:href="#v"/><use transform="matrix(0.07407407407407406,0,0,0.07407407407407406,88.66666666666664,0)" xlink:href="#w"/><use transform="matrix(0.07407407407407406,0,0,0.07407407407407406,99.03703703703701,0)" xlink:href="#s"/><use transform="matrix(0.07407407407407406,0,0,0.07407407407407406,113.85185185185182,0)" xlink:href="#w"/></g><path fill="#333" d="M25 0v-261h50V0H25" id="x"/><path fill="#333" d="M25-224v-37h50v37H25zM25 0v-190h50V0H25" id="y"/><path fill="#333" d="M185-48c-13 30-37 53-82 52C43 2 14-33 14-96s30-98 90-98c62 0 83 45 84 108H66c0 31 8 55 39 56 18 0 30-7 34-22zm-45-69c5-46-57-63-70-21-2 6-4 13-4 21h74" id="z"/><path fill="#333" d="M135-194c87-1 58 113 63 194h-50c-7-57 23-157-34-157-59 0-34 97-39 157H25l-1-190h47c2 12-1 28 3 38 12-26 28-41 61-42" id="A"/><g id="d"><use transform="matrix(0.07407407407407406,0,0,0.07407407407407406,0,0)" xlink:href="#r"/><use transform="matrix(0.07407407407407406,0,0,0.07407407407407406,19.18518518518518,0)" xlink:href="#x"/><use transform="matrix(0.07407407407407406,0,0,0.07407407407407406,26.592592592592585,0)" xlink:href="#y"/><use transform="matrix(0.07407407407407406,0,0,0.07407407407407406,33.99999999999999,0)" xlink:href="#z"/><use transform="matrix(0.07407407407407406,0,0,0.07407407407407406,48.8148148148148,0)" xlink:href="#A"/><use transform="matrix(0.07407407407407406,0,0,0.07407407407407406,65.03703703703702,0)" xlink:href="#v"/><use transform="matrix(0.07407407407407406,0,0,0.07407407407407406,73.85185185185183,0)" xlink:href="#z"/></g><path fill="#333" d="M212-179c-10-28-35-45-73-45-59 0-87 40-87 99 0 60 29 101 89 101 43 0 62-24 78-52l27 14C228-24 195 4 139 4 59 4 22-46 18-125c-6-104 99-153 187-111 19 9 31 26 39 46" id="B"/><path fill="#333" d="M24 0v-261h32V0H24" id="C"/><path fill="#333" d="M24-231v-30h32v30H24zM24 0v-190h32V0H24" id="D"/><path fill="#333" d="M100-194c63 0 86 42 84 106H49c0 40 14 67 53 68 26 1 43-12 49-29l28 8c-11 28-37 45-77 45C44 4 14-33 15-96c1-61 26-98 85-98zm52 81c6-60-76-77-97-28-3 7-6 17-6 28h103" id="E"/><path fill="#333" d="M117-194c89-4 53 116 60 194h-32v-121c0-31-8-49-39-48C34-167 62-67 57 0H25l-1-190h30c1 10-1 24 2 32 11-22 29-35 61-36" id="F"/><path fill="#333" d="M59-47c-2 24 18 29 38 22v24C64 9 27 4 27-40v-127H5v-23h24l9-43h21v43h35v23H59v120" id="G"/><g id="e"><use transform="matrix(0.06172839506172839,0,0,0.06172839506172839,0,0)" xlink:href="#B"/><use transform="matrix(0.06172839506172839,0,0,0.06172839506172839,15.987654320987653,0)" xlink:href="#C"/><use transform="matrix(0.06172839506172839,0,0,0.06172839506172839,20.864197530864196,0)" xlink:href="#D"/><use transform="matrix(0.06172839506172839,0,0,0.06172839506172839,25.74074074074074,0)" xlink:href="#E"/><use transform="matrix(0.06172839506172839,0,0,0.06172839506172839,38.08641975308642,0)" xlink:href="#F"/><use transform="matrix(0.06172839506172839,0,0,0.06172839506172839,50.432098765432094,0)" xlink:href="#G"/><use transform="matrix(0.06172839506172839,0,0,0.06172839506172839,56.60493827160494,0)" xlink:href="#E"/></g><path d="M137 0h-34L2-248h35l83 218 83-218h36" id="H"/><path d="M101-234c-31-9-42 10-38 44h38v23H63V0H32v-167H5v-23h27c-7-52 17-82 69-68v24" id="I"/><path d="M96-169c-40 0-48 33-48 73s9 75 48 75c24 0 41-14 43-38l32 2c-6 37-31 61-74 61-59 0-76-41-82-99-10-93 101-131 147-64 4 7 5 14 7 22l-32 3c-4-21-16-35-41-35" id="J"/><g id="f"><use transform="matrix(0.05,0,0,0.05,0,0)" xlink:href="#H"/><use transform="matrix(0.05,0,0,0.05,11,0)" xlink:href="#l"/><use transform="matrix(0.05,0,0,0.05,21,0)" xlink:href="#m"/><use transform="matrix(0.05,0,0,0.05,26.950000000000003,0)" xlink:href="#n"/><use transform="matrix(0.05,0,0,0.05,30.899999999999995,0)" xlink:href="#I"/><use transform="matrix(0.05,0,0,0.05,35.9,0)" xlink:href="#n"/><use transform="matrix(0.05,0,0,0.05,39.85,0)" xlink:href="#J"/><use transform="matrix(0.05,0,0,0.05,48.85,0)" xlink:href="#p"/><use transform="matrix(0.05,0,0,0.05,58.85,0)" xlink:href="#m"/></g><path d="M212-179c-10-28-35-45-73-45-59 0-87 40-87 99 0 60 29 101 89 101 43 0 62-24 78-52l27 14C228-24 195 4 139 4 59 4 22-46 18-125c-6-104 99-153 187-111 19 9 31 26 39 46" id="K"/><path d="M59-47c-2 24 18 29 38 22v24C64 9 27 4 27-40v-127H5v-23h24l9-43h21v43h35v23H59v120" id="L"/><g id="g"><use transform="matrix(0.05,0,0,0.05,0,0)" xlink:href="#K"/><use transform="matrix(0.05,0,0,0.05,12.950000000000001,0)" xlink:href="#p"/><use transform="matrix(0.05,0,0,0.05,22.950000000000003,0)" xlink:href="#o"/><use transform="matrix(0.05,0,0,0.05,32.95,0)" xlink:href="#p"/><use transform="matrix(0.05,0,0,0.05,42.95,0)" xlink:href="#k"/><use transform="matrix(0.05,0,0,0.05,51.95,0)" xlink:href="#L"/><use transform="matrix(0.05,0,0,0.05,56.95,0)" xlink:href="#m"/><use transform="matrix(0.05,0,0,0.05,62.900000000000006,0)" xlink:href="#p"/><use transform="matrix(0.05,0,0,0.05,72.9,0)" xlink:href="#m"/></g><path fill="#333" d="M18-100v-36l175-74v27L42-118l151 64v27" id="M"/><path fill="#333" d="M96-169c-40 0-48 33-48 73s9 75 48 75c24 0 41-14 43-38l32 2c-6 37-31 61-74 61-59 0-76-41-82-99-10-93 101-131 147-64 4 7 5 14 7 22l-32 3c-4-21-16-35-41-35" id="N"/><path fill="#333" d="M84 4C-5 8 30-112 23-190h32v120c0 31 7 50 39 49 72-2 45-101 50-169h31l1 190h-30c-1-10 1-25-2-33-11 22-28 36-60 37" id="O"/><path fill="#333" d="M85-194c31 0 48 13 60 33l-1-100h32l1 261h-30c-2-10 0-23-3-31C134-8 116 4 85 4 32 4 16-35 15-94c0-66 23-100 70-100zm9 24c-40 0-46 34-46 75 0 40 6 74 45 74 42 0 51-32 51-76 0-42-9-74-50-73" id="P"/><path fill="#333" d="M18-27v-27l151-64-151-65v-27l175 74v36" id="Q"/><g id="h"><use transform="matrix(0.06172839506172839,0,0,0.06172839506172839,0,0)" xlink:href="#M"/><use transform="matrix(0.06172839506172839,0,0,0.06172839506172839,12.962962962962962,0)" xlink:href="#D"/><use transform="matrix(0.06172839506172839,0,0,0.06172839506172839,17.839506172839506,0)" xlink:href="#F"/><use transform="matrix(0.06172839506172839,0,0,0.06172839506172839,30.185185185185183,0)" xlink:href="#N"/><use transform="matrix(0.06172839506172839,0,0,0.06172839506172839,41.29629629629629,0)" xlink:href="#C"/><use transform="matrix(0.06172839506172839,0,0,0.06172839506172839,46.172839506172835,0)" xlink:href="#O"/><use transform="matrix(0.06172839506172839,0,0,0.06172839506172839,58.51851851851851,0)" xlink:href="#P"/><use transform="matrix(0.06172839506172839,0,0,0.06172839506172839,70.86419753086419,0)" xlink:href="#E"/><use transform="matrix(0.06172839506172839,0,0,0.06172839506172839,83.20987654320987,0)" xlink:href="#Q"/></g></defs></g></svg>