<svg xmlns="http://www.w3.org/2000/svg" xmlns:xlink="http://www.w3.org/1999/xlink" xmlns:lucid="lucid" width="782.77" height="743"><g transform="translate(1101.2674702962343 -618.5)" lucid:page-tab-id="0_0"><path d="M-1806.87 0h3677.74v2581.67h-3677.74z" fill="#fff"/><path d="M-860 646c0-3.3 2.7-6 6-6h508c3.3 0 6 2.7 6 6v688c0 3.3-2.7 6-6 6h-508c-3.3 0-6-2.7-6-6z" stroke="#5e5e5e" stroke-width="3" fill="#fff"/><path d="M-720 666c0-3.3 2.7-6 6-6h228c3.3 0 6 2.7 6 6v48c0 3.3-2.7 6-6 6h-228c-3.3 0-6-2.7-6-6z" stroke="#000" stroke-opacity="0" stroke-width="3" fill="#fff" fill-opacity="0"/><use xlink:href="#a" transform="matrix(1,0,0,1,-715,665) translate(15.259259259259295 30.70833333333333)"/><use xlink:href="#b" transform="matrix(1,0,0,1,-715,665) translate(98.07407407407409 30.70833333333333)"/><path d="M-1020.25 979.75c0 10.9-8.84 19.75-19.75 19.75-10.9 0-19.75-8.84-19.75-19.75 0-10.9 8.84-19.75 19.75-19.75 10.9 0 19.75 8.84 19.75 19.75z" stroke="#5e5e5e" stroke-width="3" fill="#fff"/><path d="M-1040 999.5v49.3c0 3.3 1.44 8.27 3.2 11.07l36.8 58.13m-40-63.2l-40 63.2m0-98.75h80" stroke="#5e5e5e" stroke-width="3" fill="none"/><path d="M-1080 966c0-3.3 2.7-6 6-6h68c3.3 0 6 2.7 6 6v168c0 3.3-2.7 6-6 6h-68c-3.3 0-6-2.7-6-6z" fill="none"/><use xlink:href="#c" transform="matrix(1,0,0,1,-1160,1118) translate(85.52469135802468 17.77777777777778)"/><path d="M-620 800c0 33.14-35.82 60-80 60s-80-26.86-80-60 35.82-60 80-60 80 26.86 80 60z" stroke="#5e5e5e" stroke-width="3" fill="#fff"/><use xlink:href="#d" transform="matrix(1,0,0,1,-780,740) translate(16.68 63.15)"/><use xlink:href="#e" transform="matrix(1,0,0,1,-780,740) translate(67.43 63.15)"/><use xlink:href="#f" transform="matrix(1,0,0,1,-780,740) translate(98.38 63.15)"/><path d="M-460 920c0 33.14-35.82 60-80 60s-80-26.86-80-60 35.82-60 80-60 80 26.86 80 60z" stroke="#5e5e5e" stroke-width="3" fill="#fff"/><use xlink:href="#d" transform="matrix(1,0,0,1,-620,860) translate(41.654999999999994 51.9)"/><use xlink:href="#g" transform="matrix(1,0,0,1,-620,860) translate(92.405 51.9)"/><use xlink:href="#h" transform="matrix(1,0,0,1,-620,860) translate(21.055 73.5)"/><path d="M-460 1100c0 33.14-35.82 60-80 60s-80-26.86-80-60 35.82-60 80-60 80 26.86 80 60z" stroke="#5e5e5e" stroke-width="3" fill="#fff"/><use xlink:href="#d" transform="matrix(1,0,0,1,-620,1040) translate(41.654999999999994 51.9)"/><use xlink:href="#g" transform="matrix(1,0,0,1,-620,1040) translate(92.405 51.9)"/><use xlink:href="#i" transform="matrix(1,0,0,1,-620,1040) translate(37.55499999999999 73.5)"/><path d="M-620 1220c0 33.14-35.82 60-80 60s-80-26.86-80-60 35.82-60 80-60 80 26.86 80 60z" stroke="#5e5e5e" stroke-width="3" fill="#fff"/><use xlink:href="#d" transform="matrix(1,0,0,1,-780,1160) translate(9.704999999999993 63.15)"/><use xlink:href="#e" transform="matrix(1,0,0,1,-780,1160) translate(60.45499999999999 63.15)"/><use xlink:href="#j" transform="matrix(1,0,0,1,-780,1160) translate(91.40499999999999 63.15)"/><path d="M-999 1018.5h211.5c3.3 0 6-2.7 6-6V801" stroke="#5e5e5e" stroke-width="2" fill="none"/><path d="M-998.97 1019.5h-1.03v-1.75h-3v-.25h4.03zM-781.4 797.04l-.1 2.94v.43l.03.63h-1.03V797h1.1z" fill="#5e5e5e"/><path d="M-622.5 920h-158" stroke="#5e5e5e" stroke-width="2" fill="none"/><path d="M-621.5 919.98v.43l.02.6h-1.05v-2h1.06z" fill="#5e5e5e"/><path d="M-780.47 920h-1.03M-781.5 1219v-194.5c0-3.3-2.7-6-6-6H-999" stroke="#5e5e5e" stroke-width="2" fill="none"/><path d="M-781.5 1219.98v.43l.1 2.6h-1.1v-4.03h1.03zM-998.97 1019.5h-1.03v-1.75h-3v-.25h4.03z" fill="#5e5e5e"/><path d="M-622.5 1100h-158" stroke="#5e5e5e" stroke-width="2" fill="none"/><path d="M-621.5 1099.98v.43l.02.6h-1.05v-2h1.06z" fill="#5e5e5e"/><path d="M-780.47 1100h-1.03" stroke="#5e5e5e" stroke-width="2" fill="none"/><defs><path fill="#333" d="M76-208v77h127v40H76V0H24v-248h183v40H76" id="k"/><path fill="#333" d="M25-224v-37h50v37H25zM25 0v-190h50V0H25" id="l"/><path fill="#333" d="M25 0v-261h50V0H25" id="m"/><path fill="#333" d="M115-3C79 11 28 4 28-45v-112H4v-33h27l15-45h31v45h36v33H77v99c-1 23 16 31 38 25v30" id="n"/><path fill="#333" d="M135-150c-39-12-60 13-60 57V0H25l-1-190h47c2 13-1 29 3 40 6-28 27-53 61-41v41" id="o"/><path fill="#333" d="M133-34C117-15 103 5 69 4 32 3 11-16 11-54c-1-60 55-63 116-61 1-26-3-47-28-47-18 1-26 9-28 27l-52-2c7-38 36-58 82-57s74 22 75 68l1 82c-1 14 12 18 25 15v27c-30 8-71 5-69-32zm-48 3c29 0 43-24 42-57-32 0-66-3-65 30 0 17 8 27 23 27" id="p"/><g id="a"><use transform="matrix(0.07407407407407406,0,0,0.07407407407407406,0,0)" xlink:href="#k"/><use transform="matrix(0.07407407407407406,0,0,0.07407407407407406,16.222222222222218,0)" xlink:href="#l"/><use transform="matrix(0.07407407407407406,0,0,0.07407407407407406,23.629629629629623,0)" xlink:href="#m"/><use transform="matrix(0.07407407407407406,0,0,0.07407407407407406,31.03703703703703,0)" xlink:href="#n"/><use transform="matrix(0.07407407407407406,0,0,0.07407407407407406,39.85185185185184,0)" xlink:href="#o"/><use transform="matrix(0.07407407407407406,0,0,0.07407407407407406,50.22222222222221,0)" xlink:href="#p"/><use transform="matrix(0.07407407407407406,0,0,0.07407407407407406,65.03703703703702,0)" xlink:href="#o"/></g><path fill="#333" d="M24-248c93 1 206-16 204 79-1 75-69 88-152 82V0H24v-248zm52 121c47 0 100 7 100-41 0-47-54-39-100-39v80" id="q"/><path fill="#333" d="M110-194c64 0 96 36 96 99 0 64-35 99-97 99-61 0-95-36-95-99 0-62 34-99 96-99zm-1 164c35 0 45-28 45-65 0-40-10-65-43-65-34 0-45 26-45 65 0 36 10 65 43 65" id="r"/><path fill="#333" d="M88-194c31-1 46 15 58 34l-1-101h50l1 261h-48c-2-10 0-23-3-31C134-8 116 4 84 4 32 4 16-41 15-95c0-56 19-97 73-99zm17 164c33 0 40-30 41-66 1-37-9-64-41-64s-38 30-39 65c0 43 13 65 39 65" id="s"/><path fill="#333" d="M85 4C-2 5 27-109 22-190h50c7 57-23 150 33 157 60-5 35-97 40-157h50l1 190h-47c-2-12 1-28-3-38-12 25-28 42-61 42" id="t"/><path fill="#333" d="M137-138c1-29-70-34-71-4 15 46 118 7 119 86 1 83-164 76-172 9l43-7c4 19 20 25 44 25 33 8 57-30 24-41C81-84 22-81 20-136c-2-80 154-74 161-7" id="u"/><g id="b"><use transform="matrix(0.07407407407407406,0,0,0.07407407407407406,0,0)" xlink:href="#q"/><use transform="matrix(0.07407407407407406,0,0,0.07407407407407406,17.777777777777775,0)" xlink:href="#o"/><use transform="matrix(0.07407407407407406,0,0,0.07407407407407406,28.148148148148145,0)" xlink:href="#r"/><use transform="matrix(0.07407407407407406,0,0,0.07407407407407406,44.37037037037037,0)" xlink:href="#s"/><use transform="matrix(0.07407407407407406,0,0,0.07407407407407406,60.59259259259258,0)" xlink:href="#t"/><use transform="matrix(0.07407407407407406,0,0,0.07407407407407406,76.8148148148148,0)" xlink:href="#n"/><use transform="matrix(0.07407407407407406,0,0,0.07407407407407406,85.6296296296296,0)" xlink:href="#r"/><use transform="matrix(0.07407407407407406,0,0,0.07407407407407406,101.85185185185183,0)" xlink:href="#u"/></g><path fill="#333" d="M212-179c-10-28-35-45-73-45-59 0-87 40-87 99 0 60 29 101 89 101 43 0 62-24 78-52l27 14C228-24 195 4 139 4 59 4 22-46 18-125c-6-104 99-153 187-111 19 9 31 26 39 46" id="v"/><path fill="#333" d="M24 0v-261h32V0H24" id="w"/><path fill="#333" d="M24-231v-30h32v30H24zM24 0v-190h32V0H24" id="x"/><path fill="#333" d="M100-194c63 0 86 42 84 106H49c0 40 14 67 53 68 26 1 43-12 49-29l28 8c-11 28-37 45-77 45C44 4 14-33 15-96c1-61 26-98 85-98zm52 81c6-60-76-77-97-28-3 7-6 17-6 28h103" id="y"/><path fill="#333" d="M117-194c89-4 53 116 60 194h-32v-121c0-31-8-49-39-48C34-167 62-67 57 0H25l-1-190h30c1 10-1 24 2 32 11-22 29-35 61-36" id="z"/><path fill="#333" d="M59-47c-2 24 18 29 38 22v24C64 9 27 4 27-40v-127H5v-23h24l9-43h21v43h35v23H59v120" id="A"/><g id="c"><use transform="matrix(0.06172839506172839,0,0,0.06172839506172839,0,0)" xlink:href="#v"/><use transform="matrix(0.06172839506172839,0,0,0.06172839506172839,15.987654320987653,0)" xlink:href="#w"/><use transform="matrix(0.06172839506172839,0,0,0.06172839506172839,20.864197530864196,0)" xlink:href="#x"/><use transform="matrix(0.06172839506172839,0,0,0.06172839506172839,25.74074074074074,0)" xlink:href="#y"/><use transform="matrix(0.06172839506172839,0,0,0.06172839506172839,38.08641975308642,0)" xlink:href="#z"/><use transform="matrix(0.06172839506172839,0,0,0.06172839506172839,50.432098765432094,0)" xlink:href="#A"/><use transform="matrix(0.06172839506172839,0,0,0.06172839506172839,56.60493827160494,0)" xlink:href="#y"/></g><path d="M63-220v92h138v28H63V0H30v-248h175v28H63" id="B"/><path d="M24-231v-30h32v30H24zM24 0v-190h32V0H24" id="C"/><path d="M24 0v-261h32V0H24" id="D"/><path d="M59-47c-2 24 18 29 38 22v24C64 9 27 4 27-40v-127H5v-23h24l9-43h21v43h35v23H59v120" id="E"/><path d="M114-163C36-179 61-72 57 0H25l-1-190h30c1 12-1 29 2 39 6-27 23-49 58-41v29" id="F"/><path d="M141-36C126-15 110 5 73 4 37 3 15-17 15-53c-1-64 63-63 125-63 3-35-9-54-41-54-24 1-41 7-42 31l-33-3c5-37 33-52 76-52 45 0 72 20 72 64v82c-1 20 7 32 28 27v20c-31 9-61-2-59-35zM48-53c0 20 12 33 32 33 41-3 63-29 60-74-43 2-92-5-92 41" id="G"/><g id="d"><use transform="matrix(0.05,0,0,0.05,0,0)" xlink:href="#B"/><use transform="matrix(0.05,0,0,0.05,10.950000000000001,0)" xlink:href="#C"/><use transform="matrix(0.05,0,0,0.05,14.9,0)" xlink:href="#D"/><use transform="matrix(0.05,0,0,0.05,18.85,0)" xlink:href="#E"/><use transform="matrix(0.05,0,0,0.05,23.85,0)" xlink:href="#F"/><use transform="matrix(0.05,0,0,0.05,29.8,0)" xlink:href="#G"/><use transform="matrix(0.05,0,0,0.05,39.8,0)" xlink:href="#F"/></g><path d="M115-194c55 1 70 41 70 98S169 2 115 4C84 4 66-9 55-30l1 105H24l-1-265h31l2 30c10-21 28-34 59-34zm-8 174c40 0 45-34 45-75s-6-73-45-74c-42 0-51 32-51 76 0 43 10 73 51 73" id="H"/><path d="M100-194c62-1 85 37 85 99 1 63-27 99-86 99S16-35 15-95c0-66 28-99 85-99zM99-20c44 1 53-31 53-75 0-43-8-75-51-75s-53 32-53 75 10 74 51 75" id="I"/><g id="e"><use transform="matrix(0.05,0,0,0.05,0,0)" xlink:href="#H"/><use transform="matrix(0.05,0,0,0.05,10,0)" xlink:href="#I"/><use transform="matrix(0.05,0,0,0.05,20,0)" xlink:href="#F"/></g><path d="M100-194c63 0 86 42 84 106H49c0 40 14 67 53 68 26 1 43-12 49-29l28 8c-11 28-37 45-77 45C44 4 14-33 15-96c1-61 26-98 85-98zm52 81c6-60-76-77-97-28-3 7-6 17-6 28h103" id="J"/><path d="M96-169c-40 0-48 33-48 73s9 75 48 75c24 0 41-14 43-38l32 2c-6 37-31 61-74 61-59 0-76-41-82-99-10-93 101-131 147-64 4 7 5 14 7 22l-32 3c-4-21-16-35-41-35zm3 187c19-1 33 8 33 26 0 31-30 33-64 32V58c18 2 39 4 41-13 1-15-18-13-34-13L87 0h19" id="K"/><g id="f"><use transform="matrix(0.05,0,0,0.05,0,0)" xlink:href="#H"/><use transform="matrix(0.05,0,0,0.05,10,0)" xlink:href="#F"/><use transform="matrix(0.05,0,0,0.05,15.949999999999998,0)" xlink:href="#J"/><use transform="matrix(0.05,0,0,0.05,25.950000000000003,0)" xlink:href="#K"/><use transform="matrix(0.05,0,0,0.05,34.95,0)" xlink:href="#I"/></g><g id="g"><use transform="matrix(0.05,0,0,0.05,0,0)" xlink:href="#H"/><use transform="matrix(0.05,0,0,0.05,10,0)" xlink:href="#I"/><use transform="matrix(0.05,0,0,0.05,20,0)" xlink:href="#F"/></g><path d="M135-143c-3-34-86-38-87 0 15 53 115 12 119 90S17 21 10-45l28-5c4 36 97 45 98 0-10-56-113-15-118-90-4-57 82-63 122-42 12 7 21 19 24 35" id="L"/><path d="M96-169c-40 0-48 33-48 73s9 75 48 75c24 0 41-14 43-38l32 2c-6 37-31 61-74 61-59 0-76-41-82-99-10-93 101-131 147-64 4 7 5 14 7 22l-32 3c-4-21-16-35-41-35" id="M"/><path d="M101-234c-31-9-42 10-38 44h38v23H63V0H32v-167H5v-23h27c-7-52 17-82 69-68v24" id="N"/><path d="M100-194c62-1 85 37 85 99 1 63-27 99-86 99S16-35 15-95c0-66 28-99 85-99zM99-20c44 1 53-31 53-75 0-43-8-75-51-75s-53 32-53 75 10 74 51 75zm66-238c-3 23-9 48-36 47-26-1-65-44-74 0H39c4-23 8-48 36-47s64 44 74 0h16" id="O"/><g id="h"><use transform="matrix(0.05,0,0,0.05,0,0)" xlink:href="#J"/><use transform="matrix(0.05,0,0,0.05,10,0)" xlink:href="#L"/><use transform="matrix(0.05,0,0,0.05,19,0)" xlink:href="#H"/><use transform="matrix(0.05,0,0,0.05,29,0)" xlink:href="#J"/><use transform="matrix(0.05,0,0,0.05,39,0)" xlink:href="#M"/><use transform="matrix(0.05,0,0,0.05,48,0)" xlink:href="#C"/><use transform="matrix(0.05,0,0,0.05,51.95,0)" xlink:href="#N"/><use transform="matrix(0.05,0,0,0.05,56.95,0)" xlink:href="#C"/><use transform="matrix(0.05,0,0,0.05,60.900000000000006,0)" xlink:href="#M"/><use transform="matrix(0.05,0,0,0.05,69.9,0)" xlink:href="#G"/><use transform="matrix(0.05,0,0,0.05,79.9,0)" xlink:href="#K"/><use transform="matrix(0.05,0,0,0.05,88.9,0)" xlink:href="#O"/><use transform="matrix(0.05,0,0,0.05,98.9,0)" xlink:href="#J"/><use transform="matrix(0.05,0,0,0.05,108.9,0)" xlink:href="#L"/></g><path d="M108 0H70L1-190h34L89-25l56-165h34" id="P"/><g id="i"><use transform="matrix(0.05,0,0,0.05,0,0)" xlink:href="#G"/><use transform="matrix(0.05,0,0,0.05,10,0)" xlink:href="#P"/><use transform="matrix(0.05,0,0,0.05,19,0)" xlink:href="#G"/><use transform="matrix(0.05,0,0,0.05,29,0)" xlink:href="#D"/><use transform="matrix(0.05,0,0,0.05,32.95,0)" xlink:href="#C"/><use transform="matrix(0.05,0,0,0.05,36.900000000000006,0)" xlink:href="#G"/><use transform="matrix(0.05,0,0,0.05,46.900000000000006,0)" xlink:href="#K"/><use transform="matrix(0.05,0,0,0.05,55.900000000000006,0)" xlink:href="#O"/><use transform="matrix(0.05,0,0,0.05,65.9,0)" xlink:href="#J"/><use transform="matrix(0.05,0,0,0.05,75.9,0)" xlink:href="#L"/></g><path d="M210-169c-67 3-38 105-44 169h-31v-121c0-29-5-50-35-48C34-165 62-65 56 0H25l-1-190h30c1 10-1 24 2 32 10-44 99-50 107 0 11-21 27-35 58-36 85-2 47 119 55 194h-31v-121c0-29-5-49-35-48" id="Q"/><g id="j"><use transform="matrix(0.05,0,0,0.05,0,0)" xlink:href="#Q"/><use transform="matrix(0.05,0,0,0.05,14.950000000000001,0)" xlink:href="#G"/><use transform="matrix(0.05,0,0,0.05,24.950000000000003,0)" xlink:href="#F"/><use transform="matrix(0.05,0,0,0.05,30.900000000000002,0)" xlink:href="#M"/><use transform="matrix(0.05,0,0,0.05,39.900000000000006,0)" xlink:href="#G"/><use transform="matrix(0.05,0,0,0.05,49.900000000000006,0)" xlink:href="#L"/></g></defs></g></svg>