<svg xmlns="http://www.w3.org/2000/svg" xmlns:xlink="http://www.w3.org/1999/xlink" xmlns:lucid="lucid" width="630.64" height="680"><g transform="translate(-356.6820987654321 -156.6666666666668)" lucid:page-tab-id="0_0"><path d="M0 0h1870.87v1322.83H0z" fill="#fff"/><path d="M376.68 193c0-3.3 2.7-6 6-6h428c3.32 0 6 2.7 6 6v617.67c0 3.3-2.68 6-6 6h-428c-3.3 0-6-2.7-6-6z" stroke="#5e5e5e" stroke-width="3" fill="#fff"/><path d="M576.68 577c0 21.9-22.38 39.67-50 39.67-27.6 0-50-17.76-50-39.67 0-21.9 22.4-39.67 50-39.67 27.62 0 50 17.76 50 39.67z" stroke="#5e5e5e" stroke-width="3" fill="#fff"/><use xlink:href="#a" transform="matrix(1,0,0,1,476.6820987654321,537.3333333333335) translate(26.554999999999996 27.41)"/><use xlink:href="#b" transform="matrix(1,0,0,1,476.6820987654321,537.3333333333335) translate(19.529999999999994 49.01)"/><path d="M476.68 182.67c0-3.32 2.7-6 6-6h248c3.32 0 6 2.68 6 6V250c0 3.3-2.68 6-6 6h-248c-3.3 0-6-2.7-6-6z" stroke="#000" stroke-opacity="0" stroke-width="3" fill="#fff" fill-opacity="0"/><use xlink:href="#c" transform="matrix(1,0,0,1,481.6820987654321,181.6666666666668) translate(8.96296296296299 41.02083333333333)"/><use xlink:href="#d" transform="matrix(1,0,0,1,481.6820987654321,181.6666666666668) translate(140.74074074074073 41.02083333333333)"/><path d="M916.43 416.42c0 10.9-8.84 19.75-19.75 19.75-10.9 0-19.75-8.85-19.75-19.75s8.84-19.75 19.75-19.75c10.9 0 19.75 8.84 19.75 19.75z" stroke="#5e5e5e" stroke-width="3" fill="#fff"/><path d="M896.68 436.17v49.3c0 3.3 1.44 8.27 3.2 11.07l36.8 58.13m-40-63.2l-40 63.2m0-98.75h80" stroke="#5e5e5e" stroke-width="3" fill="none"/><path d="M856.68 402.67c0-3.32 2.7-6 6-6h68c3.32 0 6 2.68 6 6v168c0 3.3-2.68 6-6 6h-68c-3.3 0-6-2.7-6-6z" fill="none"/><use xlink:href="#e" transform="matrix(1,0,0,1,776.6820987654321,554.6666666666667) translate(51.63580246913581 17.77777777777778)"/><path d="M576.68 416.33c0 21.9-22.38 39.67-50 39.67-27.6 0-50-17.76-50-39.67 0-21.9 22.4-39.66 50-39.66 27.62 0 50 17.76 50 39.66z" stroke="#5e5e5e" stroke-width="3" fill="#fff"/><use xlink:href="#f" transform="matrix(1,0,0,1,476.6820987654321,376.6666666666668) translate(26.079999999999995 27.41)"/><use xlink:href="#b" transform="matrix(1,0,0,1,476.6820987654321,376.6666666666668) translate(19.529999999999994 49.01)"/><path d="M616.68 311.5c0 24.94-17.9 45.17-40 45.17s-40-20.23-40-45.17 17.9-45.17 40-45.17 40 20.23 40 45.17z" stroke="#5e5e5e" stroke-width="3" fill="#fff"/><use xlink:href="#g" transform="matrix(1,0,0,1,536.6820987654321,266.33333333333366) translate(11.529999999999996 39.410000000000004)"/><use xlink:href="#h" transform="matrix(1,0,0,1,536.6820987654321,266.33333333333366) translate(15.505 61.01)"/><path d="M696.68 736.67c0 22.1-26.86 40-60 40-33.13 0-60-17.9-60-40s26.87-40 60-40c33.14 0 60 17.9 60 40z" stroke="#5e5e5e" stroke-width="3" fill="#fff"/><use xlink:href="#i" transform="matrix(1,0,0,1,576.6820987654321,696.6666666666667) translate(33.08 31.9)"/><use xlink:href="#b" transform="matrix(1,0,0,1,576.6820987654321,696.6666666666667) translate(29.529999999999998 53.5)"/><path d="M894.18 475.46h-131.5c-3.3 0-6-2.68-6-6V317.5c0-3.3-2.68-6-6-6h-131.5M894.16 475.46h4.02" stroke="#5e5e5e" stroke-width="2" fill="none"/><path d="M619.2 312.5h-1.07l.05-.97v-1.03h1.03z" fill="#5e5e5e"/><path d="M699.18 736.67h51.5c3.32 0 6-2.7 6-6V482c0-3.3 2.7-6 6-6h131.5" stroke="#5e5e5e" stroke-width="2" fill="none"/><path d="M699.2 737.67h-1.06l.04-1-.03-1h1.06z" fill="#5e5e5e"/><path d="M894.16 476h4.02M579.18 577h171.5c3.32 0 6-2.7 6-6v-89c0-3.3 2.7-6 6-6h131.5" stroke="#5e5e5e" stroke-width="2" fill="none"/><path d="M579.2 578h-1.07l.05-1-.03-1h1.06z" fill="#5e5e5e"/><path d="M894.16 476h4.02M579.18 416.33h171.5c3.32 0 6 2.7 6 6V470c0 3.33 2.7 6 6 6h131.5" stroke="#5e5e5e" stroke-width="2" fill="none"/><path d="M579.2 417.33h-1.07l.05-1-.03-1h1.06z" fill="#5e5e5e"/><path d="M894.16 476h4.02" stroke="#5e5e5e" stroke-width="2" fill="none"/><defs><path d="M30 0v-248h187v28H63v79h144v27H63v87h162V0H30" id="j"/><path d="M85-194c31 0 48 13 60 33l-1-100h32l1 261h-30c-2-10 0-23-3-31C134-8 116 4 85 4 32 4 16-35 15-94c0-66 23-100 70-100zm9 24c-40 0-46 34-46 75 0 40 6 74 45 74 42 0 51-32 51-76 0-42-9-74-50-73" id="k"/><path d="M24-231v-30h32v30H24zM24 0v-190h32V0H24" id="l"/><path d="M59-47c-2 24 18 29 38 22v24C64 9 27 4 27-40v-127H5v-23h24l9-43h21v43h35v23H59v120" id="m"/><path d="M141-36C126-15 110 5 73 4 37 3 15-17 15-53c-1-64 63-63 125-63 3-35-9-54-41-54-24 1-41 7-42 31l-33-3c5-37 33-52 76-52 45 0 72 20 72 64v82c-1 20 7 32 28 27v20c-31 9-61-2-59-35zM48-53c0 20 12 33 32 33 41-3 63-29 60-74-43 2-92-5-92 41" id="n"/><path d="M114-163C36-179 61-72 57 0H25l-1-190h30c1 12-1 29 2 39 6-27 23-49 58-41v29" id="o"/><g id="a"><use transform="matrix(0.05,0,0,0.05,0,0)" xlink:href="#j"/><use transform="matrix(0.05,0,0,0.05,12,0)" xlink:href="#k"/><use transform="matrix(0.05,0,0,0.05,22,0)" xlink:href="#l"/><use transform="matrix(0.05,0,0,0.05,25.950000000000003,0)" xlink:href="#m"/><use transform="matrix(0.05,0,0,0.05,30.950000000000003,0)" xlink:href="#n"/><use transform="matrix(0.05,0,0,0.05,40.95,0)" xlink:href="#o"/></g><path d="M115-194c55 1 70 41 70 98S169 2 115 4C84 4 66-9 55-30l1 105H24l-1-265h31l2 30c10-21 28-34 59-34zm-8 174c40 0 45-34 45-75s-6-73-45-74c-42 0-51 32-51 76 0 43 10 73 51 73" id="p"/><path d="M100-194c62-1 85 37 85 99 1 63-27 99-86 99S16-35 15-95c0-66 28-99 85-99zM99-20c44 1 53-31 53-75 0-43-8-75-51-75s-53 32-53 75 10 74 51 75" id="q"/><path d="M84 4C-5 8 30-112 23-190h32v120c0 31 7 50 39 49 72-2 45-101 50-169h31l1 190h-30c-1-10 1-25-2-33-11 22-28 36-60 37" id="r"/><g id="b"><use transform="matrix(0.05,0,0,0.05,0,0)" xlink:href="#p"/><use transform="matrix(0.05,0,0,0.05,10,0)" xlink:href="#o"/><use transform="matrix(0.05,0,0,0.05,15.949999999999998,0)" xlink:href="#q"/><use transform="matrix(0.05,0,0,0.05,25.950000000000003,0)" xlink:href="#k"/><use transform="matrix(0.05,0,0,0.05,35.95,0)" xlink:href="#r"/><use transform="matrix(0.05,0,0,0.05,45.95,0)" xlink:href="#m"/><use transform="matrix(0.05,0,0,0.05,50.95,0)" xlink:href="#q"/></g><path fill="#333" d="M67-125c0 54 23 88 75 88 28 0 53-7 68-21v-34h-60v-39h108v91C232-14 192 4 140 4 58 4 20-42 15-125 8-236 126-280 215-234c19 10 29 26 37 47l-47 15c-11-23-29-39-63-39-53 1-75 33-75 86" id="s"/><path fill="#333" d="M185-48c-13 30-37 53-82 52C43 2 14-33 14-96s30-98 90-98c62 0 83 45 84 108H66c0 31 8 55 39 56 18 0 30-7 34-22zm-45-69c5-46-57-63-70-21-2 6-4 13-4 21h74" id="t"/><path fill="#333" d="M135-150c-39-12-60 13-60 57V0H25l-1-190h47c2 13-1 29 3 40 6-28 27-53 61-41v41" id="u"/><path fill="#333" d="M135-194c87-1 58 113 63 194h-50c-7-57 23-157-34-157-59 0-34 97-39 157H25l-1-190h47c2 12-1 28 3 38 12-26 28-41 61-42" id="v"/><path fill="#333" d="M190-63c-7 42-38 67-86 67-59 0-84-38-90-98-12-110 154-137 174-36l-49 2c-2-19-15-32-35-32-30 0-35 28-38 64-6 74 65 87 74 30" id="w"/><path fill="#333" d="M25-224v-37h50v37H25zM25 0v-190h50V0H25" id="x"/><path fill="#333" d="M133-34C117-15 103 5 69 4 32 3 11-16 11-54c-1-60 55-63 116-61 1-26-3-47-28-47-18 1-26 9-28 27l-52-2c7-38 36-58 82-57s74 22 75 68l1 82c-1 14 12 18 25 15v27c-30 8-71 5-69-32zm-48 3c29 0 43-24 42-57-32 0-66-3-65 30 0 17 8 27 23 27" id="y"/><g id="c"><use transform="matrix(0.07407407407407406,0,0,0.07407407407407406,0,0)" xlink:href="#s"/><use transform="matrix(0.07407407407407406,0,0,0.07407407407407406,20.740740740740737,0)" xlink:href="#t"/><use transform="matrix(0.07407407407407406,0,0,0.07407407407407406,35.55555555555555,0)" xlink:href="#u"/><use transform="matrix(0.07407407407407406,0,0,0.07407407407407406,45.92592592592592,0)" xlink:href="#t"/><use transform="matrix(0.07407407407407406,0,0,0.07407407407407406,60.740740740740726,0)" xlink:href="#v"/><use transform="matrix(0.07407407407407406,0,0,0.07407407407407406,76.96296296296295,0)" xlink:href="#w"/><use transform="matrix(0.07407407407407406,0,0,0.07407407407407406,91.77777777777776,0)" xlink:href="#x"/><use transform="matrix(0.07407407407407406,0,0,0.07407407407407406,99.18518518518516,0)" xlink:href="#y"/><use transform="matrix(0.07407407407407406,0,0,0.07407407407407406,113.99999999999997,0)" xlink:href="#u"/></g><path fill="#333" d="M135-194c53 0 70 44 70 98 0 56-19 98-73 100-31 1-45-17-59-34 3 33 2 69 2 105H25l-1-265h48c2 10 0 23 3 31 11-24 29-35 60-35zM114-30c33 0 39-31 40-66 0-38-9-64-40-64-56 0-55 130 0 130" id="z"/><path fill="#333" d="M110-194c64 0 96 36 96 99 0 64-35 99-97 99-61 0-95-36-95-99 0-62 34-99 96-99zm-1 164c35 0 45-28 45-65 0-40-10-65-43-65-34 0-45 26-45 65 0 36 10 65 43 65" id="A"/><path fill="#333" d="M88-194c31-1 46 15 58 34l-1-101h50l1 261h-48c-2-10 0-23-3-31C134-8 116 4 84 4 32 4 16-41 15-95c0-56 19-97 73-99zm17 164c33 0 40-30 41-66 1-37-9-64-41-64s-38 30-39 65c0 43 13 65 39 65" id="B"/><path fill="#333" d="M85 4C-2 5 27-109 22-190h50c7 57-23 150 33 157 60-5 35-97 40-157h50l1 190h-47c-2-12 1-28-3-38-12 25-28 42-61 42" id="C"/><path fill="#333" d="M115-3C79 11 28 4 28-45v-112H4v-33h27l15-45h31v45h36v33H77v99c-1 23 16 31 38 25v30" id="D"/><g id="d"><use transform="matrix(0.07407407407407406,0,0,0.07407407407407406,0,0)" xlink:href="#z"/><use transform="matrix(0.07407407407407406,0,0,0.07407407407407406,16.222222222222218,0)" xlink:href="#u"/><use transform="matrix(0.07407407407407406,0,0,0.07407407407407406,26.592592592592585,0)" xlink:href="#A"/><use transform="matrix(0.07407407407407406,0,0,0.07407407407407406,42.81481481481481,0)" xlink:href="#B"/><use transform="matrix(0.07407407407407406,0,0,0.07407407407407406,59.037037037037024,0)" xlink:href="#C"/><use transform="matrix(0.07407407407407406,0,0,0.07407407407407406,75.25925925925924,0)" xlink:href="#D"/><use transform="matrix(0.07407407407407406,0,0,0.07407407407407406,84.07407407407405,0)" xlink:href="#A"/></g><path fill="#333" d="M205 0l-28-72H64L36 0H1l101-248h38L239 0h-34zm-38-99l-47-123c-12 45-31 82-46 123h93" id="E"/><path fill="#333" d="M85-194c31 0 48 13 60 33l-1-100h32l1 261h-30c-2-10 0-23-3-31C134-8 116 4 85 4 32 4 16-35 15-94c0-66 23-100 70-100zm9 24c-40 0-46 34-46 75 0 40 6 74 45 74 42 0 51-32 51-76 0-42-9-74-50-73" id="F"/><path fill="#333" d="M210-169c-67 3-38 105-44 169h-31v-121c0-29-5-50-35-48C34-165 62-65 56 0H25l-1-190h30c1 10-1 24 2 32 10-44 99-50 107 0 11-21 27-35 58-36 85-2 47 119 55 194h-31v-121c0-29-5-49-35-48" id="G"/><path fill="#333" d="M24-231v-30h32v30H24zM24 0v-190h32V0H24" id="H"/><path fill="#333" d="M117-194c89-4 53 116 60 194h-32v-121c0-31-8-49-39-48C34-167 62-67 57 0H25l-1-190h30c1 10-1 24 2 32 11-22 29-35 61-36" id="I"/><path fill="#333" d="M135-143c-3-34-86-38-87 0 15 53 115 12 119 90S17 21 10-45l28-5c4 36 97 45 98 0-10-56-113-15-118-90-4-57 82-63 122-42 12 7 21 19 24 35" id="J"/><path fill="#333" d="M59-47c-2 24 18 29 38 22v24C64 9 27 4 27-40v-127H5v-23h24l9-43h21v43h35v23H59v120" id="K"/><path fill="#333" d="M114-163C36-179 61-72 57 0H25l-1-190h30c1 12-1 29 2 39 6-27 23-49 58-41v29" id="L"/><path fill="#333" d="M141-36C126-15 110 5 73 4 37 3 15-17 15-53c-1-64 63-63 125-63 3-35-9-54-41-54-24 1-41 7-42 31l-33-3c5-37 33-52 76-52 45 0 72 20 72 64v82c-1 20 7 32 28 27v20c-31 9-61-2-59-35zM48-53c0 20 12 33 32 33 41-3 63-29 60-74-43 2-92-5-92 41" id="M"/><path fill="#333" d="M100-194c62-1 85 37 85 99 1 63-27 99-86 99S16-35 15-95c0-66 28-99 85-99zM99-20c44 1 53-31 53-75 0-43-8-75-51-75s-53 32-53 75 10 74 51 75" id="N"/><g id="e"><use transform="matrix(0.06172839506172839,0,0,0.06172839506172839,0,0)" xlink:href="#E"/><use transform="matrix(0.06172839506172839,0,0,0.06172839506172839,14.814814814814813,0)" xlink:href="#F"/><use transform="matrix(0.06172839506172839,0,0,0.06172839506172839,27.160493827160494,0)" xlink:href="#G"/><use transform="matrix(0.06172839506172839,0,0,0.06172839506172839,45.61728395061728,0)" xlink:href="#H"/><use transform="matrix(0.06172839506172839,0,0,0.06172839506172839,50.49382716049382,0)" xlink:href="#I"/><use transform="matrix(0.06172839506172839,0,0,0.06172839506172839,62.8395061728395,0)" xlink:href="#H"/><use transform="matrix(0.06172839506172839,0,0,0.06172839506172839,67.71604938271604,0)" xlink:href="#J"/><use transform="matrix(0.06172839506172839,0,0,0.06172839506172839,78.82716049382715,0)" xlink:href="#K"/><use transform="matrix(0.06172839506172839,0,0,0.06172839506172839,84.99999999999999,0)" xlink:href="#L"/><use transform="matrix(0.06172839506172839,0,0,0.06172839506172839,92.34567901234567,0)" xlink:href="#M"/><use transform="matrix(0.06172839506172839,0,0,0.06172839506172839,104.69135802469135,0)" xlink:href="#F"/><use transform="matrix(0.06172839506172839,0,0,0.06172839506172839,117.03703703703704,0)" xlink:href="#N"/><use transform="matrix(0.06172839506172839,0,0,0.06172839506172839,129.3827160493827,0)" xlink:href="#L"/></g><path d="M33 0v-248h34V0H33" id="O"/><path d="M117-194c89-4 53 116 60 194h-32v-121c0-31-8-49-39-48C34-167 62-67 57 0H25l-1-190h30c1 10-1 24 2 32 11-22 29-35 61-36" id="P"/><path d="M96-169c-40 0-48 33-48 73s9 75 48 75c24 0 41-14 43-38l32 2c-6 37-31 61-74 61-59 0-76-41-82-99-10-93 101-131 147-64 4 7 5 14 7 22l-32 3c-4-21-16-35-41-35" id="Q"/><path d="M24 0v-261h32V0H24" id="R"/><g id="f"><use transform="matrix(0.05,0,0,0.05,0,0)" xlink:href="#O"/><use transform="matrix(0.05,0,0,0.05,5,0)" xlink:href="#P"/><use transform="matrix(0.05,0,0,0.05,15,0)" xlink:href="#Q"/><use transform="matrix(0.05,0,0,0.05,24,0)" xlink:href="#R"/><use transform="matrix(0.05,0,0,0.05,27.950000000000003,0)" xlink:href="#r"/><use transform="matrix(0.05,0,0,0.05,37.95,0)" xlink:href="#l"/><use transform="matrix(0.05,0,0,0.05,41.900000000000006,0)" xlink:href="#o"/></g><path d="M30-248c87 1 191-15 191 75 0 78-77 80-158 76V0H30v-248zm33 125c57 0 124 11 124-50 0-59-68-47-124-48v98" id="S"/><path d="M135-143c-3-34-86-38-87 0 15 53 115 12 119 90S17 21 10-45l28-5c4 36 97 45 98 0-10-56-113-15-118-90-4-57 82-63 122-42 12 7 21 19 24 35" id="T"/><g id="g"><use transform="matrix(0.05,0,0,0.05,0,0)" xlink:href="#S"/><use transform="matrix(0.05,0,0,0.05,12,0)" xlink:href="#n"/><use transform="matrix(0.05,0,0,0.05,22,0)" xlink:href="#r"/><use transform="matrix(0.05,0,0,0.05,32,0)" xlink:href="#T"/><use transform="matrix(0.05,0,0,0.05,41,0)" xlink:href="#n"/><use transform="matrix(0.05,0,0,0.05,51,0)" xlink:href="#o"/></g><path d="M108 0H70L1-190h34L89-25l56-165h34" id="U"/><path d="M100-194c63 0 86 42 84 106H49c0 40 14 67 53 68 26 1 43-12 49-29l28 8c-11 28-37 45-77 45C44 4 14-33 15-96c1-61 26-98 85-98zm52 81c6-60-76-77-97-28-3 7-6 17-6 28h103" id="V"/><g id="h"><use transform="matrix(0.05,0,0,0.05,0,0)" xlink:href="#U"/><use transform="matrix(0.05,0,0,0.05,9,0)" xlink:href="#V"/><use transform="matrix(0.05,0,0,0.05,19,0)" xlink:href="#P"/><use transform="matrix(0.05,0,0,0.05,29,0)" xlink:href="#k"/><use transform="matrix(0.05,0,0,0.05,39,0)" xlink:href="#n"/></g><path d="M141 0L90-78 38 0H4l68-98-65-92h35l48 74 47-74h35l-64 92 68 98h-35" id="W"/><g id="i"><use transform="matrix(0.05,0,0,0.05,0,0)" xlink:href="#j"/><use transform="matrix(0.05,0,0,0.05,12,0)" xlink:href="#W"/><use transform="matrix(0.05,0,0,0.05,21,0)" xlink:href="#Q"/><use transform="matrix(0.05,0,0,0.05,30,0)" xlink:href="#R"/><use transform="matrix(0.05,0,0,0.05,33.95,0)" xlink:href="#r"/><use transform="matrix(0.05,0,0,0.05,43.95,0)" xlink:href="#l"/><use transform="matrix(0.05,0,0,0.05,47.900000000000006,0)" xlink:href="#o"/></g></defs></g></svg>