<svg xmlns="http://www.w3.org/2000/svg" xmlns:xlink="http://www.w3.org/1999/xlink" xmlns:lucid="lucid" width="630.64" height="678.25"><g transform="translate(-356.6820987654321 -157.54199475065633)" lucid:page-tab-id="0_0"><path d="M0 0h1870.87v1322.83H0z" fill="#fff"/><path d="M376.68 192.12c0-3.3 2.7-6 6-6h428c3.32 0 6 2.7 6 6V809.8c0 3.3-2.68 6-6 6h-428c-3.3 0-6-2.7-6-6z" stroke="#5e5e5e" stroke-width="3" fill="#fff"/><path d="M595.43 583.56c0 26.02-26.58 47.1-59.37 47.1-32.8 0-59.38-21.08-59.38-47.1 0-26 26.6-47.1 59.38-47.1 32.8 0 59.37 21.1 59.37 47.1z" stroke="#5e5e5e" stroke-width="3" fill="#fff"/><use xlink:href="#a" transform="matrix(1,0,0,1,476.6820987654321,536.4580052493441) translate(18.554999999999996 38.15)"/><use xlink:href="#b" transform="matrix(1,0,0,1,476.6820987654321,536.4580052493441) translate(13.055000000000001 59.75)"/><use xlink:href="#c" transform="matrix(1,0,0,1,476.6820987654321,536.4580052493441) translate(38.055 59.75)"/><use xlink:href="#d" transform="matrix(1,0,0,1,476.6820987654321,536.4580052493441) translate(70.955 59.75)"/><path d="M471.06 183.54c0-3.3 2.68-6 6-6h248c3.3 0 6 2.7 6 6v67.34c0 3.3-2.7 6-6 6h-248c-3.32 0-6-2.7-6-6z" stroke="#000" stroke-opacity="0" stroke-width="3" fill="#fff" fill-opacity="0"/><use xlink:href="#e" transform="matrix(1,0,0,1,476.0570987654321,182.54199475065633) translate(5.148148148148181 41.02083333333333)"/><use xlink:href="#f" transform="matrix(1,0,0,1,476.0570987654321,182.54199475065633) translate(114.70370370370371 41.02083333333333)"/><path d="M916.43 415.54c0 10.9-8.84 19.75-19.75 19.75-10.9 0-19.75-8.85-19.75-19.76 0-10.9 8.84-19.75 19.75-19.75 10.9 0 19.75 8.83 19.75 19.74z" stroke="#5e5e5e" stroke-width="3" fill="#fff"/><path d="M896.68 435.3v49.3c0 3.3 1.44 8.26 3.2 11.06l36.8 58.13m-40-63.2l-40 63.2m0-98.76h80" stroke="#5e5e5e" stroke-width="3" fill="none"/><path d="M856.68 401.8c0-3.32 2.7-6 6-6h68c3.32 0 6 2.68 6 6v168c0 3.3-2.68 6-6 6h-68c-3.3 0-6-2.7-6-6z" fill="none"/><use xlink:href="#g" transform="matrix(1,0,0,1,776.6820987654321,553.7913385826773) translate(51.63580246913581 17.77777777777778)"/><path d="M603.24 426c0 27.72-28.33 50.2-63.28 50.2s-63.28-22.48-63.28-50.2c0-27.73 28.33-50.2 63.28-50.2s63.28 22.47 63.28 50.2z" stroke="#5e5e5e" stroke-width="3" fill="#fff"/><use xlink:href="#a" transform="matrix(1,0,0,1,476.6820987654321,375.7913385826774) translate(22.554999999999996 35.410000000000004)"/><use xlink:href="#h" transform="matrix(1,0,0,1,476.6820987654321,375.7913385826774) translate(21.055 57.01)"/><use xlink:href="#i" transform="matrix(1,0,0,1,476.6820987654321,375.7913385826774) translate(52.005 57.01)"/><use xlink:href="#j" transform="matrix(1,0,0,1,476.6820987654321,375.7913385826774) translate(85.955 57.01)"/><use xlink:href="#k" transform="matrix(1,0,0,1,476.6820987654321,375.7913385826774) translate(32.53 78.61000000000001)"/><path d="M643.87 310.62c0 24.95-37.43 45.17-83.6 45.17-46.16 0-83.6-20.23-83.6-45.18 0-24.94 37.44-45.16 83.6-45.16 46.17 0 83.6 20.22 83.6 45.16z" stroke="#5e5e5e" stroke-width="3" fill="#fff"/><use xlink:href="#a" transform="matrix(1,0,0,1,476.6820987654321,265.45800524934435) translate(43.055 27.41)"/><use xlink:href="#l" transform="matrix(1,0,0,1,476.6820987654321,265.45800524934435) translate(41.029999999999994 49.01)"/><use xlink:href="#m" transform="matrix(1,0,0,1,476.6820987654321,265.45800524934435) translate(66.03 49.01)"/><use xlink:href="#n" transform="matrix(1,0,0,1,476.6820987654321,265.45800524934435) translate(52.07999999999999 70.61)"/><path d="M698.56 736.42c0 22.43-27.3 40.62-60.94 40.62-33.66 0-60.94-18.2-60.94-40.62 0-22.44 27.28-40.63 60.94-40.63 33.65 0 60.94 18.18 60.94 40.62z" stroke="#5e5e5e" stroke-width="3" fill="#fff"/><use xlink:href="#a" transform="matrix(1,0,0,1,576.6820987654321,695.7913385826776) translate(20.054999999999996 33.410000000000004)"/><use xlink:href="#h" transform="matrix(1,0,0,1,576.6820987654321,695.7913385826776) translate(20.579999999999995 55.01)"/><use xlink:href="#o" transform="matrix(1,0,0,1,576.6820987654321,695.7913385826776) translate(51.529999999999994 55.01)"/><path d="M894.18 474.6h-131.5c-3.3 0-6-2.7-6-6V316.6c0-3.3-2.68-6-6-6h-104.3M894.16 474.6h4.02" stroke="#5e5e5e" stroke-width="2" fill="none"/><path d="M646.4 311.62h-1.06l.03-.98v-.45l-.03-.58h1.06z" fill="#5e5e5e"/><path d="M701.06 736.42h49.62c3.32 0 6-2.7 6-6V481.14c0-3.32 2.7-6 6-6h131.5" stroke="#5e5e5e" stroke-width="2" fill="none"/><path d="M701.08 737.42h-1.06l.04-.98v-.4l-.04-.62h1.06z" fill="#5e5e5e"/><path d="M894.16 475.14h4.02M597.93 583.56h152.75c3.32 0 6-2.68 6-6v-96.42c0-3.32 2.7-6 6-6h131.5" stroke="#5e5e5e" stroke-width="2" fill="none"/><path d="M597.96 584.56h-1.07l.03-1-.02-1h1.06z" fill="#5e5e5e"/><path d="M894.16 475.14h4.02M605.75 426h144.93c3.32 0 6 2.68 6 6v37.14c0 3.3 2.7 6 6 6h131.5" stroke="#5e5e5e" stroke-width="2" fill="none"/><path d="M605.77 427h-1.06l.05-1-.04-1h1.07z" fill="#5e5e5e"/><path d="M894.16 475.14h4.02" stroke="#5e5e5e" stroke-width="2" fill="none"/><defs><path d="M30-248c87 1 191-15 191 75 0 78-77 80-158 76V0H30v-248zm33 125c57 0 124 11 124-50 0-59-68-47-124-48v98" id="p"/><path d="M114-163C36-179 61-72 57 0H25l-1-190h30c1 12-1 29 2 39 6-27 23-49 58-41v29" id="q"/><path d="M100-194c62-1 85 37 85 99 1 63-27 99-86 99S16-35 15-95c0-66 28-99 85-99zM99-20c44 1 53-31 53-75 0-43-8-75-51-75s-53 32-53 75 10 74 51 75" id="r"/><path d="M210-169c-67 3-38 105-44 169h-31v-121c0-29-5-50-35-48C34-165 62-65 56 0H25l-1-190h30c1 10-1 24 2 32 10-44 99-50 107 0 11-21 27-35 58-36 85-2 47 119 55 194h-31v-121c0-29-5-49-35-48" id="s"/><path d="M96-169c-40 0-48 33-48 73s9 75 48 75c24 0 41-14 43-38l32 2c-6 37-31 61-74 61-59 0-76-41-82-99-10-93 101-131 147-64 4 7 5 14 7 22l-32 3c-4-21-16-35-41-35zm3 187c19-1 33 8 33 26 0 31-30 33-64 32V58c18 2 39 4 41-13 1-15-18-13-34-13L87 0h19" id="t"/><path d="M141-36C126-15 110 5 73 4 37 3 15-17 15-53c-1-64 63-63 125-63 3-35-9-54-41-54-24 1-41 7-42 31l-33-3c5-37 33-52 76-52 45 0 72 20 72 64v82c-1 20 7 32 28 27v20c-31 9-61-2-59-35zM48-53c0 20 12 33 32 33 41-3 63-29 60-74-43 2-92-5-92 41zm117-205c-3 23-9 48-36 47-26-1-65-44-74 0H39c4-23 8-48 36-47s64 44 74 0h16" id="u"/><g id="a"><use transform="matrix(0.05,0,0,0.05,0,0)" xlink:href="#p"/><use transform="matrix(0.05,0,0,0.05,12,0)" xlink:href="#q"/><use transform="matrix(0.05,0,0,0.05,17.95,0)" xlink:href="#r"/><use transform="matrix(0.05,0,0,0.05,27.950000000000003,0)" xlink:href="#s"/><use transform="matrix(0.05,0,0,0.05,42.9,0)" xlink:href="#r"/><use transform="matrix(0.05,0,0,0.05,52.900000000000006,0)" xlink:href="#t"/><use transform="matrix(0.05,0,0,0.05,61.900000000000006,0)" xlink:href="#u"/><use transform="matrix(0.05,0,0,0.05,71.9,0)" xlink:href="#r"/></g><path d="M85-194c31 0 48 13 60 33l-1-100h32l1 261h-30c-2-10 0-23-3-31C134-8 116 4 85 4 32 4 16-35 15-94c0-66 23-100 70-100zm9 24c-40 0-46 34-46 75 0 40 6 74 45 74 42 0 51-32 51-76 0-42-9-74-50-73" id="v"/><path d="M141-36C126-15 110 5 73 4 37 3 15-17 15-53c-1-64 63-63 125-63 3-35-9-54-41-54-24 1-41 7-42 31l-33-3c5-37 33-52 76-52 45 0 72 20 72 64v82c-1 20 7 32 28 27v20c-31 9-61-2-59-35zM48-53c0 20 12 33 32 33 41-3 63-29 60-74-43 2-92-5-92 41" id="w"/><g id="b"><use transform="matrix(0.05,0,0,0.05,0,0)" xlink:href="#v"/><use transform="matrix(0.05,0,0,0.05,10,0)" xlink:href="#w"/></g><path d="M24 0v-261h32V0H24" id="x"/><path d="M24-231v-30h32v30H24zM-9 49c24 4 33-6 33-30v-209h32V24c2 40-23 58-65 49V49" id="y"/><g id="c"><use transform="matrix(0.05,0,0,0.05,0,0)" xlink:href="#x"/><use transform="matrix(0.05,0,0,0.05,3.95,0)" xlink:href="#r"/><use transform="matrix(0.05,0,0,0.05,13.949999999999998,0)" xlink:href="#y"/><use transform="matrix(0.05,0,0,0.05,17.9,0)" xlink:href="#w"/></g><path d="M59-47c-2 24 18 29 38 22v24C64 9 27 4 27-40v-127H5v-23h24l9-43h21v43h35v23H59v120" id="z"/><g id="d"><use transform="matrix(0.05,0,0,0.05,0,0)" xlink:href="#z"/><use transform="matrix(0.05,0,0,0.05,5,0)" xlink:href="#r"/><use transform="matrix(0.05,0,0,0.05,15,0)" xlink:href="#v"/><use transform="matrix(0.05,0,0,0.05,25,0)" xlink:href="#w"/></g><path fill="#333" d="M240-174c0 40-23 61-54 70L253 0h-59l-57-94H76V0H24v-248c93 4 217-23 216 74zM76-134c48-2 112 12 112-38 0-48-66-32-112-35v73" id="A"/><path fill="#333" d="M185-48c-13 30-37 53-82 52C43 2 14-33 14-96s30-98 90-98c62 0 83 45 84 108H66c0 31 8 55 39 56 18 0 30-7 34-22zm-45-69c5-46-57-63-70-21-2 6-4 13-4 21h74" id="B"/><path fill="#333" d="M133-34C117-15 103 5 69 4 32 3 11-16 11-54c-1-60 55-63 116-61 1-26-3-47-28-47-18 1-26 9-28 27l-52-2c7-38 36-58 82-57s74 22 75 68l1 82c-1 14 12 18 25 15v27c-30 8-71 5-69-32zm-48 3c29 0 43-24 42-57-32 0-66-3-65 30 0 17 8 27 23 27" id="C"/><path fill="#333" d="M25 0v-261h50V0H25" id="D"/><path fill="#333" d="M25-224v-37h50v37H25zM25 0v-190h50V0H25" id="E"/><path fill="#333" d="M12 0v-35l95-120H19v-35h142v35L67-36h103V0H12" id="F"/><path fill="#333" d="M135-150c-39-12-60 13-60 57V0H25l-1-190h47c2 13-1 29 3 40 6-28 27-53 61-41v41" id="G"/><g id="e"><use transform="matrix(0.07407407407407406,0,0,0.07407407407407406,0,0)" xlink:href="#A"/><use transform="matrix(0.07407407407407406,0,0,0.07407407407407406,19.18518518518518,0)" xlink:href="#B"/><use transform="matrix(0.07407407407407406,0,0,0.07407407407407406,33.99999999999999,0)" xlink:href="#C"/><use transform="matrix(0.07407407407407406,0,0,0.07407407407407406,48.8148148148148,0)" xlink:href="#D"/><use transform="matrix(0.07407407407407406,0,0,0.07407407407407406,56.22222222222221,0)" xlink:href="#E"/><use transform="matrix(0.07407407407407406,0,0,0.07407407407407406,63.62962962962961,0)" xlink:href="#F"/><use transform="matrix(0.07407407407407406,0,0,0.07407407407407406,76.96296296296295,0)" xlink:href="#C"/><use transform="matrix(0.07407407407407406,0,0,0.07407407407407406,91.77777777777776,0)" xlink:href="#G"/></g><path fill="#333" d="M24-248c93 1 206-16 204 79-1 75-69 88-152 82V0H24v-248zm52 121c47 0 100 7 100-41 0-47-54-39-100-39v80" id="H"/><path fill="#333" d="M110-194c64 0 96 36 96 99 0 64-35 99-97 99-61 0-95-36-95-99 0-62 34-99 96-99zm-1 164c35 0 45-28 45-65 0-40-10-65-43-65-34 0-45 26-45 65 0 36 10 65 43 65" id="I"/><path fill="#333" d="M220-157c-53 9-28 100-34 157h-49v-107c1-27-5-49-29-50C55-147 81-57 75 0H25l-1-190h47c2 12-1 28 3 38 10-53 101-56 108 0 13-22 24-43 59-42 82 1 51 116 57 194h-49v-107c-1-25-5-48-29-50" id="J"/><path fill="#333" d="M190-63c-7 42-38 67-86 67-59 0-84-38-90-98-12-110 154-137 174-36l-49 2c-2-19-15-32-35-32-30 0-35 28-38 64-6 74 65 87 74 30zm-84 77c20 1 33 9 33 27 0 32-36 36-71 33V53c15 1 39 4 39-11 0-13-16-12-31-12L87 0h25" id="K"/><path fill="#333" d="M132-34C116-15 102 5 68 4 31 3 10-16 10-54c-1-60 55-63 116-61 1-26-3-47-28-47-18 1-26 9-28 27l-52-2c7-38 36-58 82-57s74 22 75 68l1 82c-1 14 12 18 25 15v27c-30 8-71 5-69-32zm-48 3c29 0 43-24 42-57-32 0-66-3-65 30 0 17 8 27 23 27zm82-228c-2 27-9 52-40 51-27-1-66-46-73 0H29c0-29 9-51 39-51 28 0 66 44 74 0h24" id="L"/><g id="f"><use transform="matrix(0.07407407407407406,0,0,0.07407407407407406,0,0)" xlink:href="#H"/><use transform="matrix(0.07407407407407406,0,0,0.07407407407407406,17.777777777777775,0)" xlink:href="#G"/><use transform="matrix(0.07407407407407406,0,0,0.07407407407407406,28.148148148148145,0)" xlink:href="#I"/><use transform="matrix(0.07407407407407406,0,0,0.07407407407407406,44.37037037037037,0)" xlink:href="#J"/><use transform="matrix(0.07407407407407406,0,0,0.07407407407407406,68.07407407407406,0)" xlink:href="#I"/><use transform="matrix(0.07407407407407406,0,0,0.07407407407407406,84.29629629629628,0)" xlink:href="#K"/><use transform="matrix(0.07407407407407406,0,0,0.07407407407407406,99.11111111111109,0)" xlink:href="#L"/><use transform="matrix(0.07407407407407406,0,0,0.07407407407407406,113.9259259259259,0)" xlink:href="#I"/></g><path fill="#333" d="M205 0l-28-72H64L36 0H1l101-248h38L239 0h-34zm-38-99l-47-123c-12 45-31 82-46 123h93" id="M"/><path fill="#333" d="M85-194c31 0 48 13 60 33l-1-100h32l1 261h-30c-2-10 0-23-3-31C134-8 116 4 85 4 32 4 16-35 15-94c0-66 23-100 70-100zm9 24c-40 0-46 34-46 75 0 40 6 74 45 74 42 0 51-32 51-76 0-42-9-74-50-73" id="N"/><path fill="#333" d="M210-169c-67 3-38 105-44 169h-31v-121c0-29-5-50-35-48C34-165 62-65 56 0H25l-1-190h30c1 10-1 24 2 32 10-44 99-50 107 0 11-21 27-35 58-36 85-2 47 119 55 194h-31v-121c0-29-5-49-35-48" id="O"/><path fill="#333" d="M24-231v-30h32v30H24zM24 0v-190h32V0H24" id="P"/><path fill="#333" d="M117-194c89-4 53 116 60 194h-32v-121c0-31-8-49-39-48C34-167 62-67 57 0H25l-1-190h30c1 10-1 24 2 32 11-22 29-35 61-36" id="Q"/><path fill="#333" d="M135-143c-3-34-86-38-87 0 15 53 115 12 119 90S17 21 10-45l28-5c4 36 97 45 98 0-10-56-113-15-118-90-4-57 82-63 122-42 12 7 21 19 24 35" id="R"/><path fill="#333" d="M59-47c-2 24 18 29 38 22v24C64 9 27 4 27-40v-127H5v-23h24l9-43h21v43h35v23H59v120" id="S"/><path fill="#333" d="M114-163C36-179 61-72 57 0H25l-1-190h30c1 12-1 29 2 39 6-27 23-49 58-41v29" id="T"/><path fill="#333" d="M141-36C126-15 110 5 73 4 37 3 15-17 15-53c-1-64 63-63 125-63 3-35-9-54-41-54-24 1-41 7-42 31l-33-3c5-37 33-52 76-52 45 0 72 20 72 64v82c-1 20 7 32 28 27v20c-31 9-61-2-59-35zM48-53c0 20 12 33 32 33 41-3 63-29 60-74-43 2-92-5-92 41" id="U"/><path fill="#333" d="M100-194c62-1 85 37 85 99 1 63-27 99-86 99S16-35 15-95c0-66 28-99 85-99zM99-20c44 1 53-31 53-75 0-43-8-75-51-75s-53 32-53 75 10 74 51 75" id="V"/><g id="g"><use transform="matrix(0.06172839506172839,0,0,0.06172839506172839,0,0)" xlink:href="#M"/><use transform="matrix(0.06172839506172839,0,0,0.06172839506172839,14.814814814814813,0)" xlink:href="#N"/><use transform="matrix(0.06172839506172839,0,0,0.06172839506172839,27.160493827160494,0)" xlink:href="#O"/><use transform="matrix(0.06172839506172839,0,0,0.06172839506172839,45.61728395061728,0)" xlink:href="#P"/><use transform="matrix(0.06172839506172839,0,0,0.06172839506172839,50.49382716049382,0)" xlink:href="#Q"/><use transform="matrix(0.06172839506172839,0,0,0.06172839506172839,62.8395061728395,0)" xlink:href="#P"/><use transform="matrix(0.06172839506172839,0,0,0.06172839506172839,67.71604938271604,0)" xlink:href="#R"/><use transform="matrix(0.06172839506172839,0,0,0.06172839506172839,78.82716049382715,0)" xlink:href="#S"/><use transform="matrix(0.06172839506172839,0,0,0.06172839506172839,84.99999999999999,0)" xlink:href="#T"/><use transform="matrix(0.06172839506172839,0,0,0.06172839506172839,92.34567901234567,0)" xlink:href="#U"/><use transform="matrix(0.06172839506172839,0,0,0.06172839506172839,104.69135802469135,0)" xlink:href="#N"/><use transform="matrix(0.06172839506172839,0,0,0.06172839506172839,117.03703703703704,0)" xlink:href="#V"/><use transform="matrix(0.06172839506172839,0,0,0.06172839506172839,129.3827160493827,0)" xlink:href="#T"/></g><path d="M115-194c55 1 70 41 70 98S169 2 115 4C84 4 66-9 55-30l1 105H24l-1-265h31l2 30c10-21 28-34 59-34zm-8 174c40 0 45-34 45-75s-6-73-45-74c-42 0-51 32-51 76 0 43 10 73 51 73" id="W"/><g id="h"><use transform="matrix(0.05,0,0,0.05,0,0)" xlink:href="#W"/><use transform="matrix(0.05,0,0,0.05,10,0)" xlink:href="#r"/><use transform="matrix(0.05,0,0,0.05,20,0)" xlink:href="#q"/></g><path d="M100-194c63 0 86 42 84 106H49c0 40 14 67 53 68 26 1 43-12 49-29l28 8c-11 28-37 45-77 45C44 4 14-33 15-96c1-61 26-98 85-98zm52 81c6-60-76-77-97-28-3 7-6 17-6 28h103" id="X"/><g id="i"><use transform="matrix(0.05,0,0,0.05,0,0)" xlink:href="#x"/><use transform="matrix(0.05,0,0,0.05,3.95,0)" xlink:href="#r"/><use transform="matrix(0.05,0,0,0.05,13.949999999999998,0)" xlink:href="#z"/><use transform="matrix(0.05,0,0,0.05,18.95,0)" xlink:href="#X"/></g><g id="j"><use transform="matrix(0.05,0,0,0.05,0,0)" xlink:href="#v"/><use transform="matrix(0.05,0,0,0.05,10,0)" xlink:href="#X"/></g><path d="M84 4C-5 8 30-112 23-190h32v120c0 31 7 50 39 49 72-2 45-101 50-169h31l1 190h-30c-1-10 1-25-2-33-11 22-28 36-60 37" id="Y"/><g id="k"><use transform="matrix(0.05,0,0,0.05,0,0)" xlink:href="#W"/><use transform="matrix(0.05,0,0,0.05,10,0)" xlink:href="#q"/><use transform="matrix(0.05,0,0,0.05,15.949999999999998,0)" xlink:href="#r"/><use transform="matrix(0.05,0,0,0.05,25.950000000000003,0)" xlink:href="#v"/><use transform="matrix(0.05,0,0,0.05,35.95,0)" xlink:href="#Y"/><use transform="matrix(0.05,0,0,0.05,45.95,0)" xlink:href="#z"/><use transform="matrix(0.05,0,0,0.05,50.95,0)" xlink:href="#r"/></g><g id="l"><use transform="matrix(0.05,0,0,0.05,0,0)" xlink:href="#v"/><use transform="matrix(0.05,0,0,0.05,10,0)" xlink:href="#X"/></g><g id="m"><use transform="matrix(0.05,0,0,0.05,0,0)" xlink:href="#W"/><use transform="matrix(0.05,0,0,0.05,10,0)" xlink:href="#q"/><use transform="matrix(0.05,0,0,0.05,15.949999999999998,0)" xlink:href="#r"/><use transform="matrix(0.05,0,0,0.05,25.950000000000003,0)" xlink:href="#v"/><use transform="matrix(0.05,0,0,0.05,35.95,0)" xlink:href="#Y"/><use transform="matrix(0.05,0,0,0.05,45.95,0)" xlink:href="#z"/><use transform="matrix(0.05,0,0,0.05,50.95,0)" xlink:href="#r"/></g><path d="M135-143c-3-34-86-38-87 0 15 53 115 12 119 90S17 21 10-45l28-5c4 36 97 45 98 0-10-56-113-15-118-90-4-57 82-63 122-42 12 7 21 19 24 35" id="Z"/><path d="M24-231v-30h32v30H24zM24 0v-190h32V0H24" id="aa"/><path d="M117-194c89-4 53 116 60 194h-32v-121c0-31-8-49-39-48C34-167 62-67 57 0H25l-1-190h30c1 10-1 24 2 32 11-22 29-35 61-36" id="ab"/><path d="M177-190C167-65 218 103 67 71c-23-6-38-20-44-43l32-5c15 47 100 32 89-28v-30C133-14 115 1 83 1 29 1 15-40 15-95c0-56 16-97 71-98 29-1 48 16 59 35 1-10 0-23 2-32h30zM94-22c36 0 50-32 50-73 0-42-14-75-50-75-39 0-46 34-46 75s6 73 46 73" id="ac"/><g id="n"><use transform="matrix(0.05,0,0,0.05,0,0)" xlink:href="#Z"/><use transform="matrix(0.05,0,0,0.05,9,0)" xlink:href="#aa"/><use transform="matrix(0.05,0,0,0.05,12.949999999999998,0)" xlink:href="#ab"/><use transform="matrix(0.05,0,0,0.05,22.95,0)" xlink:href="#ac"/><use transform="matrix(0.05,0,0,0.05,32.95,0)" xlink:href="#Y"/><use transform="matrix(0.05,0,0,0.05,42.95,0)" xlink:href="#x"/><use transform="matrix(0.05,0,0,0.05,46.900000000000006,0)" xlink:href="#w"/><use transform="matrix(0.05,0,0,0.05,56.900000000000006,0)" xlink:href="#q"/></g><path d="M96-169c-40 0-48 33-48 73s9 75 48 75c24 0 41-14 43-38l32 2c-6 37-31 61-74 61-59 0-76-41-82-99-10-93 101-131 147-64 4 7 5 14 7 22l-32 3c-4-21-16-35-41-35" id="ad"/><g id="o"><use transform="matrix(0.05,0,0,0.05,0,0)" xlink:href="#s"/><use transform="matrix(0.05,0,0,0.05,14.950000000000001,0)" xlink:href="#w"/><use transform="matrix(0.05,0,0,0.05,24.950000000000003,0)" xlink:href="#q"/><use transform="matrix(0.05,0,0,0.05,30.900000000000002,0)" xlink:href="#ad"/><use transform="matrix(0.05,0,0,0.05,39.900000000000006,0)" xlink:href="#w"/></g></defs></g></svg>